G04 FreePCB version 1.359*
G04 D:\My_Own_Files\Coding\Z80_Project\V6Z80P Other Files\Daughterboard\FreePCB Project\double_layer\for rev1.1\CAM\top_copper.grb*
G04 top copper layer *
G04 Scale: 100 percent, Rotated: No, Reflected: No *
%FSLAX24Y24*%
%MOIN*%
%LN top copper *%
G04 Rounded Rectangle Macro, params: W/2, H/2, R *
%AMRNDREC*
21,1,$1+$1,$2+$2-$3-$3,0,0,0*
21,1,$1+$1-$3-$3,$2+$2,0,0,0*
1,1,$3+$3,$1-$3,$2-$3*
1,1,$3+$3,$3-$1,$2-$3*
1,1,$3+$3,$1-$3,$3-$2*
1,1,$3+$3,$3-$1,$3-$2*%
G04 Rectangular Thermal Macro, params: W/2, H/2, T/2 *
%AMRECTHERM*
$4=$3/2*
21,1,$1-$3,$2-$3,0-$1/2-$4,0-$2/2-$4,0*
21,1,$1-$3,$2-$3,0-$1/2-$4,$2/2+$4,0*
21,1,$1-$3,$2-$3,$1/2+$4,0-$2/2-$4,0*
21,1,$1-$3,$2-$3,$1/2+$4,$2/2+$4,0*%
%ADD10C,0.007874*%
%ADD11C,0.094488*%
%ADD12R,0.101496X0.101496*%
%ADD13C,0.101496*%
%ADD14R,0.118110X0.059055*%
%ADD15R,0.059055X0.118110*%
%ADD16C,0.121496*%
%ADD17R,0.078740X0.074803*%
%ADD18R,0.074803X0.078740*%
%ADD19C,0.051496*%
%ADD20C,0.062992*%
%ADD21R,0.070000X0.070000*%
%ADD22C,0.070000*%
%ADD23R,0.086614X0.027559*%
%ADD24R,0.027559X0.086614*%
%ADD25C,0.090000*%
%ADD26R,0.047244X0.043307*%
%ADD27R,0.043307X0.047244*%
%ADD28C,0.020000*%
%ADD29C,0.040000*%
G90*
G70D02*

G04 Step and Repeat for panelization *

G04 ----------------------- Draw board outline (positive)*
%LPD*%
G54D10*
G01X9448Y13976D02*
G01X9448Y0D01*
G04 end of side 1*
G01X0Y0D01*
G04 end of side 2*
G01X0Y13976D01*
G04 end of side 3*
G01X9448Y13976D01*

G04 ----------------------- Draw copper area (positive)*
G36*
G01X9251Y196D02*
G01X196Y196D01*
G01X196Y13779D01*
G01X9251Y13779D01*
G01X9251Y196D01*
G37*

G04 -------------------- Draw copper area cutout (negative)*
%LPC*%
G36*
G01X3838Y13444D02*
G01X708Y13444D01*
G01X708Y12322D01*
G01X1279Y12322D01*
G01X669Y11712D01*
G01X669Y5196D01*
G01X1122Y4744D01*
G01X1122Y4074D01*
G01X669Y4074D01*
G01X669Y944D01*
G01X4901Y944D01*
G01X4901Y4547D01*
G01X5295Y4547D01*
G01X5295Y1574D01*
G01X5728Y1141D01*
G01X6496Y1141D01*
G01X7165Y472D01*
G01X8562Y472D01*
G01X8937Y846D01*
G01X8937Y5944D01*
G01X8976Y5984D01*
G01X8976Y12125D01*
G01X8976Y12244D01*
G01X8976Y13248D01*
G01X8976Y13326D01*
G01X7362Y13326D01*
G01X7362Y12224D01*
G01X7362Y8996D01*
G01X7362Y8937D01*
G01X7007Y8562D01*
G01X7007Y7696D01*
G01X5669Y7696D01*
G01X5669Y5688D01*
G01X5669Y5255D01*
G01X4901Y5255D01*
G01X4901Y5688D01*
G01X1437Y5688D01*
G01X1299Y5826D01*
G01X1299Y6220D01*
G01X4783Y6220D01*
G01X4783Y7696D01*
G01X1181Y7696D01*
G01X1181Y11141D01*
G01X2381Y12342D01*
G01X2539Y12342D01*
G01X2539Y11437D01*
G01X2086Y11437D01*
G01X1889Y11240D01*
G01X1751Y11102D01*
G01X1751Y8110D01*
G01X5019Y8110D01*
G01X5019Y8779D01*
G01X6358Y8779D01*
G01X6574Y8996D01*
G01X6574Y9015D01*
G01X6574Y10295D01*
G01X6988Y10708D01*
G01X6988Y12460D01*
G01X6259Y13188D01*
G01X4094Y13188D01*
G01X3838Y13444D01*
G37*

G04 -------------------- Draw copper area clearances (negative)*
%LPC*%

G04 Draw clearances for pads*
G54D11*
G01X6181Y7125D03*
G01X6181Y6125D03*
G01X6181Y5125D03*
G01X6181Y4125D03*
G01X6181Y3125D03*
G01X6181Y2125D03*
G54D12*
G01X1299Y12874D03*
G54D13*
G01X2299Y12874D03*
G01X3299Y12874D03*
G54D14*
G01X5866Y12125D03*
G01X5866Y11625D03*
G01X5866Y11125D03*
G01X5866Y10625D03*
G01X5866Y10125D03*
G01X5866Y9625D03*
G01X5866Y9125D03*
G01X7992Y9125D03*
G01X7992Y9625D03*
G01X7992Y10125D03*
G01X7992Y10625D03*
G01X7992Y11125D03*
G01X7992Y11625D03*
G01X7992Y12125D03*
G54D15*
G01X4448Y7007D03*
G01X3948Y7007D03*
G01X3448Y7007D03*
G01X2948Y7007D03*
G01X2448Y7007D03*
G01X1948Y7007D03*
G01X1448Y7007D03*
G01X1448Y4881D03*
G01X1948Y4881D03*
G01X2448Y4881D03*
G01X2948Y4881D03*
G01X3448Y4881D03*
G01X3948Y4881D03*
G01X4448Y4881D03*
G54D11*
G01X7992Y6299D03*
G01X7992Y5299D03*
G01X7992Y4299D03*
G01X7992Y3299D03*
G01X7992Y2299D03*
G01X7992Y1299D03*
G54D16*
G01X3307Y2472D03*
G01X1307Y2472D03*
G01X3393Y10748D03*
G01X3393Y8748D03*
G54D17*
G01X4566Y9330D03*
G01X4566Y8661D03*
G54D18*
G01X7834Y12834D03*
G01X8503Y12834D03*
G54D17*
G01X2244Y10905D03*
G01X2244Y10236D03*
G54D18*
G01X3425Y3622D03*
G01X2755Y3622D03*
G54D17*
G01X4566Y10905D03*
G01X4566Y10236D03*
G01X2244Y9330D03*
G01X2244Y8661D03*
G54D18*
G01X3700Y11771D03*
G01X3031Y11771D03*
G54D17*
G01X4409Y1377D03*
G01X4409Y2047D03*
G54D18*
G01X1181Y3622D03*
G01X1850Y3622D03*
G54D17*
G01X4409Y2992D03*
G01X4409Y3661D03*
G54D18*
G01X8188Y7322D03*
G01X7519Y7322D03*
G01X7519Y8267D03*
G01X8188Y8267D03*
G01X1811Y1377D03*
G01X1141Y1377D03*
G01X2716Y1377D03*
G01X3385Y1377D03*

G04 Draw clearances for traces*
G54D19*
G01X4409Y3661D02*
G01X4448Y3799D01*
G01X4448Y3799D02*
G01X4448Y4881D01*
G01X7992Y6299D02*
G01X8739Y6299D01*
G01X8739Y6299D02*
G01X8739Y11910D01*
G01X8739Y11910D02*
G01X8523Y12125D01*
G01X8523Y12125D02*
G01X7992Y12125D01*
G01X7992Y6299D02*
G01X8641Y6300D01*
G01X8641Y6300D02*
G01X8641Y1063D01*
G01X8641Y1063D02*
G01X8310Y729D01*
G01X8310Y729D02*
G01X7322Y728D01*
G01X7322Y728D02*
G01X6594Y1456D01*
G01X6594Y1456D02*
G01X5807Y1456D01*
G01X5807Y1456D02*
G01X5590Y1673D01*
G01X5590Y1673D02*
G01X5590Y4881D01*
G01X5590Y4881D02*
G01X4448Y4881D01*
G01X6181Y7125D02*
G01X6633Y7125D01*
G01X6633Y7125D02*
G01X7480Y6279D01*
G01X7480Y6279D02*
G01X7854Y6279D01*
G01X7854Y6279D02*
G01X7992Y6299D01*
G01X6181Y7125D02*
G01X6653Y7125D01*
G01X6653Y7125D02*
G01X6850Y7322D01*
G01X6850Y7322D02*
G01X7519Y7322D01*
G01X7834Y12834D02*
G01X7834Y12185D01*
G01X7834Y12185D02*
G01X7992Y12125D01*
G01X5866Y11125D02*
G01X5866Y11625D01*
G01X4566Y9330D02*
G01X4566Y10236D01*
G01X4566Y10236D02*
G01X4881Y10236D01*
G01X4881Y10236D02*
G01X5098Y10452D01*
G01X5098Y10452D02*
G01X5098Y11437D01*
G01X5098Y11437D02*
G01X5295Y11633D01*
G01X5295Y11633D02*
G01X5590Y11633D01*
G01X5590Y11633D02*
G01X5866Y11625D01*
G01X8188Y7322D02*
G01X8188Y8267D01*
G01X7992Y2299D02*
G01X7464Y2299D01*
G01X7464Y2299D02*
G01X6614Y3149D01*
G01X6614Y3149D02*
G01X6181Y3149D01*
G01X6181Y3149D02*
G01X6181Y3125D01*
G01X7992Y1299D02*
G01X7421Y1299D01*
G01X7421Y1299D02*
G01X6574Y2145D01*
G01X6574Y2145D02*
G01X6279Y2145D01*
G01X6279Y2145D02*
G01X6181Y2125D01*
G01X1181Y3622D02*
G01X1181Y2716D01*
G01X1181Y2716D02*
G01X1307Y2472D01*
G01X1811Y1377D02*
G01X1811Y1988D01*
G01X1811Y1988D02*
G01X1437Y2362D01*
G01X1437Y2362D02*
G01X1307Y2472D01*
G01X2716Y1377D02*
G01X1811Y1377D01*
G01X3307Y2472D02*
G01X3425Y2755D01*
G01X3425Y2755D02*
G01X3425Y3622D01*
G01X4409Y2047D02*
G01X4409Y2381D01*
G01X4409Y2381D02*
G01X4291Y2500D01*
G01X4291Y2500D02*
G01X3602Y2500D01*
G01X3602Y2500D02*
G01X3307Y2472D01*
G01X3425Y3622D02*
G01X3405Y3858D01*
G01X3405Y3858D02*
G01X2948Y4314D01*
G01X2948Y4314D02*
G01X2948Y4881D01*
G01X2244Y10236D02*
G01X2244Y9330D01*
G01X2244Y9330D02*
G01X2814Y9330D01*
G01X2814Y9330D02*
G01X3326Y8818D01*
G01X3326Y8818D02*
G01X3393Y8748D01*
G01X4566Y8661D02*
G01X3818Y8661D01*
G01X3818Y8661D02*
G01X3740Y8740D01*
G01X3740Y8740D02*
G01X3393Y8748D01*
G01X3299Y12874D02*
G01X4566Y12874D01*
G01X4566Y12874D02*
G01X4703Y12873D01*
G01X4703Y12873D02*
G01X5433Y12873D01*
G01X5433Y12873D02*
G01X6122Y12874D01*
G01X6122Y12874D02*
G01X6673Y12324D01*
G01X6673Y12324D02*
G01X6672Y12044D01*
G01X6672Y12044D02*
G01X6673Y10944D01*
G01X6673Y10944D02*
G01X6377Y10649D01*
G01X6377Y10649D02*
G01X6220Y10649D01*
G01X6220Y10649D02*
G01X5866Y10625D01*
G01X1850Y3622D02*
G01X2755Y3622D01*
G01X1948Y4881D02*
G01X2448Y4881D01*
G01X2448Y4881D02*
G01X2460Y4842D01*
G01X2460Y4842D02*
G01X2460Y4212D01*
G01X2460Y4212D02*
G01X2755Y3917D01*
G01X2755Y3917D02*
G01X2755Y3622D01*
G01X7992Y4299D02*
G01X7531Y4299D01*
G01X7531Y4299D02*
G01X6712Y5118D01*
G01X6712Y5118D02*
G01X6181Y5118D01*
G01X6181Y5118D02*
G01X6181Y5125D01*
G01X7992Y3299D02*
G01X7452Y3299D01*
G01X7452Y3299D02*
G01X7440Y3287D01*
G01X7440Y3287D02*
G01X6614Y4114D01*
G01X6614Y4114D02*
G01X6200Y4114D01*
G01X6200Y4114D02*
G01X6181Y4125D01*
G01X3393Y10748D02*
G01X3661Y10905D01*
G01X3661Y10905D02*
G01X4566Y10905D01*
G01X4566Y10905D02*
G01X4566Y11476D01*
G01X4566Y11476D02*
G01X5216Y12125D01*
G01X5216Y12125D02*
G01X5866Y12125D01*
G01X3700Y11771D02*
G01X3720Y11751D01*
G01X3720Y11751D02*
G01X3720Y11299D01*
G01X3720Y11299D02*
G01X3393Y10972D01*
G01X3393Y10972D02*
G01X3393Y10748D01*
G01X1448Y4881D02*
G01X1456Y5157D01*
G01X1456Y5157D02*
G01X924Y5688D01*
G01X924Y5688D02*
G01X924Y11437D01*
G01X924Y11437D02*
G01X2106Y12618D01*
G01X2106Y12618D02*
G01X2299Y12874D01*

G04 Draw clearances for text*

G04 -------------- Draw Parts, Pads, Traces, Vias and Text (positive)*
%LPD*%
G04 Draw part dbc1*
G54D20*
G01X6181Y7125D03*
G01X6181Y6125D03*
G01X6181Y5125D03*
G01X6181Y4125D03*
G01X6181Y3125D03*
G01X6181Y2125D03*
G04 Draw part dbc2*
G54D21*
G01X1299Y12874D03*
G54D22*
G01X2299Y12874D03*
G01X3299Y12874D03*
G04 Draw part dbc3*
G54D23*
G01X5866Y12125D03*
G01X5866Y11625D03*
G01X5866Y11125D03*
G01X5866Y10625D03*
G01X5866Y10125D03*
G01X5866Y9625D03*
G01X5866Y9125D03*
G01X7992Y9125D03*
G01X7992Y9625D03*
G01X7992Y10125D03*
G01X7992Y10625D03*
G01X7992Y11125D03*
G01X7992Y11625D03*
G01X7992Y12125D03*
G04 Draw part dbc4*
G54D24*
G01X4448Y7007D03*
G01X3948Y7007D03*
G01X3448Y7007D03*
G01X2948Y7007D03*
G01X2448Y7007D03*
G01X1948Y7007D03*
G01X1448Y7007D03*
G01X1448Y4881D03*
G01X1948Y4881D03*
G01X2448Y4881D03*
G01X2948Y4881D03*
G01X3448Y4881D03*
G01X3948Y4881D03*
G01X4448Y4881D03*
G04 Draw part dbc5*
G54D20*
G01X7992Y6299D03*
G01X7992Y5299D03*
G01X7992Y4299D03*
G01X7992Y3299D03*
G01X7992Y2299D03*
G01X7992Y1299D03*
G04 Draw part dbc6*
G54D25*
G01X3307Y2472D03*
G01X1307Y2472D03*
G04 Draw part dbc7*
G01X3393Y10748D03*
G01X3393Y8748D03*
G04 Draw part dbc8*
G54D26*
G01X4566Y9330D03*
G01X4566Y8661D03*
G04 Draw part dbc9*
G54D27*
G01X7834Y12834D03*
G01X8503Y12834D03*
G04 Draw part dbc10*
G54D26*
G01X2244Y10905D03*
G01X2244Y10236D03*
G04 Draw part dbc11*
G54D27*
G01X3425Y3622D03*
G01X2755Y3622D03*
G04 Draw part dbc12*
G54D26*
G01X4566Y10905D03*
G01X4566Y10236D03*
G04 Draw part dbc13*
G01X2244Y9330D03*
G01X2244Y8661D03*
G04 Draw part dbc14*
G54D27*
G01X3700Y11771D03*
G01X3031Y11771D03*
G04 Draw part dbc15*
G54D26*
G01X4409Y1377D03*
G01X4409Y2047D03*
G04 Draw part dbc16*
G54D27*
G01X1181Y3622D03*
G01X1850Y3622D03*
G04 Draw part dbc17*
G54D26*
G01X4409Y2992D03*
G01X4409Y3661D03*
G04 Draw part powled44*
G54D27*
G01X8188Y7322D03*
G01X7519Y7322D03*
G04 Draw part powled45*
G01X7519Y8267D03*
G01X8188Y8267D03*
G04 Draw part cap77*
G01X1811Y1377D03*
G01X1141Y1377D03*
G04 Draw part cap78*
G01X2716Y1377D03*
G01X3385Y1377D03*

G04 Draw traces*
G54D28*
G01X4409Y3661D02*
G01X4448Y3799D01*
G01X4448Y3799D02*
G01X4448Y4881D01*
G01X7992Y6299D02*
G01X8739Y6299D01*
G01X8739Y6299D02*
G01X8739Y11910D01*
G01X8739Y11910D02*
G01X8523Y12125D01*
G01X8523Y12125D02*
G01X7992Y12125D01*
G01X7992Y6299D02*
G01X8641Y6300D01*
G01X8641Y6300D02*
G01X8641Y1063D01*
G01X8641Y1063D02*
G01X8310Y729D01*
G01X8310Y729D02*
G01X7322Y728D01*
G01X7322Y728D02*
G01X6594Y1456D01*
G01X6594Y1456D02*
G01X5807Y1456D01*
G01X5807Y1456D02*
G01X5590Y1673D01*
G01X5590Y1673D02*
G01X5590Y4881D01*
G01X5590Y4881D02*
G01X4448Y4881D01*
G01X6181Y7125D02*
G01X6633Y7125D01*
G01X6633Y7125D02*
G01X7480Y6279D01*
G01X7480Y6279D02*
G01X7854Y6279D01*
G01X7854Y6279D02*
G01X7992Y6299D01*
G01X6181Y7125D02*
G01X6653Y7125D01*
G01X6653Y7125D02*
G01X6850Y7322D01*
G01X6850Y7322D02*
G01X7519Y7322D01*
G01X7834Y12834D02*
G01X7834Y12185D01*
G01X7834Y12185D02*
G01X7992Y12125D01*
G01X5866Y11125D02*
G01X5866Y11625D01*
G01X4566Y9330D02*
G01X4566Y10236D01*
G01X4566Y10236D02*
G01X4881Y10236D01*
G01X4881Y10236D02*
G01X5098Y10452D01*
G01X5098Y10452D02*
G01X5098Y11437D01*
G01X5098Y11437D02*
G01X5295Y11633D01*
G01X5295Y11633D02*
G01X5590Y11633D01*
G01X5590Y11633D02*
G01X5866Y11625D01*
G01X8188Y7322D02*
G01X8188Y8267D01*
G01X7992Y2299D02*
G01X7464Y2299D01*
G01X7464Y2299D02*
G01X6614Y3149D01*
G01X6614Y3149D02*
G01X6181Y3149D01*
G01X6181Y3149D02*
G01X6181Y3125D01*
G01X7992Y1299D02*
G01X7421Y1299D01*
G01X7421Y1299D02*
G01X6574Y2145D01*
G01X6574Y2145D02*
G01X6279Y2145D01*
G01X6279Y2145D02*
G01X6181Y2125D01*
G01X1181Y3622D02*
G01X1181Y2716D01*
G01X1181Y2716D02*
G01X1307Y2472D01*
G01X1811Y1377D02*
G01X1811Y1988D01*
G01X1811Y1988D02*
G01X1437Y2362D01*
G01X1437Y2362D02*
G01X1307Y2472D01*
G01X2716Y1377D02*
G01X1811Y1377D01*
G01X3307Y2472D02*
G01X3425Y2755D01*
G01X3425Y2755D02*
G01X3425Y3622D01*
G01X4409Y2047D02*
G01X4409Y2381D01*
G01X4409Y2381D02*
G01X4291Y2500D01*
G01X4291Y2500D02*
G01X3602Y2500D01*
G01X3602Y2500D02*
G01X3307Y2472D01*
G01X3425Y3622D02*
G01X3405Y3858D01*
G01X3405Y3858D02*
G01X2948Y4314D01*
G01X2948Y4314D02*
G01X2948Y4881D01*
G01X1299Y12874D02*
G01X1299Y13562D01*
G54D29*
G01X6181Y6125D02*
G01X6141Y6122D01*
G01X6141Y6122D02*
G01X6633Y6122D01*
G01X6633Y6122D02*
G01X7456Y5299D01*
G01X7456Y5299D02*
G01X7992Y5299D01*
G54D28*
G01X7992Y11625D02*
G01X7165Y11614D01*
G01X7992Y10625D02*
G01X7165Y10629D01*
G01X7992Y9625D02*
G01X6988Y9625D01*
G01X5866Y10125D02*
G01X6988Y10118D01*
G01X5866Y9125D02*
G01X6838Y9125D01*
G01X5866Y9125D02*
G01X5866Y8464D01*
G01X1299Y12874D02*
G01X590Y12874D01*
G01X1141Y1377D02*
G01X1141Y590D01*
G01X3385Y1377D02*
G01X3385Y590D01*
G01X3385Y1377D02*
G01X4409Y1377D01*
G01X4409Y1377D02*
G01X4409Y551D01*
G01X4409Y2992D02*
G01X5118Y2992D01*
G01X3948Y4881D02*
G01X3948Y5877D01*
G01X1448Y7007D02*
G01X1437Y5964D01*
G01X1448Y7007D02*
G01X1437Y8070D01*
G01X4448Y7007D02*
G01X4448Y6023D01*
G01X3448Y7007D02*
G01X3448Y5988D01*
G01X2448Y7007D02*
G01X2448Y5976D01*
G54D29*
G01X6181Y6125D02*
G01X5350Y6125D01*
G54D28*
G01X7519Y8267D02*
G01X6614Y8267D01*
G01X2244Y10905D02*
G01X1614Y10905D01*
G01X2244Y8661D02*
G01X1574Y8661D01*
G01X3031Y11771D02*
G01X2303Y11771D01*
G01X8503Y12834D02*
G01X9094Y12834D01*
G01X2244Y10236D02*
G01X2244Y9330D01*
G01X2244Y9330D02*
G01X2814Y9330D01*
G01X2814Y9330D02*
G01X3326Y8818D01*
G01X3326Y8818D02*
G01X3393Y8748D01*
G01X4566Y8661D02*
G01X3818Y8661D01*
G01X3818Y8661D02*
G01X3740Y8740D01*
G01X3740Y8740D02*
G01X3393Y8748D01*
G01X3299Y12874D02*
G01X4566Y12874D01*
G01X4566Y12874D02*
G01X4703Y12873D01*
G01X4703Y12873D02*
G01X5433Y12873D01*
G01X5433Y12873D02*
G01X6122Y12874D01*
G01X6122Y12874D02*
G01X6673Y12324D01*
G01X6673Y12324D02*
G01X6672Y12044D01*
G01X6672Y12044D02*
G01X6673Y10944D01*
G01X6673Y10944D02*
G01X6377Y10649D01*
G01X6377Y10649D02*
G01X6220Y10649D01*
G01X6220Y10649D02*
G01X5866Y10625D01*
G01X1850Y3622D02*
G01X2755Y3622D01*
G01X1948Y4881D02*
G01X2448Y4881D01*
G01X2448Y4881D02*
G01X2460Y4842D01*
G01X2460Y4842D02*
G01X2460Y4212D01*
G01X2460Y4212D02*
G01X2755Y3917D01*
G01X2755Y3917D02*
G01X2755Y3622D01*
G01X7992Y4299D02*
G01X7531Y4299D01*
G01X7531Y4299D02*
G01X6712Y5118D01*
G01X6712Y5118D02*
G01X6181Y5118D01*
G01X6181Y5118D02*
G01X6181Y5125D01*
G01X7992Y3299D02*
G01X7452Y3299D01*
G01X7452Y3299D02*
G01X7440Y3287D01*
G01X7440Y3287D02*
G01X6614Y4114D01*
G01X6614Y4114D02*
G01X6200Y4114D01*
G01X6200Y4114D02*
G01X6181Y4125D01*
G01X3393Y10748D02*
G01X3661Y10905D01*
G01X3661Y10905D02*
G01X4566Y10905D01*
G01X4566Y10905D02*
G01X4566Y11476D01*
G01X4566Y11476D02*
G01X5216Y12125D01*
G01X5216Y12125D02*
G01X5866Y12125D01*
G01X3700Y11771D02*
G01X3720Y11751D01*
G01X3720Y11751D02*
G01X3720Y11299D01*
G01X3720Y11299D02*
G01X3393Y10972D01*
G01X3393Y10972D02*
G01X3393Y10748D01*
G01X1448Y4881D02*
G01X1456Y5157D01*
G01X1456Y5157D02*
G01X924Y5688D01*
G01X924Y5688D02*
G01X924Y11437D01*
G01X924Y11437D02*
G01X2106Y12618D01*
G01X2106Y12618D02*
G01X2299Y12874D01*

G04 Draw Text*
M00*
M02*
