G04 FreePCB version 1.359*
G04 D:\My_Own_Files\Coding\Z80_Project\V6Z80P Other Files\Daughterboard\FreePCB Project\double_layer\for rev1.1\CAM\top_silk.grb*
G04 top silk layer *
G04 Scale: 100 percent, Rotated: No, Reflected: No *
%FSLAX24Y24*%
%MOIN*%
%LN top silk *%
G04 Rounded Rectangle Macro, params: W/2, H/2, R *
%AMRNDREC*
21,1,$1+$1,$2+$2-$3-$3,0,0,0*
21,1,$1+$1-$3-$3,$2+$2,0,0,0*
1,1,$3+$3,$1-$3,$2-$3*
1,1,$3+$3,$3-$1,$2-$3*
1,1,$3+$3,$1-$3,$3-$2*
1,1,$3+$3,$3-$1,$3-$2*%
G04 Rectangular Thermal Macro, params: W/2, H/2, T/2 *
%AMRECTHERM*
$4=$3/2*
21,1,$1-$3,$2-$3,0-$1/2-$4,0-$2/2-$4,0*
21,1,$1-$3,$2-$3,0-$1/2-$4,$2/2+$4,0*
21,1,$1-$3,$2-$3,$1/2+$4,0-$2/2-$4,0*
21,1,$1-$3,$2-$3,$1/2+$4,$2/2+$4,0*%
%ADD10C,0.007874*%
%ADD11C,0.010000*%
G90*
G70D02*

G04 Step and Repeat for panelization *

G04 ----------------------- Draw board outline (positive)*
%LPD*%
G54D10*
G01X9448Y13976D02*
G01X9448Y0D01*
G04 end of side 1*
G01X0Y0D01*
G04 end of side 2*
G01X0Y13976D01*
G04 end of side 3*
G01X9448Y13976D01*

G04 -------------- Draw Parts, Pads, Traces, Vias and Text (positive)*
%LPD*%
G04 Draw part dbc1*
G04 draw part outline for part dbc1*
G54D11*
G01X6681Y7525D02*
G01X6681Y1625D01*
G01X6681Y1625D02*
G01X5681Y1625D01*
G01X5681Y1625D02*
G01X5681Y7525D01*
G01X5681Y7525D02*
G01X6681Y7525D01*
G04 Draw part dbc2*
G04 draw part outline for part dbc2*
G01X3799Y13374D02*
G01X799Y13374D01*
G01X799Y13374D02*
G01X799Y12374D01*
G01X799Y12374D02*
G01X3799Y12374D01*
G01X3799Y12374D02*
G01X3799Y13374D01*
G04 Draw part dbc3*
G04 draw part outline for part dbc3*
G54D10*
G01X6456Y12401D02*
G01X6456Y8889D01*
G01X6456Y8889D02*
G01X7362Y8889D01*
G01X7362Y8889D02*
G01X7362Y12401D01*
G01X7362Y12401D02*
G01X6456Y12401D01*
G01X6653Y12401D02*
G01X6653Y12204D01*
G01X6653Y12204D02*
G01X7165Y12204D01*
G01X7165Y12204D02*
G01X7165Y12401D01*
G01X7165Y12401D02*
G01X6653Y12401D01*
G04 Draw part dbc4*
G04 draw part outline for part dbc4*
G01X4724Y6417D02*
G01X1212Y6417D01*
G01X1212Y6417D02*
G01X1212Y5511D01*
G01X1212Y5511D02*
G01X4724Y5511D01*
G01X4724Y5511D02*
G01X4724Y6417D01*
G01X4724Y6220D02*
G01X4527Y6220D01*
G01X4527Y6220D02*
G01X4527Y5708D01*
G01X4527Y5708D02*
G01X4724Y5708D01*
G01X4724Y5708D02*
G01X4724Y6220D01*
G04 Draw part dbc5*
G04 draw part outline for part dbc5*
G54D11*
G01X8492Y6699D02*
G01X8492Y799D01*
G01X8492Y799D02*
G01X7492Y799D01*
G01X7492Y799D02*
G01X7492Y6699D01*
G01X7492Y6699D02*
G01X8492Y6699D01*
G04 Draw part dbc6*
G04 draw part outline for part dbc6*
G01X3807Y1972D02*
G01X807Y1972D01*
G01X807Y1972D02*
G01X807Y2972D01*
G01X807Y2972D02*
G01X3807Y2972D01*
G01X3807Y2972D02*
G01X3807Y1972D01*
G04 Draw part dbc7*
G04 draw part outline for part dbc7*
G01X3893Y11248D02*
G01X3893Y8248D01*
G01X3893Y8248D02*
G01X2893Y8248D01*
G01X2893Y8248D02*
G01X2893Y11248D01*
G01X2893Y11248D02*
G01X3893Y11248D01*
G04 Draw part dbc8*
G04 draw part outline for part dbc8*
G54D10*
G01X4921Y9665D02*
G01X4921Y8326D01*
G01X4921Y8326D02*
G01X4212Y8326D01*
G01X4212Y8326D02*
G01X4212Y9665D01*
G01X4212Y9665D02*
G01X4921Y9665D01*
G04 Draw part dbc9*
G04 draw part outline for part dbc9*
G01X7500Y13188D02*
G01X8838Y13188D01*
G01X8838Y13188D02*
G01X8838Y12480D01*
G01X8838Y12480D02*
G01X7500Y12480D01*
G01X7500Y12480D02*
G01X7500Y13188D01*
G04 Draw part dbc10*
G04 draw part outline for part dbc10*
G01X2598Y11240D02*
G01X2598Y9901D01*
G01X2598Y9901D02*
G01X1889Y9901D01*
G01X1889Y9901D02*
G01X1889Y11240D01*
G01X1889Y11240D02*
G01X2598Y11240D01*
G04 Draw part dbc11*
G04 draw part outline for part dbc11*
G01X3759Y3267D02*
G01X2421Y3267D01*
G01X2421Y3267D02*
G01X2421Y3976D01*
G01X2421Y3976D02*
G01X3759Y3976D01*
G01X3759Y3976D02*
G01X3759Y3267D01*
G04 Draw part dbc12*
G04 draw part outline for part dbc12*
G01X4921Y11240D02*
G01X4921Y9901D01*
G01X4921Y9901D02*
G01X4212Y9901D01*
G01X4212Y9901D02*
G01X4212Y11240D01*
G01X4212Y11240D02*
G01X4921Y11240D01*
G04 Draw part dbc13*
G04 draw part outline for part dbc13*
G01X2598Y9665D02*
G01X2598Y8326D01*
G01X2598Y8326D02*
G01X1889Y8326D01*
G01X1889Y8326D02*
G01X1889Y9665D01*
G01X1889Y9665D02*
G01X2598Y9665D01*
G04 Draw part dbc14*
G04 draw part outline for part dbc14*
G01X4035Y11417D02*
G01X2696Y11417D01*
G01X2696Y11417D02*
G01X2696Y12125D01*
G01X2696Y12125D02*
G01X4035Y12125D01*
G01X4035Y12125D02*
G01X4035Y11417D01*
G04 Draw part dbc15*
G04 draw part outline for part dbc15*
G01X4055Y1043D02*
G01X4055Y2381D01*
G01X4055Y2381D02*
G01X4763Y2381D01*
G01X4763Y2381D02*
G01X4763Y1043D01*
G01X4763Y1043D02*
G01X4055Y1043D01*
G04 Draw part dbc16*
G04 draw part outline for part dbc16*
G01X846Y3976D02*
G01X2185Y3976D01*
G01X2185Y3976D02*
G01X2185Y3267D01*
G01X2185Y3267D02*
G01X846Y3267D01*
G01X846Y3267D02*
G01X846Y3976D01*
G04 Draw part dbc17*
G04 draw part outline for part dbc17*
G01X4055Y2657D02*
G01X4055Y3996D01*
G01X4055Y3996D02*
G01X4763Y3996D01*
G01X4763Y3996D02*
G01X4763Y2657D01*
G01X4763Y2657D02*
G01X4055Y2657D01*
G04 Draw part powled44*
G04 draw part outline for part powled44*
G01X8523Y6968D02*
G01X7185Y6968D01*
G01X7185Y6968D02*
G01X7185Y7677D01*
G01X7185Y7677D02*
G01X8523Y7677D01*
G01X8523Y7677D02*
G01X8523Y6968D01*
G04 Draw part powled45*
G04 draw part outline for part powled45*
G01X7185Y8622D02*
G01X8523Y8622D01*
G01X8523Y8622D02*
G01X8523Y7913D01*
G01X8523Y7913D02*
G01X7185Y7913D01*
G01X7185Y7913D02*
G01X7185Y8622D01*
G04 Draw part cap77*
G04 draw part outline for part cap77*
G01X2145Y1023D02*
G01X807Y1023D01*
G01X807Y1023D02*
G01X807Y1732D01*
G01X807Y1732D02*
G01X2145Y1732D01*
G01X2145Y1732D02*
G01X2145Y1023D01*
G04 Draw part cap78*
G04 draw part outline for part cap78*
G01X2381Y1732D02*
G01X3720Y1732D01*
G01X3720Y1732D02*
G01X3720Y1023D01*
G01X3720Y1023D02*
G01X2381Y1023D01*
G01X2381Y1023D02*
G01X2381Y1732D01*

G04 Draw traces*

G04 Draw Text*
G01X726Y8070D02*
G01X1102Y8070D01*
G01X726Y8070D02*
G01X726Y8231D01*
G01X726Y8231D02*
G01X744Y8285D01*
G01X744Y8285D02*
G01X762Y8303D01*
G01X762Y8303D02*
G01X798Y8321D01*
G01X798Y8321D02*
G01X851Y8321D01*
G01X851Y8321D02*
G01X887Y8303D01*
G01X887Y8303D02*
G01X905Y8285D01*
G01X905Y8285D02*
G01X923Y8231D01*
G01X923Y8231D02*
G01X923Y8070D01*
G01X959Y8464D02*
G01X959Y8679D01*
G01X959Y8679D02*
G01X923Y8679D01*
G01X923Y8679D02*
G01X887Y8661D01*
G01X887Y8661D02*
G01X869Y8643D01*
G01X869Y8643D02*
G01X851Y8607D01*
G01X851Y8607D02*
G01X851Y8554D01*
G01X851Y8554D02*
G01X869Y8518D01*
G01X869Y8518D02*
G01X905Y8482D01*
G01X905Y8482D02*
G01X959Y8464D01*
G01X959Y8464D02*
G01X994Y8464D01*
G01X994Y8464D02*
G01X1048Y8482D01*
G01X1048Y8482D02*
G01X1084Y8518D01*
G01X1084Y8518D02*
G01X1102Y8554D01*
G01X1102Y8554D02*
G01X1102Y8607D01*
G01X1102Y8607D02*
G01X1084Y8643D01*
G01X1084Y8643D02*
G01X1048Y8679D01*
G01X851Y8822D02*
G01X1102Y8822D01*
G01X923Y8822D02*
G01X869Y8876D01*
G01X869Y8876D02*
G01X851Y8911D01*
G01X851Y8911D02*
G01X851Y8965D01*
G01X851Y8965D02*
G01X869Y9001D01*
G01X869Y9001D02*
G01X923Y9019D01*
G01X923Y9019D02*
G01X1102Y9019D01*
G01X726Y9377D02*
G01X1102Y9377D01*
G01X905Y9377D02*
G01X869Y9341D01*
G01X869Y9341D02*
G01X851Y9305D01*
G01X851Y9305D02*
G01X851Y9251D01*
G01X851Y9251D02*
G01X869Y9216D01*
G01X869Y9216D02*
G01X905Y9180D01*
G01X905Y9180D02*
G01X959Y9162D01*
G01X959Y9162D02*
G01X994Y9162D01*
G01X994Y9162D02*
G01X1048Y9180D01*
G01X1048Y9180D02*
G01X1084Y9216D01*
G01X1084Y9216D02*
G01X1102Y9251D01*
G01X1102Y9251D02*
G01X1102Y9305D01*
G01X1102Y9305D02*
G01X1084Y9341D01*
G01X1084Y9341D02*
G01X1048Y9377D01*
G01X851Y9520D02*
G01X1030Y9520D01*
G01X1030Y9520D02*
G01X1084Y9538D01*
G01X1084Y9538D02*
G01X1102Y9574D01*
G01X1102Y9574D02*
G01X1102Y9627D01*
G01X1102Y9627D02*
G01X1084Y9663D01*
G01X1084Y9663D02*
G01X1030Y9717D01*
G01X851Y9717D02*
G01X1102Y9717D01*
G01X726Y9860D02*
G01X1102Y9860D01*
G01X851Y10003D02*
G01X1030Y10003D01*
G01X1030Y10003D02*
G01X1084Y10021D01*
G01X1084Y10021D02*
G01X1102Y10057D01*
G01X1102Y10057D02*
G01X1102Y10110D01*
G01X1102Y10110D02*
G01X1084Y10146D01*
G01X1084Y10146D02*
G01X1030Y10200D01*
G01X851Y10200D02*
G01X1102Y10200D01*
G01X851Y10343D02*
G01X1102Y10343D01*
G01X923Y10343D02*
G01X869Y10397D01*
G01X869Y10397D02*
G01X851Y10433D01*
G01X851Y10433D02*
G01X851Y10486D01*
G01X851Y10486D02*
G01X869Y10522D01*
G01X869Y10522D02*
G01X923Y10540D01*
G01X923Y10540D02*
G01X1102Y10540D01*
G01X923Y10540D02*
G01X869Y10594D01*
G01X869Y10594D02*
G01X851Y10629D01*
G01X851Y10629D02*
G01X851Y10683D01*
G01X851Y10683D02*
G01X869Y10719D01*
G01X869Y10719D02*
G01X923Y10737D01*
G01X923Y10737D02*
G01X1102Y10737D01*
G01X798Y11166D02*
G01X780Y11202D01*
G01X780Y11202D02*
G01X726Y11256D01*
G01X726Y11256D02*
G01X1102Y11256D01*
G01X1066Y11417D02*
G01X1084Y11399D01*
G01X1084Y11399D02*
G01X1102Y11417D01*
G01X1102Y11417D02*
G01X1084Y11435D01*
G01X1084Y11435D02*
G01X1066Y11417D01*
G01X798Y11578D02*
G01X780Y11614D01*
G01X780Y11614D02*
G01X726Y11667D01*
G01X726Y11667D02*
G01X1102Y11667D01*
M00*
M02*
