G04 FreePCB version 1.359*
G04 D:\My_Own_Files\Coding\Z80_Project\V6Z80P Other Files\Daughterboard\FreePCB Project\double_layer\for rev1.1\CAM\top_silk.grb*
G04 top silk layer *
G04 Scale: 100 percent, Rotated: No, Reflected: No *
%FSLAX24Y24*%
%MOIN*%
%LN top silk *%
G04 Rounded Rectangle Macro, params: W/2, H/2, R *
%AMRNDREC*
21,1,$1+$1,$2+$2-$3-$3,0,0,0*
21,1,$1+$1-$3-$3,$2+$2,0,0,0*
1,1,$3+$3,$1-$3,$2-$3*
1,1,$3+$3,$3-$1,$2-$3*
1,1,$3+$3,$1-$3,$3-$2*
1,1,$3+$3,$3-$1,$3-$2*%
G04 Rectangular Thermal Macro, params: W/2, H/2, T/2 *
%AMRECTHERM*
$4=$3/2*
21,1,$1-$3,$2-$3,0-$1/2-$4,0-$2/2-$4,0*
21,1,$1-$3,$2-$3,0-$1/2-$4,$2/2+$4,0*
21,1,$1-$3,$2-$3,$1/2+$4,0-$2/2-$4,0*
21,1,$1-$3,$2-$3,$1/2+$4,$2/2+$4,0*%
%ADD10C,0.007874*%
%ADD11C,0.010000*%
G90*
G70D02*

G04 Step and Repeat for panelization *

G04 ----------------------- Draw board outline (positive)*
%LPD*%
G54D10*
G01X9251Y13976D02*
G01X9251Y0D01*
G04 end of side 1*
G01X0Y0D01*
G04 end of side 2*
G01X0Y13976D01*
G04 end of side 3*
G01X9251Y13976D01*

G04 -------------- Draw Parts, Pads, Traces, Vias and Text (positive)*
%LPD*%
G04 Draw part dbc1*
G04 draw part outline for part dbc1*
G54D11*
G01X6484Y7525D02*
G01X6484Y1625D01*
G01X6484Y1625D02*
G01X5484Y1625D01*
G01X5484Y1625D02*
G01X5484Y7525D01*
G01X5484Y7525D02*
G01X6484Y7525D01*
G04 Draw part dbc2*
G04 draw part outline for part dbc2*
G01X3602Y13374D02*
G01X602Y13374D01*
G01X602Y13374D02*
G01X602Y12374D01*
G01X602Y12374D02*
G01X3602Y12374D01*
G01X3602Y12374D02*
G01X3602Y13374D01*
G04 Draw part dbc3*
G04 draw part outline for part dbc3*
G54D10*
G01X6259Y12401D02*
G01X6259Y8889D01*
G01X6259Y8889D02*
G01X7165Y8889D01*
G01X7165Y8889D02*
G01X7165Y12401D01*
G01X7165Y12401D02*
G01X6259Y12401D01*
G01X6456Y12401D02*
G01X6456Y12204D01*
G01X6456Y12204D02*
G01X6968Y12204D01*
G01X6968Y12204D02*
G01X6968Y12401D01*
G01X6968Y12401D02*
G01X6456Y12401D01*
G04 Draw part dbc4*
G04 draw part outline for part dbc4*
G01X4527Y6417D02*
G01X1015Y6417D01*
G01X1015Y6417D02*
G01X1015Y5511D01*
G01X1015Y5511D02*
G01X4527Y5511D01*
G01X4527Y5511D02*
G01X4527Y6417D01*
G01X4527Y6220D02*
G01X4330Y6220D01*
G01X4330Y6220D02*
G01X4330Y5708D01*
G01X4330Y5708D02*
G01X4527Y5708D01*
G01X4527Y5708D02*
G01X4527Y6220D01*
G04 Draw part dbc5*
G04 draw part outline for part dbc5*
G54D11*
G01X8295Y6699D02*
G01X8295Y799D01*
G01X8295Y799D02*
G01X7295Y799D01*
G01X7295Y799D02*
G01X7295Y6699D01*
G01X7295Y6699D02*
G01X8295Y6699D01*
G04 Draw part dbc6*
G04 draw part outline for part dbc6*
G01X3610Y1972D02*
G01X610Y1972D01*
G01X610Y1972D02*
G01X610Y2972D01*
G01X610Y2972D02*
G01X3610Y2972D01*
G01X3610Y2972D02*
G01X3610Y1972D01*
G04 Draw part dbc7*
G04 draw part outline for part dbc7*
G01X3696Y11248D02*
G01X3696Y8248D01*
G01X3696Y8248D02*
G01X2696Y8248D01*
G01X2696Y8248D02*
G01X2696Y11248D01*
G01X2696Y11248D02*
G01X3696Y11248D01*
G04 Draw part dbc8*
G04 draw part outline for part dbc8*
G54D10*
G01X4724Y9665D02*
G01X4724Y8326D01*
G01X4724Y8326D02*
G01X4015Y8326D01*
G01X4015Y8326D02*
G01X4015Y9665D01*
G01X4015Y9665D02*
G01X4724Y9665D01*
G04 Draw part dbc9*
G04 draw part outline for part dbc9*
G01X7303Y13188D02*
G01X8641Y13188D01*
G01X8641Y13188D02*
G01X8641Y12480D01*
G01X8641Y12480D02*
G01X7303Y12480D01*
G01X7303Y12480D02*
G01X7303Y13188D01*
G04 Draw part dbc10*
G04 draw part outline for part dbc10*
G01X2401Y11240D02*
G01X2401Y9901D01*
G01X2401Y9901D02*
G01X1692Y9901D01*
G01X1692Y9901D02*
G01X1692Y11240D01*
G01X1692Y11240D02*
G01X2401Y11240D01*
G04 Draw part dbc11*
G04 draw part outline for part dbc11*
G01X3562Y3267D02*
G01X2224Y3267D01*
G01X2224Y3267D02*
G01X2224Y3976D01*
G01X2224Y3976D02*
G01X3562Y3976D01*
G01X3562Y3976D02*
G01X3562Y3267D01*
G04 Draw part dbc12*
G04 draw part outline for part dbc12*
G01X4724Y11240D02*
G01X4724Y9901D01*
G01X4724Y9901D02*
G01X4015Y9901D01*
G01X4015Y9901D02*
G01X4015Y11240D01*
G01X4015Y11240D02*
G01X4724Y11240D01*
G04 Draw part dbc13*
G04 draw part outline for part dbc13*
G01X2401Y9665D02*
G01X2401Y8326D01*
G01X2401Y8326D02*
G01X1692Y8326D01*
G01X1692Y8326D02*
G01X1692Y9665D01*
G01X1692Y9665D02*
G01X2401Y9665D01*
G04 Draw part dbc14*
G04 draw part outline for part dbc14*
G01X3838Y11417D02*
G01X2500Y11417D01*
G01X2500Y11417D02*
G01X2500Y12125D01*
G01X2500Y12125D02*
G01X3838Y12125D01*
G01X3838Y12125D02*
G01X3838Y11417D01*
G04 Draw part dbc15*
G04 draw part outline for part dbc15*
G01X3858Y1043D02*
G01X3858Y2381D01*
G01X3858Y2381D02*
G01X4566Y2381D01*
G01X4566Y2381D02*
G01X4566Y1043D01*
G01X4566Y1043D02*
G01X3858Y1043D01*
G04 Draw part dbc16*
G04 draw part outline for part dbc16*
G01X649Y3976D02*
G01X1988Y3976D01*
G01X1988Y3976D02*
G01X1988Y3267D01*
G01X1988Y3267D02*
G01X649Y3267D01*
G01X649Y3267D02*
G01X649Y3976D01*
G04 Draw part dbc17*
G04 draw part outline for part dbc17*
G01X3858Y2657D02*
G01X3858Y3996D01*
G01X3858Y3996D02*
G01X4566Y3996D01*
G01X4566Y3996D02*
G01X4566Y2657D01*
G01X4566Y2657D02*
G01X3858Y2657D01*
G04 Draw part powled44*
G04 draw part outline for part powled44*
G01X8326Y6968D02*
G01X6988Y6968D01*
G01X6988Y6968D02*
G01X6988Y7677D01*
G01X6988Y7677D02*
G01X8326Y7677D01*
G01X8326Y7677D02*
G01X8326Y6968D01*
G04 Draw part powled45*
G04 draw part outline for part powled45*
G01X6988Y8622D02*
G01X8326Y8622D01*
G01X8326Y8622D02*
G01X8326Y7913D01*
G01X8326Y7913D02*
G01X6988Y7913D01*
G01X6988Y7913D02*
G01X6988Y8622D01*
G04 Draw part cap77*
G04 draw part outline for part cap77*
G01X1948Y1023D02*
G01X610Y1023D01*
G01X610Y1023D02*
G01X610Y1732D01*
G01X610Y1732D02*
G01X1948Y1732D01*
G01X1948Y1732D02*
G01X1948Y1023D01*
G04 Draw part cap78*
G04 draw part outline for part cap78*
G01X2185Y1732D02*
G01X3523Y1732D01*
G01X3523Y1732D02*
G01X3523Y1023D01*
G01X3523Y1023D02*
G01X2185Y1023D01*
G01X2185Y1023D02*
G01X2185Y1732D01*

G04 Draw traces*

G04 Draw Text*
G01X529Y8070D02*
G01X905Y8070D01*
G01X529Y8070D02*
G01X529Y8231D01*
G01X529Y8231D02*
G01X547Y8285D01*
G01X547Y8285D02*
G01X565Y8303D01*
G01X565Y8303D02*
G01X601Y8321D01*
G01X601Y8321D02*
G01X654Y8321D01*
G01X654Y8321D02*
G01X690Y8303D01*
G01X690Y8303D02*
G01X708Y8285D01*
G01X708Y8285D02*
G01X726Y8231D01*
G01X726Y8231D02*
G01X726Y8070D01*
G01X762Y8464D02*
G01X762Y8679D01*
G01X762Y8679D02*
G01X726Y8679D01*
G01X726Y8679D02*
G01X690Y8661D01*
G01X690Y8661D02*
G01X672Y8643D01*
G01X672Y8643D02*
G01X654Y8607D01*
G01X654Y8607D02*
G01X654Y8554D01*
G01X654Y8554D02*
G01X672Y8518D01*
G01X672Y8518D02*
G01X708Y8482D01*
G01X708Y8482D02*
G01X762Y8464D01*
G01X762Y8464D02*
G01X798Y8464D01*
G01X798Y8464D02*
G01X851Y8482D01*
G01X851Y8482D02*
G01X887Y8518D01*
G01X887Y8518D02*
G01X905Y8554D01*
G01X905Y8554D02*
G01X905Y8607D01*
G01X905Y8607D02*
G01X887Y8643D01*
G01X887Y8643D02*
G01X851Y8679D01*
G01X654Y8822D02*
G01X905Y8822D01*
G01X726Y8822D02*
G01X672Y8876D01*
G01X672Y8876D02*
G01X654Y8911D01*
G01X654Y8911D02*
G01X654Y8965D01*
G01X654Y8965D02*
G01X672Y9001D01*
G01X672Y9001D02*
G01X726Y9019D01*
G01X726Y9019D02*
G01X905Y9019D01*
G01X529Y9377D02*
G01X905Y9377D01*
G01X708Y9377D02*
G01X672Y9341D01*
G01X672Y9341D02*
G01X654Y9305D01*
G01X654Y9305D02*
G01X654Y9251D01*
G01X654Y9251D02*
G01X672Y9216D01*
G01X672Y9216D02*
G01X708Y9180D01*
G01X708Y9180D02*
G01X762Y9162D01*
G01X762Y9162D02*
G01X798Y9162D01*
G01X798Y9162D02*
G01X851Y9180D01*
G01X851Y9180D02*
G01X887Y9216D01*
G01X887Y9216D02*
G01X905Y9251D01*
G01X905Y9251D02*
G01X905Y9305D01*
G01X905Y9305D02*
G01X887Y9341D01*
G01X887Y9341D02*
G01X851Y9377D01*
G01X654Y9520D02*
G01X833Y9520D01*
G01X833Y9520D02*
G01X887Y9538D01*
G01X887Y9538D02*
G01X905Y9574D01*
G01X905Y9574D02*
G01X905Y9627D01*
G01X905Y9627D02*
G01X887Y9663D01*
G01X887Y9663D02*
G01X833Y9717D01*
G01X654Y9717D02*
G01X905Y9717D01*
G01X529Y9860D02*
G01X905Y9860D01*
G01X654Y10003D02*
G01X833Y10003D01*
G01X833Y10003D02*
G01X887Y10021D01*
G01X887Y10021D02*
G01X905Y10057D01*
G01X905Y10057D02*
G01X905Y10110D01*
G01X905Y10110D02*
G01X887Y10146D01*
G01X887Y10146D02*
G01X833Y10200D01*
G01X654Y10200D02*
G01X905Y10200D01*
G01X654Y10343D02*
G01X905Y10343D01*
G01X726Y10343D02*
G01X672Y10397D01*
G01X672Y10397D02*
G01X654Y10433D01*
G01X654Y10433D02*
G01X654Y10486D01*
G01X654Y10486D02*
G01X672Y10522D01*
G01X672Y10522D02*
G01X726Y10540D01*
G01X726Y10540D02*
G01X905Y10540D01*
G01X726Y10540D02*
G01X672Y10594D01*
G01X672Y10594D02*
G01X654Y10629D01*
G01X654Y10629D02*
G01X654Y10683D01*
G01X654Y10683D02*
G01X672Y10719D01*
G01X672Y10719D02*
G01X726Y10737D01*
G01X726Y10737D02*
G01X905Y10737D01*
G01X601Y11166D02*
G01X583Y11202D01*
G01X583Y11202D02*
G01X529Y11256D01*
G01X529Y11256D02*
G01X905Y11256D01*
G01X869Y11417D02*
G01X887Y11399D01*
G01X887Y11399D02*
G01X905Y11417D01*
G01X905Y11417D02*
G01X887Y11435D01*
G01X887Y11435D02*
G01X869Y11417D01*
G01X601Y11578D02*
G01X583Y11614D01*
G01X583Y11614D02*
G01X529Y11667D01*
G01X529Y11667D02*
G01X905Y11667D01*
M00*
M02*
