;Holesize 1 =   27.0 PLATED MILS
;Holesize 2 =   23.0 PLATED MILS
;Holesize 3 =   78.0 PLATED MILS
;Holesize 4 =   31.0 PLATED MILS
;Holesize 5 =   98.0 PLATED MILS
;Holesize 6 =   35.0 PLATED MILS
;Holesize 7 =  118.0 PLATED MILS
;Holesize 8 =   51.0 PLATED MILS
;Holesize 9 =   66.0 PLATED MILS
;Holesize 10 =  114.0 PLATED MILS
;Holesize 11 =   94.0 PLATED MILS
;Holesize 12 =   90.0 PLATED MILS
;Holesize 13 =   28.0 PLATED MILS
;Holesize 14 =   40.0 PLATED MILS
;Holesize 15 =   16.0 PLATED MILS
M48
INCH,00.0000
T01C0.027
T02C0.023
T03C0.078
T04C0.031
T05C0.098
T06C0.035
T07C0.118
T08C0.051
T09C0.066
T10C0.114
T11C0.094
T12C0.090
T13C0.028
T14C0.040
T15C0.016
%
G05
G90
T01
X039960Y030413
X039960Y029413
X039960Y028413
X039960Y027413
X039960Y026413
X039960Y025413
X039960Y024413
X039960Y023413
X039960Y022413
X042960Y022413
X042960Y023413
X042960Y024413
X042960Y025413
X042960Y026413
X042960Y027413
X042960Y028413
X042960Y029413
X042960Y030413
X039488Y039566
X039488Y038566
X039488Y037566
X039488Y036566
X042488Y036566
X042488Y037566
X042488Y038566
X042488Y039566
X028838Y037244
X029838Y037244
X030838Y037244
X031838Y037244
X032838Y037244
X033838Y037244
X034838Y037244
X035838Y037244
X036838Y037244
X036838Y040244
X035838Y040244
X034838Y040244
X033838Y040244
X032838Y040244
X031838Y040244
X030838Y040244
X029838Y040244
X028838Y040244
X040393Y032133
X042393Y032133
T02
X040440Y010094
X040440Y007094
X043440Y007094
X043440Y010094
T03
X002244Y029311
X002244Y023996
X002244Y036200
X002244Y030885
X002244Y043011
X002244Y037696
T04
X003425Y027204
X003425Y026102
X003425Y025374
X003425Y027933
X003425Y034094
X003425Y032992
X003425Y032263
X003425Y034822
X040255Y043267
X039165Y043267
X038075Y043267
X036985Y043267
X035895Y043267
X039715Y044387
X038625Y044387
X037535Y044387
X036445Y044387
X027381Y043307
X026291Y043307
X025201Y043307
X024111Y043307
X023021Y043307
X026841Y044427
X025751Y044427
X024661Y044427
X023571Y044427
X010590Y044409
X011496Y044409
X012401Y044409
X013307Y044409
X014212Y044409
X010157Y043385
X011062Y043385
X011929Y043385
X012834Y043385
X013740Y043385
X010590Y042401
X011496Y042401
X012401Y042401
X013307Y042401
X014212Y042401
X003425Y039074
X003425Y041653
X004409Y040629
T05
X001948Y026653
X001948Y033543
X042913Y018503
X042913Y001181
X042913Y041338
X007086Y040590
X001181Y001181
X001948Y040354
T06
X004409Y027933
X004409Y025374
X004409Y034822
X004409Y032263
X025000Y020393
X025000Y021393
X042047Y020787
X043047Y020787
X012204Y021062
X012204Y020062
X012204Y019062
X012204Y018062
X012204Y017062
X012204Y016062
X008881Y001771
X009881Y001771
X010881Y001771
X008700Y004212
X007700Y004212
X008700Y005472
X007700Y005472
X016456Y038543
X015456Y038543
X014456Y038543
X013456Y038543
X012456Y038543
X016456Y039543
X015456Y039543
X014456Y039543
X013456Y039543
X012456Y039543
X042637Y004527
X043637Y004527
X044637Y004527
X008070Y012795
X009070Y012795
T07
X033169Y043779
X043011Y043779
X020295Y043818
X030137Y043818
X017283Y043385
X007519Y043385
T08
X005070Y044715
X001150Y044715
X004090Y044715
X002130Y044715
X003110Y046685
T09
X005070Y046685
X001150Y046685
X005787Y021732
X005787Y011811
T10
X005590Y003976
T11
X003031Y003976
T12
X004606Y002007
T13
X010866Y005389
X010866Y004409
X001775Y009685
X002755Y009685
X004374Y009724
X005354Y009724
X006373Y007362
X005393Y007362
X013149Y011137
X013149Y010157
X016535Y000831
X016535Y001811
X013464Y006972
X013464Y007952
T14
X007322Y026811
X008322Y026811
X009322Y026811
T15
X037992Y037952
X037992Y037401
X031141Y011299
X030472Y011299
X029763Y011299
X028110Y010885
X035452Y009822
X025531Y028405
X025905Y027086
X026003Y008720
X033562Y008720
X026889Y009055
X033877Y007834
X024921Y033976
X031496Y033976
X043464Y023937
X026377Y009803
X034704Y007992
X011535Y020590
X010905Y033110
X005925Y016732
X025885Y009409
X034704Y008700
X025393Y010177
X034940Y009488
X013622Y037047
X028838Y036358
X013385Y035433
X030000Y035452
X039468Y024901
X011988Y038051
X025413Y033543
X031850Y033562
X012244Y035413
X030452Y035787
X024015Y020748
X022381Y010098
X033681Y004507
X032322Y015019
X034311Y015019
X017795Y031870
X022244Y026791
X022007Y024665
X014389Y028208
X014389Y028720
X015748Y031102
X018503Y031102
X019980Y031102
X017185Y031889
X015177Y030216
X015177Y027460
X015196Y025688
X016338Y024685
X018996Y024685
X020570Y024665
X021161Y025393
X021161Y027460
X021141Y029625
X021161Y030925
X007814Y034744
X007677Y033070
X007677Y031299
X007677Y029724
X009311Y034133
X016988Y023759
X017657Y023759
X033228Y023877
X034488Y023877
X034173Y030039
X033444Y030708
X006574Y009271
X006968Y015255
X019212Y012362
X038582Y009901
X037224Y023700
X036653Y022440
X036712Y014468
X038425Y011515
X041496Y011338
X006968Y018248
X032755Y021732
X010925Y033779
X015590Y034645
X016240Y033051
X019133Y033011
X020866Y034645
X020000Y032992
X011496Y030413
X013208Y026889
X011279Y027381
X013208Y025708
X011456Y025098
X016318Y022913
X019035Y022933
X015314Y021062
X018346Y021023
X019862Y022933
X020728Y021122
X023169Y026082
X024960Y025275
X023267Y027421
X025157Y027480
X023267Y029625
X024921Y030570
X013267Y029527
X018622Y034783
X041830Y014055
X041003Y014055
X024389Y010295
X034744Y005275
X022874Y010078
X034744Y004547
X025807Y033188
X032283Y033188
X038385Y020492
X005118Y022204
X023385Y010059
X035275Y005275
X034350Y011909
X021141Y010118
X035433Y008543
X019389Y010866
X018622Y005866
X039429Y011377
X040433Y011358
X011496Y037755
X005079Y022834
X021870Y010118
X036062Y004901
X005374Y015393
X025866Y007460
X036535Y009507
X005314Y012539
X026377Y007834
X036515Y010078
X029488Y036141
X012814Y035984
X037047Y011122
X032480Y011122
X026889Y007086
X036594Y008779
X032125Y023937
X032125Y022696
X034350Y021062
X044232Y019704
X033464Y015059
X034291Y019212
X015708Y033031
X018503Y032992
X020669Y032992
X013976Y033110
X022165Y033011
X013267Y030216
X013208Y027440
X013208Y025059
X013208Y023326
X015649Y022913
X018307Y022933
X020570Y022933
X023326Y022893
X023169Y025393
X023208Y028129
X023248Y030314
X034429Y025688
X044291Y030964
X034488Y028484
X043818Y030984
X039173Y020177
X044212Y020177
M30
