G04 FreePCB version 1.355*
G04 E:\v6z80p_plus\top_silk.grb*
G04 top silk layer *
G04 Scale: 100 percent, Rotated: No, Reflected: No *
%FSLAX24Y24*%
%MOIN*%
%LN top silk *%
G04 Rounded Rectangle Macro, params: W/2, H/2, R *
%AMRNDREC*
21,1,$1+$1,$2+$2-$3-$3,0,0,0*
21,1,$1+$1-$3-$3,$2+$2,0,0,0*
1,1,$3+$3,$1-$3,$2-$3*
1,1,$3+$3,$3-$1,$2-$3*
1,1,$3+$3,$1-$3,$3-$2*
1,1,$3+$3,$3-$1,$3-$2*%
G04 Rectangular Thermal Macro, params: W/2, H/2, T/2 *
%AMRECTHERM*
$4=$3/2*
21,1,$1-$3,$2-$3,0-$1/2-$4,0-$2/2-$4,0*
21,1,$1-$3,$2-$3,0-$1/2-$4,$2/2+$4,0*
21,1,$1-$3,$2-$3,$1/2+$4,0-$2/2-$4,0*
21,1,$1-$3,$2-$3,$1/2+$4,$2/2+$4,0*%
%ADD10C,0.007874*%
%ADD11C,0.010000*%
G90*
G70D02*

G04 Step and Repeat for panelization *

G04 ----------------------- Draw board outline (positive)*
%LPD*%
G54D10*
G01X-196Y-393D02*
G01X45472Y-393D01*
G04 end of side 1*
G01X45472Y48031D01*
G04 end of side 2*
G01X-196Y48031D01*
G04 end of side 3*
G01X-196Y-393D01*

G04 -------------- Draw Parts, Pads, Traces, Vias and Text (positive)*
%LPD*%
G04 Draw part spartan_ii*
G04 draw part outline for part spartan_ii*
G54D10*
G01X13031Y22263D02*
G01X23858Y22263D01*
G01X23858Y22263D02*
G01X23858Y33562D01*
G01X23858Y33562D02*
G01X12559Y33562D01*
G01X12559Y33562D02*
G01X12559Y22736D01*
G01X12559Y22736D02*
G01X13031Y22263D01*
G04 draw reference designator for part spartan_ii*
G01X16369Y27854D02*
G01X16391Y27809D01*
G01X16300Y27877D02*
G01X16369Y27854D01*
G01X16232Y27877D02*
G01X16300Y27877D01*
G01X16232Y27877D02*
G01X16164Y27854D01*
G01X16164Y27854D02*
G01X16141Y27809D01*
G01X16141Y27809D02*
G01X16164Y27763D01*
G01X16164Y27763D02*
G01X16209Y27740D01*
G01X16209Y27740D02*
G01X16323Y27718D01*
G01X16323Y27718D02*
G01X16369Y27695D01*
G01X16369Y27695D02*
G01X16391Y27649D01*
G01X16391Y27649D02*
G01X16391Y27627D01*
G01X16391Y27627D02*
G01X16369Y27581D01*
G01X16369Y27581D02*
G01X16300Y27559D01*
G01X16232Y27559D02*
G01X16300Y27559D01*
G01X16164Y27581D02*
G01X16232Y27559D01*
G01X16141Y27627D02*
G01X16164Y27581D01*
G01X16573Y27877D02*
G01X16573Y27399D01*
G01X16619Y27854D02*
G01X16573Y27809D01*
G01X16664Y27877D02*
G01X16619Y27854D01*
G01X16732Y27877D02*
G01X16664Y27877D01*
G01X16732Y27877D02*
G01X16778Y27854D01*
G01X16778Y27854D02*
G01X16823Y27809D01*
G01X16823Y27809D02*
G01X16846Y27740D01*
G01X16846Y27740D02*
G01X16846Y27695D01*
G01X16846Y27695D02*
G01X16823Y27627D01*
G01X16823Y27627D02*
G01X16778Y27581D01*
G01X16778Y27581D02*
G01X16732Y27559D01*
G01X16664Y27559D02*
G01X16732Y27559D01*
G01X16619Y27581D02*
G01X16664Y27559D01*
G01X16573Y27627D02*
G01X16619Y27581D01*
G01X17300Y27877D02*
G01X17300Y27559D01*
G01X17255Y27854D02*
G01X17300Y27809D01*
G01X17209Y27877D02*
G01X17255Y27854D01*
G01X17141Y27877D02*
G01X17209Y27877D01*
G01X17141Y27877D02*
G01X17096Y27854D01*
G01X17096Y27854D02*
G01X17050Y27809D01*
G01X17050Y27809D02*
G01X17028Y27740D01*
G01X17028Y27740D02*
G01X17028Y27695D01*
G01X17028Y27695D02*
G01X17050Y27627D01*
G01X17050Y27627D02*
G01X17096Y27581D01*
G01X17096Y27581D02*
G01X17141Y27559D01*
G01X17209Y27559D02*
G01X17141Y27559D01*
G01X17255Y27581D02*
G01X17209Y27559D01*
G01X17300Y27627D02*
G01X17255Y27581D01*
G01X17482Y27877D02*
G01X17482Y27559D01*
G01X17505Y27809D02*
G01X17482Y27740D01*
G01X17550Y27854D02*
G01X17505Y27809D01*
G01X17596Y27877D02*
G01X17550Y27854D01*
G01X17664Y27877D02*
G01X17596Y27877D01*
G01X17914Y28036D02*
G01X17914Y27649D01*
G01X17914Y27649D02*
G01X17937Y27581D01*
G01X17937Y27581D02*
G01X17982Y27559D01*
G01X18028Y27559D02*
G01X17982Y27559D01*
G01X18005Y27877D02*
G01X17846Y27877D01*
G01X18482Y27877D02*
G01X18482Y27559D01*
G01X18437Y27854D02*
G01X18482Y27809D01*
G01X18391Y27877D02*
G01X18437Y27854D01*
G01X18323Y27877D02*
G01X18391Y27877D01*
G01X18323Y27877D02*
G01X18278Y27854D01*
G01X18278Y27854D02*
G01X18232Y27809D01*
G01X18232Y27809D02*
G01X18209Y27740D01*
G01X18209Y27740D02*
G01X18209Y27695D01*
G01X18209Y27695D02*
G01X18232Y27627D01*
G01X18232Y27627D02*
G01X18278Y27581D01*
G01X18278Y27581D02*
G01X18323Y27559D01*
G01X18391Y27559D02*
G01X18323Y27559D01*
G01X18437Y27581D02*
G01X18391Y27559D01*
G01X18482Y27627D02*
G01X18437Y27581D01*
G01X18664Y27877D02*
G01X18664Y27559D01*
G01X18732Y27854D02*
G01X18664Y27786D01*
G01X18778Y27877D02*
G01X18732Y27854D01*
G01X18846Y27877D02*
G01X18778Y27877D01*
G01X18846Y27877D02*
G01X18891Y27854D01*
G01X18891Y27854D02*
G01X18914Y27786D01*
G01X18914Y27786D02*
G01X18914Y27559D01*
G01X19505Y27559D02*
G01X19096Y27559D01*
G01X19687Y28036D02*
G01X19709Y28013D01*
G01X19732Y28036D02*
G01X19709Y28013D01*
G01X19709Y28059D02*
G01X19732Y28036D01*
G01X19709Y28059D02*
G01X19687Y28036D01*
G01X19709Y27877D02*
G01X19709Y27559D01*
G01X19914Y28036D02*
G01X19937Y28013D01*
G01X19959Y28036D02*
G01X19937Y28013D01*
G01X19937Y28059D02*
G01X19959Y28036D01*
G01X19937Y28059D02*
G01X19914Y28036D01*
G01X19937Y27877D02*
G01X19937Y27559D01*
G04 Draw part z80*
G04 draw part outline for part z80*
G01X37086Y6811D02*
G01X37086Y10590D01*
G01X37086Y10590D02*
G01X32834Y10590D01*
G01X32834Y10590D02*
G01X32834Y6338D01*
G01X32834Y6338D02*
G01X36614Y6338D01*
G01X36614Y6338D02*
G01X37086Y6811D01*
G04 draw reference designator for part z80*
G01X33658Y8163D02*
G01X33976Y7913D01*
G01X33658Y8163D02*
G01X33658Y7913D01*
G01X33976Y8163D02*
G01X33976Y7913D01*
G01X33499Y8458D02*
G01X33521Y8390D01*
G01X33521Y8390D02*
G01X33567Y8367D01*
G01X33567Y8367D02*
G01X33612Y8367D01*
G01X33612Y8367D02*
G01X33658Y8390D01*
G01X33658Y8390D02*
G01X33680Y8436D01*
G01X33680Y8436D02*
G01X33703Y8527D01*
G01X33703Y8527D02*
G01X33726Y8595D01*
G01X33726Y8595D02*
G01X33771Y8640D01*
G01X33771Y8640D02*
G01X33817Y8663D01*
G01X33817Y8663D02*
G01X33885Y8663D01*
G01X33885Y8663D02*
G01X33930Y8640D01*
G01X33930Y8640D02*
G01X33953Y8617D01*
G01X33953Y8617D02*
G01X33976Y8549D01*
G01X33976Y8458D02*
G01X33976Y8549D01*
G01X33953Y8390D02*
G01X33976Y8458D01*
G01X33930Y8367D02*
G01X33953Y8390D01*
G01X33885Y8345D02*
G01X33930Y8367D01*
G01X33817Y8345D02*
G01X33885Y8345D01*
G01X33771Y8367D02*
G01X33817Y8345D01*
G01X33726Y8413D02*
G01X33771Y8367D01*
G01X33703Y8481D02*
G01X33726Y8413D01*
G01X33680Y8572D02*
G01X33703Y8481D01*
G01X33658Y8617D02*
G01X33680Y8572D01*
G01X33612Y8640D02*
G01X33658Y8617D01*
G01X33567Y8640D02*
G01X33612Y8640D01*
G01X33521Y8617D02*
G01X33567Y8640D01*
G01X33499Y8549D02*
G01X33521Y8617D01*
G01X33499Y8458D02*
G01X33499Y8549D01*
G01X33499Y8981D02*
G01X33521Y8913D01*
G01X33521Y8913D02*
G01X33590Y8867D01*
G01X33590Y8867D02*
G01X33703Y8845D01*
G01X33703Y8845D02*
G01X33771Y8845D01*
G01X33771Y8845D02*
G01X33885Y8867D01*
G01X33885Y8867D02*
G01X33953Y8913D01*
G01X33953Y8913D02*
G01X33976Y8981D01*
G01X33976Y9027D02*
G01X33976Y8981D01*
G01X33953Y9095D02*
G01X33976Y9027D01*
G01X33885Y9140D02*
G01X33953Y9095D01*
G01X33771Y9163D02*
G01X33885Y9140D01*
G01X33703Y9163D02*
G01X33771Y9163D01*
G01X33590Y9140D02*
G01X33703Y9163D01*
G01X33521Y9095D02*
G01X33590Y9140D01*
G01X33499Y9027D02*
G01X33521Y9095D01*
G01X33499Y8981D02*
G01X33499Y9027D01*
G04 Draw part spr_ram*
G04 draw part outline for part spr_ram*
G01X29914Y16148D02*
G01X29914Y19848D01*
G01X29914Y19848D02*
G01X38014Y19848D01*
G01X38014Y19848D02*
G01X38014Y16148D01*
G01X38014Y16148D02*
G01X29914Y16148D01*
G01X29915Y17755D02*
G01X29915Y18188D01*
G01X29915Y18188D02*
G01X30171Y18188D01*
G01X30171Y18188D02*
G01X30171Y17755D01*
G01X30171Y17755D02*
G01X29915Y17755D01*
G04 Draw part cfg_pic*
G04 draw part outline for part cfg_pic*
G01X40460Y30913D02*
G01X40460Y21913D01*
G01X40460Y21913D02*
G01X42460Y21913D01*
G01X42460Y21913D02*
G01X42460Y30913D01*
G01X42460Y30913D02*
G01X40460Y30913D01*
G01X40960Y30913D02*
G01X40960Y30413D01*
G01X40960Y30413D02*
G01X41960Y30413D01*
G01X41960Y30413D02*
G01X41960Y30913D01*
G01X41960Y30913D02*
G01X40960Y30913D01*
G04 Draw part spi_eeprom*
G04 draw part outline for part spi_eeprom*
G01X39988Y40066D02*
G01X39988Y36066D01*
G01X39988Y36066D02*
G01X41988Y36066D01*
G01X41988Y36066D02*
G01X41988Y40066D01*
G01X41988Y40066D02*
G01X39988Y40066D01*
G01X40488Y40066D02*
G01X40488Y39566D01*
G01X40488Y39566D02*
G01X41488Y39566D01*
G01X41488Y39566D02*
G01X41488Y40066D01*
G01X41488Y40066D02*
G01X40488Y40066D01*
G04 Draw part osc*
G04 draw part outline for part osc*
G54D11*
G01X39370Y11181D02*
G01X39370Y6220D01*
G01X39370Y6220D02*
G01X39566Y6023D01*
G01X39566Y6023D02*
G01X44291Y6023D01*
G01X44291Y6023D02*
G01X44527Y6220D01*
G01X44527Y6220D02*
G01X44527Y10826D01*
G01X44527Y10826D02*
G01X44173Y11181D01*
G01X44173Y11181D02*
G01X39370Y11181D01*
G04 draw reference designator for part osc*
G54D10*
G01X41570Y8704D02*
G01X41524Y8681D01*
G01X41524Y8681D02*
G01X41479Y8635D01*
G01X41479Y8635D02*
G01X41456Y8567D01*
G01X41456Y8567D02*
G01X41456Y8522D01*
G01X41456Y8522D02*
G01X41479Y8454D01*
G01X41479Y8454D02*
G01X41524Y8408D01*
G01X41524Y8408D02*
G01X41570Y8385D01*
G01X41638Y8385D02*
G01X41570Y8385D01*
G01X41683Y8408D02*
G01X41638Y8385D01*
G01X41729Y8454D02*
G01X41683Y8408D01*
G01X41752Y8522D02*
G01X41729Y8454D01*
G01X41752Y8567D02*
G01X41752Y8522D01*
G01X41729Y8635D02*
G01X41752Y8567D01*
G01X41683Y8681D02*
G01X41729Y8635D01*
G01X41638Y8704D02*
G01X41683Y8681D01*
G01X41570Y8704D02*
G01X41638Y8704D01*
G01X42161Y8681D02*
G01X42183Y8635D01*
G01X42093Y8704D02*
G01X42161Y8681D01*
G01X42024Y8704D02*
G01X42093Y8704D01*
G01X42024Y8704D02*
G01X41956Y8681D01*
G01X41956Y8681D02*
G01X41933Y8635D01*
G01X41933Y8635D02*
G01X41956Y8590D01*
G01X41956Y8590D02*
G01X42002Y8567D01*
G01X42002Y8567D02*
G01X42115Y8544D01*
G01X42115Y8544D02*
G01X42161Y8522D01*
G01X42161Y8522D02*
G01X42183Y8476D01*
G01X42183Y8476D02*
G01X42183Y8454D01*
G01X42183Y8454D02*
G01X42161Y8408D01*
G01X42161Y8408D02*
G01X42093Y8385D01*
G01X42024Y8385D02*
G01X42093Y8385D01*
G01X41956Y8408D02*
G01X42024Y8385D01*
G01X41933Y8454D02*
G01X41956Y8408D01*
G01X42593Y8681D02*
G01X42638Y8635D01*
G01X42547Y8704D02*
G01X42593Y8681D01*
G01X42479Y8704D02*
G01X42547Y8704D01*
G01X42479Y8704D02*
G01X42433Y8681D01*
G01X42433Y8681D02*
G01X42388Y8635D01*
G01X42388Y8635D02*
G01X42365Y8567D01*
G01X42365Y8567D02*
G01X42365Y8522D01*
G01X42365Y8522D02*
G01X42388Y8454D01*
G01X42388Y8454D02*
G01X42433Y8408D01*
G01X42433Y8408D02*
G01X42479Y8385D01*
G01X42547Y8385D02*
G01X42479Y8385D01*
G01X42593Y8408D02*
G01X42547Y8385D01*
G01X42638Y8454D02*
G01X42593Y8408D01*
G04 Draw part hct08*
G04 draw part outline for part hct08*
G01X40708Y13858D02*
G01X37196Y13858D01*
G01X37196Y13858D02*
G01X37196Y12952D01*
G01X37196Y12952D02*
G01X40708Y12952D01*
G01X40708Y12952D02*
G01X40708Y13858D01*
G01X40708Y13661D02*
G01X40511Y13661D01*
G01X40511Y13661D02*
G01X40511Y13149D01*
G01X40511Y13149D02*
G01X40708Y13149D01*
G01X40708Y13149D02*
G01X40708Y13661D01*
G04 Draw part res3*
G04 draw part outline for part res3*
G01X41791Y26122D02*
G01X41791Y24783D01*
G01X41791Y24783D02*
G01X41082Y24783D01*
G01X41082Y24783D02*
G01X41082Y26122D01*
G01X41082Y26122D02*
G01X41791Y26122D01*
G04 Draw part res4*
G04 draw part outline for part res4*
G01X41791Y24547D02*
G01X41791Y23208D01*
G01X41791Y23208D02*
G01X41082Y23208D01*
G01X41082Y23208D02*
G01X41082Y24547D01*
G01X41082Y24547D02*
G01X41791Y24547D01*
G04 Draw part res5*
G04 draw part outline for part res5*
G01X40708Y37578D02*
G01X40708Y38917D01*
G01X40708Y38917D02*
G01X41417Y38917D01*
G01X41417Y38917D02*
G01X41417Y37578D01*
G01X41417Y37578D02*
G01X40708Y37578D01*
G04 Draw part kbcon*
G04 draw part outline for part kbcon*
G54D11*
G01X78Y29409D02*
G01X78Y23897D01*
G01X78Y23897D02*
G01X5196Y23897D01*
G01X5196Y23897D02*
G01X5196Y29409D01*
G01X5196Y29409D02*
G01X78Y29409D01*
G04 Draw part mousecon*
G04 draw part outline for part mousecon*
G01X78Y36299D02*
G01X78Y30787D01*
G01X78Y30787D02*
G01X5196Y30787D01*
G01X5196Y30787D02*
G01X5196Y36299D01*
G01X5196Y36299D02*
G01X78Y36299D01*
G04 Draw part joy1con*
G04 draw part outline for part joy1con*
G01X44389Y42677D02*
G01X31988Y42677D01*
G01X31988Y42677D02*
G01X31988Y47598D01*
G01X31988Y47598D02*
G01X44429Y47598D01*
G01X44429Y47598D02*
G01X44429Y42677D01*
G01X44429Y42677D02*
G01X44389Y42677D01*
G04 Draw part joy2con*
G04 draw part outline for part joy2con*
G01X31515Y42716D02*
G01X19114Y42716D01*
G01X19114Y42716D02*
G01X19114Y47637D01*
G01X19114Y47637D02*
G01X31555Y47637D01*
G01X31555Y47637D02*
G01X31555Y42716D01*
G01X31555Y42716D02*
G01X31515Y42716D01*
G04 Draw part audiocon*
G04 draw part outline for part audiocon*
G01X5472Y43543D02*
G01X748Y43543D01*
G01X748Y43543D02*
G01X748Y47874D01*
G01X748Y47874D02*
G01X5472Y47874D01*
G01X5472Y47874D02*
G01X5472Y43543D01*
G01X5433Y47401D02*
G01X748Y47401D01*
G04 Draw part joypic*
G04 draw part outline for part joypic*
G54D10*
G01X28338Y37744D02*
G01X37338Y37744D01*
G01X37338Y37744D02*
G01X37338Y39744D01*
G01X37338Y39744D02*
G01X28338Y39744D01*
G01X28338Y39744D02*
G01X28338Y37744D01*
G01X28338Y38244D02*
G01X28838Y38244D01*
G01X28838Y38244D02*
G01X28838Y39244D01*
G01X28838Y39244D02*
G01X28338Y39244D01*
G01X28338Y39244D02*
G01X28338Y38244D01*
G04 Draw part st232*
G04 draw part outline for part st232*
G01X8622Y39448D02*
G01X8622Y35397D01*
G01X8622Y35397D02*
G01X9409Y35397D01*
G01X9409Y35397D02*
G01X9409Y39448D01*
G01X9409Y39448D02*
G01X8622Y39448D01*
G01X8818Y39448D02*
G01X8818Y39251D01*
G01X8818Y39251D02*
G01X9212Y39251D01*
G01X9212Y39251D02*
G01X9212Y39448D01*
G01X9212Y39448D02*
G01X8818Y39448D01*
G04 Draw part jrespu1*
G04 Draw part jrespu2*
G04 Draw part jrespu3*
G04 Draw part jrespu4*
G04 Draw part audfilter1*
G04 Draw part audfilter2*
G04 Draw part audfilter3*
G04 Draw part audfilter4*
G04 Draw part audfilter5*
G04 Draw part audfilter6*
G04 Draw part audfilter7*
G04 Draw part audfilter8*
G04 Draw part audfilter9*
G04 Draw part audfilter10*
G04 Draw part rs232dec1*
G04 draw part outline for part rs232dec1*
G01X11732Y39704D02*
G01X11732Y38366D01*
G01X11732Y38366D02*
G01X11023Y38366D01*
G01X11023Y38366D02*
G01X11023Y39704D01*
G01X11023Y39704D02*
G01X11732Y39704D01*
G04 Draw part rs232dec2*
G04 draw part outline for part rs232dec2*
G01X9645Y34389D02*
G01X8307Y34389D01*
G01X8307Y34389D02*
G01X8307Y35098D01*
G01X8307Y35098D02*
G01X9645Y35098D01*
G01X9645Y35098D02*
G01X9645Y34389D01*
G04 Draw part rs232dec3*
G04 draw part outline for part rs232dec3*
G01X7086Y37933D02*
G01X7086Y36594D01*
G01X7086Y36594D02*
G01X6377Y36594D01*
G01X6377Y36594D02*
G01X6377Y37933D01*
G01X6377Y37933D02*
G01X7086Y37933D01*
G04 Draw part rs232dec4*
G04 draw part outline for part rs232dec4*
G01X9665Y39606D02*
G01X8326Y39606D01*
G01X8326Y39606D02*
G01X8326Y40314D01*
G01X8326Y40314D02*
G01X9665Y40314D01*
G01X9665Y40314D02*
G01X9665Y39606D01*
G04 Draw part rs232dec5*
G04 draw part outline for part rs232dec5*
G01X7086Y39468D02*
G01X7086Y38129D01*
G01X7086Y38129D02*
G01X6377Y38129D01*
G01X6377Y38129D02*
G01X6377Y39468D01*
G01X6377Y39468D02*
G01X7086Y39468D01*
G04 Draw part kbpu1*
G04 Draw part kbpu2*
G04 Draw part kbpu3*
G04 draw part outline for part kbpu3*
G01X5762Y28630D02*
G01X5762Y30030D01*
G01X5762Y30030D02*
G01X7442Y30030D01*
G01X7442Y30030D02*
G01X7442Y28630D01*
G01X7442Y28630D02*
G01X5762Y28630D01*
G04 Draw part kbpu4*
G04 draw part outline for part kbpu4*
G01X5762Y30205D02*
G01X5762Y31605D01*
G01X5762Y31605D02*
G01X7442Y31605D01*
G01X7442Y31605D02*
G01X7442Y30205D01*
G01X7442Y30205D02*
G01X5762Y30205D01*
G04 Draw part kbpu5*
G04 draw part outline for part kbpu5*
G01X7637Y29291D02*
G01X8976Y29291D01*
G01X8976Y29291D02*
G01X8976Y28582D01*
G01X8976Y28582D02*
G01X7637Y28582D01*
G01X7637Y28582D02*
G01X7637Y29291D01*
G04 Draw part kbpu6*
G04 draw part outline for part kbpu6*
G01X7637Y30866D02*
G01X8976Y30866D01*
G01X8976Y30866D02*
G01X8976Y30157D01*
G01X8976Y30157D02*
G01X7637Y30157D01*
G01X7637Y30157D02*
G01X7637Y30866D01*
G04 Draw part kbpu7*
G04 Draw part kbpu8*
G04 Draw part kbpu9*
G04 draw part outline for part kbpu9*
G01X5762Y33650D02*
G01X5762Y35050D01*
G01X5762Y35050D02*
G01X7442Y35050D01*
G01X7442Y35050D02*
G01X7442Y33650D01*
G01X7442Y33650D02*
G01X5762Y33650D01*
G04 Draw part kbpu10*
G04 draw part outline for part kbpu10*
G01X5762Y31977D02*
G01X5762Y33377D01*
G01X5762Y33377D02*
G01X7442Y33377D01*
G01X7442Y33377D02*
G01X7442Y31977D01*
G01X7442Y31977D02*
G01X5762Y31977D01*
G04 Draw part kbpu11*
G04 draw part outline for part kbpu11*
G01X7618Y32637D02*
G01X8956Y32637D01*
G01X8956Y32637D02*
G01X8956Y31929D01*
G01X8956Y31929D02*
G01X7618Y31929D01*
G01X7618Y31929D02*
G01X7618Y32637D01*
G04 Draw part kbpu12*
G04 draw part outline for part kbpu12*
G01X7657Y34291D02*
G01X8996Y34291D01*
G01X8996Y34291D02*
G01X8996Y33582D01*
G01X8996Y33582D02*
G01X7657Y33582D01*
G01X7657Y33582D02*
G01X7657Y34291D01*
G04 Draw part confsel*
G04 draw part outline for part confsel*
G54D11*
G01X24527Y21850D02*
G01X25472Y21850D01*
G01X25472Y21850D02*
G01X25472Y19960D01*
G01X25472Y19960D02*
G01X24527Y19960D01*
G01X24527Y19960D02*
G01X24527Y21614D01*
G01X24527Y21614D02*
G01X24527Y21850D01*
G04 Draw part cfgres1*
G04 Draw part cfgres2*
G04 Draw part jp5*
G04 draw part outline for part jp5*
G01X43503Y21259D02*
G01X43503Y20314D01*
G01X43503Y20314D02*
G01X41614Y20314D01*
G01X41614Y20314D02*
G01X41614Y21259D01*
G01X41614Y21259D02*
G01X43267Y21259D01*
G01X43267Y21259D02*
G01X43503Y21259D01*
G04 Draw part cfgres*
G04 Draw part picdec*
G04 Draw part serdec*
G04 Draw part picdec2*
G04 Draw part oscdec3*
G04 Draw part memdec*
G04 draw part outline for part memdec*
G54D10*
G01X33720Y31062D02*
G01X35059Y31062D01*
G01X35059Y31062D02*
G01X35059Y30354D01*
G01X35059Y30354D02*
G01X33720Y30354D01*
G01X33720Y30354D02*
G01X33720Y31062D01*
G04 Draw part memdec2*
G04 draw part outline for part memdec2*
G01X32893Y22086D02*
G01X34232Y22086D01*
G01X34232Y22086D02*
G01X34232Y21377D01*
G01X34232Y21377D02*
G01X32893Y21377D01*
G01X32893Y21377D02*
G01X32893Y22086D01*
G04 Draw part fpgacap1*
G04 Draw part fpgacap2*
G04 Draw part fpgacap3*
G04 Draw part fpgacap4*
G04 Draw part fpgacap5*
G04 Draw part fpgacap6*
G04 Draw part fpgacap7*
G04 Draw part fpgacap8*
G04 Draw part fpgacap9*
G04 Draw part fpgacap10*
G04 Draw part fpgacap11*
G04 Draw part fpgacap12*
G04 Draw part fpgacap13*
G04 Draw part fpgacap14*
G04 Draw part fpgacap15*
G04 Draw part fpgacap16*
G04 Draw part fpgacap17*
G04 Draw part fpgacap18*
G04 Draw part fpgacap19*
G04 Draw part fpgacap20*
G04 Draw part fpgacap21*
G04 Draw part fpgacap22*
G04 Draw part fpgacap23*
G04 Draw part fpgacap24*
G04 Draw part fpgacap25*
G04 Draw part fpgacap26*
G04 Draw part fpgacap27*
G04 Draw part fpgacap28*
G04 Draw part jtagcon*
G04 draw part outline for part jtagcon*
G54D11*
G01X12704Y21462D02*
G01X12704Y15562D01*
G01X12704Y15562D02*
G01X11704Y15562D01*
G01X11704Y15562D02*
G01X11704Y21462D01*
G01X11704Y21462D02*
G01X12704Y21462D01*
G04 Draw part hole1*
G04 draw part outline for part hole1*
G04 Draw part ps2dec1*
G04 Draw part ps2dec2*
G04 Draw part ps2dec4*
G04 Draw part ps2dec5*
G04 Draw part wr_pullup*
G04 Draw part vidram*
G04 draw part outline for part vidram*
G01X37716Y24842D02*
G01X30669Y24842D01*
G01X30669Y24842D02*
G01X30669Y28740D01*
G01X30669Y28740D02*
G01X37913Y28740D01*
G01X37913Y28740D02*
G01X37913Y24842D01*
G01X37913Y24842D02*
G01X37716Y24842D01*
G01X30944Y25157D02*
G01X31299Y25157D01*
G01X31299Y25157D02*
G01X31299Y25511D01*
G01X31299Y25511D02*
G01X30944Y25511D01*
G01X30944Y25511D02*
G01X30944Y25157D01*
G04 Draw part SDCMMC*
G04 draw part outline for part SDCMMC*
G01X6377Y22362D02*
G01X-78Y22362D01*
G01X-78Y22362D02*
G01X-78Y11141D01*
G01X-78Y11141D02*
G01X6377Y11141D01*
G01X6377Y11141D02*
G01X6377Y22362D01*
G01X-78Y21338D02*
G01X-41Y21338D01*
G01X-4Y21337D01*
G01X33Y21335D01*
G01X70Y21333D01*
G01X107Y21330D01*
G01X145Y21326D01*
G01X182Y21322D01*
G01X219Y21317D01*
G01X256Y21311D01*
G01X293Y21304D01*
G01X330Y21297D01*
G01X366Y21290D01*
G01X403Y21281D01*
G01X439Y21272D01*
G01X476Y21263D01*
G01X512Y21252D01*
G01X548Y21241D01*
G01X584Y21230D01*
G01X619Y21217D01*
G01X655Y21204D01*
G01X690Y21191D01*
G01X725Y21177D01*
G01X760Y21162D01*
G01X795Y21146D01*
G01X829Y21130D01*
G01X863Y21113D01*
G01X897Y21096D01*
G01X931Y21078D01*
G01X964Y21060D01*
G01X997Y21041D01*
G01X1030Y21021D01*
G01X1062Y21001D01*
G01X1095Y20980D01*
G01X1127Y20958D01*
G01X1158Y20936D01*
G01X1189Y20913D01*
G01X1220Y20890D01*
G01X1251Y20867D01*
G01X1281Y20842D01*
G01X1311Y20817D01*
G01X1340Y20792D01*
G01X1369Y20766D01*
G01X1398Y20740D01*
G01X1426Y20713D01*
G01X1454Y20685D01*
G01X1482Y20657D01*
G01X1509Y20629D01*
G01X1535Y20600D01*
G01X1562Y20571D01*
G01X1587Y20541D01*
G01X1613Y20511D01*
G01X1638Y20480D01*
G01X1662Y20449D01*
G01X1686Y20417D01*
G01X1709Y20385D01*
G01X1732Y20352D01*
G01X1755Y20319D01*
G01X1777Y20286D01*
G01X1798Y20252D01*
G01X1819Y20218D01*
G01X1840Y20184D01*
G01X1860Y20149D01*
G01X1879Y20114D01*
G01X1898Y20078D01*
G01X1917Y20042D01*
G01X1935Y20006D01*
G01X1952Y19970D01*
G01X1969Y19933D01*
G01X1985Y19896D01*
G01X2001Y19858D01*
G01X2016Y19821D01*
G01X2030Y19783D01*
G01X2044Y19744D01*
G01X2058Y19706D01*
G01X2071Y19667D01*
G01X2083Y19628D01*
G01X2095Y19589D01*
G01X2106Y19550D01*
G01X2116Y19510D01*
G01X2126Y19471D01*
G01X2136Y19431D01*
G01X2145Y19391D01*
G01X2153Y19350D01*
G01X2160Y19310D01*
G01X2167Y19269D01*
G01X2174Y19229D01*
G01X2180Y19188D01*
G01X2185Y19147D01*
G01X2189Y19106D01*
G01X2193Y19065D01*
G01X2197Y19024D01*
G01X2199Y18983D01*
G01X2201Y18942D01*
G01X2203Y18901D01*
G01X2204Y18860D01*
G01X2204Y18818D01*
G01X2204Y18818D02*
G01X2204Y14251D01*
G01X2204Y14251D02*
G01X2204Y14212D01*
G01X2203Y14172D01*
G01X2201Y14132D01*
G01X2199Y14092D01*
G01X2196Y14052D01*
G01X2192Y14013D01*
G01X2187Y13973D01*
G01X2182Y13934D01*
G01X2177Y13894D01*
G01X2170Y13855D01*
G01X2163Y13816D01*
G01X2155Y13777D01*
G01X2147Y13738D01*
G01X2138Y13699D01*
G01X2128Y13660D01*
G01X2117Y13622D01*
G01X2106Y13584D01*
G01X2094Y13546D01*
G01X2082Y13508D01*
G01X2069Y13470D01*
G01X2055Y13433D01*
G01X2041Y13396D01*
G01X2026Y13359D01*
G01X2010Y13323D01*
G01X1994Y13286D01*
G01X1977Y13250D01*
G01X1960Y13215D01*
G01X1942Y13179D01*
G01X1923Y13144D01*
G01X1904Y13110D01*
G01X1884Y13075D01*
G01X1863Y13041D01*
G01X1842Y13008D01*
G01X1821Y12975D01*
G01X1798Y12942D01*
G01X1776Y12909D01*
G01X1752Y12877D01*
G01X1729Y12846D01*
G01X1704Y12814D01*
G01X1679Y12784D01*
G01X1654Y12753D01*
G01X1628Y12724D01*
G01X1601Y12694D01*
G01X1574Y12665D01*
G01X1547Y12637D01*
G01X1519Y12609D01*
G01X1491Y12581D01*
G01X1462Y12555D01*
G01X1432Y12528D01*
G01X1403Y12502D01*
G01X1372Y12477D01*
G01X1342Y12452D01*
G01X1311Y12428D01*
G01X1279Y12404D01*
G01X1247Y12381D01*
G01X1215Y12358D01*
G01X1182Y12336D01*
G01X1149Y12315D01*
G01X1116Y12294D01*
G01X1082Y12274D01*
G01X1048Y12254D01*
G01X1014Y12235D01*
G01X979Y12217D01*
G01X944Y12199D01*
G01X909Y12182D01*
G01X873Y12165D01*
G01X837Y12150D01*
G01X801Y12134D01*
G01X764Y12120D01*
G01X728Y12106D01*
G01X691Y12092D01*
G01X654Y12080D01*
G01X616Y12068D01*
G01X579Y12056D01*
G01X541Y12046D01*
G01X503Y12036D01*
G01X465Y12027D01*
G01X427Y12018D01*
G01X388Y12010D01*
G01X350Y12003D01*
G01X311Y11996D01*
G01X272Y11990D01*
G01X234Y11985D01*
G01X195Y11981D01*
G01X156Y11977D01*
G01X117Y11974D01*
G01X78Y11971D01*
G01X38Y11969D01*
G01X0Y11968D01*
G01X-39Y11968D01*
G04 Draw part scpowres*
G04 Draw part sdpowtr*
G04 Draw part sdpowres2*
G04 Draw part sdcdin_pd*
G04 Draw part sdcdinres*
G04 draw part outline for part sdcdinres*
G54D10*
G01X6692Y24704D02*
G01X6692Y26043D01*
G01X6692Y26043D02*
G01X7401Y26043D01*
G01X7401Y26043D02*
G01X7401Y24704D01*
G01X7401Y24704D02*
G01X6692Y24704D01*
G04 Draw part sdc_led_trres*
G04 Draw part dscledres2*
G04 Draw part dscledtr*
G04 Draw part scddecoup*
G04 Draw part jack*
G04 draw part outline for part jack*
G54D11*
G01X275Y2047D02*
G01X5787Y2047D01*
G01X5787Y2047D02*
G01X5787Y5748D01*
G01X5787Y5748D02*
G01X275Y5748D01*
G01X275Y5748D02*
G01X275Y2047D01*
G01X1259Y5708D02*
G01X1259Y2047D01*
G04 Draw part powerswitch*
G04 draw part outline for part powerswitch*
G01X7125Y3267D02*
G01X12637Y3267D01*
G01X12637Y3267D02*
G01X12637Y275D01*
G01X12637Y275D02*
G01X7125Y275D01*
G01X7125Y275D02*
G01X7125Y3267D01*
G04 Draw part diode1*
G04 draw part outline for part diode1*
G01X7244Y3740D02*
G01X7244Y4685D01*
G01X7244Y4685D02*
G01X9173Y4685D01*
G01X9173Y4685D02*
G01X9173Y3700D01*
G01X9173Y3700D02*
G01X7244Y3700D01*
G01X9173Y3700D02*
G01X9330Y3700D01*
G01X9330Y3700D02*
G01X9330Y4685D01*
G01X9330Y4685D02*
G01X9173Y4685D01*
G01X9173Y4685D02*
G01X9173Y3700D01*
G04 Draw part diode2*
G04 draw part outline for part diode2*
G01X7244Y5000D02*
G01X7244Y5944D01*
G01X7244Y5944D02*
G01X9173Y5944D01*
G01X9173Y5944D02*
G01X9173Y4960D01*
G01X9173Y4960D02*
G01X7244Y4960D01*
G01X9173Y4960D02*
G01X9330Y4960D01*
G01X9330Y4960D02*
G01X9330Y5944D01*
G01X9330Y5944D02*
G01X9173Y5944D01*
G01X9173Y5944D02*
G01X9173Y4960D01*
G04 Draw part powcap*
G04 draw part outline for part powcap*
G54D10*
G01X11366Y4259D02*
G01X11366Y4559D01*
G01X11216Y4409D02*
G01X11516Y4409D01*
G01X10866Y6139D02*
G01X10826Y6138D01*
G01X10786Y6136D01*
G01X10747Y6133D01*
G01X10707Y6129D01*
G01X10668Y6123D01*
G01X10629Y6116D01*
G01X10590Y6108D01*
G01X10551Y6098D01*
G01X10513Y6088D01*
G01X10475Y6076D01*
G01X10437Y6063D01*
G01X10400Y6048D01*
G01X10364Y6033D01*
G01X10328Y6016D01*
G01X10292Y5998D01*
G01X10257Y5979D01*
G01X10223Y5959D01*
G01X10189Y5938D01*
G01X10156Y5916D01*
G01X10124Y5893D01*
G01X10093Y5868D01*
G01X10062Y5843D01*
G01X10032Y5817D01*
G01X10003Y5790D01*
G01X9975Y5762D01*
G01X9948Y5733D01*
G01X9921Y5703D01*
G01X9896Y5672D01*
G01X9872Y5641D01*
G01X9849Y5608D01*
G01X9826Y5575D01*
G01X9805Y5542D01*
G01X9785Y5507D01*
G01X9766Y5472D01*
G01X9748Y5437D01*
G01X9732Y5401D01*
G01X9716Y5364D01*
G01X9702Y5327D01*
G01X9689Y5290D01*
G01X9677Y5252D01*
G01X9666Y5213D01*
G01X9657Y5175D01*
G01X9649Y5136D01*
G01X9642Y5097D01*
G01X9636Y5058D01*
G01X9631Y5018D01*
G01X9628Y4978D01*
G01X9626Y4939D01*
G01X9626Y4899D01*
G01X9626Y4899D02*
G01X9626Y4859D01*
G01X9628Y4820D01*
G01X9631Y4780D01*
G01X9636Y4740D01*
G01X9642Y4701D01*
G01X9649Y4662D01*
G01X9657Y4623D01*
G01X9666Y4584D01*
G01X9677Y4546D01*
G01X9689Y4508D01*
G01X9702Y4471D01*
G01X9716Y4434D01*
G01X9732Y4397D01*
G01X9748Y4361D01*
G01X9766Y4325D01*
G01X9785Y4290D01*
G01X9805Y4256D01*
G01X9826Y4222D01*
G01X9849Y4190D01*
G01X9872Y4157D01*
G01X9896Y4126D01*
G01X9921Y4095D01*
G01X9948Y4065D01*
G01X9975Y4036D01*
G01X10003Y4008D01*
G01X10032Y3981D01*
G01X10062Y3955D01*
G01X10093Y3929D01*
G01X10124Y3905D01*
G01X10156Y3882D01*
G01X10189Y3860D01*
G01X10223Y3839D01*
G01X10257Y3819D01*
G01X10292Y3800D01*
G01X10328Y3782D01*
G01X10364Y3765D01*
G01X10400Y3750D01*
G01X10437Y3735D01*
G01X10475Y3722D01*
G01X10513Y3710D01*
G01X10551Y3700D01*
G01X10590Y3690D01*
G01X10629Y3682D01*
G01X10668Y3675D01*
G01X10707Y3669D01*
G01X10747Y3665D01*
G01X10786Y3661D01*
G01X10826Y3660D01*
G01X10866Y3659D01*
G01X10866Y3659D02*
G01X10905Y3660D01*
G01X10945Y3661D01*
G01X10985Y3665D01*
G01X11024Y3669D01*
G01X11064Y3675D01*
G01X11103Y3682D01*
G01X11142Y3690D01*
G01X11180Y3700D01*
G01X11218Y3710D01*
G01X11256Y3722D01*
G01X11294Y3735D01*
G01X11331Y3750D01*
G01X11368Y3765D01*
G01X11404Y3782D01*
G01X11439Y3800D01*
G01X11474Y3819D01*
G01X11508Y3839D01*
G01X11542Y3860D01*
G01X11575Y3882D01*
G01X11607Y3905D01*
G01X11639Y3929D01*
G01X11669Y3955D01*
G01X11699Y3981D01*
G01X11728Y4008D01*
G01X11756Y4036D01*
G01X11784Y4065D01*
G01X11810Y4095D01*
G01X11835Y4126D01*
G01X11859Y4157D01*
G01X11883Y4190D01*
G01X11905Y4222D01*
G01X11926Y4256D01*
G01X11946Y4290D01*
G01X11965Y4325D01*
G01X11983Y4361D01*
G01X12000Y4397D01*
G01X12015Y4434D01*
G01X12029Y4471D01*
G01X12042Y4508D01*
G01X12054Y4546D01*
G01X12065Y4584D01*
G01X12075Y4623D01*
G01X12083Y4662D01*
G01X12090Y4701D01*
G01X12095Y4740D01*
G01X12100Y4780D01*
G01X12103Y4820D01*
G01X12105Y4859D01*
G01X12106Y4899D01*
G01X12106Y4899D02*
G01X12105Y4939D01*
G01X12103Y4978D01*
G01X12100Y5018D01*
G01X12095Y5058D01*
G01X12090Y5097D01*
G01X12083Y5136D01*
G01X12075Y5175D01*
G01X12065Y5213D01*
G01X12054Y5252D01*
G01X12042Y5290D01*
G01X12029Y5327D01*
G01X12015Y5364D01*
G01X12000Y5401D01*
G01X11983Y5437D01*
G01X11965Y5472D01*
G01X11946Y5507D01*
G01X11926Y5542D01*
G01X11905Y5575D01*
G01X11883Y5608D01*
G01X11859Y5641D01*
G01X11835Y5672D01*
G01X11810Y5703D01*
G01X11784Y5733D01*
G01X11756Y5762D01*
G01X11728Y5790D01*
G01X11699Y5817D01*
G01X11669Y5843D01*
G01X11639Y5868D01*
G01X11607Y5893D01*
G01X11575Y5916D01*
G01X11542Y5938D01*
G01X11508Y5959D01*
G01X11474Y5979D01*
G01X11439Y5998D01*
G01X11404Y6016D01*
G01X11368Y6033D01*
G01X11331Y6048D01*
G01X11294Y6063D01*
G01X11256Y6076D01*
G01X11218Y6088D01*
G01X11180Y6098D01*
G01X11142Y6108D01*
G01X11103Y6116D01*
G01X11064Y6123D01*
G01X11024Y6129D01*
G01X10985Y6133D01*
G01X10945Y6136D01*
G01X10905Y6138D01*
G01X10866Y6139D01*
G04 Draw part vregukm*
G04 draw part outline for part vregukm*
G01X8700Y8700D02*
G01X8700Y6688D01*
G01X8700Y6688D02*
G01X9488Y6688D01*
G01X9488Y6688D02*
G01X9488Y8700D01*
G01X9488Y8700D02*
G01X8700Y8700D01*
G01X8897Y8700D02*
G01X8897Y8503D01*
G01X8897Y8503D02*
G01X9291Y8503D01*
G01X9291Y8503D02*
G01X9291Y8700D01*
G01X9291Y8700D02*
G01X8897Y8700D01*
G04 Draw part regcap1*
G04 draw part outline for part regcap1*
G01X2905Y10185D02*
G01X2605Y10185D01*
G01X2755Y10035D02*
G01X2755Y10335D01*
G01X1025Y9685D02*
G01X1026Y9645D01*
G01X1028Y9605D01*
G01X1031Y9565D01*
G01X1036Y9526D01*
G01X1041Y9487D01*
G01X1048Y9448D01*
G01X1056Y9409D01*
G01X1066Y9370D01*
G01X1077Y9332D01*
G01X1089Y9294D01*
G01X1102Y9256D01*
G01X1116Y9219D01*
G01X1132Y9183D01*
G01X1148Y9147D01*
G01X1166Y9111D01*
G01X1185Y9076D01*
G01X1205Y9042D01*
G01X1226Y9008D01*
G01X1248Y8975D01*
G01X1272Y8943D01*
G01X1296Y8911D01*
G01X1321Y8881D01*
G01X1347Y8851D01*
G01X1375Y8822D01*
G01X1403Y8794D01*
G01X1432Y8767D01*
G01X1462Y8740D01*
G01X1492Y8715D01*
G01X1524Y8691D01*
G01X1556Y8668D01*
G01X1589Y8645D01*
G01X1623Y8624D01*
G01X1657Y8604D01*
G01X1692Y8585D01*
G01X1727Y8567D01*
G01X1763Y8551D01*
G01X1800Y8535D01*
G01X1837Y8521D01*
G01X1875Y8508D01*
G01X1913Y8496D01*
G01X1951Y8485D01*
G01X1989Y8476D01*
G01X2028Y8467D01*
G01X2068Y8460D01*
G01X2107Y8455D01*
G01X2146Y8450D01*
G01X2186Y8447D01*
G01X2226Y8445D01*
G01X2265Y8445D01*
G01X2265Y8445D02*
G01X2305Y8445D01*
G01X2345Y8447D01*
G01X2384Y8450D01*
G01X2424Y8455D01*
G01X2463Y8460D01*
G01X2502Y8467D01*
G01X2541Y8476D01*
G01X2580Y8485D01*
G01X2618Y8496D01*
G01X2656Y8508D01*
G01X2694Y8521D01*
G01X2731Y8535D01*
G01X2767Y8551D01*
G01X2803Y8567D01*
G01X2839Y8585D01*
G01X2874Y8604D01*
G01X2908Y8624D01*
G01X2942Y8645D01*
G01X2975Y8668D01*
G01X3007Y8691D01*
G01X3039Y8715D01*
G01X3069Y8740D01*
G01X3099Y8767D01*
G01X3128Y8794D01*
G01X3156Y8822D01*
G01X3183Y8851D01*
G01X3210Y8881D01*
G01X3235Y8911D01*
G01X3259Y8943D01*
G01X3282Y8975D01*
G01X3305Y9008D01*
G01X3326Y9042D01*
G01X3346Y9076D01*
G01X3365Y9111D01*
G01X3383Y9147D01*
G01X3399Y9183D01*
G01X3415Y9219D01*
G01X3429Y9256D01*
G01X3442Y9294D01*
G01X3454Y9332D01*
G01X3465Y9370D01*
G01X3474Y9409D01*
G01X3483Y9448D01*
G01X3490Y9487D01*
G01X3495Y9526D01*
G01X3500Y9565D01*
G01X3503Y9605D01*
G01X3505Y9645D01*
G01X3505Y9685D01*
G01X3505Y9685D02*
G01X3505Y9724D01*
G01X3503Y9764D01*
G01X3500Y9804D01*
G01X3495Y9843D01*
G01X3490Y9882D01*
G01X3483Y9922D01*
G01X3474Y9960D01*
G01X3465Y9999D01*
G01X3454Y10037D01*
G01X3442Y10075D01*
G01X3429Y10113D01*
G01X3415Y10150D01*
G01X3399Y10186D01*
G01X3383Y10223D01*
G01X3365Y10258D01*
G01X3346Y10293D01*
G01X3326Y10327D01*
G01X3305Y10361D01*
G01X3282Y10394D01*
G01X3259Y10426D01*
G01X3235Y10458D01*
G01X3210Y10488D01*
G01X3183Y10518D01*
G01X3156Y10547D01*
G01X3128Y10575D01*
G01X3099Y10602D01*
G01X3069Y10629D01*
G01X3039Y10654D01*
G01X3007Y10678D01*
G01X2975Y10702D01*
G01X2942Y10724D01*
G01X2908Y10745D01*
G01X2874Y10765D01*
G01X2839Y10784D01*
G01X2803Y10802D01*
G01X2767Y10818D01*
G01X2731Y10834D01*
G01X2694Y10848D01*
G01X2656Y10861D01*
G01X2618Y10873D01*
G01X2580Y10884D01*
G01X2541Y10893D01*
G01X2502Y10902D01*
G01X2463Y10909D01*
G01X2424Y10914D01*
G01X2384Y10919D01*
G01X2345Y10922D01*
G01X2305Y10924D01*
G01X2265Y10925D01*
G01X2265Y10925D02*
G01X2226Y10924D01*
G01X2186Y10922D01*
G01X2146Y10919D01*
G01X2107Y10914D01*
G01X2068Y10909D01*
G01X2028Y10902D01*
G01X1989Y10893D01*
G01X1951Y10884D01*
G01X1913Y10873D01*
G01X1875Y10861D01*
G01X1837Y10848D01*
G01X1800Y10834D01*
G01X1763Y10818D01*
G01X1727Y10802D01*
G01X1692Y10784D01*
G01X1657Y10765D01*
G01X1623Y10745D01*
G01X1589Y10724D01*
G01X1556Y10702D01*
G01X1524Y10678D01*
G01X1492Y10654D01*
G01X1462Y10629D01*
G01X1432Y10602D01*
G01X1403Y10575D01*
G01X1375Y10547D01*
G01X1347Y10518D01*
G01X1321Y10488D01*
G01X1296Y10458D01*
G01X1272Y10426D01*
G01X1248Y10394D01*
G01X1226Y10361D01*
G01X1205Y10327D01*
G01X1185Y10293D01*
G01X1166Y10258D01*
G01X1148Y10223D01*
G01X1132Y10186D01*
G01X1116Y10150D01*
G01X1102Y10113D01*
G01X1089Y10075D01*
G01X1077Y10037D01*
G01X1066Y9999D01*
G01X1056Y9960D01*
G01X1048Y9922D01*
G01X1041Y9882D01*
G01X1036Y9843D01*
G01X1031Y9804D01*
G01X1028Y9764D01*
G01X1026Y9724D01*
G01X1025Y9685D01*
G04 Draw part regcap2*
G04 draw part outline for part regcap2*
G01X5504Y10224D02*
G01X5204Y10224D01*
G01X5354Y10074D02*
G01X5354Y10374D01*
G01X3624Y9724D02*
G01X3624Y9684D01*
G01X3626Y9644D01*
G01X3630Y9605D01*
G01X3634Y9565D01*
G01X3640Y9526D01*
G01X3647Y9487D01*
G01X3655Y9448D01*
G01X3664Y9409D01*
G01X3675Y9371D01*
G01X3687Y9333D01*
G01X3700Y9296D01*
G01X3714Y9259D01*
G01X3730Y9222D01*
G01X3747Y9186D01*
G01X3764Y9150D01*
G01X3783Y9115D01*
G01X3803Y9081D01*
G01X3825Y9047D01*
G01X3847Y9014D01*
G01X3870Y8982D01*
G01X3894Y8951D01*
G01X3920Y8920D01*
G01X3946Y8890D01*
G01X3973Y8861D01*
G01X4001Y8833D01*
G01X4030Y8806D01*
G01X4060Y8780D01*
G01X4091Y8754D01*
G01X4122Y8730D01*
G01X4154Y8707D01*
G01X4187Y8685D01*
G01X4221Y8664D01*
G01X4255Y8643D01*
G01X4290Y8625D01*
G01X4326Y8607D01*
G01X4362Y8590D01*
G01X4398Y8575D01*
G01X4436Y8560D01*
G01X4473Y8547D01*
G01X4511Y8535D01*
G01X4549Y8524D01*
G01X4588Y8515D01*
G01X4627Y8507D01*
G01X4666Y8500D01*
G01X4705Y8494D01*
G01X4745Y8490D01*
G01X4784Y8486D01*
G01X4824Y8485D01*
G01X4864Y8484D01*
G01X4864Y8484D02*
G01X4904Y8485D01*
G01X4943Y8486D01*
G01X4983Y8490D01*
G01X5022Y8494D01*
G01X5062Y8500D01*
G01X5101Y8507D01*
G01X5140Y8515D01*
G01X5178Y8524D01*
G01X5217Y8535D01*
G01X5255Y8547D01*
G01X5292Y8560D01*
G01X5329Y8575D01*
G01X5366Y8590D01*
G01X5402Y8607D01*
G01X5437Y8625D01*
G01X5472Y8643D01*
G01X5507Y8664D01*
G01X5540Y8685D01*
G01X5573Y8707D01*
G01X5605Y8730D01*
G01X5637Y8754D01*
G01X5668Y8780D01*
G01X5697Y8806D01*
G01X5726Y8833D01*
G01X5755Y8861D01*
G01X5782Y8890D01*
G01X5808Y8920D01*
G01X5833Y8951D01*
G01X5858Y8982D01*
G01X5881Y9014D01*
G01X5903Y9047D01*
G01X5924Y9081D01*
G01X5944Y9115D01*
G01X5963Y9150D01*
G01X5981Y9186D01*
G01X5998Y9222D01*
G01X6013Y9259D01*
G01X6028Y9296D01*
G01X6041Y9333D01*
G01X6053Y9371D01*
G01X6063Y9409D01*
G01X6073Y9448D01*
G01X6081Y9487D01*
G01X6088Y9526D01*
G01X6094Y9565D01*
G01X6098Y9605D01*
G01X6101Y9644D01*
G01X6103Y9684D01*
G01X6104Y9724D01*
G01X6104Y9724D02*
G01X6103Y9764D01*
G01X6101Y9803D01*
G01X6098Y9843D01*
G01X6094Y9882D01*
G01X6088Y9922D01*
G01X6081Y9961D01*
G01X6073Y10000D01*
G01X6063Y10038D01*
G01X6053Y10077D01*
G01X6041Y10115D01*
G01X6028Y10152D01*
G01X6013Y10189D01*
G01X5998Y10226D01*
G01X5981Y10262D01*
G01X5963Y10297D01*
G01X5944Y10332D01*
G01X5924Y10367D01*
G01X5903Y10400D01*
G01X5881Y10433D01*
G01X5858Y10466D01*
G01X5833Y10497D01*
G01X5808Y10528D01*
G01X5782Y10558D01*
G01X5755Y10587D01*
G01X5726Y10615D01*
G01X5697Y10642D01*
G01X5668Y10668D01*
G01X5637Y10693D01*
G01X5605Y10718D01*
G01X5573Y10741D01*
G01X5540Y10763D01*
G01X5507Y10784D01*
G01X5472Y10804D01*
G01X5437Y10823D01*
G01X5402Y10841D01*
G01X5366Y10858D01*
G01X5329Y10873D01*
G01X5292Y10888D01*
G01X5255Y10901D01*
G01X5217Y10913D01*
G01X5178Y10923D01*
G01X5140Y10933D01*
G01X5101Y10941D01*
G01X5062Y10948D01*
G01X5022Y10954D01*
G01X4983Y10958D01*
G01X4943Y10961D01*
G01X4904Y10963D01*
G01X4864Y10964D01*
G01X4864Y10964D02*
G01X4824Y10963D01*
G01X4784Y10961D01*
G01X4745Y10958D01*
G01X4705Y10954D01*
G01X4666Y10948D01*
G01X4627Y10941D01*
G01X4588Y10933D01*
G01X4549Y10923D01*
G01X4511Y10913D01*
G01X4473Y10901D01*
G01X4436Y10888D01*
G01X4398Y10873D01*
G01X4362Y10858D01*
G01X4326Y10841D01*
G01X4290Y10823D01*
G01X4255Y10804D01*
G01X4221Y10784D01*
G01X4187Y10763D01*
G01X4154Y10741D01*
G01X4122Y10718D01*
G01X4091Y10693D01*
G01X4060Y10668D01*
G01X4030Y10642D01*
G01X4001Y10615D01*
G01X3973Y10587D01*
G01X3946Y10558D01*
G01X3920Y10528D01*
G01X3894Y10497D01*
G01X3870Y10466D01*
G01X3847Y10433D01*
G01X3825Y10400D01*
G01X3803Y10367D01*
G01X3783Y10332D01*
G01X3764Y10297D01*
G01X3747Y10262D01*
G01X3730Y10226D01*
G01X3714Y10189D01*
G01X3700Y10152D01*
G01X3687Y10115D01*
G01X3675Y10077D01*
G01X3664Y10038D01*
G01X3655Y10000D01*
G01X3647Y9961D01*
G01X3640Y9922D01*
G01X3634Y9882D01*
G01X3630Y9843D01*
G01X3626Y9803D01*
G01X3624Y9764D01*
G01X3624Y9724D01*
G04 Draw part regcap4*
G04 draw part outline for part regcap4*
G01X5243Y6862D02*
G01X5543Y6862D01*
G01X5393Y7012D02*
G01X5393Y6712D01*
G01X7123Y7362D02*
G01X7123Y7401D01*
G01X7121Y7441D01*
G01X7117Y7481D01*
G01X7113Y7520D01*
G01X7107Y7560D01*
G01X7100Y7599D01*
G01X7092Y7638D01*
G01X7083Y7676D01*
G01X7072Y7715D01*
G01X7060Y7752D01*
G01X7047Y7790D01*
G01X7033Y7827D01*
G01X7017Y7864D01*
G01X7000Y7900D01*
G01X6983Y7935D01*
G01X6964Y7970D01*
G01X6944Y8005D01*
G01X6922Y8038D01*
G01X6900Y8071D01*
G01X6877Y8103D01*
G01X6853Y8135D01*
G01X6827Y8166D01*
G01X6801Y8195D01*
G01X6774Y8224D01*
G01X6746Y8252D01*
G01X6717Y8280D01*
G01X6687Y8306D01*
G01X6656Y8331D01*
G01X6625Y8355D01*
G01X6593Y8379D01*
G01X6560Y8401D01*
G01X6526Y8422D01*
G01X6492Y8442D01*
G01X6457Y8461D01*
G01X6421Y8479D01*
G01X6385Y8496D01*
G01X6349Y8511D01*
G01X6311Y8525D01*
G01X6274Y8539D01*
G01X6236Y8550D01*
G01X6198Y8561D01*
G01X6159Y8571D01*
G01X6120Y8579D01*
G01X6081Y8586D01*
G01X6042Y8592D01*
G01X6002Y8596D01*
G01X5963Y8599D01*
G01X5923Y8601D01*
G01X5883Y8602D01*
G01X5883Y8602D02*
G01X5843Y8601D01*
G01X5804Y8599D01*
G01X5764Y8596D01*
G01X5725Y8592D01*
G01X5685Y8586D01*
G01X5646Y8579D01*
G01X5607Y8571D01*
G01X5569Y8561D01*
G01X5530Y8550D01*
G01X5492Y8539D01*
G01X5455Y8525D01*
G01X5418Y8511D01*
G01X5381Y8496D01*
G01X5345Y8479D01*
G01X5310Y8461D01*
G01X5275Y8442D01*
G01X5240Y8422D01*
G01X5207Y8401D01*
G01X5174Y8379D01*
G01X5142Y8355D01*
G01X5110Y8331D01*
G01X5079Y8306D01*
G01X5050Y8280D01*
G01X5021Y8252D01*
G01X4992Y8224D01*
G01X4965Y8195D01*
G01X4939Y8166D01*
G01X4914Y8135D01*
G01X4889Y8103D01*
G01X4866Y8071D01*
G01X4844Y8038D01*
G01X4823Y8005D01*
G01X4803Y7970D01*
G01X4784Y7935D01*
G01X4766Y7900D01*
G01X4749Y7864D01*
G01X4734Y7827D01*
G01X4719Y7790D01*
G01X4706Y7752D01*
G01X4694Y7715D01*
G01X4684Y7676D01*
G01X4674Y7638D01*
G01X4666Y7599D01*
G01X4659Y7560D01*
G01X4653Y7520D01*
G01X4649Y7481D01*
G01X4646Y7441D01*
G01X4644Y7401D01*
G01X4643Y7362D01*
G01X4643Y7362D02*
G01X4644Y7322D01*
G01X4646Y7282D01*
G01X4649Y7243D01*
G01X4653Y7203D01*
G01X4659Y7164D01*
G01X4666Y7125D01*
G01X4674Y7086D01*
G01X4684Y7047D01*
G01X4694Y7009D01*
G01X4706Y6971D01*
G01X4719Y6933D01*
G01X4734Y6896D01*
G01X4749Y6860D01*
G01X4766Y6824D01*
G01X4784Y6788D01*
G01X4803Y6753D01*
G01X4823Y6719D01*
G01X4844Y6685D01*
G01X4866Y6652D01*
G01X4889Y6620D01*
G01X4914Y6589D01*
G01X4939Y6558D01*
G01X4965Y6528D01*
G01X4992Y6499D01*
G01X5021Y6471D01*
G01X5050Y6444D01*
G01X5079Y6418D01*
G01X5110Y6392D01*
G01X5142Y6368D01*
G01X5174Y6345D01*
G01X5207Y6322D01*
G01X5240Y6301D01*
G01X5275Y6281D01*
G01X5310Y6262D01*
G01X5345Y6245D01*
G01X5381Y6228D01*
G01X5418Y6212D01*
G01X5455Y6198D01*
G01X5492Y6185D01*
G01X5530Y6173D01*
G01X5569Y6162D01*
G01X5607Y6153D01*
G01X5646Y6145D01*
G01X5685Y6138D01*
G01X5725Y6132D01*
G01X5764Y6127D01*
G01X5804Y6124D01*
G01X5843Y6122D01*
G01X5883Y6122D01*
G01X5883Y6122D02*
G01X5923Y6122D01*
G01X5963Y6124D01*
G01X6002Y6127D01*
G01X6042Y6132D01*
G01X6081Y6138D01*
G01X6120Y6145D01*
G01X6159Y6153D01*
G01X6198Y6162D01*
G01X6236Y6173D01*
G01X6274Y6185D01*
G01X6311Y6198D01*
G01X6349Y6212D01*
G01X6385Y6228D01*
G01X6421Y6245D01*
G01X6457Y6262D01*
G01X6492Y6281D01*
G01X6526Y6301D01*
G01X6560Y6322D01*
G01X6593Y6345D01*
G01X6625Y6368D01*
G01X6656Y6392D01*
G01X6687Y6418D01*
G01X6717Y6444D01*
G01X6746Y6471D01*
G01X6774Y6499D01*
G01X6801Y6528D01*
G01X6827Y6558D01*
G01X6853Y6589D01*
G01X6877Y6620D01*
G01X6900Y6652D01*
G01X6922Y6685D01*
G01X6944Y6719D01*
G01X6964Y6753D01*
G01X6983Y6788D01*
G01X7000Y6824D01*
G01X7017Y6860D01*
G01X7033Y6896D01*
G01X7047Y6933D01*
G01X7060Y6971D01*
G01X7072Y7009D01*
G01X7083Y7047D01*
G01X7092Y7086D01*
G01X7100Y7125D01*
G01X7107Y7164D01*
G01X7113Y7203D01*
G01X7117Y7243D01*
G01X7121Y7282D01*
G01X7123Y7322D01*
G01X7123Y7362D01*
G04 Draw part vreg3*
G04 Draw part vreg4*
G04 Draw part vreg5*
G04 Draw part vreg6*
G04 draw part outline for part vreg6*
G01X13649Y10007D02*
G01X13649Y10307D01*
G01X13499Y10157D02*
G01X13799Y10157D01*
G01X13149Y11887D02*
G01X13109Y11886D01*
G01X13070Y11884D01*
G01X13030Y11881D01*
G01X12991Y11877D01*
G01X12951Y11871D01*
G01X12912Y11864D01*
G01X12873Y11856D01*
G01X12835Y11846D01*
G01X12796Y11836D01*
G01X12758Y11824D01*
G01X12721Y11811D01*
G01X12684Y11796D01*
G01X12647Y11781D01*
G01X12611Y11764D01*
G01X12576Y11746D01*
G01X12541Y11727D01*
G01X12506Y11707D01*
G01X12473Y11686D01*
G01X12440Y11664D01*
G01X12407Y11641D01*
G01X12376Y11616D01*
G01X12345Y11591D01*
G01X12315Y11565D01*
G01X12286Y11538D01*
G01X12258Y11510D01*
G01X12231Y11481D01*
G01X12205Y11451D01*
G01X12180Y11420D01*
G01X12155Y11389D01*
G01X12132Y11356D01*
G01X12110Y11323D01*
G01X12089Y11290D01*
G01X12069Y11255D01*
G01X12050Y11221D01*
G01X12032Y11185D01*
G01X12015Y11149D01*
G01X12000Y11112D01*
G01X11985Y11075D01*
G01X11972Y11038D01*
G01X11960Y11000D01*
G01X11950Y10962D01*
G01X11940Y10923D01*
G01X11932Y10884D01*
G01X11925Y10845D01*
G01X11919Y10806D01*
G01X11915Y10766D01*
G01X11912Y10726D01*
G01X11910Y10687D01*
G01X11909Y10647D01*
G01X11909Y10647D02*
G01X11910Y10607D01*
G01X11912Y10568D01*
G01X11915Y10528D01*
G01X11919Y10488D01*
G01X11925Y10449D01*
G01X11932Y10410D01*
G01X11940Y10371D01*
G01X11950Y10332D01*
G01X11960Y10294D01*
G01X11972Y10256D01*
G01X11985Y10219D01*
G01X12000Y10182D01*
G01X12015Y10145D01*
G01X12032Y10109D01*
G01X12050Y10073D01*
G01X12069Y10038D01*
G01X12089Y10004D01*
G01X12110Y9971D01*
G01X12132Y9938D01*
G01X12155Y9905D01*
G01X12180Y9874D01*
G01X12205Y9843D01*
G01X12231Y9813D01*
G01X12258Y9784D01*
G01X12286Y9756D01*
G01X12315Y9729D01*
G01X12345Y9703D01*
G01X12376Y9678D01*
G01X12407Y9653D01*
G01X12440Y9630D01*
G01X12473Y9608D01*
G01X12506Y9587D01*
G01X12541Y9567D01*
G01X12576Y9548D01*
G01X12611Y9530D01*
G01X12647Y9513D01*
G01X12684Y9498D01*
G01X12721Y9483D01*
G01X12758Y9470D01*
G01X12796Y9458D01*
G01X12835Y9448D01*
G01X12873Y9438D01*
G01X12912Y9430D01*
G01X12951Y9423D01*
G01X12991Y9417D01*
G01X13030Y9413D01*
G01X13070Y9410D01*
G01X13109Y9408D01*
G01X13149Y9407D01*
G01X13149Y9407D02*
G01X13189Y9408D01*
G01X13229Y9410D01*
G01X13268Y9413D01*
G01X13308Y9417D01*
G01X13347Y9423D01*
G01X13386Y9430D01*
G01X13425Y9438D01*
G01X13464Y9448D01*
G01X13502Y9458D01*
G01X13540Y9470D01*
G01X13577Y9483D01*
G01X13614Y9498D01*
G01X13651Y9513D01*
G01X13687Y9530D01*
G01X13723Y9548D01*
G01X13758Y9567D01*
G01X13792Y9587D01*
G01X13826Y9608D01*
G01X13859Y9630D01*
G01X13891Y9653D01*
G01X13922Y9678D01*
G01X13953Y9703D01*
G01X13983Y9729D01*
G01X14012Y9756D01*
G01X14040Y9784D01*
G01X14067Y9813D01*
G01X14093Y9843D01*
G01X14119Y9874D01*
G01X14143Y9905D01*
G01X14166Y9938D01*
G01X14188Y9971D01*
G01X14209Y10004D01*
G01X14230Y10038D01*
G01X14248Y10073D01*
G01X14266Y10109D01*
G01X14283Y10145D01*
G01X14298Y10182D01*
G01X14313Y10219D01*
G01X14326Y10256D01*
G01X14338Y10294D01*
G01X14349Y10332D01*
G01X14358Y10371D01*
G01X14366Y10410D01*
G01X14373Y10449D01*
G01X14379Y10488D01*
G01X14383Y10528D01*
G01X14387Y10568D01*
G01X14388Y10607D01*
G01X14389Y10647D01*
G01X14389Y10647D02*
G01X14388Y10687D01*
G01X14387Y10726D01*
G01X14383Y10766D01*
G01X14379Y10806D01*
G01X14373Y10845D01*
G01X14366Y10884D01*
G01X14358Y10923D01*
G01X14349Y10962D01*
G01X14338Y11000D01*
G01X14326Y11038D01*
G01X14313Y11075D01*
G01X14298Y11112D01*
G01X14283Y11149D01*
G01X14266Y11185D01*
G01X14248Y11221D01*
G01X14230Y11255D01*
G01X14209Y11290D01*
G01X14188Y11323D01*
G01X14166Y11356D01*
G01X14143Y11389D01*
G01X14119Y11420D01*
G01X14093Y11451D01*
G01X14067Y11481D01*
G01X14040Y11510D01*
G01X14012Y11538D01*
G01X13983Y11565D01*
G01X13953Y11591D01*
G01X13922Y11616D01*
G01X13891Y11641D01*
G01X13859Y11664D01*
G01X13826Y11686D01*
G01X13792Y11707D01*
G01X13758Y11727D01*
G01X13723Y11746D01*
G01X13687Y11764D01*
G01X13651Y11781D01*
G01X13614Y11796D01*
G01X13577Y11811D01*
G01X13540Y11824D01*
G01X13502Y11836D01*
G01X13464Y11846D01*
G01X13425Y11856D01*
G01X13386Y11864D01*
G01X13347Y11871D01*
G01X13308Y11877D01*
G01X13268Y11881D01*
G01X13229Y11884D01*
G01X13189Y11886D01*
G01X13149Y11887D01*
G04 Draw part srdecoup20*
G04 draw part outline for part srdecoup20*
G01X16035Y1961D02*
G01X16035Y1661D01*
G01X16185Y1811D02*
G01X15885Y1811D01*
G01X16535Y81D02*
G01X16575Y81D01*
G01X16614Y83D01*
G01X16654Y86D01*
G01X16694Y91D01*
G01X16733Y96D01*
G01X16772Y103D01*
G01X16811Y112D01*
G01X16849Y121D01*
G01X16888Y132D01*
G01X16926Y144D01*
G01X16963Y157D01*
G01X17000Y171D01*
G01X17037Y187D01*
G01X17073Y203D01*
G01X17108Y221D01*
G01X17143Y240D01*
G01X17178Y260D01*
G01X17211Y281D01*
G01X17244Y304D01*
G01X17277Y327D01*
G01X17308Y351D01*
G01X17339Y376D01*
G01X17369Y403D01*
G01X17398Y430D01*
G01X17426Y458D01*
G01X17453Y487D01*
G01X17479Y517D01*
G01X17504Y547D01*
G01X17529Y579D01*
G01X17552Y611D01*
G01X17574Y644D01*
G01X17595Y678D01*
G01X17615Y712D01*
G01X17634Y747D01*
G01X17652Y783D01*
G01X17669Y819D01*
G01X17684Y855D01*
G01X17699Y892D01*
G01X17712Y930D01*
G01X17724Y968D01*
G01X17734Y1006D01*
G01X17744Y1045D01*
G01X17752Y1083D01*
G01X17759Y1123D01*
G01X17765Y1162D01*
G01X17769Y1201D01*
G01X17772Y1241D01*
G01X17774Y1281D01*
G01X17775Y1321D01*
G01X17775Y1321D02*
G01X17774Y1360D01*
G01X17772Y1400D01*
G01X17769Y1440D01*
G01X17765Y1479D01*
G01X17759Y1518D01*
G01X17752Y1558D01*
G01X17744Y1596D01*
G01X17734Y1635D01*
G01X17724Y1673D01*
G01X17712Y1711D01*
G01X17699Y1749D01*
G01X17684Y1786D01*
G01X17669Y1822D01*
G01X17652Y1859D01*
G01X17634Y1894D01*
G01X17615Y1929D01*
G01X17595Y1963D01*
G01X17574Y1997D01*
G01X17552Y2030D01*
G01X17529Y2062D01*
G01X17504Y2094D01*
G01X17479Y2124D01*
G01X17453Y2154D01*
G01X17426Y2183D01*
G01X17398Y2211D01*
G01X17369Y2238D01*
G01X17339Y2265D01*
G01X17308Y2290D01*
G01X17277Y2314D01*
G01X17244Y2338D01*
G01X17211Y2360D01*
G01X17178Y2381D01*
G01X17143Y2401D01*
G01X17108Y2420D01*
G01X17073Y2438D01*
G01X17037Y2454D01*
G01X17000Y2470D01*
G01X16963Y2484D01*
G01X16926Y2497D01*
G01X16888Y2509D01*
G01X16849Y2520D01*
G01X16811Y2529D01*
G01X16772Y2538D01*
G01X16733Y2545D01*
G01X16694Y2550D01*
G01X16654Y2555D01*
G01X16614Y2558D01*
G01X16575Y2560D01*
G01X16535Y2561D01*
G01X16535Y2561D02*
G01X16495Y2560D01*
G01X16455Y2558D01*
G01X16416Y2555D01*
G01X16376Y2550D01*
G01X16337Y2545D01*
G01X16298Y2538D01*
G01X16259Y2529D01*
G01X16220Y2520D01*
G01X16182Y2509D01*
G01X16144Y2497D01*
G01X16107Y2484D01*
G01X16070Y2470D01*
G01X16033Y2454D01*
G01X15997Y2438D01*
G01X15961Y2420D01*
G01X15926Y2401D01*
G01X15892Y2381D01*
G01X15858Y2360D01*
G01X15826Y2338D01*
G01X15793Y2314D01*
G01X15762Y2290D01*
G01X15731Y2265D01*
G01X15701Y2238D01*
G01X15672Y2211D01*
G01X15644Y2183D01*
G01X15617Y2154D01*
G01X15591Y2124D01*
G01X15565Y2094D01*
G01X15541Y2062D01*
G01X15518Y2030D01*
G01X15496Y1997D01*
G01X15475Y1963D01*
G01X15454Y1929D01*
G01X15436Y1894D01*
G01X15418Y1859D01*
G01X15401Y1822D01*
G01X15386Y1786D01*
G01X15371Y1749D01*
G01X15358Y1711D01*
G01X15346Y1673D01*
G01X15335Y1635D01*
G01X15326Y1596D01*
G01X15318Y1558D01*
G01X15311Y1518D01*
G01X15305Y1479D01*
G01X15301Y1440D01*
G01X15297Y1400D01*
G01X15296Y1360D01*
G01X15295Y1321D01*
G01X15295Y1321D02*
G01X15296Y1281D01*
G01X15297Y1241D01*
G01X15301Y1201D01*
G01X15305Y1162D01*
G01X15311Y1123D01*
G01X15318Y1083D01*
G01X15326Y1045D01*
G01X15335Y1006D01*
G01X15346Y968D01*
G01X15358Y930D01*
G01X15371Y892D01*
G01X15386Y855D01*
G01X15401Y819D01*
G01X15418Y783D01*
G01X15436Y747D01*
G01X15454Y712D01*
G01X15475Y678D01*
G01X15496Y644D01*
G01X15518Y611D01*
G01X15541Y579D01*
G01X15565Y547D01*
G01X15591Y517D01*
G01X15617Y487D01*
G01X15644Y458D01*
G01X15672Y430D01*
G01X15701Y403D01*
G01X15731Y376D01*
G01X15762Y351D01*
G01X15793Y327D01*
G01X15826Y304D01*
G01X15858Y281D01*
G01X15892Y260D01*
G01X15926Y240D01*
G01X15961Y221D01*
G01X15997Y203D01*
G01X16033Y187D01*
G01X16070Y171D01*
G01X16107Y157D01*
G01X16144Y144D01*
G01X16182Y132D01*
G01X16220Y121D01*
G01X16259Y112D01*
G01X16298Y103D01*
G01X16337Y96D01*
G01X16376Y91D01*
G01X16416Y86D01*
G01X16455Y83D01*
G01X16495Y81D01*
G01X16535Y81D01*
G04 Draw part srdecoup21*
G04 draw part outline for part srdecoup21*
G01X12964Y8102D02*
G01X12964Y7802D01*
G01X13114Y7952D02*
G01X12814Y7952D01*
G01X13464Y6222D02*
G01X13504Y6223D01*
G01X13544Y6225D01*
G01X13583Y6228D01*
G01X13623Y6232D01*
G01X13662Y6238D01*
G01X13701Y6245D01*
G01X13740Y6253D01*
G01X13779Y6263D01*
G01X13817Y6274D01*
G01X13855Y6285D01*
G01X13892Y6299D01*
G01X13929Y6313D01*
G01X13966Y6328D01*
G01X14002Y6345D01*
G01X14038Y6363D01*
G01X14073Y6382D01*
G01X14107Y6402D01*
G01X14141Y6423D01*
G01X14173Y6445D01*
G01X14206Y6469D01*
G01X14237Y6493D01*
G01X14268Y6518D01*
G01X14298Y6544D01*
G01X14327Y6572D01*
G01X14355Y6600D01*
G01X14382Y6629D01*
G01X14408Y6658D01*
G01X14434Y6689D01*
G01X14458Y6721D01*
G01X14481Y6753D01*
G01X14503Y6786D01*
G01X14524Y6819D01*
G01X14545Y6854D01*
G01X14563Y6889D01*
G01X14581Y6924D01*
G01X14598Y6960D01*
G01X14613Y6997D01*
G01X14628Y7034D01*
G01X14641Y7072D01*
G01X14653Y7109D01*
G01X14664Y7148D01*
G01X14673Y7186D01*
G01X14681Y7225D01*
G01X14688Y7264D01*
G01X14694Y7304D01*
G01X14698Y7343D01*
G01X14702Y7383D01*
G01X14703Y7423D01*
G01X14704Y7462D01*
G01X14704Y7462D02*
G01X14703Y7502D01*
G01X14702Y7542D01*
G01X14698Y7581D01*
G01X14694Y7621D01*
G01X14688Y7660D01*
G01X14681Y7699D01*
G01X14673Y7738D01*
G01X14664Y7777D01*
G01X14653Y7815D01*
G01X14641Y7853D01*
G01X14628Y7891D01*
G01X14613Y7928D01*
G01X14598Y7964D01*
G01X14581Y8000D01*
G01X14563Y8036D01*
G01X14545Y8071D01*
G01X14524Y8105D01*
G01X14503Y8139D01*
G01X14481Y8172D01*
G01X14458Y8204D01*
G01X14434Y8235D01*
G01X14408Y8266D01*
G01X14382Y8296D01*
G01X14355Y8325D01*
G01X14327Y8353D01*
G01X14298Y8380D01*
G01X14268Y8406D01*
G01X14237Y8432D01*
G01X14206Y8456D01*
G01X14173Y8479D01*
G01X14141Y8501D01*
G01X14107Y8523D01*
G01X14073Y8543D01*
G01X14038Y8562D01*
G01X14002Y8579D01*
G01X13966Y8596D01*
G01X13929Y8612D01*
G01X13892Y8626D01*
G01X13855Y8639D01*
G01X13817Y8651D01*
G01X13779Y8662D01*
G01X13740Y8671D01*
G01X13701Y8679D01*
G01X13662Y8686D01*
G01X13623Y8692D01*
G01X13583Y8697D01*
G01X13544Y8700D01*
G01X13504Y8702D01*
G01X13464Y8702D01*
G01X13464Y8702D02*
G01X13424Y8702D01*
G01X13385Y8700D01*
G01X13345Y8697D01*
G01X13305Y8692D01*
G01X13266Y8686D01*
G01X13227Y8679D01*
G01X13188Y8671D01*
G01X13150Y8662D01*
G01X13111Y8651D01*
G01X13073Y8639D01*
G01X13036Y8626D01*
G01X12999Y8612D01*
G01X12962Y8596D01*
G01X12926Y8579D01*
G01X12891Y8562D01*
G01X12856Y8543D01*
G01X12821Y8523D01*
G01X12788Y8501D01*
G01X12755Y8479D01*
G01X12722Y8456D01*
G01X12691Y8432D01*
G01X12660Y8406D01*
G01X12630Y8380D01*
G01X12601Y8353D01*
G01X12573Y8325D01*
G01X12546Y8296D01*
G01X12520Y8266D01*
G01X12495Y8235D01*
G01X12470Y8204D01*
G01X12447Y8172D01*
G01X12425Y8139D01*
G01X12404Y8105D01*
G01X12384Y8071D01*
G01X12365Y8036D01*
G01X12347Y8000D01*
G01X12330Y7964D01*
G01X12315Y7928D01*
G01X12300Y7891D01*
G01X12287Y7853D01*
G01X12275Y7815D01*
G01X12265Y7777D01*
G01X12255Y7738D01*
G01X12247Y7699D01*
G01X12240Y7660D01*
G01X12234Y7621D01*
G01X12230Y7581D01*
G01X12227Y7542D01*
G01X12225Y7502D01*
G01X12224Y7462D01*
G01X12224Y7462D02*
G01X12225Y7423D01*
G01X12227Y7383D01*
G01X12230Y7343D01*
G01X12234Y7304D01*
G01X12240Y7264D01*
G01X12247Y7225D01*
G01X12255Y7186D01*
G01X12265Y7148D01*
G01X12275Y7109D01*
G01X12287Y7072D01*
G01X12300Y7034D01*
G01X12315Y6997D01*
G01X12330Y6960D01*
G01X12347Y6924D01*
G01X12365Y6889D01*
G01X12384Y6854D01*
G01X12404Y6819D01*
G01X12425Y6786D01*
G01X12447Y6753D01*
G01X12470Y6721D01*
G01X12495Y6689D01*
G01X12520Y6658D01*
G01X12546Y6629D01*
G01X12573Y6600D01*
G01X12601Y6572D01*
G01X12630Y6544D01*
G01X12660Y6518D01*
G01X12691Y6493D01*
G01X12722Y6469D01*
G01X12755Y6445D01*
G01X12788Y6423D01*
G01X12821Y6402D01*
G01X12856Y6382D01*
G01X12891Y6363D01*
G01X12926Y6345D01*
G01X12962Y6328D01*
G01X12999Y6313D01*
G01X13036Y6299D01*
G01X13073Y6285D01*
G01X13111Y6274D01*
G01X13150Y6263D01*
G01X13188Y6253D01*
G01X13227Y6245D01*
G01X13266Y6238D01*
G01X13305Y6232D01*
G01X13345Y6228D01*
G01X13385Y6225D01*
G01X13424Y6223D01*
G01X13464Y6222D01*
G04 Draw part cpudec*
G04 draw part outline for part cpudec*
G01X38228Y8326D02*
G01X38228Y9665D01*
G01X38228Y9665D02*
G01X38937Y9665D01*
G01X38937Y9665D02*
G01X38937Y8326D01*
G01X38937Y8326D02*
G01X38228Y8326D01*
G04 Draw part jumperblock*
G04 draw part outline for part jumperblock*
G04 Draw part mounthole3*
G04 draw part outline for part mounthole3*
G04 Draw part mounthole5*
G04 draw part outline for part mounthole5*
G04 Draw part 5vreg*
G04 draw part outline for part 5vreg*
G01X1968Y8307D02*
G01X1968Y6295D01*
G01X1968Y6295D02*
G01X2755Y6295D01*
G01X2755Y6295D02*
G01X2755Y8307D01*
G01X2755Y8307D02*
G01X1968Y8307D01*
G01X2165Y8307D02*
G01X2165Y8110D01*
G01X2165Y8110D02*
G01X2559Y8110D01*
G01X2559Y8110D02*
G01X2559Y8307D01*
G01X2559Y8307D02*
G01X2165Y8307D01*
G04 Draw part led400*
G04 draw part outline for part led400*
G01X8051Y12322D02*
G01X9389Y12322D01*
G01X9389Y12322D02*
G01X9389Y11614D01*
G01X9389Y11614D02*
G01X8051Y11614D01*
G01X8051Y11614D02*
G01X8051Y12322D01*
G04 Draw part dinpd*
G04 draw part outline for part dinpd*
G01X41062Y26358D02*
G01X41062Y27696D01*
G01X41062Y27696D02*
G01X41771Y27696D01*
G01X41771Y27696D02*
G01X41771Y26358D01*
G01X41771Y26358D02*
G01X41062Y26358D01*
G04 Draw part cpowpd*
G04 Draw part sysram*
G04 draw part outline for part sysram*
G01X19481Y6777D02*
G01X19481Y10477D01*
G01X19481Y10477D02*
G01X27581Y10477D01*
G01X27581Y10477D02*
G01X27581Y6777D01*
G01X27581Y6777D02*
G01X19481Y6777D01*
G01X19482Y8385D02*
G01X19482Y8818D01*
G01X19482Y8818D02*
G01X19738Y8818D01*
G01X19738Y8818D02*
G01X19738Y8385D01*
G01X19738Y8385D02*
G01X19482Y8385D01*
G04 draw reference designator for part sysram*
G01X22313Y8445D02*
G01X22336Y8399D01*
G01X22245Y8467D02*
G01X22313Y8445D01*
G01X22177Y8467D02*
G01X22245Y8467D01*
G01X22177Y8467D02*
G01X22109Y8445D01*
G01X22109Y8445D02*
G01X22086Y8399D01*
G01X22086Y8399D02*
G01X22109Y8354D01*
G01X22109Y8354D02*
G01X22154Y8331D01*
G01X22154Y8331D02*
G01X22268Y8308D01*
G01X22268Y8308D02*
G01X22313Y8285D01*
G01X22313Y8285D02*
G01X22336Y8240D01*
G01X22336Y8240D02*
G01X22336Y8217D01*
G01X22336Y8217D02*
G01X22313Y8172D01*
G01X22313Y8172D02*
G01X22245Y8149D01*
G01X22177Y8149D02*
G01X22245Y8149D01*
G01X22109Y8172D02*
G01X22177Y8149D01*
G01X22086Y8217D02*
G01X22109Y8172D01*
G01X22541Y8467D02*
G01X22677Y8149D01*
G01X22813Y8467D02*
G01X22677Y8149D01*
G01X22677Y8149D02*
G01X22632Y8058D01*
G01X22632Y8058D02*
G01X22586Y8013D01*
G01X22586Y8013D02*
G01X22541Y7990D01*
G01X22518Y7990D02*
G01X22541Y7990D01*
G01X23222Y8445D02*
G01X23245Y8399D01*
G01X23154Y8467D02*
G01X23222Y8445D01*
G01X23086Y8467D02*
G01X23154Y8467D01*
G01X23086Y8467D02*
G01X23018Y8445D01*
G01X23018Y8445D02*
G01X22995Y8399D01*
G01X22995Y8399D02*
G01X23018Y8354D01*
G01X23018Y8354D02*
G01X23063Y8331D01*
G01X23063Y8331D02*
G01X23177Y8308D01*
G01X23177Y8308D02*
G01X23222Y8285D01*
G01X23222Y8285D02*
G01X23245Y8240D01*
G01X23245Y8240D02*
G01X23245Y8217D01*
G01X23245Y8217D02*
G01X23222Y8172D01*
G01X23222Y8172D02*
G01X23154Y8149D01*
G01X23086Y8149D02*
G01X23154Y8149D01*
G01X23018Y8172D02*
G01X23086Y8149D01*
G01X22995Y8217D02*
G01X23018Y8172D01*
G01X23427Y8467D02*
G01X23427Y8149D01*
G01X23450Y8399D02*
G01X23427Y8331D01*
G01X23495Y8445D02*
G01X23450Y8399D01*
G01X23541Y8467D02*
G01X23495Y8445D01*
G01X23609Y8467D02*
G01X23541Y8467D01*
G01X24063Y8467D02*
G01X24063Y8149D01*
G01X24018Y8445D02*
G01X24063Y8399D01*
G01X23972Y8467D02*
G01X24018Y8445D01*
G01X23904Y8467D02*
G01X23972Y8467D01*
G01X23904Y8467D02*
G01X23859Y8445D01*
G01X23859Y8445D02*
G01X23813Y8399D01*
G01X23813Y8399D02*
G01X23791Y8331D01*
G01X23791Y8331D02*
G01X23791Y8285D01*
G01X23791Y8285D02*
G01X23813Y8217D01*
G01X23813Y8217D02*
G01X23859Y8172D01*
G01X23859Y8172D02*
G01X23904Y8149D01*
G01X23972Y8149D02*
G01X23904Y8149D01*
G01X24018Y8172D02*
G01X23972Y8149D01*
G01X24063Y8217D02*
G01X24018Y8172D01*
G01X24245Y8467D02*
G01X24245Y8149D01*
G01X24313Y8445D02*
G01X24245Y8376D01*
G01X24359Y8467D02*
G01X24313Y8445D01*
G01X24427Y8467D02*
G01X24359Y8467D01*
G01X24427Y8467D02*
G01X24472Y8445D01*
G01X24472Y8445D02*
G01X24495Y8376D01*
G01X24495Y8376D02*
G01X24495Y8149D01*
G01X24563Y8445D02*
G01X24495Y8376D01*
G01X24609Y8467D02*
G01X24563Y8445D01*
G01X24677Y8467D02*
G01X24609Y8467D01*
G01X24677Y8467D02*
G01X24722Y8445D01*
G01X24722Y8445D02*
G01X24745Y8376D01*
G01X24745Y8376D02*
G01X24745Y8149D01*
G04 Draw part smdcap*
G04 draw part outline for part smdcap*
G01X18877Y12165D02*
G01X20216Y12165D01*
G01X20216Y12165D02*
G01X20216Y11456D01*
G01X20216Y11456D02*
G01X18877Y11456D01*
G01X18877Y11456D02*
G01X18877Y12165D01*
G04 Draw part exp3*
G04 draw part outline for part exp3*
G54D11*
G01X9822Y27311D02*
G01X6822Y27311D01*
G01X6822Y27311D02*
G01X6822Y26311D01*
G01X6822Y26311D02*
G01X9822Y26311D01*
G01X9822Y26311D02*
G01X9822Y27311D01*
G04 Draw part progclk*
G04 draw part outline for part progclk*
G01X36850Y23385D02*
G01X36850Y22125D01*
G01X36850Y22125D02*
G01X35669Y22125D01*
G01X35669Y22125D02*
G01X35669Y23385D01*
G01X35669Y23385D02*
G01X36811Y23385D01*
G01X36692Y23228D02*
G01X36692Y23149D01*
G04 Draw part powcon*
G04 draw part outline for part powcon*
G04 Draw part oscbyp1*
G04 draw part outline for part oscbyp1*
G54D10*
G01X37047Y21240D02*
G01X37047Y22578D01*
G01X37047Y22578D02*
G01X37755Y22578D01*
G01X37755Y22578D02*
G01X37755Y21240D01*
G01X37755Y21240D02*
G01X37047Y21240D01*
G04 Draw part oscbyp2*
G04 draw part outline for part oscbyp2*
G01X38425Y22578D02*
G01X38425Y21240D01*
G01X38425Y21240D02*
G01X37716Y21240D01*
G01X37716Y21240D02*
G01X37716Y22578D01*
G01X37716Y22578D02*
G01X38425Y22578D01*
G04 Draw part oscbyp3*
G04 draw part outline for part oscbyp3*
G01X42125Y11594D02*
G01X42125Y12933D01*
G01X42125Y12933D02*
G01X42834Y12933D01*
G01X42834Y12933D02*
G01X42834Y11594D01*
G01X42834Y11594D02*
G01X42125Y11594D01*
G04 Draw part oscbyp4*
G04 draw part outline for part oscbyp4*
G01X41850Y12933D02*
G01X41850Y11594D01*
G01X41850Y11594D02*
G01X41141Y11594D01*
G01X41141Y11594D02*
G01X41141Y12933D01*
G01X41141Y12933D02*
G01X41850Y12933D01*
G04 Draw part oscbyp5*
G04 draw part outline for part oscbyp5*
G01X42834Y14389D02*
G01X42834Y13051D01*
G01X42834Y13051D02*
G01X42125Y13051D01*
G01X42125Y13051D02*
G01X42125Y14389D01*
G01X42125Y14389D02*
G01X42834Y14389D01*
G04 Draw part smefp*
G04 Draw part altepr*
G04 Draw part decap*
G04 Draw part xtal*
G04 draw part outline for part xtal*
G54D11*
G01X39893Y32633D02*
G01X42893Y32633D01*
G01X42893Y32633D02*
G01X42893Y31633D01*
G01X42893Y31633D02*
G01X39893Y31633D01*
G01X39893Y31633D02*
G01X39893Y32633D01*
G04 Draw part xcap1*
G04 Draw part xcap2*
G04 Draw part xcap4*
G04 draw part outline for part xcap4*
G04 Draw part xcap5*
G04 draw part outline for part xcap5*
G04 Draw part xcap6*
G04 Draw part xcap7*
G04 Draw part video*
G04 draw part outline for part video*
G01X18661Y47677D02*
G01X18661Y47283D01*
G01X18661Y47283D02*
G01X18661Y41850D01*
G01X18661Y41850D02*
G01X6141Y41850D01*
G01X6141Y41850D02*
G01X6141Y47677D01*
G01X6141Y47677D02*
G01X18661Y47677D01*
G04 Draw part dacres1*
G04 draw part outline for part dacres1*
G54D10*
G01X19724Y41279D02*
G01X19724Y39940D01*
G01X19724Y39940D02*
G01X19015Y39940D01*
G01X19015Y39940D02*
G01X19015Y41279D01*
G01X19015Y41279D02*
G01X19724Y41279D01*
G04 Draw part dacres2*
G04 draw part outline for part dacres2*
G01X20393Y41279D02*
G01X20393Y39940D01*
G01X20393Y39940D02*
G01X19685Y39940D01*
G01X19685Y39940D02*
G01X19685Y41279D01*
G01X19685Y41279D02*
G01X20393Y41279D01*
G04 Draw part dacres3*
G04 draw part outline for part dacres3*
G01X21102Y41279D02*
G01X21102Y39940D01*
G01X21102Y39940D02*
G01X20393Y39940D01*
G01X20393Y39940D02*
G01X20393Y41279D01*
G01X20393Y41279D02*
G01X21102Y41279D01*
G04 Draw part dacres4*
G04 draw part outline for part dacres4*
G01X21811Y41279D02*
G01X21811Y39940D01*
G01X21811Y39940D02*
G01X21102Y39940D01*
G01X21102Y39940D02*
G01X21102Y41279D01*
G01X21102Y41279D02*
G01X21811Y41279D01*
G04 Draw part dacres5*
G04 draw part outline for part dacres5*
G01X24645Y41279D02*
G01X24645Y39940D01*
G01X24645Y39940D02*
G01X23937Y39940D01*
G01X23937Y39940D02*
G01X23937Y41279D01*
G01X23937Y41279D02*
G01X24645Y41279D01*
G04 Draw part dacres6*
G04 draw part outline for part dacres6*
G01X23228Y41279D02*
G01X23228Y39940D01*
G01X23228Y39940D02*
G01X22519Y39940D01*
G01X22519Y39940D02*
G01X22519Y41279D01*
G01X22519Y41279D02*
G01X23228Y41279D01*
G04 Draw part dacres7*
G04 draw part outline for part dacres7*
G01X23937Y41279D02*
G01X23937Y39940D01*
G01X23937Y39940D02*
G01X23228Y39940D01*
G01X23228Y39940D02*
G01X23228Y41279D01*
G01X23228Y41279D02*
G01X23937Y41279D01*
G04 Draw part dacres8*
G04 draw part outline for part dacres8*
G01X22519Y41279D02*
G01X22519Y39940D01*
G01X22519Y39940D02*
G01X21811Y39940D01*
G01X21811Y39940D02*
G01X21811Y41279D01*
G01X21811Y41279D02*
G01X22519Y41279D01*
G04 Draw part dacres9*
G04 draw part outline for part dacres9*
G01X25393Y41279D02*
G01X25393Y39940D01*
G01X25393Y39940D02*
G01X24685Y39940D01*
G01X24685Y39940D02*
G01X24685Y41279D01*
G01X24685Y41279D02*
G01X25393Y41279D01*
G04 Draw part dacres10*
G04 draw part outline for part dacres10*
G01X26102Y41279D02*
G01X26102Y39940D01*
G01X26102Y39940D02*
G01X25393Y39940D01*
G01X25393Y39940D02*
G01X25393Y41279D01*
G01X25393Y41279D02*
G01X26102Y41279D01*
G04 Draw part dacres11*
G04 draw part outline for part dacres11*
G01X26811Y41279D02*
G01X26811Y39940D01*
G01X26811Y39940D02*
G01X26102Y39940D01*
G01X26102Y39940D02*
G01X26102Y41279D01*
G01X26102Y41279D02*
G01X26811Y41279D01*
G04 Draw part dacres12*
G04 draw part outline for part dacres12*
G01X27519Y41279D02*
G01X27519Y39940D01*
G01X27519Y39940D02*
G01X26811Y39940D01*
G01X26811Y39940D02*
G01X26811Y41279D01*
G01X26811Y41279D02*
G01X27519Y41279D01*
G04 Draw part dacres14*
G04 Draw part dacres15*
G04 draw part outline for part dacres15*
G04 Draw part dacres16*
G04 draw part outline for part dacres16*
G04 Draw part comport*
G04 draw part outline for part comport*
G54D11*
G01X78Y43110D02*
G01X78Y37598D01*
G01X78Y37598D02*
G01X5196Y37598D01*
G01X5196Y37598D02*
G01X5196Y43110D01*
G01X5196Y43110D02*
G01X78Y43110D01*
G04 Draw part foscen*
G04 Draw part pullupsca*
G04 Draw part ledtran*
G04 draw part outline for part ledtran*
G54D10*
G01X40441Y17780D02*
G01X41841Y17780D01*
G01X41841Y17780D02*
G01X41841Y16100D01*
G01X41841Y16100D02*
G01X40441Y16100D01*
G01X40441Y16100D02*
G01X40441Y17780D01*
G04 Draw part ledres1*
G04 draw part outline for part ledres1*
G01X39527Y18208D02*
G01X39527Y19547D01*
G01X39527Y19547D02*
G01X40236Y19547D01*
G01X40236Y19547D02*
G01X40236Y18208D01*
G01X40236Y18208D02*
G01X39527Y18208D01*
G04 Draw part ledres2*
G04 draw part outline for part ledres2*
G01X40452Y19566D02*
G01X41791Y19566D01*
G01X41791Y19566D02*
G01X41791Y18858D01*
G01X41791Y18858D02*
G01X40452Y18858D01*
G01X40452Y18858D02*
G01X40452Y19566D01*
G04 Draw part ledres3*
G04 draw part outline for part ledres3*
G01X40452Y18661D02*
G01X41791Y18661D01*
G01X41791Y18661D02*
G01X41791Y17952D01*
G01X41791Y17952D02*
G01X40452Y17952D01*
G01X40452Y17952D02*
G01X40452Y18661D01*
G04 Draw part altsdled*
G04 Draw part myvia1*
G04 draw part outline for part myvia1*
G04 Draw part myvia2*
G04 draw part outline for part myvia2*
G04 Draw part myvia3*
G04 draw part outline for part myvia3*
G04 Draw part syncres1*
G04 draw part outline for part syncres1*
G01X17145Y40551D02*
G01X18484Y40551D01*
G01X18484Y40551D02*
G01X18484Y39842D01*
G01X18484Y39842D02*
G01X17145Y39842D01*
G01X17145Y39842D02*
G01X17145Y40551D01*
G04 Draw part syncres2*
G04 draw part outline for part syncres2*
G01X17145Y41259D02*
G01X18484Y41259D01*
G01X18484Y41259D02*
G01X18484Y40551D01*
G01X18484Y40551D02*
G01X17145Y40551D01*
G01X17145Y40551D02*
G01X17145Y41259D01*

G04 Draw traces*

G04 Draw Text*
G01X10236Y21320D02*
G01X10379Y20944D01*
G01X10522Y21320D02*
G01X10379Y20944D01*
G01X10934Y21231D02*
G01X10916Y21267D01*
G01X10916Y21267D02*
G01X10880Y21302D01*
G01X10880Y21302D02*
G01X10844Y21320D01*
G01X10844Y21320D02*
G01X10773Y21320D01*
G01X10773Y21320D02*
G01X10737Y21302D01*
G01X10737Y21302D02*
G01X10701Y21267D01*
G01X10701Y21267D02*
G01X10683Y21231D01*
G01X10683Y21231D02*
G01X10665Y21177D01*
G01X10665Y21177D02*
G01X10665Y21088D01*
G01X10665Y21088D02*
G01X10683Y21034D01*
G01X10683Y21034D02*
G01X10701Y20998D01*
G01X10701Y20998D02*
G01X10737Y20962D01*
G01X10737Y20962D02*
G01X10773Y20944D01*
G01X10773Y20944D02*
G01X10844Y20944D01*
G01X10844Y20944D02*
G01X10880Y20962D01*
G01X10880Y20962D02*
G01X10916Y20998D01*
G01X10916Y20998D02*
G01X10934Y21034D01*
G01X11345Y21231D02*
G01X11327Y21267D01*
G01X11327Y21267D02*
G01X11292Y21302D01*
G01X11292Y21302D02*
G01X11256Y21320D01*
G01X11256Y21320D02*
G01X11184Y21320D01*
G01X11184Y21320D02*
G01X11148Y21302D01*
G01X11148Y21302D02*
G01X11113Y21267D01*
G01X11113Y21267D02*
G01X11095Y21231D01*
G01X11095Y21231D02*
G01X11077Y21177D01*
G01X11077Y21177D02*
G01X11077Y21088D01*
G01X11077Y21088D02*
G01X11095Y21034D01*
G01X11095Y21034D02*
G01X11113Y20998D01*
G01X11113Y20998D02*
G01X11148Y20962D01*
G01X11148Y20962D02*
G01X11184Y20944D01*
G01X11184Y20944D02*
G01X11256Y20944D01*
G01X11256Y20944D02*
G01X11292Y20962D01*
G01X11292Y20962D02*
G01X11327Y20998D01*
G01X11327Y20998D02*
G01X11345Y21034D01*
G01X10504Y20168D02*
G01X10486Y20204D01*
G01X10486Y20204D02*
G01X10450Y20239D01*
G01X10450Y20239D02*
G01X10415Y20257D01*
G01X10415Y20257D02*
G01X10343Y20257D01*
G01X10343Y20257D02*
G01X10307Y20239D01*
G01X10307Y20239D02*
G01X10272Y20204D01*
G01X10272Y20204D02*
G01X10254Y20168D01*
G01X10254Y20168D02*
G01X10236Y20114D01*
G01X10236Y20114D02*
G01X10236Y20025D01*
G01X10236Y20025D02*
G01X10254Y19971D01*
G01X10254Y19971D02*
G01X10272Y19935D01*
G01X10272Y19935D02*
G01X10307Y19899D01*
G01X10307Y19899D02*
G01X10343Y19881D01*
G01X10343Y19881D02*
G01X10415Y19881D01*
G01X10415Y19881D02*
G01X10450Y19899D01*
G01X10450Y19899D02*
G01X10486Y19935D01*
G01X10486Y19935D02*
G01X10504Y19971D01*
G01X10504Y19971D02*
G01X10504Y20025D01*
G01X10415Y20025D02*
G01X10504Y20025D01*
G01X10647Y20257D02*
G01X10647Y19881D01*
G01X10647Y20257D02*
G01X10898Y19881D01*
G01X10898Y20257D02*
G01X10898Y19881D01*
G01X11041Y20257D02*
G01X11041Y19881D01*
G01X11041Y20257D02*
G01X11166Y20257D01*
G01X11166Y20257D02*
G01X11220Y20239D01*
G01X11220Y20239D02*
G01X11256Y20204D01*
G01X11256Y20204D02*
G01X11274Y20168D01*
G01X11274Y20168D02*
G01X11292Y20114D01*
G01X11292Y20114D02*
G01X11292Y20025D01*
G01X11292Y20025D02*
G01X11274Y19971D01*
G01X11274Y19971D02*
G01X11256Y19935D01*
G01X11256Y19935D02*
G01X11220Y19899D01*
G01X11220Y19899D02*
G01X11166Y19881D01*
G01X11166Y19881D02*
G01X11041Y19881D01*
G01X10282Y16281D02*
G01X10282Y15905D01*
G01X10157Y16281D02*
G01X10408Y16281D01*
G01X10551Y16281D02*
G01X10551Y15905D01*
G01X10551Y16281D02*
G01X10694Y15905D01*
G01X10837Y16281D02*
G01X10694Y15905D01*
G01X10837Y16281D02*
G01X10837Y15905D01*
G01X11231Y16227D02*
G01X11195Y16263D01*
G01X11195Y16263D02*
G01X11141Y16281D01*
G01X11141Y16281D02*
G01X11070Y16281D01*
G01X11070Y16281D02*
G01X11016Y16263D01*
G01X11016Y16263D02*
G01X10980Y16227D01*
G01X10980Y16227D02*
G01X10980Y16191D01*
G01X10980Y16191D02*
G01X10998Y16156D01*
G01X10998Y16156D02*
G01X11016Y16138D01*
G01X11016Y16138D02*
G01X11052Y16120D01*
G01X11052Y16120D02*
G01X11159Y16084D01*
G01X11159Y16084D02*
G01X11195Y16066D01*
G01X11195Y16066D02*
G01X11213Y16048D01*
G01X11213Y16048D02*
G01X11231Y16012D01*
G01X11231Y16012D02*
G01X11231Y15959D01*
G01X11231Y15959D02*
G01X11195Y15923D01*
G01X11195Y15923D02*
G01X11141Y15905D01*
G01X11141Y15905D02*
G01X11070Y15905D01*
G01X11070Y15905D02*
G01X11016Y15923D01*
G01X11016Y15923D02*
G01X10980Y15959D01*
G54D11*
G01X9081Y17551D02*
G01X9511Y17551D01*
G01X9511Y17551D02*
G01X9591Y17525D01*
G01X9591Y17525D02*
G01X9618Y17498D01*
G01X9618Y17498D02*
G01X9645Y17444D01*
G01X9645Y17444D02*
G01X9645Y17390D01*
G01X9645Y17390D02*
G01X9618Y17337D01*
G01X9618Y17337D02*
G01X9591Y17310D01*
G01X9591Y17310D02*
G01X9511Y17283D01*
G01X9511Y17283D02*
G01X9457Y17283D01*
G01X9081Y17954D02*
G01X9645Y17954D01*
G01X9081Y17766D02*
G01X9081Y18142D01*
G01X9081Y18571D02*
G01X9645Y18357D01*
G01X9081Y18571D02*
G01X9645Y18786D01*
G01X9457Y18437D02*
G01X9457Y18706D01*
G01X9216Y19404D02*
G01X9162Y19377D01*
G01X9162Y19377D02*
G01X9108Y19323D01*
G01X9108Y19323D02*
G01X9081Y19269D01*
G01X9081Y19269D02*
G01X9081Y19162D01*
G01X9081Y19162D02*
G01X9108Y19108D01*
G01X9108Y19108D02*
G01X9162Y19055D01*
G01X9162Y19055D02*
G01X9216Y19028D01*
G01X9216Y19028D02*
G01X9296Y19001D01*
G01X9296Y19001D02*
G01X9430Y19001D01*
G01X9430Y19001D02*
G01X9511Y19028D01*
G01X9511Y19028D02*
G01X9565Y19055D01*
G01X9565Y19055D02*
G01X9618Y19108D01*
G01X9618Y19108D02*
G01X9645Y19162D01*
G01X9645Y19162D02*
G01X9645Y19269D01*
G01X9645Y19269D02*
G01X9618Y19323D01*
G01X9618Y19323D02*
G01X9565Y19377D01*
G01X9565Y19377D02*
G01X9511Y19404D01*
G01X9511Y19404D02*
G01X9430Y19404D01*
G01X9430Y19269D02*
G01X9430Y19404D01*
G54D10*
G01X10361Y17265D02*
G01X10361Y16889D01*
G01X10236Y17265D02*
G01X10486Y17265D01*
G01X10629Y17265D02*
G01X10629Y16889D01*
G01X10629Y17265D02*
G01X10755Y17265D01*
G01X10755Y17265D02*
G01X10808Y17247D01*
G01X10808Y17247D02*
G01X10844Y17211D01*
G01X10844Y17211D02*
G01X10862Y17176D01*
G01X10862Y17176D02*
G01X10880Y17122D01*
G01X10880Y17122D02*
G01X10880Y17032D01*
G01X10880Y17032D02*
G01X10862Y16979D01*
G01X10862Y16979D02*
G01X10844Y16943D01*
G01X10844Y16943D02*
G01X10808Y16907D01*
G01X10808Y16907D02*
G01X10755Y16889D01*
G01X10755Y16889D02*
G01X10629Y16889D01*
G01X11023Y17265D02*
G01X11023Y16889D01*
G01X10322Y18249D02*
G01X10322Y17874D01*
G01X10196Y18249D02*
G01X10447Y18249D01*
G01X10590Y18249D02*
G01X10590Y17874D01*
G01X10590Y18249D02*
G01X10715Y18249D01*
G01X10715Y18249D02*
G01X10769Y18231D01*
G01X10769Y18231D02*
G01X10805Y18196D01*
G01X10805Y18196D02*
G01X10823Y18160D01*
G01X10823Y18160D02*
G01X10841Y18106D01*
G01X10841Y18106D02*
G01X10841Y18017D01*
G01X10841Y18017D02*
G01X10823Y17963D01*
G01X10823Y17963D02*
G01X10805Y17927D01*
G01X10805Y17927D02*
G01X10769Y17891D01*
G01X10769Y17891D02*
G01X10715Y17874D01*
G01X10715Y17874D02*
G01X10590Y17874D01*
G01X11091Y18249D02*
G01X11037Y18231D01*
G01X11037Y18231D02*
G01X11002Y18178D01*
G01X11002Y18178D02*
G01X10984Y18088D01*
G01X10984Y18088D02*
G01X10984Y18035D01*
G01X10984Y18035D02*
G01X11002Y17945D01*
G01X11002Y17945D02*
G01X11037Y17891D01*
G01X11037Y17891D02*
G01X11091Y17874D01*
G01X11091Y17874D02*
G01X11127Y17874D01*
G01X11127Y17874D02*
G01X11181Y17891D01*
G01X11181Y17891D02*
G01X11216Y17945D01*
G01X11216Y17945D02*
G01X11234Y18035D01*
G01X11234Y18035D02*
G01X11234Y18088D01*
G01X11234Y18088D02*
G01X11216Y18178D01*
G01X11216Y18178D02*
G01X11181Y18231D01*
G01X11181Y18231D02*
G01X11127Y18249D01*
G01X11127Y18249D02*
G01X11091Y18249D01*
G01X10361Y19234D02*
G01X10361Y18858D01*
G01X10236Y19234D02*
G01X10486Y19234D01*
G01X10898Y19144D02*
G01X10880Y19180D01*
G01X10880Y19180D02*
G01X10844Y19216D01*
G01X10844Y19216D02*
G01X10808Y19234D01*
G01X10808Y19234D02*
G01X10737Y19234D01*
G01X10737Y19234D02*
G01X10701Y19216D01*
G01X10701Y19216D02*
G01X10665Y19180D01*
G01X10665Y19180D02*
G01X10647Y19144D01*
G01X10647Y19144D02*
G01X10629Y19090D01*
G01X10629Y19090D02*
G01X10629Y19001D01*
G01X10629Y19001D02*
G01X10647Y18947D01*
G01X10647Y18947D02*
G01X10665Y18911D01*
G01X10665Y18911D02*
G01X10701Y18876D01*
G01X10701Y18876D02*
G01X10737Y18858D01*
G01X10737Y18858D02*
G01X10808Y18858D01*
G01X10808Y18858D02*
G01X10844Y18876D01*
G01X10844Y18876D02*
G01X10880Y18911D01*
G01X10880Y18911D02*
G01X10898Y18947D01*
G01X11041Y19234D02*
G01X11041Y18858D01*
G01X11292Y19234D02*
G01X11041Y18983D01*
G01X11130Y19073D02*
G01X11292Y18858D01*
G54D11*
G01X25971Y21808D02*
G01X25971Y21450D01*
G01X25971Y21450D02*
G01X25949Y21383D01*
G01X25949Y21383D02*
G01X25926Y21360D01*
G01X25926Y21360D02*
G01X25882Y21338D01*
G01X25882Y21338D02*
G01X25837Y21338D01*
G01X25837Y21338D02*
G01X25792Y21360D01*
G01X25792Y21360D02*
G01X25770Y21383D01*
G01X25770Y21383D02*
G01X25748Y21450D01*
G01X25748Y21450D02*
G01X25748Y21495D01*
G01X26150Y21718D02*
G01X26195Y21741D01*
G01X26195Y21741D02*
G01X26262Y21808D01*
G01X26262Y21808D02*
G01X26262Y21338D01*
G01X43963Y21257D02*
G01X43963Y20899D01*
G01X43963Y20899D02*
G01X43941Y20832D01*
G01X43941Y20832D02*
G01X43919Y20809D01*
G01X43919Y20809D02*
G01X43874Y20787D01*
G01X43874Y20787D02*
G01X43829Y20787D01*
G01X43829Y20787D02*
G01X43784Y20809D01*
G01X43784Y20809D02*
G01X43762Y20832D01*
G01X43762Y20832D02*
G01X43740Y20899D01*
G01X43740Y20899D02*
G01X43740Y20943D01*
G01X44165Y21145D02*
G01X44165Y21167D01*
G01X44165Y21167D02*
G01X44187Y21212D01*
G01X44187Y21212D02*
G01X44209Y21234D01*
G01X44209Y21234D02*
G01X44254Y21257D01*
G01X44254Y21257D02*
G01X44344Y21257D01*
G01X44344Y21257D02*
G01X44388Y21234D01*
G01X44388Y21234D02*
G01X44411Y21212D01*
G01X44411Y21212D02*
G01X44433Y21167D01*
G01X44433Y21167D02*
G01X44433Y21122D01*
G01X44433Y21122D02*
G01X44411Y21078D01*
G01X44411Y21078D02*
G01X44366Y21011D01*
G01X44366Y21011D02*
G01X44142Y20787D01*
G01X44142Y20787D02*
G01X44455Y20787D01*
G54D10*
G01X2635Y7566D02*
G01X2635Y7789D01*
G01X2635Y7789D02*
G01X2433Y7812D01*
G01X2433Y7812D02*
G01X2456Y7789D01*
G01X2456Y7789D02*
G01X2478Y7722D01*
G01X2478Y7722D02*
G01X2478Y7655D01*
G01X2478Y7655D02*
G01X2456Y7588D01*
G01X2456Y7588D02*
G01X2411Y7543D01*
G01X2411Y7543D02*
G01X2344Y7521D01*
G01X2344Y7521D02*
G01X2299Y7521D01*
G01X2299Y7521D02*
G01X2232Y7543D01*
G01X2232Y7543D02*
G01X2187Y7588D01*
G01X2187Y7588D02*
G01X2165Y7655D01*
G01X2165Y7655D02*
G01X2165Y7722D01*
G01X2165Y7722D02*
G01X2187Y7789D01*
G01X2187Y7789D02*
G01X2210Y7812D01*
G01X2210Y7812D02*
G01X2254Y7834D01*
G01X2478Y7342D02*
G01X2165Y7208D01*
G01X2478Y7074D02*
G01X2165Y7208D01*
G01X9328Y8380D02*
G01X9328Y8134D01*
G01X9328Y8134D02*
G01X9149Y8268D01*
G01X9149Y8268D02*
G01X9149Y8201D01*
G01X9149Y8201D02*
G01X9126Y8156D01*
G01X9126Y8156D02*
G01X9104Y8134D01*
G01X9104Y8134D02*
G01X9037Y8112D01*
G01X9037Y8112D02*
G01X8992Y8112D01*
G01X8992Y8112D02*
G01X8925Y8134D01*
G01X8925Y8134D02*
G01X8880Y8179D01*
G01X8880Y8179D02*
G01X8858Y8246D01*
G01X8858Y8246D02*
G01X8858Y8313D01*
G01X8858Y8313D02*
G01X8880Y8380D01*
G01X8880Y8380D02*
G01X8903Y8402D01*
G01X8903Y8402D02*
G01X8947Y8425D01*
G01X8903Y7910D02*
G01X8880Y7933D01*
G01X8880Y7933D02*
G01X8858Y7910D01*
G01X8858Y7910D02*
G01X8880Y7888D01*
G01X8880Y7888D02*
G01X8903Y7910D01*
G01X9328Y7664D02*
G01X9328Y7418D01*
G01X9328Y7418D02*
G01X9149Y7552D01*
G01X9149Y7552D02*
G01X9149Y7485D01*
G01X9149Y7485D02*
G01X9126Y7440D01*
G01X9126Y7440D02*
G01X9104Y7418D01*
G01X9104Y7418D02*
G01X9037Y7396D01*
G01X9037Y7396D02*
G01X8992Y7396D01*
G01X8992Y7396D02*
G01X8925Y7418D01*
G01X8925Y7418D02*
G01X8880Y7463D01*
G01X8880Y7463D02*
G01X8858Y7530D01*
G01X8858Y7530D02*
G01X8858Y7597D01*
G01X8858Y7597D02*
G01X8880Y7664D01*
G01X8880Y7664D02*
G01X8903Y7687D01*
G01X8903Y7687D02*
G01X8947Y7709D01*
G01X9171Y7217D02*
G01X8858Y7083D01*
G01X9171Y6948D02*
G01X8858Y7083D01*
G01X24763Y1060D02*
G01X24763Y590D01*
G01X24763Y1060D02*
G01X24965Y1060D01*
G01X24965Y1060D02*
G01X25032Y1037D01*
G01X25032Y1037D02*
G01X25054Y1015D01*
G01X25054Y1015D02*
G01X25076Y970D01*
G01X25076Y970D02*
G01X25076Y926D01*
G01X25076Y926D02*
G01X25054Y881D01*
G01X25054Y881D02*
G01X25032Y858D01*
G01X25032Y858D02*
G01X24965Y836D01*
G01X24763Y836D02*
G01X24965Y836D01*
G01X24965Y836D02*
G01X25032Y814D01*
G01X25032Y814D02*
G01X25054Y791D01*
G01X25054Y791D02*
G01X25076Y747D01*
G01X25076Y747D02*
G01X25076Y680D01*
G01X25076Y680D02*
G01X25054Y635D01*
G01X25054Y635D02*
G01X25032Y612D01*
G01X25032Y612D02*
G01X24965Y590D01*
G01X24965Y590D02*
G01X24763Y590D01*
G01X25278Y903D02*
G01X25412Y590D01*
G01X25546Y903D02*
G01X25412Y590D01*
G01X25412Y590D02*
G01X25367Y501D01*
G01X25367Y501D02*
G01X25323Y456D01*
G01X25323Y456D02*
G01X25278Y433D01*
G01X25278Y433D02*
G01X25255Y433D01*
G01X26083Y1060D02*
G01X26083Y590D01*
G01X26083Y1060D02*
G01X26284Y1060D01*
G01X26284Y1060D02*
G01X26352Y1037D01*
G01X26352Y1037D02*
G01X26374Y1015D01*
G01X26374Y1015D02*
G01X26396Y970D01*
G01X26396Y970D02*
G01X26396Y903D01*
G01X26396Y903D02*
G01X26374Y858D01*
G01X26374Y858D02*
G01X26352Y836D01*
G01X26352Y836D02*
G01X26284Y814D01*
G01X26284Y814D02*
G01X26083Y814D01*
G01X26598Y635D02*
G01X26575Y612D01*
G01X26575Y612D02*
G01X26598Y590D01*
G01X26598Y590D02*
G01X26620Y612D01*
G01X26620Y612D02*
G01X26598Y635D01*
G01X26799Y1060D02*
G01X26799Y590D01*
G01X26799Y1060D02*
G01X27000Y1060D01*
G01X27000Y1060D02*
G01X27067Y1037D01*
G01X27067Y1037D02*
G01X27090Y1015D01*
G01X27090Y1015D02*
G01X27112Y970D01*
G01X27112Y970D02*
G01X27112Y926D01*
G01X27112Y926D02*
G01X27090Y881D01*
G01X27090Y881D02*
G01X27067Y858D01*
G01X27067Y858D02*
G01X27000Y836D01*
G01X27000Y836D02*
G01X26799Y836D01*
G01X26955Y836D02*
G01X27112Y590D01*
G01X27291Y903D02*
G01X27291Y680D01*
G01X27291Y680D02*
G01X27313Y612D01*
G01X27313Y612D02*
G01X27358Y590D01*
G01X27358Y590D02*
G01X27425Y590D01*
G01X27425Y590D02*
G01X27470Y612D01*
G01X27470Y612D02*
G01X27537Y680D01*
G01X27537Y903D02*
G01X27537Y590D01*
G01X27962Y836D02*
G01X27940Y881D01*
G01X27940Y881D02*
G01X27873Y903D01*
G01X27873Y903D02*
G01X27806Y903D01*
G01X27806Y903D02*
G01X27738Y881D01*
G01X27738Y881D02*
G01X27716Y836D01*
G01X27716Y836D02*
G01X27738Y791D01*
G01X27738Y791D02*
G01X27783Y769D01*
G01X27783Y769D02*
G01X27895Y747D01*
G01X27895Y747D02*
G01X27940Y724D01*
G01X27940Y724D02*
G01X27962Y680D01*
G01X27962Y680D02*
G01X27962Y657D01*
G01X27962Y657D02*
G01X27940Y612D01*
G01X27940Y612D02*
G01X27873Y590D01*
G01X27873Y590D02*
G01X27806Y590D01*
G01X27806Y590D02*
G01X27738Y612D01*
G01X27738Y612D02*
G01X27716Y657D01*
G01X28208Y1060D02*
G01X28208Y680D01*
G01X28208Y680D02*
G01X28231Y612D01*
G01X28231Y612D02*
G01X28275Y590D01*
G01X28275Y590D02*
G01X28320Y590D01*
G01X28141Y903D02*
G01X28298Y903D01*
G01X28611Y903D02*
G01X28566Y881D01*
G01X28566Y881D02*
G01X28521Y836D01*
G01X28521Y836D02*
G01X28499Y769D01*
G01X28499Y769D02*
G01X28499Y724D01*
G01X28499Y724D02*
G01X28521Y657D01*
G01X28521Y657D02*
G01X28566Y612D01*
G01X28566Y612D02*
G01X28611Y590D01*
G01X28611Y590D02*
G01X28678Y590D01*
G01X28678Y590D02*
G01X28723Y612D01*
G01X28723Y612D02*
G01X28767Y657D01*
G01X28767Y657D02*
G01X28790Y724D01*
G01X28790Y724D02*
G01X28790Y769D01*
G01X28790Y769D02*
G01X28767Y836D01*
G01X28767Y836D02*
G01X28723Y881D01*
G01X28723Y881D02*
G01X28678Y903D01*
G01X28678Y903D02*
G01X28611Y903D01*
G01X28969Y903D02*
G01X28969Y590D01*
G01X28969Y814D02*
G01X29036Y881D01*
G01X29036Y881D02*
G01X29081Y903D01*
G01X29081Y903D02*
G01X29148Y903D01*
G01X29148Y903D02*
G01X29192Y881D01*
G01X29192Y881D02*
G01X29215Y814D01*
G01X29215Y814D02*
G01X29215Y590D01*
G01X29774Y948D02*
G01X29774Y970D01*
G01X29774Y970D02*
G01X29796Y1015D01*
G01X29796Y1015D02*
G01X29819Y1037D01*
G01X29819Y1037D02*
G01X29863Y1060D01*
G01X29863Y1060D02*
G01X29953Y1060D01*
G01X29953Y1060D02*
G01X29998Y1037D01*
G01X29998Y1037D02*
G01X30020Y1015D01*
G01X30020Y1015D02*
G01X30042Y970D01*
G01X30042Y970D02*
G01X30042Y926D01*
G01X30042Y926D02*
G01X30020Y881D01*
G01X30020Y881D02*
G01X29975Y814D01*
G01X29975Y814D02*
G01X29752Y590D01*
G01X29752Y590D02*
G01X30065Y590D01*
G01X30378Y1060D02*
G01X30311Y1037D01*
G01X30311Y1037D02*
G01X30266Y970D01*
G01X30266Y970D02*
G01X30244Y858D01*
G01X30244Y858D02*
G01X30244Y791D01*
G01X30244Y791D02*
G01X30266Y680D01*
G01X30266Y680D02*
G01X30311Y612D01*
G01X30311Y612D02*
G01X30378Y590D01*
G01X30378Y590D02*
G01X30423Y590D01*
G01X30423Y590D02*
G01X30490Y612D01*
G01X30490Y612D02*
G01X30535Y680D01*
G01X30535Y680D02*
G01X30557Y791D01*
G01X30557Y791D02*
G01X30557Y858D01*
G01X30557Y858D02*
G01X30535Y970D01*
G01X30535Y970D02*
G01X30490Y1037D01*
G01X30490Y1037D02*
G01X30423Y1060D01*
G01X30423Y1060D02*
G01X30378Y1060D01*
G01X30736Y970D02*
G01X30781Y993D01*
G01X30781Y993D02*
G01X30848Y1060D01*
G01X30848Y1060D02*
G01X30848Y590D01*
G01X31161Y1060D02*
G01X31094Y1037D01*
G01X31094Y1037D02*
G01X31049Y970D01*
G01X31049Y970D02*
G01X31027Y858D01*
G01X31027Y858D02*
G01X31027Y791D01*
G01X31027Y791D02*
G01X31049Y680D01*
G01X31049Y680D02*
G01X31094Y612D01*
G01X31094Y612D02*
G01X31161Y590D01*
G01X31161Y590D02*
G01X31206Y590D01*
G01X31206Y590D02*
G01X31273Y612D01*
G01X31273Y612D02*
G01X31318Y680D01*
G01X31318Y680D02*
G01X31340Y791D01*
G01X31340Y791D02*
G01X31340Y858D01*
G01X31340Y858D02*
G01X31318Y970D01*
G01X31318Y970D02*
G01X31273Y1037D01*
G01X31273Y1037D02*
G01X31206Y1060D01*
G01X31206Y1060D02*
G01X31161Y1060D01*
G01X31877Y791D02*
G01X32279Y791D01*
G01X32816Y1060D02*
G01X32928Y590D01*
G01X33040Y1060D02*
G01X32928Y590D01*
G01X33040Y1060D02*
G01X33152Y590D01*
G01X33264Y1060D02*
G01X33152Y590D01*
G01X33443Y1060D02*
G01X33554Y590D01*
G01X33666Y1060D02*
G01X33554Y590D01*
G01X33666Y1060D02*
G01X33778Y590D01*
G01X33890Y1060D02*
G01X33778Y590D01*
G01X34069Y1060D02*
G01X34181Y590D01*
G01X34293Y1060D02*
G01X34181Y590D01*
G01X34293Y1060D02*
G01X34404Y590D01*
G01X34516Y1060D02*
G01X34404Y590D01*
G01X34718Y635D02*
G01X34695Y612D01*
G01X34695Y612D02*
G01X34718Y590D01*
G01X34718Y590D02*
G01X34740Y612D01*
G01X34740Y612D02*
G01X34718Y635D01*
G01X34919Y1060D02*
G01X34919Y590D01*
G01X34919Y1060D02*
G01X35120Y1060D01*
G01X35120Y1060D02*
G01X35187Y1037D01*
G01X35187Y1037D02*
G01X35210Y1015D01*
G01X35210Y1015D02*
G01X35232Y970D01*
G01X35232Y970D02*
G01X35232Y926D01*
G01X35232Y926D02*
G01X35210Y881D01*
G01X35210Y881D02*
G01X35187Y858D01*
G01X35187Y858D02*
G01X35120Y836D01*
G01X35120Y836D02*
G01X34919Y836D01*
G01X35076Y836D02*
G01X35232Y590D01*
G01X35411Y1060D02*
G01X35411Y590D01*
G01X35411Y1060D02*
G01X35702Y1060D01*
G01X35411Y836D02*
G01X35590Y836D01*
G01X35411Y590D02*
G01X35702Y590D01*
G01X36037Y1060D02*
G01X36037Y590D01*
G01X35881Y1060D02*
G01X36194Y1060D01*
G01X36373Y1060D02*
G01X36373Y590D01*
G01X36373Y1060D02*
G01X36574Y1060D01*
G01X36574Y1060D02*
G01X36641Y1037D01*
G01X36641Y1037D02*
G01X36664Y1015D01*
G01X36664Y1015D02*
G01X36686Y970D01*
G01X36686Y970D02*
G01X36686Y926D01*
G01X36686Y926D02*
G01X36664Y881D01*
G01X36664Y881D02*
G01X36641Y858D01*
G01X36641Y858D02*
G01X36574Y836D01*
G01X36574Y836D02*
G01X36373Y836D01*
G01X36530Y836D02*
G01X36686Y590D01*
G01X36999Y1060D02*
G01X36955Y1037D01*
G01X36955Y1037D02*
G01X36910Y993D01*
G01X36910Y993D02*
G01X36887Y948D01*
G01X36887Y948D02*
G01X36865Y881D01*
G01X36865Y881D02*
G01X36865Y769D01*
G01X36865Y769D02*
G01X36887Y702D01*
G01X36887Y702D02*
G01X36910Y657D01*
G01X36910Y657D02*
G01X36955Y612D01*
G01X36955Y612D02*
G01X36999Y590D01*
G01X36999Y590D02*
G01X37089Y590D01*
G01X37089Y590D02*
G01X37134Y612D01*
G01X37134Y612D02*
G01X37178Y657D01*
G01X37178Y657D02*
G01X37201Y702D01*
G01X37201Y702D02*
G01X37223Y769D01*
G01X37223Y769D02*
G01X37223Y881D01*
G01X37223Y881D02*
G01X37201Y948D01*
G01X37201Y948D02*
G01X37178Y993D01*
G01X37178Y993D02*
G01X37134Y1037D01*
G01X37134Y1037D02*
G01X37089Y1060D01*
G01X37089Y1060D02*
G01X36999Y1060D01*
G01X37402Y1060D02*
G01X37402Y590D01*
G01X37402Y590D02*
G01X37670Y590D01*
G01X37849Y1060D02*
G01X37849Y590D01*
G01X37849Y1060D02*
G01X38140Y1060D01*
G01X37849Y836D02*
G01X38028Y836D01*
G01X37849Y590D02*
G01X38140Y590D01*
G01X38319Y1060D02*
G01X38319Y724D01*
G01X38319Y724D02*
G01X38341Y657D01*
G01X38341Y657D02*
G01X38386Y612D01*
G01X38386Y612D02*
G01X38453Y590D01*
G01X38453Y590D02*
G01X38498Y590D01*
G01X38498Y590D02*
G01X38565Y612D01*
G01X38565Y612D02*
G01X38610Y657D01*
G01X38610Y657D02*
G01X38632Y724D01*
G01X38632Y724D02*
G01X38632Y1060D01*
G01X38811Y1060D02*
G01X38811Y590D01*
G01X38811Y1060D02*
G01X38990Y590D01*
G01X39169Y1060D02*
G01X38990Y590D01*
G01X39169Y1060D02*
G01X39169Y590D01*
G01X39370Y635D02*
G01X39348Y612D01*
G01X39348Y612D02*
G01X39370Y590D01*
G01X39370Y590D02*
G01X39393Y612D01*
G01X39393Y612D02*
G01X39370Y635D01*
G01X39907Y948D02*
G01X39885Y993D01*
G01X39885Y993D02*
G01X39840Y1037D01*
G01X39840Y1037D02*
G01X39795Y1060D01*
G01X39795Y1060D02*
G01X39706Y1060D01*
G01X39706Y1060D02*
G01X39661Y1037D01*
G01X39661Y1037D02*
G01X39617Y993D01*
G01X39617Y993D02*
G01X39594Y948D01*
G01X39594Y948D02*
G01X39572Y881D01*
G01X39572Y881D02*
G01X39572Y769D01*
G01X39572Y769D02*
G01X39594Y702D01*
G01X39594Y702D02*
G01X39617Y657D01*
G01X39617Y657D02*
G01X39661Y612D01*
G01X39661Y612D02*
G01X39706Y590D01*
G01X39706Y590D02*
G01X39795Y590D01*
G01X39795Y590D02*
G01X39840Y612D01*
G01X39840Y612D02*
G01X39885Y657D01*
G01X39885Y657D02*
G01X39907Y702D01*
G01X40221Y1060D02*
G01X40176Y1037D01*
G01X40176Y1037D02*
G01X40131Y993D01*
G01X40131Y993D02*
G01X40109Y948D01*
G01X40109Y948D02*
G01X40086Y881D01*
G01X40086Y881D02*
G01X40086Y769D01*
G01X40086Y769D02*
G01X40109Y702D01*
G01X40109Y702D02*
G01X40131Y657D01*
G01X40131Y657D02*
G01X40176Y612D01*
G01X40176Y612D02*
G01X40221Y590D01*
G01X40221Y590D02*
G01X40310Y590D01*
G01X40310Y590D02*
G01X40355Y612D01*
G01X40355Y612D02*
G01X40399Y657D01*
G01X40399Y657D02*
G01X40422Y702D01*
G01X40422Y702D02*
G01X40444Y769D01*
G01X40444Y769D02*
G01X40444Y881D01*
G01X40444Y881D02*
G01X40422Y948D01*
G01X40422Y948D02*
G01X40399Y993D01*
G01X40399Y993D02*
G01X40355Y1037D01*
G01X40355Y1037D02*
G01X40310Y1060D01*
G01X40310Y1060D02*
G01X40221Y1060D01*
G01X40646Y635D02*
G01X40623Y612D01*
G01X40623Y612D02*
G01X40646Y590D01*
G01X40646Y590D02*
G01X40668Y612D01*
G01X40668Y612D02*
G01X40646Y635D01*
G01X40847Y1060D02*
G01X40847Y724D01*
G01X40847Y724D02*
G01X40869Y657D01*
G01X40869Y657D02*
G01X40914Y612D01*
G01X40914Y612D02*
G01X40981Y590D01*
G01X40981Y590D02*
G01X41026Y590D01*
G01X41026Y590D02*
G01X41093Y612D01*
G01X41093Y612D02*
G01X41138Y657D01*
G01X41138Y657D02*
G01X41160Y724D01*
G01X41160Y724D02*
G01X41160Y1060D01*
G01X41339Y1060D02*
G01X41339Y590D01*
G01X41652Y1060D02*
G01X41339Y747D01*
G01X41451Y858D02*
G01X41652Y590D01*
G01X3125Y706D02*
G01X3103Y639D01*
G01X3103Y639D02*
G01X3058Y595D01*
G01X3058Y595D02*
G01X2991Y572D01*
G01X2991Y572D02*
G01X2968Y572D01*
G01X2968Y572D02*
G01X2901Y595D01*
G01X2901Y595D02*
G01X2857Y639D01*
G01X2857Y639D02*
G01X2834Y706D01*
G01X2834Y706D02*
G01X2834Y729D01*
G01X2834Y729D02*
G01X2857Y796D01*
G01X2857Y796D02*
G01X2901Y841D01*
G01X2901Y841D02*
G01X2968Y863D01*
G01X2968Y863D02*
G01X2991Y863D01*
G01X2991Y863D02*
G01X3058Y841D01*
G01X3058Y841D02*
G01X3103Y796D01*
G01X3103Y796D02*
G01X3125Y706D01*
G01X3125Y706D02*
G01X3125Y595D01*
G01X3125Y595D02*
G01X3103Y483D01*
G01X3103Y483D02*
G01X3058Y416D01*
G01X3058Y416D02*
G01X2991Y393D01*
G01X2991Y393D02*
G01X2946Y393D01*
G01X2946Y393D02*
G01X2879Y416D01*
G01X2879Y416D02*
G01X2857Y460D01*
G01X3304Y706D02*
G01X3438Y393D01*
G01X3572Y706D02*
G01X3438Y393D01*
G01X4109Y863D02*
G01X4109Y393D01*
G01X4109Y863D02*
G01X4266Y863D01*
G01X4266Y863D02*
G01X4333Y841D01*
G01X4333Y841D02*
G01X4378Y796D01*
G01X4378Y796D02*
G01X4400Y751D01*
G01X4400Y751D02*
G01X4422Y684D01*
G01X4422Y684D02*
G01X4422Y572D01*
G01X4422Y572D02*
G01X4400Y505D01*
G01X4400Y505D02*
G01X4378Y460D01*
G01X4378Y460D02*
G01X4333Y416D01*
G01X4333Y416D02*
G01X4266Y393D01*
G01X4266Y393D02*
G01X4109Y393D01*
G01X4937Y751D02*
G01X4914Y796D01*
G01X4914Y796D02*
G01X4870Y841D01*
G01X4870Y841D02*
G01X4825Y863D01*
G01X4825Y863D02*
G01X4736Y863D01*
G01X4736Y863D02*
G01X4691Y841D01*
G01X4691Y841D02*
G01X4646Y796D01*
G01X4646Y796D02*
G01X4624Y751D01*
G01X4624Y751D02*
G01X4601Y684D01*
G01X4601Y684D02*
G01X4601Y572D01*
G01X4601Y572D02*
G01X4624Y505D01*
G01X4624Y505D02*
G01X4646Y460D01*
G01X4646Y460D02*
G01X4691Y416D01*
G01X4691Y416D02*
G01X4736Y393D01*
G01X4736Y393D02*
G01X4825Y393D01*
G01X4825Y393D02*
G01X4870Y416D01*
G01X4870Y416D02*
G01X4914Y460D01*
G01X4914Y460D02*
G01X4937Y505D01*
G01X32283Y27012D02*
G01X32465Y26535D01*
G01X32647Y27012D02*
G01X32465Y26535D01*
G01X32828Y27012D02*
G01X32851Y26989D01*
G01X32851Y26989D02*
G01X32874Y27012D01*
G01X32874Y27012D02*
G01X32851Y27035D01*
G01X32851Y27035D02*
G01X32828Y27012D01*
G01X32851Y26853D02*
G01X32851Y26535D01*
G01X33328Y27012D02*
G01X33328Y26535D01*
G01X33328Y26785D02*
G01X33283Y26830D01*
G01X33283Y26830D02*
G01X33238Y26853D01*
G01X33238Y26853D02*
G01X33169Y26853D01*
G01X33169Y26853D02*
G01X33124Y26830D01*
G01X33124Y26830D02*
G01X33078Y26785D01*
G01X33078Y26785D02*
G01X33056Y26717D01*
G01X33056Y26717D02*
G01X33056Y26671D01*
G01X33056Y26671D02*
G01X33078Y26603D01*
G01X33078Y26603D02*
G01X33124Y26558D01*
G01X33124Y26558D02*
G01X33169Y26535D01*
G01X33169Y26535D02*
G01X33238Y26535D01*
G01X33238Y26535D02*
G01X33283Y26558D01*
G01X33283Y26558D02*
G01X33328Y26603D01*
G01X33510Y26717D02*
G01X33783Y26717D01*
G01X33783Y26717D02*
G01X33783Y26762D01*
G01X33783Y26762D02*
G01X33760Y26808D01*
G01X33760Y26808D02*
G01X33738Y26830D01*
G01X33738Y26830D02*
G01X33692Y26853D01*
G01X33692Y26853D02*
G01X33624Y26853D01*
G01X33624Y26853D02*
G01X33578Y26830D01*
G01X33578Y26830D02*
G01X33533Y26785D01*
G01X33533Y26785D02*
G01X33510Y26717D01*
G01X33510Y26717D02*
G01X33510Y26671D01*
G01X33510Y26671D02*
G01X33533Y26603D01*
G01X33533Y26603D02*
G01X33578Y26558D01*
G01X33578Y26558D02*
G01X33624Y26535D01*
G01X33624Y26535D02*
G01X33692Y26535D01*
G01X33692Y26535D02*
G01X33738Y26558D01*
G01X33738Y26558D02*
G01X33783Y26603D01*
G01X34078Y26853D02*
G01X34033Y26830D01*
G01X34033Y26830D02*
G01X33988Y26785D01*
G01X33988Y26785D02*
G01X33965Y26717D01*
G01X33965Y26717D02*
G01X33965Y26671D01*
G01X33965Y26671D02*
G01X33988Y26603D01*
G01X33988Y26603D02*
G01X34033Y26558D01*
G01X34033Y26558D02*
G01X34078Y26535D01*
G01X34078Y26535D02*
G01X34147Y26535D01*
G01X34147Y26535D02*
G01X34192Y26558D01*
G01X34192Y26558D02*
G01X34238Y26603D01*
G01X34238Y26603D02*
G01X34260Y26671D01*
G01X34260Y26671D02*
G01X34260Y26717D01*
G01X34260Y26717D02*
G01X34238Y26785D01*
G01X34238Y26785D02*
G01X34192Y26830D01*
G01X34192Y26830D02*
G01X34147Y26853D01*
G01X34147Y26853D02*
G01X34078Y26853D01*
G01X34806Y27012D02*
G01X34806Y26535D01*
G01X34806Y27012D02*
G01X35010Y27012D01*
G01X35010Y27012D02*
G01X35078Y26989D01*
G01X35078Y26989D02*
G01X35101Y26967D01*
G01X35101Y26967D02*
G01X35124Y26921D01*
G01X35124Y26921D02*
G01X35124Y26876D01*
G01X35124Y26876D02*
G01X35101Y26830D01*
G01X35101Y26830D02*
G01X35078Y26808D01*
G01X35078Y26808D02*
G01X35010Y26785D01*
G01X35010Y26785D02*
G01X34806Y26785D01*
G01X34965Y26785D02*
G01X35124Y26535D01*
G01X35488Y27012D02*
G01X35306Y26535D01*
G01X35488Y27012D02*
G01X35669Y26535D01*
G01X35374Y26694D02*
G01X35601Y26694D01*
G01X35851Y27012D02*
G01X35851Y26535D01*
G01X35851Y27012D02*
G01X36033Y26535D01*
G01X36215Y27012D02*
G01X36033Y26535D01*
G01X36215Y27012D02*
G01X36215Y26535D01*
G01X37848Y13564D02*
G01X37670Y13188D01*
G01X37598Y13564D02*
G01X37848Y13564D01*
G01X38171Y13564D02*
G01X37992Y13314D01*
G01X37992Y13314D02*
G01X38260Y13314D01*
G01X38171Y13564D02*
G01X38171Y13188D01*
G01X38403Y13564D02*
G01X38403Y13188D01*
G01X38654Y13564D02*
G01X38654Y13188D01*
G01X38403Y13385D02*
G01X38654Y13385D01*
G01X39065Y13475D02*
G01X39047Y13511D01*
G01X39047Y13511D02*
G01X39012Y13546D01*
G01X39012Y13546D02*
G01X38976Y13564D01*
G01X38976Y13564D02*
G01X38904Y13564D01*
G01X38904Y13564D02*
G01X38869Y13546D01*
G01X38869Y13546D02*
G01X38833Y13511D01*
G01X38833Y13511D02*
G01X38815Y13475D01*
G01X38815Y13475D02*
G01X38797Y13421D01*
G01X38797Y13421D02*
G01X38797Y13332D01*
G01X38797Y13332D02*
G01X38815Y13278D01*
G01X38815Y13278D02*
G01X38833Y13242D01*
G01X38833Y13242D02*
G01X38869Y13206D01*
G01X38869Y13206D02*
G01X38904Y13188D01*
G01X38904Y13188D02*
G01X38976Y13188D01*
G01X38976Y13188D02*
G01X39012Y13206D01*
G01X39012Y13206D02*
G01X39047Y13242D01*
G01X39047Y13242D02*
G01X39065Y13278D01*
G01X39334Y13564D02*
G01X39334Y13188D01*
G01X39209Y13564D02*
G01X39459Y13564D01*
G01X39710Y13564D02*
G01X39656Y13546D01*
G01X39656Y13546D02*
G01X39620Y13493D01*
G01X39620Y13493D02*
G01X39602Y13403D01*
G01X39602Y13403D02*
G01X39602Y13350D01*
G01X39602Y13350D02*
G01X39620Y13260D01*
G01X39620Y13260D02*
G01X39656Y13206D01*
G01X39656Y13206D02*
G01X39710Y13188D01*
G01X39710Y13188D02*
G01X39745Y13188D01*
G01X39745Y13188D02*
G01X39799Y13206D01*
G01X39799Y13206D02*
G01X39835Y13260D01*
G01X39835Y13260D02*
G01X39853Y13350D01*
G01X39853Y13350D02*
G01X39853Y13403D01*
G01X39853Y13403D02*
G01X39835Y13493D01*
G01X39835Y13493D02*
G01X39799Y13546D01*
G01X39799Y13546D02*
G01X39745Y13564D01*
G01X39745Y13564D02*
G01X39710Y13564D01*
G01X40085Y13564D02*
G01X40032Y13546D01*
G01X40032Y13546D02*
G01X40014Y13511D01*
G01X40014Y13511D02*
G01X40014Y13475D01*
G01X40014Y13475D02*
G01X40032Y13439D01*
G01X40032Y13439D02*
G01X40068Y13421D01*
G01X40068Y13421D02*
G01X40139Y13403D01*
G01X40139Y13403D02*
G01X40193Y13385D01*
G01X40193Y13385D02*
G01X40229Y13350D01*
G01X40229Y13350D02*
G01X40246Y13314D01*
G01X40246Y13314D02*
G01X40246Y13260D01*
G01X40246Y13260D02*
G01X40229Y13224D01*
G01X40229Y13224D02*
G01X40211Y13206D01*
G01X40211Y13206D02*
G01X40157Y13188D01*
G01X40157Y13188D02*
G01X40085Y13188D01*
G01X40085Y13188D02*
G01X40032Y13206D01*
G01X40032Y13206D02*
G01X40014Y13224D01*
G01X40014Y13224D02*
G01X39996Y13260D01*
G01X39996Y13260D02*
G01X39996Y13314D01*
G01X39996Y13314D02*
G01X40014Y13350D01*
G01X40014Y13350D02*
G01X40050Y13385D01*
G01X40050Y13385D02*
G01X40103Y13403D01*
G01X40103Y13403D02*
G01X40175Y13421D01*
G01X40175Y13421D02*
G01X40211Y13439D01*
G01X40211Y13439D02*
G01X40229Y13475D01*
G01X40229Y13475D02*
G01X40229Y13511D01*
G01X40229Y13511D02*
G01X40211Y13546D01*
G01X40211Y13546D02*
G01X40157Y13564D01*
G01X40157Y13564D02*
G01X40085Y13564D01*
G01X32404Y18007D02*
G01X32359Y18052D01*
G01X32359Y18052D02*
G01X32291Y18075D01*
G01X32291Y18075D02*
G01X32200Y18075D01*
G01X32200Y18075D02*
G01X32132Y18052D01*
G01X32132Y18052D02*
G01X32086Y18007D01*
G01X32086Y18007D02*
G01X32086Y17962D01*
G01X32086Y17962D02*
G01X32109Y17916D01*
G01X32109Y17916D02*
G01X32132Y17893D01*
G01X32132Y17893D02*
G01X32177Y17871D01*
G01X32177Y17871D02*
G01X32313Y17825D01*
G01X32313Y17825D02*
G01X32359Y17802D01*
G01X32359Y17802D02*
G01X32382Y17780D01*
G01X32382Y17780D02*
G01X32404Y17734D01*
G01X32404Y17734D02*
G01X32404Y17666D01*
G01X32404Y17666D02*
G01X32359Y17621D01*
G01X32359Y17621D02*
G01X32291Y17598D01*
G01X32291Y17598D02*
G01X32200Y17598D01*
G01X32200Y17598D02*
G01X32132Y17621D01*
G01X32132Y17621D02*
G01X32086Y17666D01*
G01X32586Y17916D02*
G01X32586Y17439D01*
G01X32586Y17848D02*
G01X32632Y17893D01*
G01X32632Y17893D02*
G01X32677Y17916D01*
G01X32677Y17916D02*
G01X32745Y17916D01*
G01X32745Y17916D02*
G01X32791Y17893D01*
G01X32791Y17893D02*
G01X32836Y17848D01*
G01X32836Y17848D02*
G01X32859Y17780D01*
G01X32859Y17780D02*
G01X32859Y17734D01*
G01X32859Y17734D02*
G01X32836Y17666D01*
G01X32836Y17666D02*
G01X32791Y17621D01*
G01X32791Y17621D02*
G01X32745Y17598D01*
G01X32745Y17598D02*
G01X32677Y17598D01*
G01X32677Y17598D02*
G01X32632Y17621D01*
G01X32632Y17621D02*
G01X32586Y17666D01*
G01X33041Y17916D02*
G01X33041Y17598D01*
G01X33041Y17780D02*
G01X33063Y17848D01*
G01X33063Y17848D02*
G01X33109Y17893D01*
G01X33109Y17893D02*
G01X33154Y17916D01*
G01X33154Y17916D02*
G01X33222Y17916D01*
G01X33404Y18075D02*
G01X33427Y18052D01*
G01X33427Y18052D02*
G01X33450Y18075D01*
G01X33450Y18075D02*
G01X33427Y18098D01*
G01X33427Y18098D02*
G01X33404Y18075D01*
G01X33427Y17916D02*
G01X33427Y17598D01*
G01X33700Y18075D02*
G01X33700Y17689D01*
G01X33700Y17689D02*
G01X33722Y17621D01*
G01X33722Y17621D02*
G01X33768Y17598D01*
G01X33768Y17598D02*
G01X33813Y17598D01*
G01X33632Y17916D02*
G01X33791Y17916D01*
G01X33995Y17780D02*
G01X34268Y17780D01*
G01X34268Y17780D02*
G01X34268Y17825D01*
G01X34268Y17825D02*
G01X34245Y17871D01*
G01X34245Y17871D02*
G01X34222Y17893D01*
G01X34222Y17893D02*
G01X34177Y17916D01*
G01X34177Y17916D02*
G01X34109Y17916D01*
G01X34109Y17916D02*
G01X34063Y17893D01*
G01X34063Y17893D02*
G01X34018Y17848D01*
G01X34018Y17848D02*
G01X33995Y17780D01*
G01X33995Y17780D02*
G01X33995Y17734D01*
G01X33995Y17734D02*
G01X34018Y17666D01*
G01X34018Y17666D02*
G01X34063Y17621D01*
G01X34063Y17621D02*
G01X34109Y17598D01*
G01X34109Y17598D02*
G01X34177Y17598D01*
G01X34177Y17598D02*
G01X34222Y17621D01*
G01X34222Y17621D02*
G01X34268Y17666D01*
G01X34813Y18075D02*
G01X34813Y17598D01*
G01X34813Y18075D02*
G01X35018Y18075D01*
G01X35018Y18075D02*
G01X35086Y18052D01*
G01X35086Y18052D02*
G01X35109Y18030D01*
G01X35109Y18030D02*
G01X35132Y17984D01*
G01X35132Y17984D02*
G01X35132Y17939D01*
G01X35132Y17939D02*
G01X35109Y17893D01*
G01X35109Y17893D02*
G01X35086Y17871D01*
G01X35086Y17871D02*
G01X35018Y17848D01*
G01X35018Y17848D02*
G01X34813Y17848D01*
G01X34972Y17848D02*
G01X35132Y17598D01*
G01X35495Y18075D02*
G01X35313Y17598D01*
G01X35495Y18075D02*
G01X35677Y17598D01*
G01X35382Y17757D02*
G01X35609Y17757D01*
G01X35859Y18075D02*
G01X35859Y17598D01*
G01X35859Y18075D02*
G01X36041Y17598D01*
G01X36222Y18075D02*
G01X36041Y17598D01*
G01X36222Y18075D02*
G01X36222Y17598D01*
G01X32156Y38902D02*
G01X32156Y38538D01*
G01X32156Y38538D02*
G01X32133Y38470D01*
G01X32133Y38470D02*
G01X32110Y38447D01*
G01X32110Y38447D02*
G01X32065Y38425D01*
G01X32065Y38425D02*
G01X32020Y38425D01*
G01X32020Y38425D02*
G01X31974Y38447D01*
G01X31974Y38447D02*
G01X31951Y38470D01*
G01X31951Y38470D02*
G01X31929Y38538D01*
G01X31929Y38538D02*
G01X31929Y38584D01*
G01X32451Y38743D02*
G01X32406Y38720D01*
G01X32406Y38720D02*
G01X32360Y38675D01*
G01X32360Y38675D02*
G01X32338Y38607D01*
G01X32338Y38607D02*
G01X32338Y38561D01*
G01X32338Y38561D02*
G01X32360Y38493D01*
G01X32360Y38493D02*
G01X32406Y38447D01*
G01X32406Y38447D02*
G01X32451Y38425D01*
G01X32451Y38425D02*
G01X32520Y38425D01*
G01X32520Y38425D02*
G01X32565Y38447D01*
G01X32565Y38447D02*
G01X32610Y38493D01*
G01X32610Y38493D02*
G01X32633Y38561D01*
G01X32633Y38561D02*
G01X32633Y38607D01*
G01X32633Y38607D02*
G01X32610Y38675D01*
G01X32610Y38675D02*
G01X32565Y38720D01*
G01X32565Y38720D02*
G01X32520Y38743D01*
G01X32520Y38743D02*
G01X32451Y38743D01*
G01X32838Y38743D02*
G01X32974Y38425D01*
G01X33110Y38743D02*
G01X32974Y38425D01*
G01X32974Y38425D02*
G01X32929Y38334D01*
G01X32929Y38334D02*
G01X32883Y38288D01*
G01X32883Y38288D02*
G01X32838Y38266D01*
G01X32838Y38266D02*
G01X32815Y38266D01*
G01X33656Y38902D02*
G01X33656Y38425D01*
G01X33656Y38902D02*
G01X33860Y38902D01*
G01X33860Y38902D02*
G01X33929Y38879D01*
G01X33929Y38879D02*
G01X33951Y38857D01*
G01X33951Y38857D02*
G01X33974Y38811D01*
G01X33974Y38811D02*
G01X33974Y38743D01*
G01X33974Y38743D02*
G01X33951Y38697D01*
G01X33951Y38697D02*
G01X33929Y38675D01*
G01X33929Y38675D02*
G01X33860Y38652D01*
G01X33860Y38652D02*
G01X33656Y38652D01*
G01X34156Y38902D02*
G01X34156Y38425D01*
G01X34679Y38788D02*
G01X34656Y38834D01*
G01X34656Y38834D02*
G01X34610Y38879D01*
G01X34610Y38879D02*
G01X34565Y38902D01*
G01X34565Y38902D02*
G01X34474Y38902D01*
G01X34474Y38902D02*
G01X34429Y38879D01*
G01X34429Y38879D02*
G01X34383Y38834D01*
G01X34383Y38834D02*
G01X34360Y38788D01*
G01X34360Y38788D02*
G01X34338Y38720D01*
G01X34338Y38720D02*
G01X34338Y38607D01*
G01X34338Y38607D02*
G01X34360Y38538D01*
G01X34360Y38538D02*
G01X34383Y38493D01*
G01X34383Y38493D02*
G01X34429Y38447D01*
G01X34429Y38447D02*
G01X34474Y38425D01*
G01X34474Y38425D02*
G01X34565Y38425D01*
G01X34565Y38425D02*
G01X34610Y38447D01*
G01X34610Y38447D02*
G01X34656Y38493D01*
G01X34656Y38493D02*
G01X34679Y38538D01*
G54D11*
G01X27440Y2568D02*
G01X27804Y1614D01*
G01X28168Y2568D02*
G01X27804Y1614D01*
G01X29077Y2432D02*
G01X29031Y2523D01*
G01X29031Y2523D02*
G01X28895Y2568D01*
G01X28895Y2568D02*
G01X28804Y2568D01*
G01X28804Y2568D02*
G01X28668Y2523D01*
G01X28668Y2523D02*
G01X28577Y2386D01*
G01X28577Y2386D02*
G01X28531Y2159D01*
G01X28531Y2159D02*
G01X28531Y1932D01*
G01X28531Y1932D02*
G01X28577Y1750D01*
G01X28577Y1750D02*
G01X28668Y1659D01*
G01X28668Y1659D02*
G01X28804Y1614D01*
G01X28804Y1614D02*
G01X28850Y1614D01*
G01X28850Y1614D02*
G01X28986Y1659D01*
G01X28986Y1659D02*
G01X29077Y1750D01*
G01X29077Y1750D02*
G01X29122Y1886D01*
G01X29122Y1886D02*
G01X29122Y1932D01*
G01X29122Y1932D02*
G01X29077Y2068D01*
G01X29077Y2068D02*
G01X28986Y2159D01*
G01X28986Y2159D02*
G01X28850Y2205D01*
G01X28850Y2205D02*
G01X28804Y2205D01*
G01X28804Y2205D02*
G01X28668Y2159D01*
G01X28668Y2159D02*
G01X28577Y2068D01*
G01X28577Y2068D02*
G01X28531Y1932D01*
G01X30122Y2568D02*
G01X29486Y1614D01*
G01X29486Y2568D02*
G01X30122Y2568D01*
G01X29486Y1614D02*
G01X30122Y1614D01*
G01X30713Y2568D02*
G01X30577Y2523D01*
G01X30577Y2523D02*
G01X30531Y2432D01*
G01X30531Y2432D02*
G01X30531Y2341D01*
G01X30531Y2341D02*
G01X30577Y2250D01*
G01X30577Y2250D02*
G01X30668Y2205D01*
G01X30668Y2205D02*
G01X30850Y2159D01*
G01X30850Y2159D02*
G01X30986Y2114D01*
G01X30986Y2114D02*
G01X31077Y2023D01*
G01X31077Y2023D02*
G01X31122Y1932D01*
G01X31122Y1932D02*
G01X31122Y1795D01*
G01X31122Y1795D02*
G01X31077Y1705D01*
G01X31077Y1705D02*
G01X31031Y1659D01*
G01X31031Y1659D02*
G01X30895Y1614D01*
G01X30895Y1614D02*
G01X30713Y1614D01*
G01X30713Y1614D02*
G01X30577Y1659D01*
G01X30577Y1659D02*
G01X30531Y1705D01*
G01X30531Y1705D02*
G01X30486Y1795D01*
G01X30486Y1795D02*
G01X30486Y1932D01*
G01X30486Y1932D02*
G01X30531Y2023D01*
G01X30531Y2023D02*
G01X30622Y2114D01*
G01X30622Y2114D02*
G01X30759Y2159D01*
G01X30759Y2159D02*
G01X30940Y2205D01*
G01X30940Y2205D02*
G01X31031Y2250D01*
G01X31031Y2250D02*
G01X31077Y2341D01*
G01X31077Y2341D02*
G01X31077Y2432D01*
G01X31077Y2432D02*
G01X31031Y2523D01*
G01X31031Y2523D02*
G01X30895Y2568D01*
G01X30895Y2568D02*
G01X30713Y2568D01*
G01X31759Y2568D02*
G01X31622Y2523D01*
G01X31622Y2523D02*
G01X31531Y2386D01*
G01X31531Y2386D02*
G01X31486Y2159D01*
G01X31486Y2159D02*
G01X31486Y2023D01*
G01X31486Y2023D02*
G01X31531Y1795D01*
G01X31531Y1795D02*
G01X31622Y1659D01*
G01X31622Y1659D02*
G01X31759Y1614D01*
G01X31759Y1614D02*
G01X31850Y1614D01*
G01X31850Y1614D02*
G01X31986Y1659D01*
G01X31986Y1659D02*
G01X32077Y1795D01*
G01X32077Y1795D02*
G01X32122Y2023D01*
G01X32122Y2023D02*
G01X32122Y2159D01*
G01X32122Y2159D02*
G01X32077Y2386D01*
G01X32077Y2386D02*
G01X31986Y2523D01*
G01X31986Y2523D02*
G01X31850Y2568D01*
G01X31850Y2568D02*
G01X31759Y2568D01*
G01X32486Y2568D02*
G01X32486Y1614D01*
G01X32486Y2568D02*
G01X32895Y2568D01*
G01X32895Y2568D02*
G01X33031Y2523D01*
G01X33031Y2523D02*
G01X33077Y2477D01*
G01X33077Y2477D02*
G01X33122Y2386D01*
G01X33122Y2386D02*
G01X33122Y2250D01*
G01X33122Y2250D02*
G01X33077Y2159D01*
G01X33077Y2159D02*
G01X33031Y2114D01*
G01X33031Y2114D02*
G01X32895Y2068D01*
G01X32895Y2068D02*
G01X32486Y2068D01*
G01X33895Y2432D02*
G01X33895Y1614D01*
G01X33486Y2023D02*
G01X34304Y2023D01*
G01X35395Y2568D02*
G01X35395Y1614D01*
G01X35395Y2568D02*
G01X35804Y2568D01*
G01X35804Y2568D02*
G01X35940Y2523D01*
G01X35940Y2523D02*
G01X35986Y2477D01*
G01X35986Y2477D02*
G01X36031Y2386D01*
G01X36031Y2386D02*
G01X36031Y2295D01*
G01X36031Y2295D02*
G01X35986Y2205D01*
G01X35986Y2205D02*
G01X35940Y2159D01*
G01X35940Y2159D02*
G01X35804Y2114D01*
G01X35804Y2114D02*
G01X35395Y2114D01*
G01X35713Y2114D02*
G01X36031Y1614D01*
G01X36395Y1977D02*
G01X36940Y1977D01*
G01X36940Y1977D02*
G01X36940Y2068D01*
G01X36940Y2068D02*
G01X36895Y2159D01*
G01X36895Y2159D02*
G01X36850Y2205D01*
G01X36850Y2205D02*
G01X36759Y2250D01*
G01X36759Y2250D02*
G01X36622Y2250D01*
G01X36622Y2250D02*
G01X36531Y2205D01*
G01X36531Y2205D02*
G01X36440Y2114D01*
G01X36440Y2114D02*
G01X36395Y1977D01*
G01X36395Y1977D02*
G01X36395Y1886D01*
G01X36395Y1886D02*
G01X36440Y1750D01*
G01X36440Y1750D02*
G01X36531Y1659D01*
G01X36531Y1659D02*
G01X36622Y1614D01*
G01X36622Y1614D02*
G01X36759Y1614D01*
G01X36759Y1614D02*
G01X36850Y1659D01*
G01X36850Y1659D02*
G01X36940Y1750D01*
G01X37304Y2250D02*
G01X37577Y1614D01*
G01X37850Y2250D02*
G01X37577Y1614D01*
G01X38213Y2386D02*
G01X38304Y2432D01*
G01X38304Y2432D02*
G01X38440Y2568D01*
G01X38440Y2568D02*
G01X38440Y1614D01*
G01X38850Y1705D02*
G01X38804Y1659D01*
G01X38804Y1659D02*
G01X38850Y1614D01*
G01X38850Y1614D02*
G01X38895Y1659D01*
G01X38895Y1659D02*
G01X38850Y1705D01*
G01X39531Y2568D02*
G01X39395Y2523D01*
G01X39395Y2523D02*
G01X39304Y2386D01*
G01X39304Y2386D02*
G01X39259Y2159D01*
G01X39259Y2159D02*
G01X39259Y2023D01*
G01X39259Y2023D02*
G01X39304Y1795D01*
G01X39304Y1795D02*
G01X39395Y1659D01*
G01X39395Y1659D02*
G01X39531Y1614D01*
G01X39531Y1614D02*
G01X39622Y1614D01*
G01X39622Y1614D02*
G01X39759Y1659D01*
G01X39759Y1659D02*
G01X39850Y1795D01*
G01X39850Y1795D02*
G01X39895Y2023D01*
G01X39895Y2023D02*
G01X39895Y2159D01*
G01X39895Y2159D02*
G01X39850Y2386D01*
G01X39850Y2386D02*
G01X39759Y2523D01*
G01X39759Y2523D02*
G01X39622Y2568D01*
G01X39622Y2568D02*
G01X39531Y2568D01*
G54D10*
G01X11850Y40107D02*
G01X11886Y40125D01*
G01X11886Y40125D02*
G01X11939Y40178D01*
G01X11939Y40178D02*
G01X11939Y39803D01*
G01X6574Y27627D02*
G01X6610Y27644D01*
G01X6610Y27644D02*
G01X6664Y27698D01*
G01X6664Y27698D02*
G01X6664Y27322D01*
M00*
M02*
