G04 FreePCB version 1.355*
G04 E:\v6z80p_plus\bottom_copper.grb*
G04 bottom copper layer *
G04 Scale: 100 percent, Rotated: No, Reflected: No *
%FSLAX24Y24*%
%MOIN*%
%LN bottom copper *%
G04 Rounded Rectangle Macro, params: W/2, H/2, R *
%AMRNDREC*
21,1,$1+$1,$2+$2-$3-$3,0,0,0*
21,1,$1+$1-$3-$3,$2+$2,0,0,0*
1,1,$3+$3,$1-$3,$2-$3*
1,1,$3+$3,$3-$1,$2-$3*
1,1,$3+$3,$1-$3,$3-$2*
1,1,$3+$3,$3-$1,$3-$2*%
G04 Rectangular Thermal Macro, params: W/2, H/2, T/2 *
%AMRECTHERM*
$4=$3/2*
21,1,$1-$3,$2-$3,0-$1/2-$4,0-$2/2-$4,0*
21,1,$1-$3,$2-$3,0-$1/2-$4,$2/2+$4,0*
21,1,$1-$3,$2-$3,$1/2+$4,0-$2/2-$4,0*
21,1,$1-$3,$2-$3,$1/2+$4,$2/2+$4,0*%
%ADD10C,0.007874*%
%ADD11R,0.074803X0.074803*%
%ADD12C,0.074803*%
%ADD13C,0.075748*%
%ADD14C,0.153543*%
%ADD15C,0.161417*%
%ADD16C,0.094488*%
%ADD17R,0.078740X0.078740*%
%ADD18C,0.078740*%
%ADD19C,0.212598*%
%ADD20C,0.093748*%
%ADD21C,0.098425*%
%ADD22R,0.059055X0.062992*%
%ADD23C,0.086614*%
%AMTHERM24*7,0,0,0.086614,0.070866,0.023622,45.0*%
%ADD24THERM24*%
%ADD25C,0.001000*%
%ADD26R,0.062992X0.059055*%
%AMTHERM27*7,0,0,0.141732,0.125984,0.023622,45.0*%
%ADD27THERM27*%
%ADD28R,0.066929X0.078740*%
%ADD29R,0.055748X0.063748*%
%ADD30C,0.204724*%
%ADD31C,0.192913*%
%AMTHERM32*7,0,0,0.080748,0.065000,0.023622,45.0*%
%ADD32THERM32*%
%ADD33C,0.080748*%
%ADD34R,0.102362X0.062992*%
%ADD35R,0.102362X0.157480*%
%ADD36R,0.062992X0.102362*%
%ADD37R,0.157480X0.102362*%
%ADD38C,0.085748*%
%ADD39R,0.066929X0.070866*%
%ADD40RECTHERM,0.042874X0.042874X0.011811*%
%AMTHERM41*7,0,0,0.098425,0.082677,0.023622,45.0*%
%ADD41THERM41*%
%ADD42R,0.102362X0.043307*%
%ADD43R,0.118110X0.047244*%
%ADD44C,0.105748*%
%AMTHERM45*7,0,0,0.055748,0.040000,0.023622,45.0*%
%ADD45THERM45*%
%ADD46C,0.055748*%
%ADD47C,0.024748*%
%ADD48C,0.040748*%
%ADD49C,0.035748*%
%ADD50C,0.030748*%
%ADD51C,0.050748*%
%ADD52C,0.025748*%
%ADD53C,0.065748*%
%ADD54R,0.059055X0.059055*%
%ADD55C,0.059055*%
%ADD56C,0.060000*%
%ADD57C,0.137795*%
%ADD58C,0.145669*%
%ADD59R,0.062992X0.062992*%
%ADD60C,0.062992*%
%ADD61C,0.196850*%
%ADD62C,0.078000*%
%ADD63R,0.043307X0.047244*%
%ADD64C,0.070866*%
%ADD65R,0.047244X0.043307*%
%ADD66C,0.125984*%
%ADD67R,0.051181X0.062992*%
%ADD68R,0.040000X0.048000*%
%ADD69C,0.188976*%
%ADD70C,0.177165*%
%ADD71C,0.065000*%
%ADD72R,0.086614X0.047244*%
%ADD73R,0.086614X0.141732*%
%ADD74R,0.047244X0.086614*%
%ADD75R,0.141732X0.086614*%
%ADD76C,0.070000*%
%ADD77R,0.051181X0.055118*%
%ADD78R,0.070000X0.070000*%
%ADD79C,0.082677*%
%ADD80R,0.086614X0.027559*%
%ADD81R,0.102362X0.031496*%
%ADD82C,0.090000*%
%ADD83C,0.040000*%
%ADD84C,0.009000*%
%ADD85C,0.025000*%
%ADD86C,0.020000*%
%ADD87C,0.015000*%
%ADD88C,0.050000*%
%ADD89C,0.035000*%
%ADD90C,0.030000*%
%ADD91C,0.010000*%
%ADD92C,0.055000*%
G90*
G70D02*

G04 Step and Repeat for panelization *

G04 ----------------------- Draw board outline (positive)*
%LPD*%
G54D10*
G01X-196Y-393D02*
G01X45472Y-393D01*
G04 end of side 1*
G01X45472Y48031D01*
G04 end of side 2*
G01X-196Y48031D01*
G04 end of side 3*
G01X-196Y-393D01*

G04 ----------------------- Draw copper area (positive)*
G36*
G01X45177Y5177D02*
G01X45177Y5177D01*
G01X45177Y3070D01*
G01X45177Y39D01*
G01X19Y98D01*
G01X39Y47755D01*
G01X45157Y47755D01*
G01X45177Y5177D01*
G37*

G04 -------------------- Draw copper area cutout (negative)*
%LPC*%
G36*
G01X5570Y47145D02*
G01X4606Y47145D01*
G01X4606Y46220D01*
G01X5570Y46220D01*
G01X5570Y47145D01*
G37*

G04 -------------------- Draw copper area cutout (negative)*
G36*
G01X1653Y47145D02*
G01X708Y47145D01*
G01X708Y46220D01*
G01X1653Y46220D01*
G01X1653Y47145D01*
G37*

G04 -------------------- Draw copper area cutout (negative)*
G36*
G01X3740Y47244D02*
G01X2539Y47244D01*
G01X2539Y46102D01*
G01X3740Y46102D01*
G01X3740Y47244D01*
G37*

G04 -------------------- Draw copper area cutout (negative)*
G36*
G01X44350Y45039D02*
G01X41850Y45039D01*
G01X41850Y42559D01*
G01X44350Y42559D01*
G01X44350Y45039D01*
G37*

G04 -------------------- Draw copper area cutout (negative)*
G36*
G01X21476Y45039D02*
G01X16043Y45039D01*
G01X16043Y41870D01*
G01X18385Y41870D01*
G01X19114Y42598D01*
G01X21476Y42598D01*
G01X21476Y43110D01*
G01X21476Y45039D01*
G37*

G04 -------------------- Draw copper area cutout (negative)*
G36*
G01X14803Y45039D02*
G01X9625Y45039D01*
G01X9625Y41870D01*
G01X14803Y41870D01*
G01X14803Y45039D01*
G37*

G04 -------------------- Draw copper area cutout (negative)*
G36*
G01X27874Y46161D02*
G01X22066Y46161D01*
G01X22066Y43110D01*
G01X22066Y42795D01*
G01X22066Y42598D01*
G01X28149Y42598D01*
G01X28149Y41988D01*
G01X30551Y41988D01*
G01X30551Y40728D01*
G01X28149Y40728D01*
G01X28149Y39625D01*
G01X32381Y39625D01*
G01X32381Y38444D01*
G01X33228Y38444D01*
G01X33228Y39625D01*
G01X37475Y39625D01*
G01X37477Y40767D01*
G01X33287Y40767D01*
G01X33287Y41633D01*
G01X33740Y42086D01*
G01X40866Y42086D01*
G01X41515Y42716D01*
G01X41515Y46122D01*
G01X34586Y46122D01*
G01X34586Y45570D01*
G01X27874Y45570D01*
G01X27874Y46161D01*
G37*

G04 -------------------- Draw copper area cutout (negative)*
G36*
G01X40098Y40669D02*
G01X38799Y40669D01*
G01X38523Y40393D01*
G01X38523Y37283D01*
G01X38248Y37007D01*
G01X37283Y37007D01*
G01X37283Y37854D01*
G01X28149Y37854D01*
G01X28149Y36850D01*
G01X33208Y36850D01*
G01X33208Y32480D01*
G01X33681Y32480D01*
G01X33681Y31929D01*
G01X34724Y31929D01*
G01X34724Y30826D01*
G01X35688Y30826D01*
G01X35688Y31633D01*
G01X39783Y31633D01*
G01X39881Y31535D01*
G01X43503Y31535D01*
G01X43503Y35098D01*
G01X43051Y35551D01*
G01X43051Y39114D01*
G01X44133Y39114D01*
G01X44133Y40019D01*
G01X40748Y40019D01*
G01X40098Y40669D01*
G37*

G04 -------------------- Draw copper area cutout (negative)*
G36*
G01X33562Y32362D02*
G01X33267Y32362D01*
G01X33267Y32263D01*
G01X33366Y32263D01*
G01X33366Y32086D01*
G01X33267Y32086D01*
G01X33385Y31968D01*
G01X33484Y31968D01*
G01X33484Y32086D01*
G01X33484Y32263D01*
G01X33562Y32263D01*
G01X33562Y32362D01*
G37*

G04 -------------------- Draw copper area cutout (negative)*
G36*
G01X44566Y31279D02*
G01X36574Y31279D01*
G01X36318Y31023D01*
G01X33956Y28641D01*
G01X33956Y28149D01*
G01X33956Y25374D01*
G01X34842Y25374D01*
G01X34842Y28149D01*
G01X37303Y30610D01*
G01X39133Y30610D01*
G01X39133Y30275D01*
G01X39133Y30019D01*
G01X40511Y30019D01*
G01X40511Y30610D01*
G01X42480Y30610D01*
G01X42480Y30000D01*
G01X43838Y30000D01*
G01X43838Y30649D01*
G01X44527Y30649D01*
G01X44645Y30767D01*
G01X44645Y31161D01*
G01X44566Y31279D01*
G37*

G04 -------------------- Draw copper area cutout (negative)*
G36*
G01X43838Y29862D02*
G01X42480Y29862D01*
G01X42480Y28996D01*
G01X43838Y28996D01*
G01X43838Y29862D01*
G37*

G04 -------------------- Draw copper area cutout (negative)*
G36*
G01X40511Y29881D02*
G01X39133Y29881D01*
G01X39133Y28996D01*
G01X40511Y28996D01*
G01X40511Y29881D01*
G37*

G04 -------------------- Draw copper area cutout (negative)*
G36*
G01X43838Y28818D02*
G01X42480Y28818D01*
G01X42480Y27244D01*
G01X41948Y27244D01*
G01X40511Y28681D01*
G01X40511Y28818D01*
G01X39133Y28818D01*
G01X39133Y28346D01*
G01X39133Y27677D01*
G01X39133Y27263D01*
G01X39133Y22066D01*
G01X39350Y21850D01*
G01X40452Y21850D01*
G01X40452Y23031D01*
G01X41023Y22460D01*
G01X41023Y21220D01*
G01X40629Y20826D01*
G01X38169Y20826D01*
G01X37381Y20039D01*
G01X36062Y20039D01*
G01X34744Y21358D01*
G01X33937Y21358D01*
G01X33937Y20885D01*
G01X35433Y19389D01*
G01X44566Y19389D01*
G01X44566Y20472D01*
G01X43582Y20472D01*
G01X43582Y21496D01*
G01X41437Y21496D01*
G01X41437Y22893D01*
G01X40570Y23740D01*
G01X40531Y23779D01*
G01X40452Y23858D01*
G01X40452Y23996D01*
G01X40452Y26909D01*
G01X40452Y27972D01*
G01X40866Y27559D01*
G01X40866Y26909D01*
G01X40866Y24015D01*
G01X41870Y24015D01*
G01X42500Y23385D01*
G01X42500Y21948D01*
G01X43307Y21948D01*
G01X43503Y22145D01*
G01X43838Y22480D01*
G01X43838Y23149D01*
G01X43838Y28818D01*
G37*

G04 -------------------- Draw copper area cutout (negative)*
G36*
G01X9803Y27342D02*
G01X7736Y27342D01*
G01X7736Y26240D01*
G01X9803Y26240D01*
G01X9803Y27342D01*
G37*

G04 -------------------- Draw copper area cutout (negative)*
G36*
G01X13858Y37440D02*
G01X13326Y37440D01*
G01X12204Y36338D01*
G01X11712Y35826D01*
G01X11318Y35433D01*
G01X11023Y35433D01*
G01X11023Y34527D01*
G01X10295Y33799D01*
G01X10295Y28248D01*
G01X10295Y27362D01*
G01X10295Y20452D01*
G01X11220Y19527D01*
G01X11220Y15472D01*
G01X12913Y15472D01*
G01X12913Y20492D01*
G01X15354Y20492D01*
G01X15354Y13562D01*
G01X14488Y13562D01*
G01X14488Y12696D01*
G01X14488Y11771D01*
G01X11948Y11771D01*
G01X11948Y12696D01*
G01X9665Y12696D01*
G01X9665Y13208D01*
G01X9409Y13464D01*
G01X7381Y13464D01*
G01X7125Y13208D01*
G01X7125Y6417D01*
G01X11496Y6417D01*
G01X11496Y4940D01*
G01X10374Y4940D01*
G01X10118Y4685D01*
G01X10118Y2519D01*
G01X8602Y2519D01*
G01X8129Y2047D01*
G01X8129Y1417D01*
G01X8484Y1062D01*
G01X15728Y1062D01*
G01X15964Y1318D01*
G01X26535Y1318D01*
G01X28503Y3307D01*
G01X44232Y3307D01*
G01X44232Y5118D01*
G01X41889Y5118D01*
G01X41889Y4094D01*
G01X36417Y4094D01*
G01X36417Y5039D01*
G01X35866Y5590D01*
G01X24901Y5590D01*
G01X24724Y5767D01*
G01X24724Y9842D01*
G01X25452Y9842D01*
G01X25452Y6751D01*
G01X27066Y6751D01*
G01X27874Y7559D01*
G01X31988Y7559D01*
G01X32854Y6692D01*
G01X35708Y6692D01*
G01X36968Y7952D01*
G01X36968Y9842D01*
G01X37342Y10216D01*
G01X37913Y10767D01*
G01X37913Y11515D01*
G01X37145Y12283D01*
G01X31988Y12283D01*
G01X31633Y11929D01*
G01X31633Y10984D01*
G01X31417Y10767D01*
G01X29429Y10767D01*
G01X28641Y11555D01*
G01X27539Y11555D01*
G01X26909Y10944D01*
G01X20767Y10944D01*
G01X20767Y9763D01*
G01X21555Y9763D01*
G01X21555Y5511D01*
G01X23051Y4015D01*
G01X27637Y4015D01*
G01X25728Y2106D01*
G01X17795Y2106D01*
G01X17086Y2814D01*
G01X17086Y3917D01*
G01X17086Y5177D01*
G01X14763Y7500D01*
G01X14763Y9133D01*
G01X17086Y11496D01*
G01X17086Y12283D01*
G01X17086Y12795D01*
G01X17084Y13602D01*
G01X18228Y13602D01*
G01X18228Y14803D01*
G01X17081Y14803D01*
G01X17066Y19881D01*
G01X22007Y19881D01*
G01X23562Y18326D01*
G01X24685Y18326D01*
G01X25334Y18346D01*
G01X25570Y18582D01*
G01X25570Y20964D01*
G01X24389Y20964D01*
G01X24192Y21161D01*
G01X23602Y21161D01*
G01X23602Y19153D01*
G01X22992Y19763D01*
G01X22992Y21653D01*
G01X23700Y21653D01*
G01X23700Y23208D01*
G01X23051Y23208D01*
G01X23051Y23779D01*
G01X21043Y23779D01*
G01X21043Y24448D01*
G01X17913Y24448D01*
G01X17913Y22933D01*
G01X16732Y22933D01*
G01X16732Y24448D01*
G01X14921Y24448D01*
G01X14921Y27814D01*
G01X13169Y27814D01*
G01X13169Y29153D01*
G01X14842Y29153D01*
G01X14842Y31496D01*
G01X16811Y31496D01*
G01X16811Y33070D01*
G01X18169Y33070D01*
G01X18149Y31496D01*
G01X21476Y31496D01*
G01X21476Y29271D01*
G01X23346Y29271D01*
G01X23346Y28523D01*
G01X21437Y28523D01*
G01X21437Y27145D01*
G01X23346Y27145D01*
G01X23346Y26397D01*
G01X21437Y26397D01*
G01X21437Y25039D01*
G01X23346Y25039D01*
G01X23346Y24527D01*
G01X25610Y24527D01*
G01X25610Y26751D01*
G01X26240Y26751D01*
G01X26240Y27460D01*
G01X26240Y27834D01*
G01X25964Y28110D01*
G01X25964Y28641D01*
G01X25570Y29035D01*
G01X25570Y32795D01*
G01X32637Y32795D01*
G01X32637Y33287D01*
G01X31476Y34448D01*
G01X24704Y34448D01*
G01X24114Y35039D01*
G01X30826Y35039D01*
G01X30826Y36496D01*
G01X29370Y36496D01*
G01X29192Y36673D01*
G01X28405Y36673D01*
G01X28208Y36476D01*
G01X14803Y36496D01*
G01X13858Y37440D01*
G37*

G04 -------------------- Draw copper area cutout (negative)*
G36*
G01X32480Y24311D02*
G01X31732Y24311D01*
G01X31732Y22362D01*
G01X32480Y22362D01*
G01X32480Y24311D01*
G37*

G04 -------------------- Draw copper area cutout (negative)*
G36*
G01X34744Y19547D02*
G01X33937Y19547D01*
G01X33937Y16318D01*
G01X32972Y15354D01*
G01X32972Y14665D01*
G01X33917Y14665D01*
G01X33917Y15452D01*
G01X34744Y15452D01*
G01X34744Y19271D01*
G01X34744Y19547D01*
G37*

G04 -------------------- Draw copper area cutout (negative)*
G36*
G01X42185Y14448D02*
G01X40570Y14448D01*
G01X40570Y13740D01*
G01X42185Y13740D01*
G01X42185Y14448D01*
G37*

G04 -------------------- Draw copper area cutout (negative)*
G36*
G01X40787Y11712D02*
G01X39114Y11712D01*
G01X39114Y11023D01*
G01X40787Y11023D01*
G01X40787Y11712D01*
G37*

G04 -------------------- Draw copper area cutout (negative)*
G36*
G01X5177Y45531D02*
G01X570Y45531D01*
G01X570Y44232D01*
G01X866Y43917D01*
G01X866Y38385D01*
G01X846Y34862D01*
G01X649Y34665D01*
G01X677Y25267D01*
G01X1299Y24645D01*
G01X1299Y21259D01*
G01X2322Y21259D01*
G01X2322Y18602D01*
G01X2322Y11299D01*
G01X2322Y9232D01*
G01X3287Y9232D01*
G01X3287Y9940D01*
G01X3287Y10511D01*
G01X3287Y11633D01*
G01X4901Y10019D01*
G01X4901Y9055D01*
G01X5807Y9055D01*
G01X5807Y10866D01*
G01X6397Y11456D01*
G01X6397Y16122D01*
G01X6397Y17086D01*
G01X6141Y17322D01*
G01X6141Y18110D01*
G01X6141Y20433D01*
G01X5196Y20433D01*
G01X5196Y21122D01*
G01X6456Y21122D01*
G01X6456Y22421D01*
G01X5649Y22421D01*
G01X5669Y36279D01*
G01X11102Y36279D01*
G01X12795Y38011D01*
G01X17047Y38011D01*
G01X17047Y40295D01*
G01X7992Y40295D01*
G01X7007Y39311D01*
G01X6003Y39311D01*
G01X6003Y41870D01*
G01X8779Y41870D01*
G01X8779Y45039D01*
G01X5669Y45039D01*
G01X5177Y45531D01*
G37*

G04 -------------------- Draw copper area cutout (negative)*
G36*
G01X44015Y10570D02*
G01X42874Y10570D01*
G01X42874Y8602D01*
G01X44015Y8602D01*
G01X44015Y10570D01*
G37*

G04 -------------------- Draw copper area cutout (negative)*
G36*
G01X41023Y10649D02*
G01X39901Y10649D01*
G01X39901Y10629D01*
G01X39901Y8129D01*
G01X41023Y8129D01*
G01X41023Y10649D01*
G37*

G04 -------------------- Draw copper area cutout (negative)*
G36*
G01X5846Y7814D02*
G01X4940Y7814D01*
G01X4940Y6909D01*
G01X5846Y6909D01*
G01X5846Y7814D01*
G37*

G04 -------------------- Draw copper area cutout (negative)*
G36*
G01X44015Y7618D02*
G01X42874Y7618D01*
G01X42874Y6476D01*
G01X44015Y6476D01*
G01X44015Y7618D01*
G37*

G04 -------------------- Draw copper area cutout (negative)*
G36*
G01X41023Y7618D02*
G01X39901Y7618D01*
G01X39901Y6476D01*
G01X41023Y6476D01*
G01X41023Y7618D01*
G37*

G04 -------------------- Draw copper area cutout (negative)*
G36*
G01X19803Y11358D02*
G01X18976Y11358D01*
G01X18976Y6909D01*
G01X18228Y6161D01*
G01X18228Y5511D01*
G01X18937Y5511D01*
G01X19803Y6377D01*
G01X19803Y9645D01*
G01X19803Y11358D01*
G37*

G04 -------------------- Draw copper area cutout (negative)*
G36*
G01X9311Y5964D02*
G01X7165Y5964D01*
G01X7165Y5314D01*
G01X1791Y5314D01*
G01X1791Y2696D01*
G01X3622Y2696D01*
G01X3622Y964D01*
G01X5728Y964D01*
G01X5728Y1811D01*
G01X7559Y3641D01*
G01X9311Y3641D01*
G01X9311Y5964D01*
G37*

G04 ----------------------- Draw copper area (positive)*
%LPD*%
G36*
G01X23641Y34960D02*
G01X24507Y34094D01*
G01X24507Y33818D01*
G01X24842Y33464D01*
G01X25236Y33070D01*
G01X25354Y32952D01*
G01X25393Y32893D01*
G01X25393Y28799D01*
G01X25236Y28641D01*
G01X25236Y28129D01*
G01X25610Y27755D01*
G01X25610Y27303D01*
G01X25452Y27145D01*
G01X25452Y24763D01*
G01X24488Y24763D01*
G01X24488Y32814D01*
G01X23149Y34153D01*
G01X11968Y34153D01*
G01X11968Y22834D01*
G01X13248Y21555D01*
G01X21988Y21555D01*
G01X21988Y20688D01*
G01X13326Y20688D01*
G01X10925Y23110D01*
G01X10925Y32401D01*
G01X11240Y32696D01*
G01X11240Y35098D01*
G01X13897Y35098D01*
G01X14153Y35354D01*
G01X23248Y35354D01*
G01X23641Y34960D01*
G37*

G04 ----------------------- Draw copper area (positive)*
G36*
G01X10354Y9881D02*
G01X7460Y9881D01*
G01X7460Y12086D01*
G01X8011Y12086D01*
G01X8011Y10354D01*
G01X9173Y10354D01*
G01X9173Y12086D01*
G01X10354Y12086D01*
G01X10354Y9881D01*
G37*

G04 ----------------------- Draw copper area (positive)*
G36*
G01X10433Y6673D02*
G01X7460Y6673D01*
G01X7460Y9173D01*
G01X10433Y9173D01*
G01X10433Y6673D01*
G37*

G04 ----------------------- Draw copper area (positive)*
G36*
G01X15964Y4822D02*
G01X15964Y3031D01*
G01X14370Y3031D01*
G01X13877Y2539D01*
G01X12519Y2539D01*
G01X12539Y6397D01*
G01X14370Y6397D01*
G01X15964Y4822D01*
G37*

G04 ----------------------- Draw copper area (positive)*
G36*
G01X24330Y32401D02*
G01X24330Y24763D01*
G01X23622Y24763D01*
G01X23622Y32342D01*
G01X22618Y33366D01*
G01X12893Y33366D01*
G01X12893Y23287D01*
G01X13582Y22578D01*
G01X23484Y22578D01*
G01X23484Y21811D01*
G01X22834Y21811D01*
G01X22834Y20059D01*
G01X16850Y20059D01*
G01X16850Y14881D01*
G01X16850Y12677D01*
G01X16850Y11574D01*
G01X14547Y9271D01*
G01X14547Y7421D01*
G01X16870Y5098D01*
G01X16870Y1712D01*
G01X16614Y1712D01*
G01X16161Y2165D01*
G01X16161Y4862D01*
G01X13976Y7047D01*
G01X13976Y9566D01*
G01X16141Y11732D01*
G01X16141Y14881D01*
G01X16141Y20492D01*
G01X22263Y20492D01*
G01X22263Y21811D01*
G01X13464Y21811D01*
G01X12145Y23149D01*
G01X12145Y33464D01*
G01X12145Y33956D01*
G01X22814Y33956D01*
G01X24330Y32401D01*
G37*

G04 -------------------- Draw copper area cutout (negative)*
%LPC*%
G36*
G01X9232Y8779D02*
G01X8011Y8779D01*
G01X8011Y7086D01*
G01X9232Y7086D01*
G01X9232Y8779D01*
G37*

G04 -------------------- Draw copper area cutout (negative)*
G36*
G01X15393Y4822D02*
G01X13267Y4822D01*
G01X13267Y3602D01*
G01X15393Y3602D01*
G01X15393Y4822D01*
G37*

G04 -------------------- Draw copper area clearances (negative)*
%LPC*%

G04 Draw clearances for pads*
G54D11*
G01X39960Y30413D03*
G54D12*
G01X39960Y29413D03*
G01X39960Y28413D03*
G01X39960Y27413D03*
G01X39960Y26413D03*
G01X39960Y25413D03*
G01X39960Y24413D03*
G01X39960Y23413D03*
G01X39960Y22413D03*
G01X42960Y22413D03*
G01X42960Y23413D03*
G01X42960Y24413D03*
G01X42960Y25413D03*
G01X42960Y26413D03*
G01X42960Y27413D03*
G01X42960Y28413D03*
G01X42960Y29413D03*
G01X42960Y30413D03*
G54D11*
G01X39488Y39566D03*
G54D12*
G01X39488Y38566D03*
G01X39488Y37566D03*
G01X39488Y36566D03*
G01X42488Y36566D03*
G01X42488Y37566D03*
G01X42488Y38566D03*
G01X42488Y39566D03*
G54D11*
G01X40440Y10094D03*
G54D13*
G01X40440Y7094D03*
G01X43440Y7094D03*
G01X43440Y10094D03*
G54D14*
G01X2244Y29311D03*
G01X2244Y23996D03*
G54D12*
G01X3425Y27204D03*
G01X3425Y26102D03*
G01X3425Y25374D03*
G01X3425Y27933D03*
G54D15*
G01X1948Y26653D03*
G54D16*
G01X4409Y27933D03*
G01X4409Y25374D03*
G54D14*
G01X2244Y36200D03*
G01X2244Y30885D03*
G54D12*
G01X3425Y34094D03*
G01X3425Y32992D03*
G01X3425Y32263D03*
G01X3425Y34822D03*
G54D15*
G01X1948Y33543D03*
G54D16*
G01X4409Y34822D03*
G01X4409Y32263D03*
G54D17*
G01X40255Y43267D03*
G54D18*
G01X39165Y43267D03*
G01X38075Y43267D03*
G01X36985Y43267D03*
G01X35895Y43267D03*
G01X39715Y44387D03*
G01X38625Y44387D03*
G01X37535Y44387D03*
G01X36445Y44387D03*
G54D19*
G01X33169Y43779D03*
G01X43011Y43779D03*
G54D17*
G01X27381Y43307D03*
G54D18*
G01X26291Y43307D03*
G01X25201Y43307D03*
G01X24111Y43307D03*
G01X23021Y43307D03*
G01X26841Y44427D03*
G01X25751Y44427D03*
G01X24661Y44427D03*
G01X23571Y44427D03*
G54D19*
G01X20295Y43818D03*
G01X30137Y43818D03*
G54D16*
G01X5070Y44715D03*
G54D20*
G01X1150Y44715D03*
G01X4090Y44715D03*
G01X2130Y44715D03*
G54D21*
G01X5070Y46685D03*
G01X1150Y46685D03*
G54D20*
G01X3110Y46685D03*
G54D11*
G01X28838Y37244D03*
G54D12*
G01X29838Y37244D03*
G01X30838Y37244D03*
G01X31838Y37244D03*
G01X32838Y37244D03*
G01X33838Y37244D03*
G01X34838Y37244D03*
G01X35838Y37244D03*
G01X36838Y37244D03*
G01X36838Y40244D03*
G01X35838Y40244D03*
G01X34838Y40244D03*
G01X33838Y40244D03*
G01X32838Y40244D03*
G01X31838Y40244D03*
G01X30838Y40244D03*
G01X29838Y40244D03*
G01X28838Y40244D03*
G54D22*
G01X24212Y45354D03*
G01X23543Y45354D03*
G01X26791Y45374D03*
G01X27460Y45374D03*
G01X37086Y45314D03*
G01X36417Y45314D03*
G01X39665Y45334D03*
G01X38996Y45334D03*
G01X9271Y36870D03*
G01X8602Y36870D03*
G01X10846Y39527D03*
G01X10177Y39527D03*
G01X9271Y37755D03*
G01X8602Y37755D03*
G01X10846Y38641D03*
G01X10177Y38641D03*
G01X9271Y39527D03*
G01X8602Y39527D03*
G01X9271Y38641D03*
G01X8602Y38641D03*
G01X7204Y38503D03*
G01X6535Y38503D03*
G01X7204Y37086D03*
G01X6535Y37086D03*
G01X10846Y37755D03*
G01X10177Y37755D03*
G01X10846Y36870D03*
G01X10177Y36870D03*
G01X4370Y26377D03*
G01X5039Y26377D03*
G01X5078Y24409D03*
G01X4409Y24409D03*
G01X5078Y31299D03*
G01X4409Y31299D03*
G01X5078Y33188D03*
G01X4409Y33188D03*
G54D23*
G01X25000Y20393D03*
G54D24*
G01X25000Y21393D03*
G54D25*
G54D26*
G01X24901Y18700D03*
G01X24901Y19370D03*
G01X24015Y18700D03*
G01X24015Y19370D03*
G54D23*
G01X42047Y20787D03*
G01X43047Y20787D03*
G54D22*
G01X42125Y25196D03*
G01X41456Y25196D03*
G54D26*
G01X32775Y38425D03*
G01X32775Y39094D03*
G54D22*
G01X43779Y39566D03*
G01X43110Y39566D03*
G01X41830Y26377D03*
G01X41161Y26377D03*
G54D26*
G01X43503Y8385D03*
G01X43503Y9055D03*
G01X15748Y31791D03*
G01X15748Y32460D03*
G54D22*
G01X14566Y30216D03*
G01X13897Y30216D03*
G54D26*
G01X16437Y31791D03*
G01X16437Y32460D03*
G01X19192Y31791D03*
G01X19192Y32460D03*
G54D22*
G01X14566Y29527D03*
G01X13897Y29527D03*
G54D26*
G01X19980Y31791D03*
G01X19980Y32460D03*
G01X13976Y31791D03*
G01X13976Y32460D03*
G54D22*
G01X14566Y27460D03*
G01X13897Y27460D03*
G54D26*
G01X20669Y31791D03*
G01X20669Y32460D03*
G01X18503Y31791D03*
G01X18503Y32460D03*
G54D22*
G01X14566Y25688D03*
G01X13897Y25688D03*
G01X14566Y26771D03*
G01X13897Y26771D03*
G54D26*
G01X16338Y23425D03*
G01X16338Y24094D03*
G01X15649Y23425D03*
G01X15649Y24094D03*
G01X13877Y23326D03*
G01X13877Y23996D03*
G54D22*
G01X14566Y25000D03*
G01X13897Y25000D03*
G54D26*
G01X22145Y31791D03*
G01X22145Y32460D03*
G01X18996Y23425D03*
G01X18996Y24094D03*
G01X18307Y23425D03*
G01X18307Y24094D03*
G01X19881Y23425D03*
G01X19881Y24094D03*
G01X20570Y23425D03*
G01X20570Y24094D03*
G54D22*
G01X22440Y27460D03*
G01X21771Y27460D03*
G01X22440Y26082D03*
G01X21771Y26082D03*
G01X22440Y25393D03*
G01X21771Y25393D03*
G01X22637Y23425D03*
G01X21968Y23425D03*
G01X22440Y29625D03*
G01X21771Y29625D03*
G01X22440Y28149D03*
G01X21771Y28149D03*
G01X22440Y30314D03*
G01X21771Y30314D03*
G54D18*
G01X12204Y21062D03*
G01X12204Y20062D03*
G01X12204Y19062D03*
G01X12204Y18062D03*
G01X12204Y17062D03*
G01X12204Y16062D03*
G54D27*
G01X42913Y18503D03*
G54D25*
G54D22*
G01X4409Y28897D03*
G01X5078Y28897D03*
G01X4409Y35826D03*
G01X5078Y35826D03*
G54D28*
G01X15708Y12952D03*
G01X14960Y12952D03*
G01X17637Y14212D03*
G01X16889Y14212D03*
G54D22*
G01X35629Y11909D03*
G01X36299Y11909D03*
G54D21*
G01X5787Y21732D03*
G01X5787Y11811D03*
G54D26*
G01X3779Y22204D03*
G01X3779Y21535D03*
G54D29*
G01X4251Y19566D03*
G01X4651Y18666D03*
G01X3851Y18666D03*
G54D22*
G01X4566Y17440D03*
G01X3897Y17440D03*
G54D26*
G01X4606Y21535D03*
G01X4606Y22204D03*
G54D22*
G01X4488Y15393D03*
G01X3818Y15393D03*
G01X3779Y12795D03*
G01X4448Y12795D03*
G54D29*
G01X4133Y13582D03*
G01X3733Y14482D03*
G01X4533Y14482D03*
G54D26*
G01X5551Y19291D03*
G01X5551Y19960D03*
G54D30*
G01X5590Y3976D03*
G54D31*
G01X3031Y3976D03*
G54D14*
G01X4606Y2007D03*
G54D16*
G01X8881Y1771D03*
G01X9881Y1771D03*
G01X10881Y1771D03*
G54D23*
G01X8700Y4212D03*
G01X7700Y4212D03*
G01X8700Y5472D03*
G01X7700Y5472D03*
G54D32*
G01X10866Y5389D03*
G54D25*
G54D33*
G01X10866Y4409D03*
G54D32*
G01X1775Y9685D03*
G54D25*
G54D33*
G01X2755Y9685D03*
G54D32*
G01X4374Y9724D03*
G54D25*
G54D33*
G01X5354Y9724D03*
G54D32*
G01X6373Y7362D03*
G54D25*
G54D33*
G01X5393Y7362D03*
G54D34*
G01X11062Y12086D03*
G01X11062Y11181D03*
G01X11062Y10275D03*
G54D35*
G01X8622Y11181D03*
G54D34*
G01X11102Y8818D03*
G01X11102Y7913D03*
G01X11102Y7007D03*
G54D35*
G01X8661Y7913D03*
G54D36*
G01X15236Y1771D03*
G01X14330Y1771D03*
G01X13425Y1771D03*
G54D37*
G01X14330Y4212D03*
G54D33*
G01X13149Y11137D03*
G01X13149Y10157D03*
G54D32*
G01X16535Y831D03*
G54D25*
G54D32*
G01X16535Y1811D03*
G54D25*
G54D33*
G01X13464Y6972D03*
G01X13464Y7952D03*
G54D23*
G01X16456Y38543D03*
G01X15456Y38543D03*
G01X14456Y38543D03*
G01X13456Y38543D03*
G01X12456Y38543D03*
G54D38*
G01X16456Y39543D03*
G01X15456Y39543D03*
G01X14456Y39543D03*
G01X13456Y39543D03*
G01X12456Y39543D03*
G54D27*
G01X42913Y1181D03*
G54D25*
G54D27*
G01X42913Y41338D03*
G54D25*
G54D39*
G01X4566Y20669D03*
G01X3818Y20669D03*
G54D40*
G01X7322Y26811D03*
G54D25*
G54D38*
G01X8322Y26811D03*
G01X9322Y26811D03*
G54D21*
G01X42637Y4527D03*
G01X43637Y4527D03*
G54D41*
G01X44637Y4527D03*
G54D25*
G54D42*
G01X40000Y33897D03*
G01X40000Y34397D03*
G01X40000Y34897D03*
G01X40000Y35397D03*
G01X42125Y35397D03*
G01X42125Y34897D03*
G01X42125Y34397D03*
G01X42125Y33897D03*
G54D43*
G01X34370Y32322D03*
G01X34370Y32822D03*
G01X34370Y33322D03*
G01X34370Y33822D03*
G01X34370Y34322D03*
G01X34370Y34822D03*
G01X34370Y35322D03*
G01X34370Y35822D03*
G01X37992Y35822D03*
G01X37992Y35322D03*
G01X37992Y34822D03*
G01X37992Y34322D03*
G01X37992Y33822D03*
G01X37992Y33322D03*
G01X37992Y32822D03*
G01X37992Y32322D03*
G54D26*
G01X35275Y30944D03*
G01X35275Y31614D03*
G54D44*
G01X40393Y32133D03*
G01X42393Y32133D03*
G54D22*
G01X40393Y32952D03*
G01X41062Y32952D03*
G01X41732Y32952D03*
G01X42401Y32952D03*
G54D45*
G01X37992Y37952D03*
G54D25*
G54D45*
G01X37992Y37401D03*
G54D25*
G54D26*
G01X22559Y44724D03*
G01X22559Y45393D03*
G01X35433Y45354D03*
G01X35433Y44685D03*
G54D17*
G01X10590Y44409D03*
G54D18*
G01X11496Y44409D03*
G01X12401Y44409D03*
G01X13307Y44409D03*
G01X14212Y44409D03*
G01X10157Y43385D03*
G01X11062Y43385D03*
G01X11929Y43385D03*
G01X12834Y43385D03*
G54D19*
G01X17283Y43385D03*
G01X7519Y43385D03*
G54D18*
G01X13740Y43385D03*
G01X10590Y42401D03*
G01X11496Y42401D03*
G01X12401Y42401D03*
G01X13307Y42401D03*
G01X14212Y42401D03*
G54D26*
G01X1968Y21929D03*
G01X1968Y22598D03*
G54D27*
G01X7086Y40590D03*
G54D25*
G54D27*
G01X1181Y1181D03*
G54D25*
G54D14*
G01X2244Y43011D03*
G01X2244Y37696D03*
G54D12*
G01X3425Y39074D03*
G01X3425Y41653D03*
G54D15*
G01X1948Y40354D03*
G54D12*
G01X4409Y40629D03*
G54D26*
G01X40472Y8503D03*
G01X40472Y9173D03*
G54D22*
G01X42125Y24488D03*
G01X41456Y24488D03*
G54D23*
G01X8070Y12795D03*
G01X9070Y12795D03*
G54D45*
G01X31141Y11299D03*
G54D25*
G54D45*
G01X30472Y11299D03*
G54D25*
G54D45*
G01X29763Y11299D03*
G54D25*

G04 Draw clearances for traces*
G54D46*
G01X28110Y10885D03*
G54D47*
G01X28110Y10885D02*
G01X28818Y10177D01*
G01X28818Y10177D02*
G01X35078Y10177D01*
G54D46*
G01X35452Y9822D03*
G54D47*
G01X35078Y10177D02*
G01X35452Y9822D01*
G54D46*
G01X25531Y28405D03*
G54D47*
G01X25531Y28405D02*
G01X25531Y28149D01*
G01X25531Y28149D02*
G01X25905Y27776D01*
G54D46*
G01X25905Y27086D03*
G54D47*
G01X25905Y27776D02*
G01X25905Y27086D01*
G01X9271Y37755D02*
G01X10177Y37755D01*
G01X10177Y37755D02*
G01X10177Y36870D01*
G54D48*
G01X3425Y27933D02*
G01X1476Y27933D01*
G01X1476Y27933D02*
G01X925Y27382D01*
G01X925Y27382D02*
G01X925Y25905D01*
G01X925Y25905D02*
G01X1535Y25295D01*
G01X1535Y25295D02*
G01X2401Y25295D01*
G01X2401Y25295D02*
G01X3307Y24389D01*
G01X3307Y24389D02*
G01X3307Y23286D01*
G01X3307Y23286D02*
G01X2755Y22736D01*
G01X2755Y22736D02*
G01X2755Y9685D01*
G01X3425Y27933D02*
G01X1496Y27933D01*
G01X1496Y27933D02*
G01X925Y28503D01*
G01X925Y28503D02*
G01X925Y34291D01*
G01X925Y34291D02*
G01X1456Y34822D01*
G01X1456Y34822D02*
G01X3425Y34822D01*
G54D47*
G01X5078Y24409D02*
G01X5078Y26259D01*
G01X5078Y26259D02*
G01X5039Y26377D01*
G01X3425Y27933D02*
G01X4192Y27165D01*
G01X4192Y27165D02*
G01X4724Y27165D01*
G01X4724Y27165D02*
G01X5039Y26850D01*
G01X5039Y26850D02*
G01X5039Y26377D01*
G54D48*
G01X3425Y27933D02*
G01X4370Y28877D01*
G01X4370Y28877D02*
G01X4409Y28897D01*
G54D47*
G01X5078Y31299D02*
G01X5078Y33188D01*
G01X3425Y34822D02*
G01X3543Y34685D01*
G01X3543Y34685D02*
G01X4074Y34153D01*
G01X4074Y34153D02*
G01X4527Y34153D01*
G01X4527Y34153D02*
G01X5078Y33602D01*
G01X5078Y33602D02*
G01X5078Y33188D01*
G01X3425Y34822D02*
G01X3464Y34881D01*
G54D48*
G01X3464Y34881D02*
G01X4409Y35826D01*
G54D46*
G01X26003Y8720D03*
G01X33562Y8720D03*
G54D47*
G01X26003Y8720D02*
G01X33562Y8720D01*
G54D46*
G01X26889Y9055D03*
G54D47*
G01X26889Y9055D02*
G01X27047Y9094D01*
G01X27047Y9094D02*
G01X33759Y9094D01*
G01X33759Y9094D02*
G01X33976Y8877D01*
G01X33976Y8877D02*
G01X33976Y7952D01*
G54D46*
G01X33877Y7834D03*
G54D47*
G01X33976Y7952D02*
G01X33877Y7834D01*
G54D46*
G01X24921Y33976D03*
G01X31496Y33976D03*
G54D47*
G01X24921Y33976D02*
G01X31496Y33976D01*
G54D46*
G01X43464Y23937D03*
G54D47*
G01X43464Y23937D02*
G01X43464Y26633D01*
G01X43464Y26633D02*
G01X43169Y26929D01*
G01X43169Y26929D02*
G01X41909Y26929D01*
G01X41909Y26929D02*
G01X40425Y28413D01*
G01X40425Y28413D02*
G01X39960Y28413D01*
G54D46*
G01X26377Y9803D03*
G54D47*
G01X26377Y9803D02*
G01X26594Y9724D01*
G01X26594Y9724D02*
G01X34212Y9704D01*
G01X34212Y9704D02*
G01X35059Y8858D01*
G01X35059Y8858D02*
G01X35059Y8346D01*
G54D46*
G01X34704Y7992D03*
G54D47*
G01X35059Y8346D02*
G01X34704Y7992D01*
G54D46*
G01X11535Y20590D03*
G54D47*
G01X11535Y20590D02*
G01X10748Y21377D01*
G01X10748Y21377D02*
G01X10748Y32716D01*
G01X10748Y32716D02*
G01X10905Y32874D01*
G54D46*
G01X10905Y33110D03*
G54D47*
G01X10905Y32874D02*
G01X10905Y33110D01*
G54D46*
G01X5925Y16732D03*
G54D48*
G01X5925Y16732D02*
G01X5925Y14724D01*
G01X5925Y14724D02*
G01X5688Y14488D01*
G01X5688Y14488D02*
G01X4566Y14488D01*
G01X4566Y14488D02*
G01X4533Y14482D01*
G01X5551Y19291D02*
G01X5078Y19291D01*
G01X5078Y19291D02*
G01X4783Y19586D01*
G01X4783Y19586D02*
G01X4232Y19586D01*
G01X4232Y19586D02*
G01X4251Y19566D01*
G54D49*
G01X4251Y19566D02*
G01X4251Y19783D01*
G01X4251Y19783D02*
G01X3818Y20216D01*
G01X3818Y20216D02*
G01X3818Y20669D01*
G54D48*
G01X5551Y19291D02*
G01X5551Y17106D01*
G01X5551Y17106D02*
G01X5925Y16732D01*
G01X5925Y16732D02*
G01X5925Y14744D01*
G01X5925Y14744D02*
G01X5649Y14468D01*
G01X5649Y14468D02*
G01X4527Y14468D01*
G01X4527Y14468D02*
G01X4533Y14482D01*
G54D46*
G01X25885Y9409D03*
G54D47*
G01X25885Y9409D02*
G01X33976Y9409D01*
G54D46*
G01X34704Y8700D03*
G54D47*
G01X33976Y9409D02*
G01X34704Y8700D01*
G01X42960Y24413D02*
G01X42854Y24448D01*
G01X42854Y24448D02*
G01X42854Y24803D01*
G01X42854Y24803D02*
G01X42460Y25196D01*
G01X42460Y25196D02*
G01X42125Y25196D01*
G54D46*
G01X25393Y10177D03*
G54D47*
G01X25393Y10177D02*
G01X26732Y10177D01*
G01X26732Y10177D02*
G01X26968Y9940D01*
G01X26968Y9940D02*
G01X34488Y9940D01*
G54D46*
G01X34940Y9488D03*
G54D47*
G01X34488Y9940D02*
G01X34940Y9488D01*
G01X42125Y24488D02*
G01X42125Y24074D01*
G01X42125Y24074D02*
G01X42775Y23425D01*
G01X42775Y23425D02*
G01X42960Y23413D01*
G54D46*
G01X13622Y37047D03*
G54D47*
G01X13622Y37047D02*
G01X13622Y36338D01*
G01X13622Y36338D02*
G01X13779Y36181D01*
G01X13779Y36181D02*
G01X28661Y36181D01*
G54D46*
G01X28838Y36358D03*
G54D47*
G01X28661Y36181D02*
G01X28838Y36358D01*
G01X40000Y33897D02*
G01X40807Y33897D01*
G01X40807Y33897D02*
G01X40964Y34055D01*
G01X40964Y34055D02*
G01X40964Y38385D01*
G01X40964Y38385D02*
G01X39724Y39625D01*
G01X39724Y39625D02*
G01X39488Y39566D01*
G01X40000Y33897D02*
G01X39015Y33897D01*
G01X39015Y33897D02*
G01X38818Y34094D01*
G01X38818Y34094D02*
G01X38818Y36161D01*
G01X38818Y36161D02*
G01X38799Y36181D01*
G01X38799Y36181D02*
G01X36791Y36181D01*
G01X36791Y36181D02*
G01X35933Y35322D01*
G01X35933Y35322D02*
G01X34370Y35322D01*
G54D46*
G01X13385Y35433D03*
G54D47*
G01X13385Y35433D02*
G01X13503Y35590D01*
G01X13503Y35590D02*
G01X29921Y35590D01*
G54D46*
G01X30000Y35452D03*
G54D47*
G01X29921Y35590D02*
G01X30000Y35452D01*
G01X39960Y22413D02*
G01X39822Y22381D01*
G01X39822Y22381D02*
G01X39468Y22736D01*
G54D46*
G01X39468Y24901D03*
G54D47*
G01X39468Y22736D02*
G01X39468Y24901D01*
G01X40000Y34397D02*
G01X40177Y34389D01*
G01X40177Y34389D02*
G01X40610Y34389D01*
G01X40610Y34389D02*
G01X40767Y34546D01*
G01X40767Y34546D02*
G01X40767Y37736D01*
G01X40767Y37736D02*
G01X39937Y38566D01*
G01X39937Y38566D02*
G01X39488Y38566D01*
G01X40000Y34397D02*
G01X39921Y34389D01*
G01X39921Y34389D02*
G01X39271Y34389D01*
G01X39271Y34389D02*
G01X39153Y34507D01*
G01X39153Y34507D02*
G01X39153Y36161D01*
G01X39153Y36161D02*
G01X38937Y36377D01*
G01X38937Y36377D02*
G01X36554Y36377D01*
G01X36554Y36377D02*
G01X36000Y35822D01*
G01X36000Y35822D02*
G01X34370Y35822D01*
G01X10846Y38641D02*
G01X10846Y38405D01*
G01X10846Y38405D02*
G01X11043Y38208D01*
G01X11043Y38208D02*
G01X11830Y38208D01*
G54D46*
G01X11988Y38051D03*
G54D47*
G01X11830Y38208D02*
G01X11988Y38051D01*
G54D48*
G01X5354Y9724D02*
G01X5354Y9744D01*
G01X5354Y9744D02*
G01X5344Y10286D01*
G01X5344Y10286D02*
G01X3188Y12442D01*
G01X3188Y12442D02*
G01X3188Y16042D01*
G01X3188Y16042D02*
G01X3897Y16751D01*
G01X3897Y16751D02*
G01X3897Y17440D01*
G01X3897Y17440D02*
G01X3897Y18543D01*
G54D47*
G01X3897Y18543D02*
G01X3851Y18666D01*
G01X3733Y14482D02*
G01X3733Y14875D01*
G01X3733Y14875D02*
G01X3818Y14960D01*
G01X3818Y14960D02*
G01X3818Y15433D01*
G01X3818Y15433D02*
G01X3818Y15393D01*
G01X42125Y34897D02*
G01X41948Y34901D01*
G01X41948Y34901D02*
G01X41692Y34901D01*
G01X41692Y34901D02*
G01X41535Y35059D01*
G01X41535Y35059D02*
G01X41535Y37145D01*
G01X41535Y37145D02*
G01X41956Y37566D01*
G01X41956Y37566D02*
G01X42488Y37566D01*
G01X42125Y34897D02*
G01X42283Y34881D01*
G01X42283Y34881D02*
G01X42716Y34881D01*
G01X42716Y34881D02*
G01X42933Y34665D01*
G01X42933Y34665D02*
G01X42933Y33680D01*
G01X42933Y33680D02*
G01X42854Y33602D01*
G01X42854Y33602D02*
G01X39252Y33602D01*
G01X39252Y33602D02*
G01X38858Y33208D01*
G01X38858Y33208D02*
G01X38858Y32460D01*
G01X38858Y32460D02*
G01X38720Y32322D01*
G01X38720Y32322D02*
G01X37992Y32322D01*
G54D46*
G01X25413Y33543D03*
G01X31850Y33562D03*
G54D47*
G01X25413Y33543D02*
G01X31850Y33562D01*
G54D46*
G01X12244Y35413D03*
G54D47*
G01X12244Y35413D02*
G01X12814Y35413D01*
G01X12814Y35413D02*
G01X13188Y35787D01*
G54D46*
G01X30452Y35787D03*
G54D47*
G01X13188Y35787D02*
G01X30452Y35787D01*
G01X6535Y38503D02*
G01X6062Y38503D01*
G01X6062Y38503D02*
G01X5787Y38779D01*
G01X5787Y38779D02*
G01X5787Y39645D01*
G01X5787Y39645D02*
G01X5787Y43248D01*
G01X5787Y43248D02*
G01X5078Y43956D01*
G01X5078Y43956D02*
G01X5078Y44291D01*
G01X5078Y44291D02*
G01X5070Y44715D01*
G01X35895Y43267D02*
G01X35885Y43248D01*
G01X35885Y43248D02*
G01X35433Y43248D01*
G01X35433Y43248D02*
G01X35433Y44685D01*
G01X6535Y37086D02*
G01X6200Y37086D01*
G01X6200Y37086D02*
G01X5098Y38188D01*
G01X5098Y38188D02*
G01X5098Y42499D01*
G01X5098Y42499D02*
G01X4921Y42677D01*
G01X4921Y42677D02*
G01X4035Y42677D01*
G01X4035Y42677D02*
G01X3720Y42992D01*
G01X3720Y42992D02*
G01X2755Y43956D01*
G01X2755Y43956D02*
G01X2755Y44428D01*
G01X2755Y44428D02*
G01X2755Y45039D01*
G01X2755Y45039D02*
G01X2480Y45314D01*
G01X2480Y45314D02*
G01X1535Y45314D01*
G01X1535Y45314D02*
G01X1220Y45000D01*
G01X1220Y45000D02*
G01X1150Y44715D01*
G54D46*
G01X24015Y20748D03*
G54D47*
G01X24015Y20748D02*
G01X24015Y19370D01*
G01X22559Y44724D02*
G01X22559Y43307D01*
G01X22559Y43307D02*
G01X23021Y43307D01*
G54D46*
G01X22381Y10098D03*
G54D47*
G01X22381Y10098D02*
G01X22381Y5826D01*
G01X22381Y5826D02*
G01X23562Y4645D01*
G01X23562Y4645D02*
G01X33543Y4645D01*
G54D46*
G01X33681Y4507D03*
G54D47*
G01X33543Y4645D02*
G01X33681Y4507D01*
G54D45*
G01X32322Y15019D03*
G54D25*
G54D47*
G01X39960Y26413D02*
G01X39960Y26377D01*
G54D25*
G54D45*
G01X34311Y15019D03*
G54D25*
G54D45*
G01X17795Y31870D03*
G54D25*
G54D45*
G01X22244Y26791D03*
G54D25*
G54D45*
G01X22007Y24665D03*
G54D25*
G54D45*
G01X14389Y28208D03*
G54D25*
G54D45*
G01X14389Y28720D03*
G54D25*
G54D45*
G01X15748Y31102D03*
G54D25*
G54D45*
G01X18503Y31102D03*
G54D25*
G54D45*
G01X19980Y31102D03*
G54D25*
G54D45*
G01X17185Y31889D03*
G54D25*
G54D45*
G01X15177Y30216D03*
G54D25*
G54D45*
G01X15177Y27460D03*
G54D25*
G54D45*
G01X15196Y25688D03*
G54D25*
G54D45*
G01X16338Y24685D03*
G54D25*
G54D45*
G01X18996Y24685D03*
G54D25*
G54D45*
G01X20570Y24665D03*
G54D25*
G54D45*
G01X21161Y25393D03*
G54D25*
G54D45*
G01X21161Y27460D03*
G54D25*
G54D45*
G01X21141Y29625D03*
G54D25*
G54D45*
G01X21161Y30925D03*
G54D25*
G54D45*
G01X7814Y34744D03*
G54D25*
G54D45*
G01X7677Y33070D03*
G54D25*
G54D45*
G01X7677Y31299D03*
G54D25*
G54D45*
G01X7677Y29724D03*
G54D25*
G54D45*
G01X9311Y34133D03*
G54D25*
G54D47*
G01X8602Y37755D02*
G01X8543Y37775D01*
G01X8543Y37775D02*
G01X8523Y37795D01*
G54D48*
G01X8523Y37795D02*
G01X6072Y37795D01*
G01X6072Y37795D02*
G01X5472Y38405D01*
G01X5472Y38405D02*
G01X5472Y39054D01*
G01X5472Y39054D02*
G01X5472Y42851D01*
G01X5472Y42851D02*
G01X5275Y43051D01*
G01X5275Y43051D02*
G01X4251Y43051D01*
G01X4251Y43051D02*
G01X4193Y43051D01*
G01X4193Y43051D02*
G01X3129Y44114D01*
G01X3129Y44114D02*
G01X3127Y44646D01*
G54D25*
G54D45*
G01X16988Y23759D03*
G54D25*
G54D45*
G01X17657Y23759D03*
G54D25*
G54D45*
G01X33228Y23877D03*
G54D25*
G54D45*
G01X34488Y23877D03*
G54D25*
G54D45*
G01X34173Y30039D03*
G54D25*
G54D45*
G01X33444Y30708D03*
G54D25*
G54D45*
G01X6574Y9271D03*
G54D25*
G54D45*
G01X6968Y15255D03*
G54D25*
G54D47*
G01X13149Y11137D02*
G01X13149Y11318D01*
G54D25*
G54D45*
G01X19212Y12362D03*
G54D25*
G54D45*
G01X38582Y9901D03*
G54D25*
G54D45*
G01X37224Y23700D03*
G54D25*
G54D45*
G01X36653Y22440D03*
G54D25*
G54D45*
G01X36712Y14468D03*
G54D25*
G54D45*
G01X38425Y11515D03*
G54D25*
G54D45*
G01X41496Y11338D03*
G54D25*
G54D48*
G01X39830Y36566D02*
G01X39488Y36566D01*
G54D25*
G54D45*
G01X6968Y18248D03*
G54D25*
G54D47*
G01X4566Y20669D02*
G01X4566Y21437D01*
G01X4566Y21437D02*
G01X4606Y21535D01*
G54D25*
G54D48*
G01X3425Y25374D02*
G01X3779Y25019D01*
G01X3779Y25019D02*
G01X3779Y24015D01*
G01X3779Y24015D02*
G01X4114Y23681D01*
G54D25*
G54D48*
G01X3425Y32263D02*
G01X3425Y30925D01*
G01X3425Y30925D02*
G01X3877Y30472D01*
G54D25*
G54D47*
G01X13456Y39543D02*
G01X14456Y39543D01*
G01X14456Y39543D02*
G01X15456Y39543D01*
G01X15456Y39543D02*
G01X16456Y39543D01*
G01X8602Y37755D02*
G01X8602Y38641D01*
G01X8602Y36870D02*
G01X8602Y37755D01*
G01X8602Y38641D02*
G01X8602Y39527D01*
G54D25*
G54D45*
G01X32755Y21732D03*
G54D25*
G54D48*
G01X10157Y43385D02*
G01X11062Y43385D01*
G01X11062Y43385D02*
G01X11929Y43385D01*
G54D25*
G54D48*
G01X14212Y42401D02*
G01X13700Y42913D01*
G01X13700Y42913D02*
G01X13700Y43425D01*
G01X13700Y43425D02*
G01X13740Y43385D01*
G54D50*
G01X11929Y43385D02*
G01X12461Y43917D01*
G01X12461Y43917D02*
G01X13208Y43917D01*
G01X13208Y43917D02*
G01X13740Y43385D01*
G54D25*
G54D46*
G01X10925Y33779D03*
G54D47*
G01X10925Y33779D02*
G01X10551Y33405D01*
G01X10551Y33405D02*
G01X10551Y20866D01*
G01X10551Y20866D02*
G01X11594Y19822D01*
G01X11594Y19822D02*
G01X11594Y18366D01*
G01X11594Y18366D02*
G01X11870Y18070D01*
G01X11870Y18070D02*
G01X12106Y18070D01*
G01X12106Y18070D02*
G01X12204Y18062D01*
G01X10846Y36870D02*
G01X10846Y36496D01*
G01X10846Y36496D02*
G01X9271Y36496D01*
G01X9271Y36496D02*
G01X9271Y36870D01*
G01X9271Y36870D02*
G01X9271Y36496D01*
G01X9271Y36496D02*
G01X7322Y36496D01*
G01X7322Y36496D02*
G01X7204Y36614D01*
G01X7204Y36614D02*
G01X7204Y37086D01*
G01X24901Y19370D02*
G01X24901Y19822D01*
G01X24901Y19822D02*
G01X25000Y19921D01*
G01X25000Y19921D02*
G01X25000Y20393D01*
G54D45*
G01X15590Y34645D03*
G54D25*
G54D47*
G01X16437Y32460D02*
G01X16417Y32559D01*
G54D50*
G01X16417Y32559D02*
G01X16417Y32992D01*
G54D46*
G01X16240Y33051D03*
G54D47*
G01X16417Y32992D02*
G01X16240Y33051D01*
G01X19192Y32460D02*
G01X19133Y32460D01*
G54D46*
G01X19133Y33011D03*
G54D50*
G01X19133Y32460D02*
G01X19133Y33011D01*
G54D45*
G01X20866Y34645D03*
G54D25*
G54D46*
G01X20000Y32992D03*
G54D50*
G01X20000Y32992D02*
G01X20000Y32519D01*
G54D47*
G01X20000Y32519D02*
G01X19980Y32460D01*
G54D45*
G01X11496Y30413D03*
G54D25*
G54D46*
G01X13208Y26889D03*
G54D47*
G01X13208Y26889D02*
G01X13326Y26771D01*
G54D50*
G01X13326Y26771D02*
G01X13838Y26771D01*
G54D47*
G01X13838Y26771D02*
G01X13897Y26771D01*
G54D45*
G01X11279Y27381D03*
G54D25*
G54D46*
G01X13208Y25708D03*
G54D50*
G01X13208Y25708D02*
G01X13858Y25708D01*
G54D47*
G01X13858Y25708D02*
G01X13897Y25688D01*
G54D45*
G01X11456Y25098D03*
G54D25*
G54D47*
G01X16338Y23425D02*
G01X16318Y23366D01*
G54D46*
G01X16318Y22913D03*
G54D50*
G01X16318Y23366D02*
G01X16318Y22913D01*
G54D47*
G01X18996Y23425D02*
G01X19035Y23346D01*
G54D46*
G01X19035Y22933D03*
G54D50*
G01X19035Y23346D02*
G01X19035Y22933D01*
G54D45*
G01X15314Y21062D03*
G54D25*
G54D45*
G01X18346Y21023D03*
G54D25*
G54D47*
G01X19881Y23425D02*
G01X19862Y23346D01*
G54D46*
G01X19862Y22933D03*
G54D50*
G01X19862Y23346D02*
G01X19862Y22933D01*
G54D45*
G01X20728Y21122D03*
G54D25*
G54D46*
G01X23169Y26082D03*
G54D47*
G01X23169Y26082D02*
G01X22440Y26082D01*
G54D45*
G01X24960Y25275D03*
G54D25*
G54D47*
G01X22440Y27460D02*
G01X22519Y27421D01*
G54D46*
G01X23267Y27421D03*
G54D47*
G01X22519Y27421D02*
G01X23267Y27421D01*
G54D45*
G01X25157Y27480D03*
G54D25*
G54D46*
G01X23267Y29625D03*
G54D47*
G01X23267Y29625D02*
G01X22440Y29625D01*
G54D45*
G01X24921Y30570D03*
G54D25*
G54D47*
G01X13897Y29527D02*
G01X13917Y29527D01*
G54D46*
G01X13267Y29527D03*
G54D50*
G01X13917Y29527D02*
G01X13267Y29527D01*
G54D45*
G01X18622Y34783D03*
G54D25*
G54D51*
G01X11062Y11181D02*
G01X12125Y11181D01*
G01X12125Y11181D02*
G01X13149Y10157D01*
G01X13149Y10157D02*
G01X13937Y10157D01*
G01X13937Y10157D02*
G01X15708Y11929D01*
G01X15708Y11929D02*
G01X15708Y12972D01*
G01X15708Y12972D02*
G01X15708Y12952D01*
G01X15708Y12952D02*
G01X15748Y12992D01*
G54D25*
G54D46*
G01X41830Y14055D03*
G01X41003Y14055D03*
G54D47*
G01X41830Y14055D02*
G01X41003Y14055D01*
G54D48*
G01X17283Y43385D02*
G01X18385Y43385D01*
G01X18385Y43385D02*
G01X18897Y43897D01*
G01X18897Y43897D02*
G01X20177Y43897D01*
G01X20177Y43897D02*
G01X19468Y43838D01*
G01X19468Y43838D02*
G01X20295Y43818D01*
G01X2244Y30885D02*
G01X2244Y29311D01*
G54D46*
G01X24389Y10295D03*
G54D47*
G01X24389Y10295D02*
G01X24389Y5629D01*
G01X24389Y5629D02*
G01X24744Y5275D01*
G54D46*
G01X34744Y5275D03*
G54D47*
G01X24744Y5275D02*
G01X34744Y5275D01*
G54D46*
G01X22874Y10078D03*
G54D47*
G01X22874Y10078D02*
G01X22874Y5905D01*
G01X22874Y5905D02*
G01X23917Y4862D01*
G01X23917Y4862D02*
G01X34251Y4862D01*
G01X34251Y4862D02*
G01X34566Y4547D01*
G54D46*
G01X34744Y4547D03*
G54D47*
G01X34566Y4547D02*
G01X34744Y4547D01*
G54D46*
G01X25807Y33188D03*
G01X32283Y33188D03*
G54D47*
G01X25807Y33188D02*
G01X32283Y33188D01*
G54D46*
G01X38385Y20492D03*
G54D47*
G01X38385Y20492D02*
G01X38543Y20649D01*
G01X38543Y20649D02*
G01X40787Y20649D01*
G01X40787Y20649D02*
G01X41200Y21062D01*
G01X41200Y21062D02*
G01X41200Y22815D01*
G01X41200Y22815D02*
G01X40590Y23425D01*
G01X40590Y23425D02*
G01X40059Y23425D01*
G01X40059Y23425D02*
G01X39960Y23413D01*
G54D46*
G01X5118Y22204D03*
G54D47*
G01X4606Y22204D02*
G01X5118Y22204D01*
G54D48*
G01X30137Y43818D02*
G01X32795Y43818D01*
G54D47*
G01X32795Y43818D02*
G01X33169Y43779D01*
G54D46*
G01X23385Y10059D03*
G54D47*
G01X23385Y10059D02*
G01X23385Y5944D01*
G01X23385Y5944D02*
G01X24271Y5059D01*
G01X24271Y5059D02*
G01X34429Y5059D01*
G01X34429Y5059D02*
G01X34606Y4881D01*
G01X34606Y4881D02*
G01X35118Y4881D01*
G01X35118Y4881D02*
G01X35275Y5039D01*
G54D46*
G01X35275Y5275D03*
G54D47*
G01X35275Y5039D02*
G01X35275Y5275D01*
G54D46*
G01X34350Y11909D03*
G54D47*
G01X35629Y11909D02*
G01X34350Y11909D01*
G54D46*
G01X21141Y10118D03*
G54D47*
G01X21141Y10118D02*
G01X21141Y10413D01*
G01X21141Y10413D02*
G01X21476Y10748D01*
G01X21476Y10748D02*
G01X27263Y10748D01*
G01X27263Y10748D02*
G01X27814Y11299D01*
G01X27814Y11299D02*
G01X28484Y11299D01*
G01X28484Y11299D02*
G01X29330Y10452D01*
G01X29330Y10452D02*
G01X31496Y10452D01*
G01X31496Y10452D02*
G01X31909Y10866D01*
G01X31909Y10866D02*
G01X31909Y11653D01*
G01X31909Y11653D02*
G01X32165Y11909D01*
G01X32165Y11909D02*
G01X34350Y11909D01*
G01X4409Y32263D02*
G01X4409Y31299D01*
G01X9271Y38641D02*
G01X10177Y38641D01*
G01X10177Y38641D02*
G01X10177Y39527D01*
G54D25*
G54D52*
G01X36299Y11909D02*
G01X36948Y11909D01*
G01X36948Y11909D02*
G01X37598Y11259D01*
G01X37598Y11259D02*
G01X37598Y10905D01*
G01X37598Y10905D02*
G01X37145Y10452D01*
G01X37145Y10452D02*
G01X36200Y10452D01*
G01X36200Y10452D02*
G01X35944Y10196D01*
G01X35944Y10196D02*
G01X35944Y9803D01*
G01X35944Y9803D02*
G01X35433Y9291D01*
G54D46*
G01X35433Y8543D03*
G54D52*
G01X35433Y9291D02*
G01X35433Y8543D01*
G54D48*
G01X11102Y7913D02*
G01X12066Y7913D01*
G01X12066Y7913D02*
G01X12066Y10275D01*
G01X12066Y10275D02*
G01X11062Y10275D01*
G01X11102Y7913D02*
G01X11220Y7933D01*
G01X11220Y7933D02*
G01X13385Y7933D01*
G01X13385Y7933D02*
G01X13464Y7952D01*
G54D46*
G01X19389Y10866D03*
G01X19389Y10866D02*
G01X19389Y6653D01*
G01X18622Y5866D03*
G01X19389Y6653D02*
G01X18622Y5866D01*
G01X39429Y11377D03*
G01X40433Y11358D03*
G54D48*
G01X39429Y11377D02*
G01X40433Y11358D01*
G54D47*
G01X3425Y32992D02*
G01X3838Y32992D01*
G01X3838Y32992D02*
G01X4035Y33188D01*
G01X4035Y33188D02*
G01X4409Y33188D01*
G54D46*
G01X11496Y37755D03*
G54D47*
G01X11496Y37755D02*
G01X10846Y37755D01*
G54D46*
G01X5079Y22834D03*
G54D47*
G01X5079Y22834D02*
G01X3956Y22834D01*
G01X3956Y22834D02*
G01X3799Y22677D01*
G01X3799Y22677D02*
G01X3799Y22165D01*
G01X3799Y22165D02*
G01X3779Y22204D01*
G01X3779Y12795D02*
G01X3740Y12854D01*
G01X3740Y12854D02*
G01X3740Y13484D01*
G01X3740Y13484D02*
G01X3838Y13582D01*
G01X3838Y13582D02*
G01X4133Y13582D01*
G54D48*
G01X40393Y32952D02*
G01X40393Y32133D01*
G01X1968Y22598D02*
G01X1968Y23858D01*
G54D47*
G01X1968Y23858D02*
G01X2244Y23996D01*
G54D25*
G54D51*
G01X10881Y1771D02*
G01X10885Y4271D01*
G01X10885Y4271D02*
G01X10866Y4409D01*
G01X11102Y7007D02*
G01X11948Y7007D01*
G01X11948Y7007D02*
G01X11948Y4409D01*
G01X11948Y4409D02*
G01X10866Y4409D01*
G01X10866Y4409D02*
G01X11948Y4409D01*
G01X11948Y4409D02*
G01X11948Y2047D01*
G01X11948Y2047D02*
G01X12224Y1771D01*
G01X12224Y1771D02*
G01X13425Y1771D01*
G54D46*
G01X21870Y10118D03*
G54D47*
G01X21870Y10118D02*
G01X21870Y5807D01*
G01X21870Y5807D02*
G01X23267Y4429D01*
G01X23267Y4429D02*
G01X33188Y4429D01*
G01X33188Y4429D02*
G01X33523Y4094D01*
G01X33523Y4094D02*
G01X35669Y4094D01*
G01X35669Y4094D02*
G01X36062Y4488D01*
G54D46*
G01X36062Y4901D03*
G54D47*
G01X36062Y4488D02*
G01X36062Y4901D01*
G54D48*
G01X42401Y32952D02*
G01X42393Y32133D01*
G54D47*
G01X40472Y9173D02*
G01X40452Y9212D01*
G01X40452Y9212D02*
G01X40440Y9224D01*
G54D25*
G54D47*
G01X26841Y44427D02*
G01X27086Y44488D01*
G01X27086Y44488D02*
G01X27676Y44487D01*
G01X27676Y44487D02*
G01X28759Y43404D01*
G01X28759Y43404D02*
G01X28759Y42953D01*
G01X28759Y42953D02*
G01X29212Y42500D01*
G01X29212Y42500D02*
G01X31140Y42500D01*
G01X31140Y42500D02*
G01X31830Y41811D01*
G01X31830Y41811D02*
G01X31830Y40413D01*
G01X31830Y40413D02*
G01X31838Y40244D01*
G01X26791Y45374D02*
G01X26791Y44547D01*
G01X26791Y44547D02*
G01X26841Y44427D01*
G01X42125Y35397D02*
G01X42145Y35452D01*
G01X42145Y35452D02*
G01X42145Y36220D01*
G01X42145Y36220D02*
G01X42488Y36566D01*
G01X37992Y32822D02*
G01X37216Y32822D01*
G01X37216Y32822D02*
G01X37204Y32834D01*
G01X37204Y32834D02*
G01X36889Y32519D01*
G01X36889Y32519D02*
G01X36889Y32066D01*
G01X36889Y32066D02*
G01X37106Y31850D01*
G01X37106Y31850D02*
G01X38877Y31850D01*
G01X38877Y31850D02*
G01X39114Y32086D01*
G01X39114Y32086D02*
G01X39114Y33051D01*
G01X39114Y33051D02*
G01X39448Y33385D01*
G01X39448Y33385D02*
G01X43149Y33385D01*
G01X43149Y33385D02*
G01X43287Y33523D01*
G01X43287Y33523D02*
G01X43287Y34822D01*
G01X43287Y34822D02*
G01X42677Y35433D01*
G01X42677Y35433D02*
G01X41968Y35433D01*
G01X41968Y35433D02*
G01X42125Y35397D01*
G54D46*
G01X5374Y15393D03*
G54D47*
G01X4488Y15393D02*
G01X5374Y15393D01*
G54D53*
G01X8700Y5472D02*
G01X8700Y4212D01*
G01X7700Y5472D02*
G01X7700Y4212D01*
G54D47*
G01X5590Y3976D02*
G01X5669Y4192D01*
G01X5669Y4192D02*
G01X5688Y4212D01*
G54D53*
G01X5688Y4212D02*
G01X7700Y4212D01*
G54D47*
G01X23571Y44427D02*
G01X24133Y43897D01*
G01X24133Y43897D02*
G01X27913Y43897D01*
G01X27913Y43897D02*
G01X28523Y43287D01*
G01X28523Y43287D02*
G01X28523Y42802D01*
G01X28523Y42802D02*
G01X29082Y42263D01*
G01X29082Y42263D02*
G01X30669Y42263D01*
G01X30669Y42263D02*
G01X30826Y42106D01*
G01X30826Y42106D02*
G01X30826Y40334D01*
G01X30826Y40334D02*
G01X30838Y40244D01*
G01X24212Y45354D02*
G01X24212Y45000D01*
G01X24212Y45000D02*
G01X23639Y44427D01*
G01X23639Y44427D02*
G01X23571Y44427D01*
G01X39665Y45334D02*
G01X39665Y44645D01*
G01X39665Y44645D02*
G01X39715Y44387D01*
G54D46*
G01X25866Y7460D03*
G54D47*
G01X25866Y7460D02*
G01X26751Y7460D01*
G01X26751Y7460D02*
G01X27342Y8051D01*
G01X27342Y8051D02*
G01X32381Y8051D01*
G01X32381Y8051D02*
G01X33267Y7165D01*
G01X33267Y7165D02*
G01X35354Y7165D01*
G01X35354Y7165D02*
G01X36200Y8011D01*
G01X36200Y8011D02*
G01X36200Y9311D01*
G01X36200Y9311D02*
G01X36397Y9507D01*
G54D46*
G01X36535Y9507D03*
G54D47*
G01X36397Y9507D02*
G01X36535Y9507D01*
G01X4409Y24409D02*
G01X4409Y25374D01*
G54D46*
G01X5314Y12539D03*
G54D47*
G01X5314Y12539D02*
G01X5059Y12795D01*
G01X5059Y12795D02*
G01X4448Y12795D01*
G01X37086Y45314D02*
G01X37086Y45000D01*
G01X37086Y45000D02*
G01X36889Y44803D01*
G01X36889Y44803D02*
G01X36574Y44803D01*
G01X36574Y44803D02*
G01X36417Y44645D01*
G01X36417Y44645D02*
G01X36445Y44387D01*
G54D46*
G01X26377Y7834D03*
G54D47*
G01X26377Y7834D02*
G01X26850Y8307D01*
G01X26850Y8307D02*
G01X32519Y8307D01*
G01X32519Y8307D02*
G01X33405Y7401D01*
G01X33405Y7401D02*
G01X35137Y7401D01*
G01X35137Y7401D02*
G01X35826Y8090D01*
G01X35826Y8090D02*
G01X35826Y9389D01*
G54D46*
G01X36515Y10078D03*
G54D47*
G01X35826Y9389D02*
G01X36515Y10078D01*
G01X4370Y26377D02*
G01X3700Y26377D01*
G01X3700Y26377D02*
G01X3425Y26102D01*
G54D46*
G01X29488Y36141D03*
G54D47*
G01X29488Y36141D02*
G01X29330Y35984D01*
G54D46*
G01X12814Y35984D03*
G54D47*
G01X29330Y35984D02*
G01X12814Y35984D01*
G54D48*
G01X2244Y37696D02*
G01X2244Y36200D01*
G54D46*
G01X37047Y11122D03*
G01X32480Y11122D03*
G54D47*
G01X37047Y11122D02*
G01X32480Y11122D01*
G54D46*
G01X26889Y7086D03*
G54D47*
G01X26889Y7086D02*
G01X27539Y7716D01*
G01X27539Y7716D02*
G01X27598Y7775D01*
G01X27598Y7775D02*
G01X32224Y7775D01*
G01X32224Y7775D02*
G01X33090Y6909D01*
G01X33090Y6909D02*
G01X35511Y6909D01*
G01X35511Y6909D02*
G01X36594Y7952D01*
G54D46*
G01X36594Y8779D03*
G54D47*
G01X36594Y7952D02*
G01X36594Y8779D01*
G54D46*
G01X32125Y23937D03*
G01X32125Y22696D03*
G54D47*
G01X32125Y23937D02*
G01X32125Y22696D01*
G01X24015Y18700D02*
G01X24901Y18700D01*
G54D50*
G01X41456Y25196D02*
G01X41456Y25688D01*
G01X41456Y25688D02*
G01X41850Y26082D01*
G01X41850Y26082D02*
G01X41850Y26318D01*
G01X41850Y26318D02*
G01X41830Y26377D01*
G54D47*
G01X32838Y40244D02*
G01X32838Y41834D01*
G01X32838Y41834D02*
G01X33169Y42165D01*
G01X33169Y42165D02*
G01X33404Y42400D01*
G01X33404Y42400D02*
G01X40689Y42400D01*
G01X40689Y42400D02*
G01X41181Y42892D01*
G01X41181Y42892D02*
G01X41181Y45865D01*
G01X41181Y45865D02*
G01X41161Y45885D01*
G01X41161Y45885D02*
G01X38996Y45885D01*
G01X38996Y45885D02*
G01X38996Y45334D01*
G01X23543Y45354D02*
G01X23543Y45669D01*
G01X23543Y45669D02*
G01X23720Y45846D01*
G01X23720Y45846D02*
G01X27500Y45846D01*
G01X27500Y45846D02*
G01X27500Y45413D01*
G01X27500Y45413D02*
G01X27460Y45374D01*
G54D48*
G01X32775Y39094D02*
G01X32775Y40059D01*
G54D47*
G01X32775Y40059D02*
G01X32838Y40244D01*
G54D48*
G01X41830Y26377D02*
G01X42913Y26377D01*
G54D47*
G01X42913Y26377D02*
G01X42960Y26413D01*
G01X38996Y45334D02*
G01X38996Y45885D01*
G01X38996Y45885D02*
G01X36476Y45885D01*
G01X36476Y45885D02*
G01X36476Y45354D01*
G01X36476Y45354D02*
G01X36417Y45314D01*
G54D46*
G01X34350Y21062D03*
G54D48*
G01X34350Y21062D02*
G01X35708Y19704D01*
G54D46*
G01X44232Y19704D03*
G54D48*
G01X35708Y19704D02*
G01X44232Y19704D01*
G54D46*
G01X33464Y15059D03*
G54D49*
G01X33464Y15059D02*
G01X33464Y15511D01*
G01X33464Y15511D02*
G01X33661Y15708D01*
G01X33661Y15708D02*
G01X34094Y15708D01*
G01X34094Y15708D02*
G01X34291Y15905D01*
G54D46*
G01X34291Y19212D03*
G54D49*
G01X34291Y15905D02*
G01X34291Y19212D01*
G54D46*
G01X15708Y33031D03*
G54D47*
G01X15708Y33031D02*
G01X15708Y32637D01*
G01X15708Y32637D02*
G01X15748Y32460D01*
G54D46*
G01X18503Y32992D03*
G54D47*
G01X18503Y32992D02*
G01X18503Y32460D01*
G54D46*
G01X20669Y32992D03*
G54D47*
G01X20669Y32992D02*
G01X20669Y32460D01*
G54D25*
G54D46*
G01X13976Y33110D03*
G54D47*
G01X13976Y32460D02*
G01X13976Y33110D01*
G54D25*
G54D46*
G01X22165Y33011D03*
G54D47*
G01X22165Y33011D02*
G01X22165Y32519D01*
G01X22165Y32519D02*
G01X22145Y32460D01*
G54D25*
G54D46*
G01X13267Y30216D03*
G54D47*
G01X13267Y30216D02*
G01X13956Y30216D01*
G01X13956Y30216D02*
G01X13897Y30216D01*
G54D25*
G54D47*
G01X13897Y27460D02*
G01X13818Y27440D01*
G54D46*
G01X13208Y27440D03*
G54D47*
G01X13818Y27440D02*
G01X13208Y27440D01*
G54D25*
G54D46*
G01X13208Y25059D03*
G54D47*
G01X13208Y25059D02*
G01X13779Y25059D01*
G01X13779Y25059D02*
G01X13897Y25000D01*
G54D46*
G01X13208Y23326D03*
G54D47*
G01X13208Y23326D02*
G01X13877Y23326D01*
G54D25*
G54D46*
G01X15649Y22913D03*
G54D47*
G01X15649Y23425D02*
G01X15649Y22913D01*
G54D46*
G01X18307Y22933D03*
G54D47*
G01X18307Y23425D02*
G01X18307Y22933D01*
G54D25*
G54D46*
G01X20570Y22933D03*
G54D47*
G01X20570Y23425D02*
G01X20570Y22933D01*
G54D25*
G54D50*
G01X22637Y23425D02*
G01X22637Y22893D01*
G54D46*
G01X23326Y22893D03*
G54D50*
G01X22637Y22893D02*
G01X23326Y22893D01*
G54D46*
G01X23169Y25393D03*
G54D47*
G01X23169Y25393D02*
G01X22440Y25393D01*
G54D25*
G54D47*
G01X22440Y28149D02*
G01X22480Y28129D01*
G54D46*
G01X23208Y28129D03*
G54D47*
G01X22480Y28129D02*
G01X23208Y28129D01*
G54D25*
G54D46*
G01X23248Y30314D03*
G54D47*
G01X23248Y30314D02*
G01X22440Y30314D01*
G54D25*
G54D46*
G01X34429Y25688D03*
G54D48*
G01X34429Y25688D02*
G01X34429Y28385D01*
G01X34429Y28385D02*
G01X37007Y30964D01*
G54D46*
G01X44291Y30964D03*
G54D48*
G01X37007Y30964D02*
G01X44291Y30964D01*
G54D46*
G01X34488Y28484D03*
G54D50*
G01X34488Y28484D02*
G01X34547Y28484D01*
G01X34547Y28484D02*
G01X37047Y30984D01*
G54D46*
G01X43818Y30984D03*
G54D50*
G01X37047Y30984D02*
G01X43818Y30984D01*
G54D25*
G54D51*
G01X15727Y2618D02*
G01X14606Y2618D01*
G01X14606Y2618D02*
G01X14330Y2342D01*
G01X14330Y2342D02*
G01X14330Y1771D01*
G54D25*
G54D51*
G01X26082Y1732D02*
G01X27992Y3661D01*
G01X27992Y3661D02*
G01X43641Y3661D01*
G01X43641Y3661D02*
G01X43641Y4311D01*
G54D47*
G01X43641Y4311D02*
G01X43637Y4527D01*
G54D48*
G01X43110Y39566D02*
G01X42539Y39566D01*
G54D47*
G01X42539Y39566D02*
G01X42480Y39665D01*
G01X42480Y39665D02*
G01X42488Y39566D01*
G01X42125Y34397D02*
G01X42066Y34448D01*
G01X42066Y34448D02*
G01X41476Y34448D01*
G01X41476Y34448D02*
G01X41358Y34566D01*
G01X41358Y34566D02*
G01X41358Y37578D01*
G01X41358Y37578D02*
G01X42346Y38566D01*
G01X42346Y38566D02*
G01X42488Y38566D01*
G01X42125Y33897D02*
G01X41358Y33897D01*
G01X41358Y33897D02*
G01X41161Y34094D01*
G01X41161Y34094D02*
G01X41161Y38109D01*
G01X41161Y38109D02*
G01X42488Y39437D01*
G01X42488Y39437D02*
G01X42488Y39566D01*
G01X40000Y34897D02*
G01X40527Y34897D01*
G01X40527Y34897D02*
G01X40570Y34941D01*
G01X40570Y34941D02*
G01X40570Y36870D01*
G01X40570Y36870D02*
G01X39881Y37559D01*
G01X39881Y37559D02*
G01X39527Y37559D01*
G01X39527Y37559D02*
G01X39488Y37566D01*
G54D48*
G01X37992Y35822D02*
G01X37736Y35826D01*
G01X37736Y35826D02*
G01X37007Y35826D01*
G01X37007Y35826D02*
G01X36220Y35039D01*
G01X36220Y35039D02*
G01X36220Y33857D01*
G01X36220Y33857D02*
G01X35185Y32822D01*
G01X35185Y32822D02*
G01X34370Y32822D01*
G54D47*
G01X34370Y32822D02*
G01X34370Y32322D01*
G54D48*
G01X35275Y31614D02*
G01X35275Y32834D01*
G01X35275Y32834D02*
G01X34370Y32822D01*
G54D46*
G01X39173Y20177D03*
G01X44212Y20177D03*
G54D48*
G01X39173Y20177D02*
G01X44212Y20177D01*
G01X34370Y32822D02*
G01X33633Y32822D01*
G01X33633Y32822D02*
G01X33523Y32933D01*
G01X33523Y32933D02*
G01X33523Y36200D01*
G01X33523Y36200D02*
G01X33680Y36358D01*
G01X33680Y36358D02*
G01X35944Y36358D01*
G01X35944Y36358D02*
G01X36278Y36692D01*
G01X36278Y36692D02*
G01X38444Y36692D01*
G01X38444Y36692D02*
G01X38858Y37106D01*
G01X38858Y37106D02*
G01X38858Y40079D01*
G01X38858Y40079D02*
G01X39034Y40255D01*
G01X39034Y40255D02*
G01X39922Y40255D01*
G01X39922Y40255D02*
G01X40610Y39566D01*
G01X40610Y39566D02*
G01X42488Y39566D01*
G54D47*
G01X35433Y45354D02*
G01X35590Y45314D01*
G01X35590Y45314D02*
G01X36417Y45314D01*
G01X27460Y45374D02*
G01X35236Y45374D01*
G01X35236Y45374D02*
G01X35275Y45334D01*
G01X35275Y45334D02*
G01X35433Y45354D01*
G01X23543Y45354D02*
G01X22637Y45354D01*
G01X22637Y45354D02*
G01X22559Y45393D01*
G54D50*
G01X41456Y25196D02*
G01X41456Y24488D01*
G54D25*
G54D50*
G01X24015Y18700D02*
G01X23582Y18700D01*
G01X23582Y18700D02*
G01X22559Y19724D01*
G54D25*
G54D47*
G01X43503Y9055D02*
G01X43523Y9094D01*
G01X43523Y9094D02*
G01X43440Y9177D01*
G54D25*
G54D47*
G01X7204Y38503D02*
G01X7204Y38917D01*
G01X7204Y38917D02*
G01X8267Y39980D01*
G01X8267Y39980D02*
G01X9271Y39980D01*
G01X9271Y39980D02*
G01X9271Y39527D01*
G01X9271Y39527D02*
G01X9271Y39980D01*
G01X9271Y39980D02*
G01X10728Y39980D01*
G01X10728Y39980D02*
G01X10846Y39862D01*
G01X10846Y39862D02*
G01X10846Y39527D01*
G01X4566Y17440D02*
G01X4547Y17401D01*
G01X4547Y17401D02*
G01X4651Y17506D01*
G01X4651Y17506D02*
G01X4651Y18666D01*
G01X4651Y18666D02*
G01X4645Y18661D01*
G01X4645Y18661D02*
G01X4153Y19153D01*
G01X4153Y19153D02*
G01X3562Y19153D01*
G01X3562Y19153D02*
G01X3346Y19370D01*
G01X3346Y19370D02*
G01X3346Y21181D01*
G01X3346Y21181D02*
G01X3681Y21515D01*
G01X3681Y21515D02*
G01X3779Y21535D01*

G04 Draw clearances for text*

G04 -------------- Draw Parts, Pads, Traces, Vias and Text (positive)*
%LPD*%
G04 Draw part spartan_ii*
G04 Draw part z80*
G04 Draw part spr_ram*
G04 Draw part cfg_pic*
G54D54*
G01X39960Y30413D03*
G54D55*
G01X39960Y29413D03*
G01X39960Y28413D03*
G01X39960Y27413D03*
G01X39960Y26413D03*
G01X39960Y25413D03*
G01X39960Y24413D03*
G01X39960Y23413D03*
G01X39960Y22413D03*
G01X42960Y22413D03*
G01X42960Y23413D03*
G01X42960Y24413D03*
G01X42960Y25413D03*
G01X42960Y26413D03*
G01X42960Y27413D03*
G01X42960Y28413D03*
G01X42960Y29413D03*
G01X42960Y30413D03*
G04 Draw part spi_eeprom*
G54D54*
G01X39488Y39566D03*
G54D55*
G01X39488Y38566D03*
G01X39488Y37566D03*
G01X39488Y36566D03*
G01X42488Y36566D03*
G01X42488Y37566D03*
G01X42488Y38566D03*
G01X42488Y39566D03*
G04 Draw part osc*
G54D54*
G01X40440Y10094D03*
G54D56*
G01X40440Y7094D03*
G01X43440Y7094D03*
G01X43440Y10094D03*
G04 Draw part hct08*
G04 Draw part res3*
G04 Draw part res4*
G04 Draw part res5*
G04 Draw part kbcon*
G54D57*
G01X2244Y29311D03*
G01X2244Y23996D03*
G54D55*
G01X3425Y27204D03*
G01X3425Y26102D03*
G01X3425Y25374D03*
G01X3425Y27933D03*
G54D58*
G01X1948Y26653D03*
G54D18*
G01X4409Y27933D03*
G01X4409Y25374D03*
G04 Draw part mousecon*
G54D57*
G01X2244Y36200D03*
G01X2244Y30885D03*
G54D55*
G01X3425Y34094D03*
G01X3425Y32992D03*
G01X3425Y32263D03*
G01X3425Y34822D03*
G54D58*
G01X1948Y33543D03*
G54D18*
G01X4409Y34822D03*
G01X4409Y32263D03*
G04 Draw part joy1con*
G54D59*
G01X40255Y43267D03*
G54D60*
G01X39165Y43267D03*
G01X38075Y43267D03*
G01X36985Y43267D03*
G01X35895Y43267D03*
G01X39715Y44387D03*
G01X38625Y44387D03*
G01X37535Y44387D03*
G01X36445Y44387D03*
G54D61*
G01X33169Y43779D03*
G01X43011Y43779D03*
G04 Draw part joy2con*
G54D59*
G01X27381Y43307D03*
G54D60*
G01X26291Y43307D03*
G01X25201Y43307D03*
G01X24111Y43307D03*
G01X23021Y43307D03*
G01X26841Y44427D03*
G01X25751Y44427D03*
G01X24661Y44427D03*
G01X23571Y44427D03*
G54D61*
G01X20295Y43818D03*
G01X30137Y43818D03*
G04 Draw part audiocon*
G54D18*
G01X5070Y44715D03*
G54D62*
G01X1150Y44715D03*
G01X4090Y44715D03*
G01X2130Y44715D03*
G01X3110Y46685D03*
G04 Draw part joypic*
G54D54*
G01X28838Y37244D03*
G54D55*
G01X29838Y37244D03*
G01X30838Y37244D03*
G01X31838Y37244D03*
G01X32838Y37244D03*
G01X33838Y37244D03*
G01X34838Y37244D03*
G01X35838Y37244D03*
G01X36838Y37244D03*
G01X36838Y40244D03*
G01X35838Y40244D03*
G01X34838Y40244D03*
G01X33838Y40244D03*
G01X32838Y40244D03*
G01X31838Y40244D03*
G01X30838Y40244D03*
G01X29838Y40244D03*
G01X28838Y40244D03*
G04 Draw part st232*
G04 Draw part jrespu1*
G54D63*
G01X24212Y45354D03*
G01X23543Y45354D03*
G04 Draw part jrespu2*
G01X26791Y45374D03*
G01X27460Y45374D03*
G04 Draw part jrespu3*
G01X37086Y45314D03*
G01X36417Y45314D03*
G04 Draw part jrespu4*
G01X39665Y45334D03*
G01X38996Y45334D03*
G04 Draw part audfilter1*
G01X9271Y36870D03*
G01X8602Y36870D03*
G04 Draw part audfilter2*
G01X10846Y39527D03*
G01X10177Y39527D03*
G04 Draw part audfilter3*
G01X9271Y37755D03*
G01X8602Y37755D03*
G04 Draw part audfilter4*
G01X10846Y38641D03*
G01X10177Y38641D03*
G04 Draw part audfilter5*
G01X9271Y39527D03*
G01X8602Y39527D03*
G04 Draw part audfilter6*
G01X9271Y38641D03*
G01X8602Y38641D03*
G04 Draw part audfilter7*
G01X7204Y38503D03*
G01X6535Y38503D03*
G04 Draw part audfilter8*
G01X7204Y37086D03*
G01X6535Y37086D03*
G04 Draw part audfilter9*
G01X10846Y37755D03*
G01X10177Y37755D03*
G04 Draw part audfilter10*
G01X10846Y36870D03*
G01X10177Y36870D03*
G04 Draw part rs232dec1*
G04 Draw part rs232dec2*
G04 Draw part rs232dec3*
G04 Draw part rs232dec4*
G04 Draw part rs232dec5*
G04 Draw part kbpu1*
G01X4370Y26377D03*
G01X5039Y26377D03*
G04 Draw part kbpu2*
G01X5078Y24409D03*
G01X4409Y24409D03*
G04 Draw part kbpu3*
G04 Draw part kbpu4*
G04 Draw part kbpu5*
G04 Draw part kbpu6*
G04 Draw part kbpu7*
G01X5078Y31299D03*
G01X4409Y31299D03*
G04 Draw part kbpu8*
G01X5078Y33188D03*
G01X4409Y33188D03*
G04 Draw part kbpu9*
G04 Draw part kbpu10*
G04 Draw part kbpu11*
G04 Draw part kbpu12*
G04 Draw part confsel*
G54D64*
G01X25000Y20393D03*
G01X25000Y21393D03*
G04 Draw part cfgres1*
G54D65*
G01X24901Y18700D03*
G01X24901Y19370D03*
G04 Draw part cfgres2*
G01X24015Y18700D03*
G01X24015Y19370D03*
G04 Draw part jp5*
G54D64*
G01X42047Y20787D03*
G01X43047Y20787D03*
G04 Draw part cfgres*
G54D63*
G01X42125Y25196D03*
G01X41456Y25196D03*
G04 Draw part picdec*
G54D65*
G01X32775Y38425D03*
G01X32775Y39094D03*
G04 Draw part serdec*
G54D63*
G01X43779Y39566D03*
G01X43110Y39566D03*
G04 Draw part picdec2*
G01X41830Y26377D03*
G01X41161Y26377D03*
G04 Draw part oscdec3*
G54D65*
G01X43503Y8385D03*
G01X43503Y9055D03*
G04 Draw part memdec*
G04 Draw part memdec2*
G04 Draw part fpgacap1*
G01X15748Y31791D03*
G01X15748Y32460D03*
G04 Draw part fpgacap2*
G54D63*
G01X14566Y30216D03*
G01X13897Y30216D03*
G04 Draw part fpgacap3*
G54D65*
G01X16437Y31791D03*
G01X16437Y32460D03*
G04 Draw part fpgacap4*
G01X19192Y31791D03*
G01X19192Y32460D03*
G04 Draw part fpgacap5*
G54D63*
G01X14566Y29527D03*
G01X13897Y29527D03*
G04 Draw part fpgacap6*
G54D65*
G01X19980Y31791D03*
G01X19980Y32460D03*
G04 Draw part fpgacap7*
G01X13976Y31791D03*
G01X13976Y32460D03*
G04 Draw part fpgacap8*
G54D63*
G01X14566Y27460D03*
G01X13897Y27460D03*
G04 Draw part fpgacap9*
G54D65*
G01X20669Y31791D03*
G01X20669Y32460D03*
G04 Draw part fpgacap10*
G01X18503Y31791D03*
G01X18503Y32460D03*
G04 Draw part fpgacap11*
G54D63*
G01X14566Y25688D03*
G01X13897Y25688D03*
G04 Draw part fpgacap12*
G01X14566Y26771D03*
G01X13897Y26771D03*
G04 Draw part fpgacap13*
G54D65*
G01X16338Y23425D03*
G01X16338Y24094D03*
G04 Draw part fpgacap14*
G01X15649Y23425D03*
G01X15649Y24094D03*
G04 Draw part fpgacap15*
G01X13877Y23326D03*
G01X13877Y23996D03*
G04 Draw part fpgacap16*
G54D63*
G01X14566Y25000D03*
G01X13897Y25000D03*
G04 Draw part fpgacap17*
G54D65*
G01X22145Y31791D03*
G01X22145Y32460D03*
G04 Draw part fpgacap18*
G01X18996Y23425D03*
G01X18996Y24094D03*
G04 Draw part fpgacap19*
G01X18307Y23425D03*
G01X18307Y24094D03*
G04 Draw part fpgacap20*
G01X19881Y23425D03*
G01X19881Y24094D03*
G04 Draw part fpgacap21*
G01X20570Y23425D03*
G01X20570Y24094D03*
G04 Draw part fpgacap22*
G54D63*
G01X22440Y27460D03*
G01X21771Y27460D03*
G04 Draw part fpgacap23*
G01X22440Y26082D03*
G01X21771Y26082D03*
G04 Draw part fpgacap24*
G01X22440Y25393D03*
G01X21771Y25393D03*
G04 Draw part fpgacap25*
G01X22637Y23425D03*
G01X21968Y23425D03*
G04 Draw part fpgacap26*
G01X22440Y29625D03*
G01X21771Y29625D03*
G04 Draw part fpgacap27*
G01X22440Y28149D03*
G01X21771Y28149D03*
G04 Draw part fpgacap28*
G01X22440Y30314D03*
G01X21771Y30314D03*
G04 Draw part jtagcon*
G54D60*
G01X12204Y21062D03*
G01X12204Y20062D03*
G01X12204Y19062D03*
G01X12204Y18062D03*
G01X12204Y17062D03*
G01X12204Y16062D03*
G04 Draw part hole1*
G54D66*
G01X42913Y18503D03*
G04 Draw part ps2dec1*
G54D63*
G01X4409Y28897D03*
G01X5078Y28897D03*
G04 Draw part ps2dec2*
G01X4409Y35826D03*
G01X5078Y35826D03*
G04 Draw part ps2dec4*
G54D67*
G01X15708Y12952D03*
G01X14960Y12952D03*
G04 Draw part ps2dec5*
G01X17637Y14212D03*
G01X16889Y14212D03*
G04 Draw part wr_pullup*
G54D63*
G01X35629Y11909D03*
G01X36299Y11909D03*
G04 Draw part vidram*
G04 Draw part SDCMMC*
G04 Draw part scpowres*
G54D65*
G01X3779Y22204D03*
G01X3779Y21535D03*
G04 Draw part sdpowtr*
G54D68*
G01X4251Y19566D03*
G01X4651Y18666D03*
G01X3851Y18666D03*
G04 Draw part sdpowres2*
G54D63*
G01X4566Y17440D03*
G01X3897Y17440D03*
G04 Draw part sdcdin_pd*
G54D65*
G01X4606Y21535D03*
G01X4606Y22204D03*
G04 Draw part sdcdinres*
G04 Draw part sdc_led_trres*
G54D63*
G01X4488Y15393D03*
G01X3818Y15393D03*
G04 Draw part dscledres2*
G01X3779Y12795D03*
G01X4448Y12795D03*
G04 Draw part dscledtr*
G54D68*
G01X4133Y13582D03*
G01X3733Y14482D03*
G01X4533Y14482D03*
G04 Draw part scddecoup*
G54D65*
G01X5551Y19291D03*
G01X5551Y19960D03*
G04 Draw part jack*
G54D69*
G01X5590Y3976D03*
G54D70*
G01X3031Y3976D03*
G54D57*
G01X4606Y2007D03*
G04 Draw part powerswitch*
G54D18*
G01X8881Y1771D03*
G01X9881Y1771D03*
G01X10881Y1771D03*
G04 Draw part diode1*
G54D64*
G01X8700Y4212D03*
G01X7700Y4212D03*
G04 Draw part diode2*
G01X8700Y5472D03*
G01X7700Y5472D03*
G04 Draw part powcap*
G54D71*
G01X10866Y5389D03*
G01X10866Y4409D03*
G04 Draw part vregukm*
G04 Draw part regcap1*
G01X1775Y9685D03*
G01X2755Y9685D03*
G04 Draw part regcap2*
G01X4374Y9724D03*
G01X5354Y9724D03*
G04 Draw part regcap4*
G01X6373Y7362D03*
G01X5393Y7362D03*
G04 Draw part vreg3*
G54D72*
G01X11062Y12086D03*
G01X11062Y11181D03*
G01X11062Y10275D03*
G54D73*
G01X8622Y11181D03*
G04 Draw part vreg4*
G54D72*
G01X11102Y8818D03*
G01X11102Y7913D03*
G01X11102Y7007D03*
G54D73*
G01X8661Y7913D03*
G04 Draw part vreg5*
G54D74*
G01X15236Y1771D03*
G01X14330Y1771D03*
G01X13425Y1771D03*
G54D75*
G01X14330Y4212D03*
G04 Draw part vreg6*
G54D71*
G01X13149Y11137D03*
G01X13149Y10157D03*
G04 Draw part srdecoup20*
G01X16535Y831D03*
G01X16535Y1811D03*
G04 Draw part srdecoup21*
G01X13464Y6972D03*
G01X13464Y7952D03*
G04 Draw part cpudec*
G04 Draw part jumperblock*
G54D64*
G01X16456Y38543D03*
G01X15456Y38543D03*
G01X14456Y38543D03*
G01X13456Y38543D03*
G01X12456Y38543D03*
G54D76*
G01X16456Y39543D03*
G01X15456Y39543D03*
G01X14456Y39543D03*
G01X13456Y39543D03*
G01X12456Y39543D03*
G04 Draw part mounthole3*
G54D66*
G01X42913Y1181D03*
G04 Draw part mounthole5*
G01X42913Y41338D03*
G04 Draw part 5vreg*
G04 Draw part led400*
G04 Draw part dinpd*
G04 Draw part cpowpd*
G54D77*
G01X4566Y20669D03*
G01X3818Y20669D03*
G04 Draw part sysram*
G04 Draw part smdcap*
G04 Draw part exp3*
G54D78*
G01X7322Y26811D03*
G54D76*
G01X8322Y26811D03*
G01X9322Y26811D03*
G04 Draw part progclk*
G04 Draw part powcon*
G54D79*
G01X42637Y4527D03*
G01X43637Y4527D03*
G01X44637Y4527D03*
G04 Draw part oscbyp1*
G04 Draw part oscbyp2*
G04 Draw part oscbyp3*
G04 Draw part oscbyp4*
G04 Draw part oscbyp5*
G04 Draw part smefp*
G54D80*
G01X40000Y33897D03*
G01X40000Y34397D03*
G01X40000Y34897D03*
G01X40000Y35397D03*
G01X42125Y35397D03*
G01X42125Y34897D03*
G01X42125Y34397D03*
G01X42125Y33897D03*
G04 Draw part altepr*
G54D81*
G01X34370Y32322D03*
G01X34370Y32822D03*
G01X34370Y33322D03*
G01X34370Y33822D03*
G01X34370Y34322D03*
G01X34370Y34822D03*
G01X34370Y35322D03*
G01X34370Y35822D03*
G01X37992Y35822D03*
G01X37992Y35322D03*
G01X37992Y34822D03*
G01X37992Y34322D03*
G01X37992Y33822D03*
G01X37992Y33322D03*
G01X37992Y32822D03*
G01X37992Y32322D03*
G04 Draw part decap*
G54D65*
G01X35275Y30944D03*
G01X35275Y31614D03*
G04 Draw part xtal*
G54D82*
G01X40393Y32133D03*
G01X42393Y32133D03*
G04 Draw part xcap1*
G54D63*
G01X40393Y32952D03*
G01X41062Y32952D03*
G04 Draw part xcap2*
G01X41732Y32952D03*
G01X42401Y32952D03*
G04 Draw part xcap4*
G54D83*
G01X37992Y37952D03*
G04 Draw part xcap5*
G01X37992Y37401D03*
G04 Draw part xcap6*
G54D65*
G01X22559Y44724D03*
G01X22559Y45393D03*
G04 Draw part xcap7*
G01X35433Y45354D03*
G01X35433Y44685D03*
G04 Draw part video*
G54D59*
G01X10590Y44409D03*
G54D60*
G01X11496Y44409D03*
G01X12401Y44409D03*
G01X13307Y44409D03*
G01X14212Y44409D03*
G01X10157Y43385D03*
G01X11062Y43385D03*
G01X11929Y43385D03*
G01X12834Y43385D03*
G54D61*
G01X17283Y43385D03*
G01X7519Y43385D03*
G54D60*
G01X13740Y43385D03*
G01X10590Y42401D03*
G01X11496Y42401D03*
G01X12401Y42401D03*
G01X13307Y42401D03*
G01X14212Y42401D03*
G04 Draw part dacres1*
G04 Draw part dacres2*
G04 Draw part dacres3*
G04 Draw part dacres4*
G04 Draw part dacres5*
G04 Draw part dacres6*
G04 Draw part dacres7*
G04 Draw part dacres8*
G04 Draw part dacres9*
G04 Draw part dacres10*
G04 Draw part dacres11*
G04 Draw part dacres12*
G04 Draw part dacres14*
G54D65*
G01X1968Y21929D03*
G01X1968Y22598D03*
G04 Draw part dacres15*
G54D66*
G01X7086Y40590D03*
G04 Draw part dacres16*
G01X1181Y1181D03*
G04 Draw part comport*
G54D57*
G01X2244Y43011D03*
G01X2244Y37696D03*
G54D55*
G01X3425Y39074D03*
G01X3425Y41653D03*
G54D58*
G01X1948Y40354D03*
G54D55*
G01X4409Y40629D03*
G04 Draw part foscen*
G54D65*
G01X40472Y8503D03*
G01X40472Y9173D03*
G04 Draw part pullupsca*
G54D63*
G01X42125Y24488D03*
G01X41456Y24488D03*
G04 Draw part ledtran*
G04 Draw part ledres1*
G04 Draw part ledres2*
G04 Draw part ledres3*
G04 Draw part altsdled*
G54D64*
G01X8070Y12795D03*
G01X9070Y12795D03*
G04 Draw part myvia1*
G54D83*
G01X31141Y11299D03*
G04 Draw part myvia2*
G01X30472Y11299D03*
G04 Draw part myvia3*
G01X29763Y11299D03*
G04 Draw part syncres1*
G04 Draw part syncres2*

G04 Draw traces*
G01X28110Y10885D03*
G54D84*
G01X28110Y10885D02*
G01X28818Y10177D01*
G01X28818Y10177D02*
G01X35078Y10177D01*
G01X35078Y10177D02*
G01X35452Y9822D01*
G54D83*
G01X35452Y9822D03*
G01X25531Y28405D03*
G54D84*
G01X25531Y28405D02*
G01X25531Y28149D01*
G01X25531Y28149D02*
G01X25905Y27776D01*
G01X25905Y27776D02*
G01X25905Y27086D01*
G54D83*
G01X25905Y27086D03*
G54D84*
G01X9271Y37755D02*
G01X10177Y37755D01*
G01X10177Y37755D02*
G01X10177Y36870D01*
G54D85*
G01X3425Y27933D02*
G01X1476Y27933D01*
G01X1476Y27933D02*
G01X925Y27382D01*
G01X925Y27382D02*
G01X925Y25905D01*
G01X925Y25905D02*
G01X1535Y25295D01*
G01X1535Y25295D02*
G01X2401Y25295D01*
G01X2401Y25295D02*
G01X3307Y24389D01*
G01X3307Y24389D02*
G01X3307Y23286D01*
G01X3307Y23286D02*
G01X2755Y22736D01*
G01X2755Y22736D02*
G01X2755Y9685D01*
G01X3425Y27933D02*
G01X1496Y27933D01*
G01X1496Y27933D02*
G01X925Y28503D01*
G01X925Y28503D02*
G01X925Y34291D01*
G01X925Y34291D02*
G01X1456Y34822D01*
G01X1456Y34822D02*
G01X3425Y34822D01*
G54D84*
G01X5078Y24409D02*
G01X5078Y26259D01*
G01X5078Y26259D02*
G01X5039Y26377D01*
G01X3425Y27933D02*
G01X4192Y27165D01*
G01X4192Y27165D02*
G01X4724Y27165D01*
G01X4724Y27165D02*
G01X5039Y26850D01*
G01X5039Y26850D02*
G01X5039Y26377D01*
G54D85*
G01X3425Y27933D02*
G01X4370Y28877D01*
G01X4370Y28877D02*
G01X4409Y28897D01*
G54D84*
G01X5078Y31299D02*
G01X5078Y33188D01*
G01X3425Y34822D02*
G01X3543Y34685D01*
G01X3543Y34685D02*
G01X4074Y34153D01*
G01X4074Y34153D02*
G01X4527Y34153D01*
G01X4527Y34153D02*
G01X5078Y33602D01*
G01X5078Y33602D02*
G01X5078Y33188D01*
G01X3425Y34822D02*
G01X3464Y34881D01*
G54D85*
G01X3464Y34881D02*
G01X4409Y35826D01*
G54D83*
G01X26003Y8720D03*
G54D84*
G01X26003Y8720D02*
G01X33562Y8720D01*
G54D83*
G01X33562Y8720D03*
G01X26889Y9055D03*
G54D84*
G01X26889Y9055D02*
G01X27047Y9094D01*
G01X27047Y9094D02*
G01X33759Y9094D01*
G01X33759Y9094D02*
G01X33976Y8877D01*
G01X33976Y8877D02*
G01X33976Y7952D01*
G01X33976Y7952D02*
G01X33877Y7834D01*
G54D83*
G01X33877Y7834D03*
G01X24921Y33976D03*
G54D84*
G01X24921Y33976D02*
G01X31496Y33976D01*
G54D83*
G01X31496Y33976D03*
G01X43464Y23937D03*
G54D84*
G01X43464Y23937D02*
G01X43464Y26633D01*
G01X43464Y26633D02*
G01X43169Y26929D01*
G01X43169Y26929D02*
G01X41909Y26929D01*
G01X41909Y26929D02*
G01X40425Y28413D01*
G01X40425Y28413D02*
G01X39960Y28413D01*
G54D83*
G01X26377Y9803D03*
G54D84*
G01X26377Y9803D02*
G01X26594Y9724D01*
G01X26594Y9724D02*
G01X34212Y9704D01*
G01X34212Y9704D02*
G01X35059Y8858D01*
G01X35059Y8858D02*
G01X35059Y8346D01*
G01X35059Y8346D02*
G01X34704Y7992D01*
G54D83*
G01X34704Y7992D03*
G01X11535Y20590D03*
G54D84*
G01X11535Y20590D02*
G01X10748Y21377D01*
G01X10748Y21377D02*
G01X10748Y32716D01*
G01X10748Y32716D02*
G01X10905Y32874D01*
G01X10905Y32874D02*
G01X10905Y33110D01*
G54D83*
G01X10905Y33110D03*
G01X5925Y16732D03*
G54D85*
G01X5925Y16732D02*
G01X5925Y14724D01*
G01X5925Y14724D02*
G01X5688Y14488D01*
G01X5688Y14488D02*
G01X4566Y14488D01*
G01X4566Y14488D02*
G01X4533Y14482D01*
G01X5551Y19291D02*
G01X5078Y19291D01*
G01X5078Y19291D02*
G01X4783Y19586D01*
G01X4783Y19586D02*
G01X4232Y19586D01*
G01X4232Y19586D02*
G01X4251Y19566D01*
G54D86*
G01X4251Y19566D02*
G01X4251Y19783D01*
G01X4251Y19783D02*
G01X3818Y20216D01*
G01X3818Y20216D02*
G01X3818Y20669D01*
G54D85*
G01X5551Y19291D02*
G01X5551Y17106D01*
G01X5551Y17106D02*
G01X5925Y16732D01*
G01X5925Y16732D02*
G01X5925Y14744D01*
G01X5925Y14744D02*
G01X5649Y14468D01*
G01X5649Y14468D02*
G01X4527Y14468D01*
G01X4527Y14468D02*
G01X4533Y14482D01*
G54D83*
G01X25885Y9409D03*
G54D84*
G01X25885Y9409D02*
G01X33976Y9409D01*
G01X33976Y9409D02*
G01X34704Y8700D01*
G54D83*
G01X34704Y8700D03*
G54D84*
G01X42960Y24413D02*
G01X42854Y24448D01*
G01X42854Y24448D02*
G01X42854Y24803D01*
G01X42854Y24803D02*
G01X42460Y25196D01*
G01X42460Y25196D02*
G01X42125Y25196D01*
G54D83*
G01X25393Y10177D03*
G54D84*
G01X25393Y10177D02*
G01X26732Y10177D01*
G01X26732Y10177D02*
G01X26968Y9940D01*
G01X26968Y9940D02*
G01X34488Y9940D01*
G01X34488Y9940D02*
G01X34940Y9488D01*
G54D83*
G01X34940Y9488D03*
G54D84*
G01X42125Y24488D02*
G01X42125Y24074D01*
G01X42125Y24074D02*
G01X42775Y23425D01*
G01X42775Y23425D02*
G01X42960Y23413D01*
G54D83*
G01X13622Y37047D03*
G54D84*
G01X13622Y37047D02*
G01X13622Y36338D01*
G01X13622Y36338D02*
G01X13779Y36181D01*
G01X13779Y36181D02*
G01X28661Y36181D01*
G01X28661Y36181D02*
G01X28838Y36358D01*
G54D83*
G01X28838Y36358D03*
G54D84*
G01X40000Y33897D02*
G01X40807Y33897D01*
G01X40807Y33897D02*
G01X40964Y34055D01*
G01X40964Y34055D02*
G01X40964Y38385D01*
G01X40964Y38385D02*
G01X39724Y39625D01*
G01X39724Y39625D02*
G01X39488Y39566D01*
G01X40000Y33897D02*
G01X39015Y33897D01*
G01X39015Y33897D02*
G01X38818Y34094D01*
G01X38818Y34094D02*
G01X38818Y36161D01*
G01X38818Y36161D02*
G01X38799Y36181D01*
G01X38799Y36181D02*
G01X36791Y36181D01*
G01X36791Y36181D02*
G01X35933Y35322D01*
G01X35933Y35322D02*
G01X34370Y35322D01*
G54D83*
G01X13385Y35433D03*
G54D84*
G01X13385Y35433D02*
G01X13503Y35590D01*
G01X13503Y35590D02*
G01X29921Y35590D01*
G01X29921Y35590D02*
G01X30000Y35452D01*
G54D83*
G01X30000Y35452D03*
G54D84*
G01X39960Y22413D02*
G01X39822Y22381D01*
G01X39822Y22381D02*
G01X39468Y22736D01*
G01X39468Y22736D02*
G01X39468Y24901D01*
G54D83*
G01X39468Y24901D03*
G54D84*
G01X40000Y34397D02*
G01X40177Y34389D01*
G01X40177Y34389D02*
G01X40610Y34389D01*
G01X40610Y34389D02*
G01X40767Y34546D01*
G01X40767Y34546D02*
G01X40767Y37736D01*
G01X40767Y37736D02*
G01X39937Y38566D01*
G01X39937Y38566D02*
G01X39488Y38566D01*
G01X40000Y34397D02*
G01X39921Y34389D01*
G01X39921Y34389D02*
G01X39271Y34389D01*
G01X39271Y34389D02*
G01X39153Y34507D01*
G01X39153Y34507D02*
G01X39153Y36161D01*
G01X39153Y36161D02*
G01X38937Y36377D01*
G01X38937Y36377D02*
G01X36554Y36377D01*
G01X36554Y36377D02*
G01X36000Y35822D01*
G01X36000Y35822D02*
G01X34370Y35822D01*
G01X10846Y38641D02*
G01X10846Y38405D01*
G01X10846Y38405D02*
G01X11043Y38208D01*
G01X11043Y38208D02*
G01X11830Y38208D01*
G01X11830Y38208D02*
G01X11988Y38051D01*
G54D83*
G01X11988Y38051D03*
G54D85*
G01X5354Y9724D02*
G01X5354Y9744D01*
G01X5354Y9744D02*
G01X5344Y10286D01*
G01X5344Y10286D02*
G01X3188Y12442D01*
G01X3188Y12442D02*
G01X3188Y16042D01*
G01X3188Y16042D02*
G01X3897Y16751D01*
G01X3897Y16751D02*
G01X3897Y17440D01*
G01X3897Y17440D02*
G01X3897Y18543D01*
G54D84*
G01X3897Y18543D02*
G01X3851Y18666D01*
G01X3733Y14482D02*
G01X3733Y14875D01*
G01X3733Y14875D02*
G01X3818Y14960D01*
G01X3818Y14960D02*
G01X3818Y15433D01*
G01X3818Y15433D02*
G01X3818Y15393D01*
G01X42125Y34897D02*
G01X41948Y34901D01*
G01X41948Y34901D02*
G01X41692Y34901D01*
G01X41692Y34901D02*
G01X41535Y35059D01*
G01X41535Y35059D02*
G01X41535Y37145D01*
G01X41535Y37145D02*
G01X41956Y37566D01*
G01X41956Y37566D02*
G01X42488Y37566D01*
G01X42125Y34897D02*
G01X42283Y34881D01*
G01X42283Y34881D02*
G01X42716Y34881D01*
G01X42716Y34881D02*
G01X42933Y34665D01*
G01X42933Y34665D02*
G01X42933Y33680D01*
G01X42933Y33680D02*
G01X42854Y33602D01*
G01X42854Y33602D02*
G01X39252Y33602D01*
G01X39252Y33602D02*
G01X38858Y33208D01*
G01X38858Y33208D02*
G01X38858Y32460D01*
G01X38858Y32460D02*
G01X38720Y32322D01*
G01X38720Y32322D02*
G01X37992Y32322D01*
G54D83*
G01X25413Y33543D03*
G54D84*
G01X25413Y33543D02*
G01X31850Y33562D01*
G54D83*
G01X31850Y33562D03*
G01X12244Y35413D03*
G54D84*
G01X12244Y35413D02*
G01X12814Y35413D01*
G01X12814Y35413D02*
G01X13188Y35787D01*
G01X13188Y35787D02*
G01X30452Y35787D01*
G54D83*
G01X30452Y35787D03*
G54D84*
G01X6535Y38503D02*
G01X6062Y38503D01*
G01X6062Y38503D02*
G01X5787Y38779D01*
G01X5787Y38779D02*
G01X5787Y39645D01*
G01X5787Y39645D02*
G01X5787Y43248D01*
G01X5787Y43248D02*
G01X5078Y43956D01*
G01X5078Y43956D02*
G01X5078Y44291D01*
G01X5078Y44291D02*
G01X5070Y44715D01*
G01X35895Y43267D02*
G01X35885Y43248D01*
G01X35885Y43248D02*
G01X35433Y43248D01*
G01X35433Y43248D02*
G01X35433Y44685D01*
G01X6535Y37086D02*
G01X6200Y37086D01*
G01X6200Y37086D02*
G01X5098Y38188D01*
G01X5098Y38188D02*
G01X5098Y42499D01*
G01X5098Y42499D02*
G01X4921Y42677D01*
G01X4921Y42677D02*
G01X4035Y42677D01*
G01X4035Y42677D02*
G01X3720Y42992D01*
G01X3720Y42992D02*
G01X2755Y43956D01*
G01X2755Y43956D02*
G01X2755Y44428D01*
G01X2755Y44428D02*
G01X2755Y45039D01*
G01X2755Y45039D02*
G01X2480Y45314D01*
G01X2480Y45314D02*
G01X1535Y45314D01*
G01X1535Y45314D02*
G01X1220Y45000D01*
G01X1220Y45000D02*
G01X1150Y44715D01*
G54D83*
G01X24015Y20748D03*
G54D84*
G01X24015Y20748D02*
G01X24015Y19370D01*
G01X22559Y44724D02*
G01X22559Y43307D01*
G01X22559Y43307D02*
G01X23021Y43307D01*
G54D83*
G01X22381Y10098D03*
G54D84*
G01X22381Y10098D02*
G01X22381Y5826D01*
G01X22381Y5826D02*
G01X23562Y4645D01*
G01X23562Y4645D02*
G01X33543Y4645D01*
G01X33543Y4645D02*
G01X33681Y4507D01*
G54D83*
G01X33681Y4507D03*
G01X32322Y15019D03*
G54D84*
G01X39960Y26413D02*
G01X39960Y26377D01*
G54D85*
G01X39960Y26377D02*
G01X41161Y26377D01*
G54D83*
G01X34311Y15019D03*
G54D85*
G01X39960Y26413D02*
G01X39015Y26417D01*
G54D83*
G01X17795Y31870D03*
G01X22244Y26791D03*
G01X22007Y24665D03*
G01X14389Y28208D03*
G01X14389Y28720D03*
G54D87*
G01X15748Y31791D02*
G01X15748Y31102D01*
G54D83*
G01X15748Y31102D03*
G54D87*
G01X16437Y31791D02*
G01X16437Y31102D01*
G01X18503Y31791D02*
G01X18503Y31102D01*
G54D83*
G01X18503Y31102D03*
G54D87*
G01X19192Y31791D02*
G01X19192Y31102D01*
G01X19980Y31791D02*
G01X19980Y31102D01*
G54D83*
G01X19980Y31102D03*
G54D87*
G01X20669Y31791D02*
G01X20669Y31102D01*
G54D83*
G01X17185Y31889D03*
G54D87*
G01X14566Y30216D02*
G01X15177Y30216D01*
G54D83*
G01X15177Y30216D03*
G54D87*
G01X14566Y29527D02*
G01X15177Y29527D01*
G01X14566Y27460D02*
G01X15177Y27460D01*
G54D83*
G01X15177Y27460D03*
G54D87*
G01X14566Y26771D02*
G01X15196Y26771D01*
G01X14566Y25688D02*
G01X15196Y25688D01*
G54D83*
G01X15196Y25688D03*
G54D87*
G01X14566Y25000D02*
G01X15196Y25000D01*
G54D86*
G01X13877Y23996D02*
G01X14507Y23996D01*
G01X14507Y23996D02*
G01X15098Y24586D01*
G54D87*
G01X15649Y24094D02*
G01X15649Y24685D01*
G01X16338Y24094D02*
G01X16338Y24685D01*
G54D83*
G01X16338Y24685D03*
G54D87*
G01X18307Y24094D02*
G01X18307Y24665D01*
G01X18996Y24094D02*
G01X18996Y24685D01*
G54D83*
G01X18996Y24685D03*
G54D87*
G01X19881Y24094D02*
G01X19881Y24685D01*
G01X20570Y24094D02*
G01X20570Y24665D01*
G54D83*
G01X20570Y24665D03*
G54D87*
G01X21968Y23425D02*
G01X21299Y23425D01*
G01X21299Y23425D02*
G01X21062Y23661D01*
G01X21062Y23661D02*
G01X21062Y24744D01*
G01X21771Y25393D02*
G01X21161Y25393D01*
G54D83*
G01X21161Y25393D03*
G54D87*
G01X21771Y26082D02*
G01X21161Y26082D01*
G01X21771Y27460D02*
G01X21161Y27460D01*
G54D83*
G01X21161Y27460D03*
G54D87*
G01X21771Y28149D02*
G01X21161Y28149D01*
G01X21771Y29625D02*
G01X21141Y29625D01*
G54D83*
G01X21141Y29625D03*
G54D87*
G01X21771Y30314D02*
G01X21161Y30314D01*
G54D85*
G01X13976Y31791D02*
G01X14409Y31791D01*
G01X14409Y31791D02*
G01X15295Y30905D01*
G01X22145Y31791D02*
G01X21279Y30925D01*
G01X21279Y30925D02*
G01X21161Y30925D01*
G54D83*
G01X21161Y30925D03*
G01X7814Y34744D03*
G01X7677Y33070D03*
G01X7677Y31299D03*
G01X7677Y29724D03*
G01X9311Y34133D03*
G54D84*
G01X8602Y37755D02*
G01X8543Y37775D01*
G01X8543Y37775D02*
G01X8523Y37795D01*
G54D85*
G01X8523Y37795D02*
G01X6072Y37795D01*
G01X6072Y37795D02*
G01X5472Y38405D01*
G01X5472Y38405D02*
G01X5472Y39054D01*
G01X5472Y39054D02*
G01X5472Y42851D01*
G01X5472Y42851D02*
G01X5275Y43051D01*
G01X5275Y43051D02*
G01X4251Y43051D01*
G01X4251Y43051D02*
G01X4193Y43051D01*
G01X4193Y43051D02*
G01X3129Y44114D01*
G01X3129Y44114D02*
G01X3127Y44646D01*
G01X3127Y44646D02*
G01X3129Y45748D01*
G54D83*
G01X16988Y23759D03*
G01X17657Y23759D03*
G54D87*
G01X12204Y20062D02*
G01X13287Y20059D01*
G54D83*
G01X33228Y23877D03*
G01X34488Y23877D03*
G01X34173Y30039D03*
G01X33444Y30708D03*
G01X6574Y9271D03*
G01X6968Y15255D03*
G54D88*
G01X3031Y3976D02*
G01X1496Y3976D01*
G01X3031Y3976D02*
G01X3031Y5885D01*
G01X3031Y3976D02*
G01X3031Y1397D01*
G54D85*
G01X11062Y12086D02*
G01X11062Y13188D01*
G54D89*
G01X11102Y8818D02*
G01X11102Y9527D01*
G01X11102Y9527D02*
G01X6948Y9527D01*
G54D84*
G01X13149Y11137D02*
G01X13149Y11318D01*
G54D85*
G01X13149Y11318D02*
G01X13149Y13287D01*
G01X15236Y1771D02*
G01X15236Y511D01*
G54D88*
G01X14960Y12952D02*
G01X14232Y12952D01*
G54D86*
G01X4566Y20669D02*
G01X5452Y20669D01*
G54D83*
G01X19212Y12362D03*
G01X38582Y9901D03*
G54D56*
G01X44637Y4527D02*
G01X44645Y3543D01*
G54D83*
G01X37224Y23700D03*
G01X36653Y22440D03*
G01X36712Y14468D03*
G01X38425Y11515D03*
G54D85*
G01X40440Y7094D02*
G01X41153Y7094D01*
G01X40440Y7094D02*
G01X40440Y8019D01*
G01X40440Y7094D02*
G01X39598Y7094D01*
G01X40440Y7094D02*
G01X40440Y6330D01*
G54D83*
G01X41496Y11338D03*
G54D84*
G01X31838Y37244D02*
G01X31838Y36543D01*
G54D85*
G01X32838Y37244D02*
G01X32838Y36511D01*
G54D84*
G01X32775Y38425D02*
G01X32838Y38362D01*
G54D85*
G01X32838Y38362D02*
G01X32838Y37244D01*
G01X40000Y35397D02*
G01X40000Y36397D01*
G01X40000Y36397D02*
G01X39830Y36566D01*
G01X39830Y36566D02*
G01X39488Y36566D01*
G01X37992Y35322D02*
G01X37212Y35322D01*
G01X37212Y35322D02*
G01X37066Y35177D01*
G01X37066Y35177D02*
G01X37066Y33976D01*
G01X37066Y33976D02*
G01X35944Y32854D01*
G01X35944Y32854D02*
G01X35944Y30866D01*
G01X35275Y30944D02*
G01X35275Y30314D01*
G54D90*
G01X41732Y32952D02*
G01X41062Y32952D01*
G01X41732Y32952D02*
G01X41417Y32952D01*
G01X41417Y32952D02*
G01X41417Y31437D01*
G54D85*
G01X43047Y20787D02*
G01X43047Y21708D01*
G54D83*
G01X6968Y18248D03*
G54D85*
G01X5551Y19960D02*
G01X5551Y20531D01*
G54D84*
G01X4566Y20669D02*
G01X4566Y21437D01*
G01X4566Y21437D02*
G01X4606Y21535D01*
G54D85*
G01X5078Y28897D02*
G01X6003Y28897D01*
G01X3425Y25374D02*
G01X3779Y25019D01*
G01X3779Y25019D02*
G01X3779Y24015D01*
G01X3779Y24015D02*
G01X4114Y23681D01*
G01X4114Y23681D02*
G01X5905Y23681D01*
G01X5078Y35826D02*
G01X5925Y35826D01*
G01X3425Y32263D02*
G01X3425Y30925D01*
G01X3425Y30925D02*
G01X3877Y30472D01*
G01X3877Y30472D02*
G01X5964Y30472D01*
G01X10157Y43385D02*
G01X9448Y43405D01*
G01X16456Y39543D02*
G01X17484Y39543D01*
G54D84*
G01X17484Y39543D02*
G01X17500Y39527D01*
G01X13456Y39543D02*
G01X14456Y39543D01*
G01X14456Y39543D02*
G01X15456Y39543D01*
G01X15456Y39543D02*
G01X16456Y39543D01*
G01X8602Y37755D02*
G01X8602Y38641D01*
G01X8602Y36870D02*
G01X8602Y37755D01*
G01X8602Y38641D02*
G01X8602Y39527D01*
G54D85*
G01X1968Y21929D02*
G01X1968Y20866D01*
G01X43779Y39566D02*
G01X44488Y39566D01*
G01X40472Y8503D02*
G01X40472Y7933D01*
G54D83*
G01X32755Y21732D03*
G54D84*
G01X39960Y26413D02*
G01X40625Y26413D01*
G01X40625Y26413D02*
G01X40629Y26417D01*
G54D85*
G01X10157Y43385D02*
G01X11062Y43385D01*
G01X11062Y43385D02*
G01X11929Y43385D01*
G01X3425Y41653D02*
G01X570Y41653D01*
G54D88*
G01X17637Y14212D02*
G01X18700Y14212D01*
G54D56*
G01X44637Y4527D02*
G01X44637Y5224D01*
G54D84*
G01X44637Y5224D02*
G01X44625Y5236D01*
G54D85*
G01X3110Y46685D02*
G01X2342Y46692D01*
G01X3110Y46685D02*
G01X3956Y46692D01*
G01X3110Y46685D02*
G01X3110Y47362D01*
G01X14212Y42401D02*
G01X14212Y41397D01*
G01X14212Y42401D02*
G01X13700Y42913D01*
G01X13700Y42913D02*
G01X13700Y43425D01*
G01X13700Y43425D02*
G01X13740Y43385D01*
G54D87*
G01X11929Y43385D02*
G01X12461Y43917D01*
G01X12461Y43917D02*
G01X13208Y43917D01*
G01X13208Y43917D02*
G01X13740Y43385D01*
G54D84*
G01X43503Y8385D02*
G01X43503Y7874D01*
G54D83*
G01X10925Y33779D03*
G54D84*
G01X10925Y33779D02*
G01X10551Y33405D01*
G01X10551Y33405D02*
G01X10551Y20866D01*
G01X10551Y20866D02*
G01X11594Y19822D01*
G01X11594Y19822D02*
G01X11594Y18366D01*
G01X11594Y18366D02*
G01X11870Y18070D01*
G01X11870Y18070D02*
G01X12106Y18070D01*
G01X12106Y18070D02*
G01X12204Y18062D01*
G01X10846Y36870D02*
G01X10846Y36496D01*
G01X10846Y36496D02*
G01X9271Y36496D01*
G01X9271Y36496D02*
G01X9271Y36870D01*
G01X9271Y36870D02*
G01X9271Y36496D01*
G01X9271Y36496D02*
G01X7322Y36496D01*
G01X7322Y36496D02*
G01X7204Y36614D01*
G01X7204Y36614D02*
G01X7204Y37086D01*
G01X24901Y19370D02*
G01X24901Y19822D01*
G01X24901Y19822D02*
G01X25000Y19921D01*
G01X25000Y19921D02*
G01X25000Y20393D01*
G54D83*
G01X15590Y34645D03*
G54D84*
G01X16437Y32460D02*
G01X16417Y32559D01*
G54D87*
G01X16417Y32559D02*
G01X16417Y32992D01*
G54D84*
G01X16417Y32992D02*
G01X16240Y33051D01*
G54D83*
G01X16240Y33051D03*
G54D84*
G01X19192Y32460D02*
G01X19133Y32460D01*
G54D87*
G01X19133Y32460D02*
G01X19133Y33011D01*
G54D83*
G01X19133Y33011D03*
G01X20866Y34645D03*
G01X20000Y32992D03*
G54D87*
G01X20000Y32992D02*
G01X20000Y32519D01*
G54D84*
G01X20000Y32519D02*
G01X19980Y32460D01*
G54D83*
G01X11496Y30413D03*
G01X13208Y26889D03*
G54D84*
G01X13208Y26889D02*
G01X13326Y26771D01*
G54D87*
G01X13326Y26771D02*
G01X13838Y26771D01*
G54D84*
G01X13838Y26771D02*
G01X13897Y26771D01*
G54D83*
G01X11279Y27381D03*
G01X13208Y25708D03*
G54D87*
G01X13208Y25708D02*
G01X13858Y25708D01*
G54D84*
G01X13858Y25708D02*
G01X13897Y25688D01*
G54D83*
G01X11456Y25098D03*
G54D84*
G01X16338Y23425D02*
G01X16318Y23366D01*
G54D87*
G01X16318Y23366D02*
G01X16318Y22913D01*
G54D83*
G01X16318Y22913D03*
G54D84*
G01X18996Y23425D02*
G01X19035Y23346D01*
G54D87*
G01X19035Y23346D02*
G01X19035Y22933D01*
G54D83*
G01X19035Y22933D03*
G01X15314Y21062D03*
G01X18346Y21023D03*
G54D84*
G01X19881Y23425D02*
G01X19862Y23346D01*
G54D87*
G01X19862Y23346D02*
G01X19862Y22933D01*
G54D83*
G01X19862Y22933D03*
G01X20728Y21122D03*
G01X23169Y26082D03*
G54D84*
G01X23169Y26082D02*
G01X22440Y26082D01*
G54D83*
G01X24960Y25275D03*
G54D84*
G01X22440Y27460D02*
G01X22519Y27421D01*
G01X22519Y27421D02*
G01X23267Y27421D01*
G54D83*
G01X23267Y27421D03*
G01X25157Y27480D03*
G01X23267Y29625D03*
G54D84*
G01X23267Y29625D02*
G01X22440Y29625D01*
G54D83*
G01X24921Y30570D03*
G54D84*
G01X13897Y29527D02*
G01X13917Y29527D01*
G54D87*
G01X13917Y29527D02*
G01X13267Y29527D01*
G54D83*
G01X13267Y29527D03*
G01X18622Y34783D03*
G54D89*
G01X11062Y11181D02*
G01X12125Y11181D01*
G01X12125Y11181D02*
G01X13149Y10157D01*
G01X13149Y10157D02*
G01X13937Y10157D01*
G01X13937Y10157D02*
G01X15708Y11929D01*
G01X15708Y11929D02*
G01X15708Y12972D01*
G01X15708Y12972D02*
G01X15708Y12952D01*
G01X15708Y12952D02*
G01X15748Y12992D01*
G01X15748Y12992D02*
G01X15748Y21102D01*
G54D83*
G01X41830Y14055D03*
G54D84*
G01X41830Y14055D02*
G01X41003Y14055D01*
G54D83*
G01X41003Y14055D03*
G54D85*
G01X17283Y43385D02*
G01X18385Y43385D01*
G01X18385Y43385D02*
G01X18897Y43897D01*
G01X18897Y43897D02*
G01X20177Y43897D01*
G01X20177Y43897D02*
G01X19468Y43838D01*
G01X19468Y43838D02*
G01X20295Y43818D01*
G01X2244Y30885D02*
G01X2244Y29311D01*
G54D83*
G01X24389Y10295D03*
G54D84*
G01X24389Y10295D02*
G01X24389Y5629D01*
G01X24389Y5629D02*
G01X24744Y5275D01*
G01X24744Y5275D02*
G01X34744Y5275D01*
G54D83*
G01X34744Y5275D03*
G01X22874Y10078D03*
G54D84*
G01X22874Y10078D02*
G01X22874Y5905D01*
G01X22874Y5905D02*
G01X23917Y4862D01*
G01X23917Y4862D02*
G01X34251Y4862D01*
G01X34251Y4862D02*
G01X34566Y4547D01*
G01X34566Y4547D02*
G01X34744Y4547D01*
G54D83*
G01X34744Y4547D03*
G01X25807Y33188D03*
G54D84*
G01X25807Y33188D02*
G01X32283Y33188D01*
G54D83*
G01X32283Y33188D03*
G01X38385Y20492D03*
G54D84*
G01X38385Y20492D02*
G01X38543Y20649D01*
G01X38543Y20649D02*
G01X40787Y20649D01*
G01X40787Y20649D02*
G01X41200Y21062D01*
G01X41200Y21062D02*
G01X41200Y22815D01*
G01X41200Y22815D02*
G01X40590Y23425D01*
G01X40590Y23425D02*
G01X40059Y23425D01*
G01X40059Y23425D02*
G01X39960Y23413D01*
G01X4606Y22204D02*
G01X5118Y22204D01*
G54D83*
G01X5118Y22204D03*
G54D85*
G01X30137Y43818D02*
G01X32795Y43818D01*
G54D84*
G01X32795Y43818D02*
G01X33169Y43779D01*
G54D83*
G01X23385Y10059D03*
G54D84*
G01X23385Y10059D02*
G01X23385Y5944D01*
G01X23385Y5944D02*
G01X24271Y5059D01*
G01X24271Y5059D02*
G01X34429Y5059D01*
G01X34429Y5059D02*
G01X34606Y4881D01*
G01X34606Y4881D02*
G01X35118Y4881D01*
G01X35118Y4881D02*
G01X35275Y5039D01*
G01X35275Y5039D02*
G01X35275Y5275D01*
G54D83*
G01X35275Y5275D03*
G54D84*
G01X35629Y11909D02*
G01X34350Y11909D01*
G54D83*
G01X34350Y11909D03*
G01X21141Y10118D03*
G54D84*
G01X21141Y10118D02*
G01X21141Y10413D01*
G01X21141Y10413D02*
G01X21476Y10748D01*
G01X21476Y10748D02*
G01X27263Y10748D01*
G01X27263Y10748D02*
G01X27814Y11299D01*
G01X27814Y11299D02*
G01X28484Y11299D01*
G01X28484Y11299D02*
G01X29330Y10452D01*
G01X29330Y10452D02*
G01X31496Y10452D01*
G01X31496Y10452D02*
G01X31909Y10866D01*
G01X31909Y10866D02*
G01X31909Y11653D01*
G01X31909Y11653D02*
G01X32165Y11909D01*
G01X32165Y11909D02*
G01X34350Y11909D01*
G01X4409Y32263D02*
G01X4409Y31299D01*
G01X9271Y38641D02*
G01X10177Y38641D01*
G01X10177Y38641D02*
G01X10177Y39527D01*
G54D85*
G01X8622Y11181D02*
G01X9744Y11181D01*
G01X8622Y11181D02*
G01X7795Y11181D01*
G01X8622Y11181D02*
G01X8622Y10078D01*
G54D91*
G01X36299Y11909D02*
G01X36948Y11909D01*
G01X36948Y11909D02*
G01X37598Y11259D01*
G01X37598Y11259D02*
G01X37598Y10905D01*
G01X37598Y10905D02*
G01X37145Y10452D01*
G01X37145Y10452D02*
G01X36200Y10452D01*
G01X36200Y10452D02*
G01X35944Y10196D01*
G01X35944Y10196D02*
G01X35944Y9803D01*
G01X35944Y9803D02*
G01X35433Y9291D01*
G01X35433Y9291D02*
G01X35433Y8543D01*
G54D83*
G01X35433Y8543D03*
G54D85*
G01X11102Y7913D02*
G01X12066Y7913D01*
G01X12066Y7913D02*
G01X12066Y10275D01*
G01X12066Y10275D02*
G01X11062Y10275D01*
G01X11102Y7913D02*
G01X11220Y7933D01*
G01X11220Y7933D02*
G01X13385Y7933D01*
G01X13385Y7933D02*
G01X13464Y7952D01*
G54D83*
G01X19389Y10866D03*
G01X19389Y10866D02*
G01X19389Y6653D01*
G01X19389Y6653D02*
G01X18622Y5866D01*
G01X18622Y5866D03*
G01X39429Y11377D03*
G54D85*
G01X39429Y11377D02*
G01X40433Y11358D01*
G54D83*
G01X40433Y11358D03*
G54D84*
G01X3425Y32992D02*
G01X3838Y32992D01*
G01X3838Y32992D02*
G01X4035Y33188D01*
G01X4035Y33188D02*
G01X4409Y33188D01*
G54D83*
G01X11496Y37755D03*
G54D84*
G01X11496Y37755D02*
G01X10846Y37755D01*
G54D83*
G01X5079Y22834D03*
G54D84*
G01X5079Y22834D02*
G01X3956Y22834D01*
G01X3956Y22834D02*
G01X3799Y22677D01*
G01X3799Y22677D02*
G01X3799Y22165D01*
G01X3799Y22165D02*
G01X3779Y22204D01*
G01X3779Y12795D02*
G01X3740Y12854D01*
G01X3740Y12854D02*
G01X3740Y13484D01*
G01X3740Y13484D02*
G01X3838Y13582D01*
G01X3838Y13582D02*
G01X4133Y13582D01*
G54D85*
G01X40393Y32952D02*
G01X40393Y32133D01*
G01X1968Y22598D02*
G01X1968Y23858D01*
G54D84*
G01X1968Y23858D02*
G01X2244Y23996D01*
G54D85*
G01X8661Y7913D02*
G01X9763Y7913D01*
G01X8661Y7913D02*
G01X7814Y7913D01*
G01X8661Y7913D02*
G01X8661Y8996D01*
G01X8661Y7913D02*
G01X8661Y6929D01*
G54D89*
G01X10881Y1771D02*
G01X10885Y4271D01*
G01X10885Y4271D02*
G01X10866Y4409D01*
G01X11102Y7007D02*
G01X11948Y7007D01*
G01X11948Y7007D02*
G01X11948Y4409D01*
G01X11948Y4409D02*
G01X10866Y4409D01*
G01X10866Y4409D02*
G01X11948Y4409D01*
G01X11948Y4409D02*
G01X11948Y2047D01*
G01X11948Y2047D02*
G01X12224Y1771D01*
G01X12224Y1771D02*
G01X13425Y1771D01*
G54D83*
G01X21870Y10118D03*
G54D84*
G01X21870Y10118D02*
G01X21870Y5807D01*
G01X21870Y5807D02*
G01X23267Y4429D01*
G01X23267Y4429D02*
G01X33188Y4429D01*
G01X33188Y4429D02*
G01X33523Y4094D01*
G01X33523Y4094D02*
G01X35669Y4094D01*
G01X35669Y4094D02*
G01X36062Y4488D01*
G01X36062Y4488D02*
G01X36062Y4901D01*
G54D83*
G01X36062Y4901D03*
G54D85*
G01X42401Y32952D02*
G01X42393Y32133D01*
G54D84*
G01X40472Y9173D02*
G01X40452Y9212D01*
G01X40452Y9212D02*
G01X40440Y9224D01*
G01X40440Y9224D02*
G01X40440Y10094D01*
G54D85*
G01X14330Y4212D02*
G01X14330Y5413D01*
G01X14330Y4212D02*
G01X12834Y4212D01*
G01X14330Y4212D02*
G01X15629Y4212D01*
G01X14330Y4212D02*
G01X14330Y3385D01*
G54D84*
G01X26841Y44427D02*
G01X27086Y44488D01*
G01X27086Y44488D02*
G01X27676Y44487D01*
G01X27676Y44487D02*
G01X28759Y43404D01*
G01X28759Y43404D02*
G01X28759Y42953D01*
G01X28759Y42953D02*
G01X29212Y42500D01*
G01X29212Y42500D02*
G01X31140Y42500D01*
G01X31140Y42500D02*
G01X31830Y41811D01*
G01X31830Y41811D02*
G01X31830Y40413D01*
G01X31830Y40413D02*
G01X31838Y40244D01*
G01X26791Y45374D02*
G01X26791Y44547D01*
G01X26791Y44547D02*
G01X26841Y44427D01*
G01X42125Y35397D02*
G01X42145Y35452D01*
G01X42145Y35452D02*
G01X42145Y36220D01*
G01X42145Y36220D02*
G01X42488Y36566D01*
G01X37992Y32822D02*
G01X37216Y32822D01*
G01X37216Y32822D02*
G01X37204Y32834D01*
G01X37204Y32834D02*
G01X36889Y32519D01*
G01X36889Y32519D02*
G01X36889Y32066D01*
G01X36889Y32066D02*
G01X37106Y31850D01*
G01X37106Y31850D02*
G01X38877Y31850D01*
G01X38877Y31850D02*
G01X39114Y32086D01*
G01X39114Y32086D02*
G01X39114Y33051D01*
G01X39114Y33051D02*
G01X39448Y33385D01*
G01X39448Y33385D02*
G01X43149Y33385D01*
G01X43149Y33385D02*
G01X43287Y33523D01*
G01X43287Y33523D02*
G01X43287Y34822D01*
G01X43287Y34822D02*
G01X42677Y35433D01*
G01X42677Y35433D02*
G01X41968Y35433D01*
G01X41968Y35433D02*
G01X42125Y35397D01*
G01X4488Y15393D02*
G01X5374Y15393D01*
G54D83*
G01X5374Y15393D03*
G54D88*
G01X8700Y5472D02*
G01X8700Y4212D01*
G01X7700Y5472D02*
G01X7700Y4212D01*
G54D84*
G01X5590Y3976D02*
G01X5669Y4192D01*
G01X5669Y4192D02*
G01X5688Y4212D01*
G54D88*
G01X5688Y4212D02*
G01X7700Y4212D01*
G54D84*
G01X23571Y44427D02*
G01X24133Y43897D01*
G01X24133Y43897D02*
G01X27913Y43897D01*
G01X27913Y43897D02*
G01X28523Y43287D01*
G01X28523Y43287D02*
G01X28523Y42802D01*
G01X28523Y42802D02*
G01X29082Y42263D01*
G01X29082Y42263D02*
G01X30669Y42263D01*
G01X30669Y42263D02*
G01X30826Y42106D01*
G01X30826Y42106D02*
G01X30826Y40334D01*
G01X30826Y40334D02*
G01X30838Y40244D01*
G01X24212Y45354D02*
G01X24212Y45000D01*
G01X24212Y45000D02*
G01X23639Y44427D01*
G01X23639Y44427D02*
G01X23571Y44427D01*
G01X39665Y45334D02*
G01X39665Y44645D01*
G01X39665Y44645D02*
G01X39715Y44387D01*
G54D83*
G01X25866Y7460D03*
G54D84*
G01X25866Y7460D02*
G01X26751Y7460D01*
G01X26751Y7460D02*
G01X27342Y8051D01*
G01X27342Y8051D02*
G01X32381Y8051D01*
G01X32381Y8051D02*
G01X33267Y7165D01*
G01X33267Y7165D02*
G01X35354Y7165D01*
G01X35354Y7165D02*
G01X36200Y8011D01*
G01X36200Y8011D02*
G01X36200Y9311D01*
G01X36200Y9311D02*
G01X36397Y9507D01*
G01X36397Y9507D02*
G01X36535Y9507D01*
G54D83*
G01X36535Y9507D03*
G54D84*
G01X4409Y24409D02*
G01X4409Y25374D01*
G54D83*
G01X5314Y12539D03*
G54D84*
G01X5314Y12539D02*
G01X5059Y12795D01*
G01X5059Y12795D02*
G01X4448Y12795D01*
G01X37086Y45314D02*
G01X37086Y45000D01*
G01X37086Y45000D02*
G01X36889Y44803D01*
G01X36889Y44803D02*
G01X36574Y44803D01*
G01X36574Y44803D02*
G01X36417Y44645D01*
G01X36417Y44645D02*
G01X36445Y44387D01*
G54D83*
G01X26377Y7834D03*
G54D84*
G01X26377Y7834D02*
G01X26850Y8307D01*
G01X26850Y8307D02*
G01X32519Y8307D01*
G01X32519Y8307D02*
G01X33405Y7401D01*
G01X33405Y7401D02*
G01X35137Y7401D01*
G01X35137Y7401D02*
G01X35826Y8090D01*
G01X35826Y8090D02*
G01X35826Y9389D01*
G01X35826Y9389D02*
G01X36515Y10078D01*
G54D83*
G01X36515Y10078D03*
G54D84*
G01X4370Y26377D02*
G01X3700Y26377D01*
G01X3700Y26377D02*
G01X3425Y26102D01*
G54D83*
G01X29488Y36141D03*
G54D84*
G01X29488Y36141D02*
G01X29330Y35984D01*
G01X29330Y35984D02*
G01X12814Y35984D01*
G54D83*
G01X12814Y35984D03*
G54D85*
G01X2244Y37696D02*
G01X2244Y36200D01*
G54D83*
G01X37047Y11122D03*
G54D84*
G01X37047Y11122D02*
G01X32480Y11122D01*
G54D83*
G01X32480Y11122D03*
G01X26889Y7086D03*
G54D84*
G01X26889Y7086D02*
G01X27539Y7716D01*
G01X27539Y7716D02*
G01X27598Y7775D01*
G01X27598Y7775D02*
G01X32224Y7775D01*
G01X32224Y7775D02*
G01X33090Y6909D01*
G01X33090Y6909D02*
G01X35511Y6909D01*
G01X35511Y6909D02*
G01X36594Y7952D01*
G01X36594Y7952D02*
G01X36594Y8779D01*
G54D83*
G01X36594Y8779D03*
G01X32125Y23937D03*
G54D84*
G01X32125Y23937D02*
G01X32125Y22696D01*
G54D83*
G01X32125Y22696D03*
G54D84*
G01X24015Y18700D02*
G01X24901Y18700D01*
G54D87*
G01X41456Y25196D02*
G01X41456Y25688D01*
G01X41456Y25688D02*
G01X41850Y26082D01*
G01X41850Y26082D02*
G01X41850Y26318D01*
G01X41850Y26318D02*
G01X41830Y26377D01*
G54D84*
G01X32838Y40244D02*
G01X32838Y41834D01*
G01X32838Y41834D02*
G01X33169Y42165D01*
G01X33169Y42165D02*
G01X33404Y42400D01*
G01X33404Y42400D02*
G01X40689Y42400D01*
G01X40689Y42400D02*
G01X41181Y42892D01*
G01X41181Y42892D02*
G01X41181Y45865D01*
G01X41181Y45865D02*
G01X41161Y45885D01*
G01X41161Y45885D02*
G01X38996Y45885D01*
G01X38996Y45885D02*
G01X38996Y45334D01*
G01X23543Y45354D02*
G01X23543Y45669D01*
G01X23543Y45669D02*
G01X23720Y45846D01*
G01X23720Y45846D02*
G01X27500Y45846D01*
G01X27500Y45846D02*
G01X27500Y45413D01*
G01X27500Y45413D02*
G01X27460Y45374D01*
G54D85*
G01X32775Y39094D02*
G01X32775Y40059D01*
G54D84*
G01X32775Y40059D02*
G01X32838Y40244D01*
G54D85*
G01X41830Y26377D02*
G01X42913Y26377D01*
G54D84*
G01X42913Y26377D02*
G01X42960Y26413D01*
G01X38996Y45334D02*
G01X38996Y45885D01*
G01X38996Y45885D02*
G01X36476Y45885D01*
G01X36476Y45885D02*
G01X36476Y45354D01*
G01X36476Y45354D02*
G01X36417Y45314D01*
G54D83*
G01X34350Y21062D03*
G54D85*
G01X34350Y21062D02*
G01X35708Y19704D01*
G01X35708Y19704D02*
G01X44232Y19704D01*
G54D83*
G01X44232Y19704D03*
G01X33464Y15059D03*
G54D86*
G01X33464Y15059D02*
G01X33464Y15511D01*
G01X33464Y15511D02*
G01X33661Y15708D01*
G01X33661Y15708D02*
G01X34094Y15708D01*
G01X34094Y15708D02*
G01X34291Y15905D01*
G01X34291Y15905D02*
G01X34291Y19212D01*
G54D83*
G01X34291Y19212D03*
G01X15708Y33031D03*
G54D84*
G01X15708Y33031D02*
G01X15708Y32637D01*
G01X15708Y32637D02*
G01X15748Y32460D01*
G54D83*
G01X18503Y32992D03*
G54D84*
G01X18503Y32992D02*
G01X18503Y32460D01*
G54D83*
G01X20669Y32992D03*
G54D84*
G01X20669Y32992D02*
G01X20669Y32460D01*
G54D87*
G01X15748Y32460D02*
G01X15748Y33720D01*
G54D84*
G01X15748Y33720D02*
G01X15748Y33818D01*
G54D87*
G01X18503Y32460D02*
G01X18503Y33661D01*
G54D84*
G01X18503Y33661D02*
G01X18503Y33818D01*
G54D87*
G01X20669Y32460D02*
G01X20669Y33740D01*
G54D84*
G01X20669Y33740D02*
G01X20669Y33838D01*
G01X13976Y32460D02*
G01X13976Y33110D01*
G54D83*
G01X13976Y33110D03*
G54D87*
G01X13976Y32460D02*
G01X13976Y33681D01*
G54D83*
G01X22165Y33011D03*
G54D84*
G01X22165Y33011D02*
G01X22165Y32519D01*
G01X22165Y32519D02*
G01X22145Y32460D01*
G54D87*
G01X22145Y32460D02*
G01X22145Y33622D01*
G54D83*
G01X13267Y30216D03*
G54D84*
G01X13267Y30216D02*
G01X13956Y30216D01*
G01X13956Y30216D02*
G01X13897Y30216D01*
G54D87*
G01X13897Y30216D02*
G01X12657Y30216D01*
G54D84*
G01X13897Y27460D02*
G01X13818Y27440D01*
G01X13818Y27440D02*
G01X13208Y27440D01*
G54D83*
G01X13208Y27440D03*
G54D87*
G01X13897Y27460D02*
G01X12677Y27460D01*
G01X13897Y25000D02*
G01X12677Y25000D01*
G54D83*
G01X13208Y25059D03*
G54D84*
G01X13208Y25059D02*
G01X13779Y25059D01*
G01X13779Y25059D02*
G01X13897Y25000D01*
G54D83*
G01X13208Y23326D03*
G54D84*
G01X13208Y23326D02*
G01X13877Y23326D01*
G54D87*
G01X13877Y23326D02*
G01X12696Y23326D01*
G54D84*
G01X15649Y23425D02*
G01X15649Y22913D01*
G54D83*
G01X15649Y22913D03*
G54D84*
G01X18307Y23425D02*
G01X18307Y22933D01*
G54D83*
G01X18307Y22933D03*
G54D87*
G01X18307Y23425D02*
G01X18307Y22421D01*
G54D84*
G01X20570Y23425D02*
G01X20570Y22933D01*
G54D83*
G01X20570Y22933D03*
G54D87*
G01X20570Y23425D02*
G01X20570Y22401D01*
G01X22637Y23425D02*
G01X22637Y22893D01*
G01X22637Y22893D02*
G01X23326Y22893D01*
G54D83*
G01X23326Y22893D03*
G01X23169Y25393D03*
G54D84*
G01X23169Y25393D02*
G01X22440Y25393D01*
G54D87*
G01X22440Y25393D02*
G01X23858Y25393D01*
G54D84*
G01X22440Y28149D02*
G01X22480Y28129D01*
G01X22480Y28129D02*
G01X23208Y28129D01*
G54D83*
G01X23208Y28129D03*
G54D87*
G01X22440Y28149D02*
G01X23858Y28149D01*
G54D83*
G01X23248Y30314D03*
G54D84*
G01X23248Y30314D02*
G01X22440Y30314D01*
G54D87*
G01X22440Y30314D02*
G01X23877Y30314D01*
G01X15649Y23425D02*
G01X15649Y22440D01*
G01X22637Y23425D02*
G01X22637Y22381D01*
G54D83*
G01X34429Y25688D03*
G54D85*
G01X34429Y25688D02*
G01X34429Y28385D01*
G01X34429Y28385D02*
G01X37007Y30964D01*
G01X37007Y30964D02*
G01X44291Y30964D01*
G54D83*
G01X44291Y30964D03*
G01X34488Y28484D03*
G54D87*
G01X34488Y28484D02*
G01X34547Y28484D01*
G01X34547Y28484D02*
G01X37047Y30984D01*
G01X37047Y30984D02*
G01X43818Y30984D01*
G54D83*
G01X43818Y30984D03*
G54D89*
G01X16535Y1811D02*
G01X15727Y2618D01*
G01X15727Y2618D02*
G01X14606Y2618D01*
G01X14606Y2618D02*
G01X14330Y2342D01*
G01X14330Y2342D02*
G01X14330Y1771D01*
G01X16535Y1811D02*
G01X16771Y1732D01*
G01X16771Y1732D02*
G01X26082Y1732D01*
G01X26082Y1732D02*
G01X27992Y3661D01*
G01X27992Y3661D02*
G01X43641Y3661D01*
G01X43641Y3661D02*
G01X43641Y4311D01*
G54D84*
G01X43641Y4311D02*
G01X43637Y4527D01*
G54D85*
G01X43110Y39566D02*
G01X42539Y39566D01*
G54D84*
G01X42539Y39566D02*
G01X42480Y39665D01*
G01X42480Y39665D02*
G01X42488Y39566D01*
G01X42125Y34397D02*
G01X42066Y34448D01*
G01X42066Y34448D02*
G01X41476Y34448D01*
G01X41476Y34448D02*
G01X41358Y34566D01*
G01X41358Y34566D02*
G01X41358Y37578D01*
G01X41358Y37578D02*
G01X42346Y38566D01*
G01X42346Y38566D02*
G01X42488Y38566D01*
G01X42125Y33897D02*
G01X41358Y33897D01*
G01X41358Y33897D02*
G01X41161Y34094D01*
G01X41161Y34094D02*
G01X41161Y38109D01*
G01X41161Y38109D02*
G01X42488Y39437D01*
G01X42488Y39437D02*
G01X42488Y39566D01*
G01X40000Y34897D02*
G01X40527Y34897D01*
G01X40527Y34897D02*
G01X40570Y34941D01*
G01X40570Y34941D02*
G01X40570Y36870D01*
G01X40570Y36870D02*
G01X39881Y37559D01*
G01X39881Y37559D02*
G01X39527Y37559D01*
G01X39527Y37559D02*
G01X39488Y37566D01*
G54D85*
G01X37992Y35822D02*
G01X37736Y35826D01*
G01X37736Y35826D02*
G01X37007Y35826D01*
G01X37007Y35826D02*
G01X36220Y35039D01*
G01X36220Y35039D02*
G01X36220Y33857D01*
G01X36220Y33857D02*
G01X35185Y32822D01*
G01X35185Y32822D02*
G01X34370Y32822D01*
G54D84*
G01X34370Y32822D02*
G01X34370Y32322D01*
G54D85*
G01X35275Y31614D02*
G01X35275Y32834D01*
G01X35275Y32834D02*
G01X34370Y32822D01*
G54D83*
G01X39173Y20177D03*
G54D85*
G01X39173Y20177D02*
G01X44212Y20177D01*
G54D83*
G01X44212Y20177D03*
G54D85*
G01X34370Y32822D02*
G01X33633Y32822D01*
G01X33633Y32822D02*
G01X33523Y32933D01*
G01X33523Y32933D02*
G01X33523Y36200D01*
G01X33523Y36200D02*
G01X33680Y36358D01*
G01X33680Y36358D02*
G01X35944Y36358D01*
G01X35944Y36358D02*
G01X36278Y36692D01*
G01X36278Y36692D02*
G01X38444Y36692D01*
G01X38444Y36692D02*
G01X38858Y37106D01*
G01X38858Y37106D02*
G01X38858Y40079D01*
G01X38858Y40079D02*
G01X39034Y40255D01*
G01X39034Y40255D02*
G01X39922Y40255D01*
G01X39922Y40255D02*
G01X40610Y39566D01*
G01X40610Y39566D02*
G01X42488Y39566D01*
G54D84*
G01X35433Y45354D02*
G01X35590Y45314D01*
G01X35590Y45314D02*
G01X36417Y45314D01*
G01X27460Y45374D02*
G01X35236Y45374D01*
G01X35236Y45374D02*
G01X35275Y45334D01*
G01X35275Y45334D02*
G01X35433Y45354D01*
G01X23543Y45354D02*
G01X22637Y45354D01*
G01X22637Y45354D02*
G01X22559Y45393D01*
G54D87*
G01X41456Y25196D02*
G01X41456Y24488D01*
G54D85*
G01X16889Y14212D02*
G01X16653Y14212D01*
G54D92*
G01X16653Y14212D02*
G01X16456Y14212D01*
G54D87*
G01X24015Y18700D02*
G01X23582Y18700D01*
G01X23582Y18700D02*
G01X22559Y19724D01*
G01X22559Y19724D02*
G01X22559Y20492D01*
G54D88*
G01X16535Y1811D02*
G01X16535Y3110D01*
G54D84*
G01X43503Y9055D02*
G01X43523Y9094D01*
G01X43523Y9094D02*
G01X43440Y9177D01*
G54D85*
G01X43440Y9177D02*
G01X43440Y10094D01*
G54D84*
G01X7204Y38503D02*
G01X7204Y38917D01*
G01X7204Y38917D02*
G01X8267Y39980D01*
G01X8267Y39980D02*
G01X9271Y39980D01*
G01X9271Y39980D02*
G01X9271Y39527D01*
G01X9271Y39527D02*
G01X9271Y39980D01*
G01X9271Y39980D02*
G01X10728Y39980D01*
G01X10728Y39980D02*
G01X10846Y39862D01*
G01X10846Y39862D02*
G01X10846Y39527D01*
G01X4566Y17440D02*
G01X4547Y17401D01*
G01X4547Y17401D02*
G01X4651Y17506D01*
G01X4651Y17506D02*
G01X4651Y18666D01*
G01X4651Y18666D02*
G01X4645Y18661D01*
G01X4645Y18661D02*
G01X4153Y19153D01*
G01X4153Y19153D02*
G01X3562Y19153D01*
G01X3562Y19153D02*
G01X3346Y19370D01*
G01X3346Y19370D02*
G01X3346Y21181D01*
G01X3346Y21181D02*
G01X3681Y21515D01*
G01X3681Y21515D02*
G01X3779Y21535D01*

G04 Draw Text*
M00*
M02*
