G04 FreePCB version 1.355*
G04 E:\v6z80p_plus\bottom_solder_mask.grb*
G04 bottom solder mask layer *
G04 Scale: 100 percent, Rotated: No, Reflected: No *
%FSLAX24Y24*%
%MOIN*%
%LN bottom solder mask *%
G04 Rounded Rectangle Macro, params: W/2, H/2, R *
%AMRNDREC*
21,1,$1+$1,$2+$2-$3-$3,0,0,0*
21,1,$1+$1-$3-$3,$2+$2,0,0,0*
1,1,$3+$3,$1-$3,$2-$3*
1,1,$3+$3,$3-$1,$2-$3*
1,1,$3+$3,$1-$3,$3-$2*
1,1,$3+$3,$3-$1,$3-$2*%
G04 Rectangular Thermal Macro, params: W/2, H/2, T/2 *
%AMRECTHERM*
$4=$3/2*
21,1,$1-$3,$2-$3,0-$1/2-$4,0-$2/2-$4,0*
21,1,$1-$3,$2-$3,0-$1/2-$4,$2/2+$4,0*
21,1,$1-$3,$2-$3,$1/2+$4,0-$2/2-$4,0*
21,1,$1-$3,$2-$3,$1/2+$4,$2/2+$4,0*%
%ADD10C,0.007874*%
%ADD11R,0.074803X0.074803*%
%ADD12C,0.074803*%
%ADD13C,0.075748*%
%ADD14C,0.153543*%
%ADD15C,0.161417*%
%ADD16C,0.094488*%
%ADD17R,0.078740X0.078740*%
%ADD18C,0.078740*%
%ADD19C,0.212598*%
%ADD20C,0.093748*%
%ADD21C,0.082677*%
%ADD22R,0.059055X0.062992*%
%ADD23C,0.086614*%
%ADD24R,0.062992X0.059055*%
%ADD25C,0.141732*%
%ADD26R,0.066929X0.078740*%
%ADD27R,0.055748X0.063748*%
%ADD28C,0.204724*%
%ADD29C,0.192913*%
%ADD30C,0.080748*%
%ADD31R,0.102362X0.062992*%
%ADD32R,0.102362X0.157480*%
%ADD33R,0.062992X0.102362*%
%ADD34R,0.157480X0.102362*%
%ADD35C,0.085748*%
%ADD36R,0.066929X0.070866*%
%ADD37R,0.085748X0.085748*%
%ADD38C,0.098425*%
%ADD39R,0.102362X0.043307*%
%ADD40R,0.118110X0.047244*%
%ADD41C,0.105748*%
%ADD42C,0.055748*%
%ADD43C,0.015748*%
G90*
G70D02*

G04 Step and Repeat for panelization *

G04 ----------------------- Draw board outline (positive)*
%LPD*%
G54D10*
G01X-196Y-393D02*
G01X45472Y-393D01*
G04 end of side 1*
G01X45472Y48031D01*
G04 end of side 2*
G01X-196Y48031D01*
G04 end of side 3*
G01X-196Y-393D01*

G04 -------------- Draw Parts, Pads, Traces, Vias and Text (positive)*
%LPD*%
G04 Draw part spartan_ii*
G04 Draw part z80*
G04 Draw part spr_ram*
G04 Draw part cfg_pic*
G54D11*
G01X39960Y30413D03*
G54D12*
G01X39960Y29413D03*
G01X39960Y28413D03*
G01X39960Y27413D03*
G01X39960Y26413D03*
G01X39960Y25413D03*
G01X39960Y24413D03*
G01X39960Y23413D03*
G01X39960Y22413D03*
G01X42960Y22413D03*
G01X42960Y23413D03*
G01X42960Y24413D03*
G01X42960Y25413D03*
G01X42960Y26413D03*
G01X42960Y27413D03*
G01X42960Y28413D03*
G01X42960Y29413D03*
G01X42960Y30413D03*
G04 Draw part spi_eeprom*
G54D11*
G01X39488Y39566D03*
G54D12*
G01X39488Y38566D03*
G01X39488Y37566D03*
G01X39488Y36566D03*
G01X42488Y36566D03*
G01X42488Y37566D03*
G01X42488Y38566D03*
G01X42488Y39566D03*
G04 Draw part osc*
G54D11*
G01X40440Y10094D03*
G54D13*
G01X40440Y7094D03*
G01X43440Y7094D03*
G01X43440Y10094D03*
G04 Draw part hct08*
G04 Draw part res3*
G04 Draw part res4*
G04 Draw part res5*
G04 Draw part kbcon*
G54D14*
G01X2244Y29311D03*
G01X2244Y23996D03*
G54D12*
G01X3425Y27204D03*
G01X3425Y26102D03*
G01X3425Y25374D03*
G01X3425Y27933D03*
G54D15*
G01X1948Y26653D03*
G54D16*
G01X4409Y27933D03*
G01X4409Y25374D03*
G04 Draw part mousecon*
G54D14*
G01X2244Y36200D03*
G01X2244Y30885D03*
G54D12*
G01X3425Y34094D03*
G01X3425Y32992D03*
G01X3425Y32263D03*
G01X3425Y34822D03*
G54D15*
G01X1948Y33543D03*
G54D16*
G01X4409Y34822D03*
G01X4409Y32263D03*
G04 Draw part joy1con*
G54D17*
G01X40255Y43267D03*
G54D18*
G01X39165Y43267D03*
G01X38075Y43267D03*
G01X36985Y43267D03*
G01X35895Y43267D03*
G01X39715Y44387D03*
G01X38625Y44387D03*
G01X37535Y44387D03*
G01X36445Y44387D03*
G54D19*
G01X33169Y43779D03*
G01X43011Y43779D03*
G04 Draw part joy2con*
G54D17*
G01X27381Y43307D03*
G54D18*
G01X26291Y43307D03*
G01X25201Y43307D03*
G01X24111Y43307D03*
G01X23021Y43307D03*
G01X26841Y44427D03*
G01X25751Y44427D03*
G01X24661Y44427D03*
G01X23571Y44427D03*
G54D19*
G01X20295Y43818D03*
G01X30137Y43818D03*
G04 Draw part audiocon*
G54D16*
G01X5070Y44715D03*
G54D20*
G01X1150Y44715D03*
G01X4090Y44715D03*
G01X2130Y44715D03*
G54D21*
G01X5070Y46685D03*
G01X1150Y46685D03*
G54D20*
G01X3110Y46685D03*
G04 Draw part joypic*
G54D11*
G01X28838Y37244D03*
G54D12*
G01X29838Y37244D03*
G01X30838Y37244D03*
G01X31838Y37244D03*
G01X32838Y37244D03*
G01X33838Y37244D03*
G01X34838Y37244D03*
G01X35838Y37244D03*
G01X36838Y37244D03*
G01X36838Y40244D03*
G01X35838Y40244D03*
G01X34838Y40244D03*
G01X33838Y40244D03*
G01X32838Y40244D03*
G01X31838Y40244D03*
G01X30838Y40244D03*
G01X29838Y40244D03*
G01X28838Y40244D03*
G04 Draw part st232*
G04 Draw part jrespu1*
G54D22*
G01X24212Y45354D03*
G01X23543Y45354D03*
G04 Draw part jrespu2*
G01X26791Y45374D03*
G01X27460Y45374D03*
G04 Draw part jrespu3*
G01X37086Y45314D03*
G01X36417Y45314D03*
G04 Draw part jrespu4*
G01X39665Y45334D03*
G01X38996Y45334D03*
G04 Draw part audfilter1*
G01X9271Y36870D03*
G01X8602Y36870D03*
G04 Draw part audfilter2*
G01X10846Y39527D03*
G01X10177Y39527D03*
G04 Draw part audfilter3*
G01X9271Y37755D03*
G01X8602Y37755D03*
G04 Draw part audfilter4*
G01X10846Y38641D03*
G01X10177Y38641D03*
G04 Draw part audfilter5*
G01X9271Y39527D03*
G01X8602Y39527D03*
G04 Draw part audfilter6*
G01X9271Y38641D03*
G01X8602Y38641D03*
G04 Draw part audfilter7*
G01X7204Y38503D03*
G01X6535Y38503D03*
G04 Draw part audfilter8*
G01X7204Y37086D03*
G01X6535Y37086D03*
G04 Draw part audfilter9*
G01X10846Y37755D03*
G01X10177Y37755D03*
G04 Draw part audfilter10*
G01X10846Y36870D03*
G01X10177Y36870D03*
G04 Draw part rs232dec1*
G04 Draw part rs232dec2*
G04 Draw part rs232dec3*
G04 Draw part rs232dec4*
G04 Draw part rs232dec5*
G04 Draw part kbpu1*
G01X4370Y26377D03*
G01X5039Y26377D03*
G04 Draw part kbpu2*
G01X5078Y24409D03*
G01X4409Y24409D03*
G04 Draw part kbpu3*
G04 Draw part kbpu4*
G04 Draw part kbpu5*
G04 Draw part kbpu6*
G04 Draw part kbpu7*
G01X5078Y31299D03*
G01X4409Y31299D03*
G04 Draw part kbpu8*
G01X5078Y33188D03*
G01X4409Y33188D03*
G04 Draw part kbpu9*
G04 Draw part kbpu10*
G04 Draw part kbpu11*
G04 Draw part kbpu12*
G04 Draw part confsel*
G54D23*
G01X25000Y20393D03*
G01X25000Y21393D03*
G04 Draw part cfgres1*
G54D24*
G01X24901Y18700D03*
G01X24901Y19370D03*
G04 Draw part cfgres2*
G01X24015Y18700D03*
G01X24015Y19370D03*
G04 Draw part jp5*
G54D23*
G01X42047Y20787D03*
G01X43047Y20787D03*
G04 Draw part cfgres*
G54D22*
G01X42125Y25196D03*
G01X41456Y25196D03*
G04 Draw part picdec*
G54D24*
G01X32775Y38425D03*
G01X32775Y39094D03*
G04 Draw part serdec*
G54D22*
G01X43779Y39566D03*
G01X43110Y39566D03*
G04 Draw part picdec2*
G01X41830Y26377D03*
G01X41161Y26377D03*
G04 Draw part oscdec3*
G54D24*
G01X43503Y8385D03*
G01X43503Y9055D03*
G04 Draw part memdec*
G04 Draw part memdec2*
G04 Draw part fpgacap1*
G01X15748Y31791D03*
G01X15748Y32460D03*
G04 Draw part fpgacap2*
G54D22*
G01X14566Y30216D03*
G01X13897Y30216D03*
G04 Draw part fpgacap3*
G54D24*
G01X16437Y31791D03*
G01X16437Y32460D03*
G04 Draw part fpgacap4*
G01X19192Y31791D03*
G01X19192Y32460D03*
G04 Draw part fpgacap5*
G54D22*
G01X14566Y29527D03*
G01X13897Y29527D03*
G04 Draw part fpgacap6*
G54D24*
G01X19980Y31791D03*
G01X19980Y32460D03*
G04 Draw part fpgacap7*
G01X13976Y31791D03*
G01X13976Y32460D03*
G04 Draw part fpgacap8*
G54D22*
G01X14566Y27460D03*
G01X13897Y27460D03*
G04 Draw part fpgacap9*
G54D24*
G01X20669Y31791D03*
G01X20669Y32460D03*
G04 Draw part fpgacap10*
G01X18503Y31791D03*
G01X18503Y32460D03*
G04 Draw part fpgacap11*
G54D22*
G01X14566Y25688D03*
G01X13897Y25688D03*
G04 Draw part fpgacap12*
G01X14566Y26771D03*
G01X13897Y26771D03*
G04 Draw part fpgacap13*
G54D24*
G01X16338Y23425D03*
G01X16338Y24094D03*
G04 Draw part fpgacap14*
G01X15649Y23425D03*
G01X15649Y24094D03*
G04 Draw part fpgacap15*
G01X13877Y23326D03*
G01X13877Y23996D03*
G04 Draw part fpgacap16*
G54D22*
G01X14566Y25000D03*
G01X13897Y25000D03*
G04 Draw part fpgacap17*
G54D24*
G01X22145Y31791D03*
G01X22145Y32460D03*
G04 Draw part fpgacap18*
G01X18996Y23425D03*
G01X18996Y24094D03*
G04 Draw part fpgacap19*
G01X18307Y23425D03*
G01X18307Y24094D03*
G04 Draw part fpgacap20*
G01X19881Y23425D03*
G01X19881Y24094D03*
G04 Draw part fpgacap21*
G01X20570Y23425D03*
G01X20570Y24094D03*
G04 Draw part fpgacap22*
G54D22*
G01X22440Y27460D03*
G01X21771Y27460D03*
G04 Draw part fpgacap23*
G01X22440Y26082D03*
G01X21771Y26082D03*
G04 Draw part fpgacap24*
G01X22440Y25393D03*
G01X21771Y25393D03*
G04 Draw part fpgacap25*
G01X22637Y23425D03*
G01X21968Y23425D03*
G04 Draw part fpgacap26*
G01X22440Y29625D03*
G01X21771Y29625D03*
G04 Draw part fpgacap27*
G01X22440Y28149D03*
G01X21771Y28149D03*
G04 Draw part fpgacap28*
G01X22440Y30314D03*
G01X21771Y30314D03*
G04 Draw part jtagcon*
G54D18*
G01X12204Y21062D03*
G01X12204Y20062D03*
G01X12204Y19062D03*
G01X12204Y18062D03*
G01X12204Y17062D03*
G01X12204Y16062D03*
G04 Draw part hole1*
G54D25*
G01X42913Y18503D03*
G04 Draw part ps2dec1*
G54D22*
G01X4409Y28897D03*
G01X5078Y28897D03*
G04 Draw part ps2dec2*
G01X4409Y35826D03*
G01X5078Y35826D03*
G04 Draw part ps2dec4*
G54D26*
G01X15708Y12952D03*
G01X14960Y12952D03*
G04 Draw part ps2dec5*
G01X17637Y14212D03*
G01X16889Y14212D03*
G04 Draw part wr_pullup*
G54D22*
G01X35629Y11909D03*
G01X36299Y11909D03*
G04 Draw part vidram*
G04 Draw part SDCMMC*
G54D21*
G01X5787Y21732D03*
G01X5787Y11811D03*
G04 Draw part scpowres*
G54D24*
G01X3779Y22204D03*
G01X3779Y21535D03*
G04 Draw part sdpowtr*
G54D27*
G01X4251Y19566D03*
G01X4651Y18666D03*
G01X3851Y18666D03*
G04 Draw part sdpowres2*
G54D22*
G01X4566Y17440D03*
G01X3897Y17440D03*
G04 Draw part sdcdin_pd*
G54D24*
G01X4606Y21535D03*
G01X4606Y22204D03*
G04 Draw part sdcdinres*
G04 Draw part sdc_led_trres*
G54D22*
G01X4488Y15393D03*
G01X3818Y15393D03*
G04 Draw part dscledres2*
G01X3779Y12795D03*
G01X4448Y12795D03*
G04 Draw part dscledtr*
G54D27*
G01X4133Y13582D03*
G01X3733Y14482D03*
G01X4533Y14482D03*
G04 Draw part scddecoup*
G54D24*
G01X5551Y19291D03*
G01X5551Y19960D03*
G04 Draw part jack*
G54D28*
G01X5590Y3976D03*
G54D29*
G01X3031Y3976D03*
G54D14*
G01X4606Y2007D03*
G04 Draw part powerswitch*
G54D16*
G01X8881Y1771D03*
G01X9881Y1771D03*
G01X10881Y1771D03*
G04 Draw part diode1*
G54D23*
G01X8700Y4212D03*
G01X7700Y4212D03*
G04 Draw part diode2*
G01X8700Y5472D03*
G01X7700Y5472D03*
G04 Draw part powcap*
G54D30*
G01X10866Y5389D03*
G01X10866Y4409D03*
G04 Draw part vregukm*
G04 Draw part regcap1*
G01X1775Y9685D03*
G01X2755Y9685D03*
G04 Draw part regcap2*
G01X4374Y9724D03*
G01X5354Y9724D03*
G04 Draw part regcap4*
G01X6373Y7362D03*
G01X5393Y7362D03*
G04 Draw part vreg3*
G54D31*
G01X11062Y12086D03*
G01X11062Y11181D03*
G01X11062Y10275D03*
G54D32*
G01X8622Y11181D03*
G04 Draw part vreg4*
G54D31*
G01X11102Y8818D03*
G01X11102Y7913D03*
G01X11102Y7007D03*
G54D32*
G01X8661Y7913D03*
G04 Draw part vreg5*
G54D33*
G01X15236Y1771D03*
G01X14330Y1771D03*
G01X13425Y1771D03*
G54D34*
G01X14330Y4212D03*
G04 Draw part vreg6*
G54D30*
G01X13149Y11137D03*
G01X13149Y10157D03*
G04 Draw part srdecoup20*
G01X16535Y831D03*
G01X16535Y1811D03*
G04 Draw part srdecoup21*
G01X13464Y6972D03*
G01X13464Y7952D03*
G04 Draw part cpudec*
G04 Draw part jumperblock*
G54D23*
G01X16456Y38543D03*
G01X15456Y38543D03*
G01X14456Y38543D03*
G01X13456Y38543D03*
G01X12456Y38543D03*
G54D35*
G01X16456Y39543D03*
G01X15456Y39543D03*
G01X14456Y39543D03*
G01X13456Y39543D03*
G01X12456Y39543D03*
G04 Draw part mounthole3*
G54D25*
G01X42913Y1181D03*
G04 Draw part mounthole5*
G01X42913Y41338D03*
G04 Draw part 5vreg*
G04 Draw part led400*
G04 Draw part dinpd*
G04 Draw part cpowpd*
G54D36*
G01X4566Y20669D03*
G01X3818Y20669D03*
G04 Draw part sysram*
G04 Draw part smdcap*
G04 Draw part exp3*
G54D37*
G01X7322Y26811D03*
G54D35*
G01X8322Y26811D03*
G01X9322Y26811D03*
G04 Draw part progclk*
G04 Draw part powcon*
G54D38*
G01X42637Y4527D03*
G01X43637Y4527D03*
G01X44637Y4527D03*
G04 Draw part oscbyp1*
G04 Draw part oscbyp2*
G04 Draw part oscbyp3*
G04 Draw part oscbyp4*
G04 Draw part oscbyp5*
G04 Draw part smefp*
G54D39*
G01X40000Y33897D03*
G01X40000Y34397D03*
G01X40000Y34897D03*
G01X40000Y35397D03*
G01X42125Y35397D03*
G01X42125Y34897D03*
G01X42125Y34397D03*
G01X42125Y33897D03*
G04 Draw part altepr*
G54D40*
G01X34370Y32322D03*
G01X34370Y32822D03*
G01X34370Y33322D03*
G01X34370Y33822D03*
G01X34370Y34322D03*
G01X34370Y34822D03*
G01X34370Y35322D03*
G01X34370Y35822D03*
G01X37992Y35822D03*
G01X37992Y35322D03*
G01X37992Y34822D03*
G01X37992Y34322D03*
G01X37992Y33822D03*
G01X37992Y33322D03*
G01X37992Y32822D03*
G01X37992Y32322D03*
G04 Draw part decap*
G54D24*
G01X35275Y30944D03*
G01X35275Y31614D03*
G04 Draw part xtal*
G54D41*
G01X40393Y32133D03*
G01X42393Y32133D03*
G04 Draw part xcap1*
G54D22*
G01X40393Y32952D03*
G01X41062Y32952D03*
G04 Draw part xcap2*
G01X41732Y32952D03*
G01X42401Y32952D03*
G04 Draw part xcap4*
G54D42*
G01X37992Y37952D03*
G04 Draw part xcap5*
G01X37992Y37401D03*
G04 Draw part xcap6*
G54D24*
G01X22559Y44724D03*
G01X22559Y45393D03*
G04 Draw part xcap7*
G01X35433Y45354D03*
G01X35433Y44685D03*
G04 Draw part video*
G54D17*
G01X10590Y44409D03*
G54D18*
G01X11496Y44409D03*
G01X12401Y44409D03*
G01X13307Y44409D03*
G01X14212Y44409D03*
G01X10157Y43385D03*
G01X11062Y43385D03*
G01X11929Y43385D03*
G01X12834Y43385D03*
G54D19*
G01X17283Y43385D03*
G01X7519Y43385D03*
G54D18*
G01X13740Y43385D03*
G01X10590Y42401D03*
G01X11496Y42401D03*
G01X12401Y42401D03*
G01X13307Y42401D03*
G01X14212Y42401D03*
G04 Draw part dacres1*
G04 Draw part dacres2*
G04 Draw part dacres3*
G04 Draw part dacres4*
G04 Draw part dacres5*
G04 Draw part dacres6*
G04 Draw part dacres7*
G04 Draw part dacres8*
G04 Draw part dacres9*
G04 Draw part dacres10*
G04 Draw part dacres11*
G04 Draw part dacres12*
G04 Draw part dacres14*
G54D24*
G01X1968Y21929D03*
G01X1968Y22598D03*
G04 Draw part dacres15*
G54D25*
G01X7086Y40590D03*
G04 Draw part dacres16*
G01X1181Y1181D03*
G04 Draw part comport*
G54D14*
G01X2244Y43011D03*
G01X2244Y37696D03*
G54D12*
G01X3425Y39074D03*
G01X3425Y41653D03*
G54D15*
G01X1948Y40354D03*
G54D12*
G01X4409Y40629D03*
G04 Draw part foscen*
G54D24*
G01X40472Y8503D03*
G01X40472Y9173D03*
G04 Draw part pullupsca*
G54D22*
G01X42125Y24488D03*
G01X41456Y24488D03*
G04 Draw part ledtran*
G04 Draw part ledres1*
G04 Draw part ledres2*
G04 Draw part ledres3*
G04 Draw part altsdled*
G54D23*
G01X8070Y12795D03*
G01X9070Y12795D03*
G04 Draw part myvia1*
G54D42*
G01X31141Y11299D03*
G04 Draw part myvia2*
G01X30472Y11299D03*
G04 Draw part myvia3*
G01X29763Y11299D03*
G04 Draw part syncres1*
G04 Draw part syncres2*

G04 Draw traces*

G04 Draw Text*
G54D43*

G04 Draw solder mask cutouts*
M00*
M02*
