G04 FreePCB version 1.359*
G04 D:\My_Own_Files\Coding\Z80_Project\V6Z80P Other Files\Daughterboard\FreePCB Project\double_layer\for rev1.1b\CAM\top_silk.grb*
G04 top silk layer *
G04 Scale: 100 percent, Rotated: No, Reflected: No *
%FSLAX24Y24*%
%MOIN*%
%LN top silk *%
G04 Rounded Rectangle Macro, params: W/2, H/2, R *
%AMRNDREC*
21,1,$1+$1,$2+$2-$3-$3,0,0,0*
21,1,$1+$1-$3-$3,$2+$2,0,0,0*
1,1,$3+$3,$1-$3,$2-$3*
1,1,$3+$3,$3-$1,$2-$3*
1,1,$3+$3,$1-$3,$3-$2*
1,1,$3+$3,$3-$1,$3-$2*%
G04 Rectangular Thermal Macro, params: W/2, H/2, T/2 *
%AMRECTHERM*
$4=$3/2*
21,1,$1-$3,$2-$3,0-$1/2-$4,0-$2/2-$4,0*
21,1,$1-$3,$2-$3,0-$1/2-$4,$2/2+$4,0*
21,1,$1-$3,$2-$3,$1/2+$4,0-$2/2-$4,0*
21,1,$1-$3,$2-$3,$1/2+$4,$2/2+$4,0*%
%ADD10C,0.007874*%
%ADD11C,0.010000*%
G90*
G70D02*

G04 Step and Repeat for panelization *

G04 ----------------------- Draw board outline (positive)*
%LPD*%
G54D10*
G01X9251Y13779D02*
G01X9251Y0D01*
G04 end of side 1*
G01X0Y0D01*
G04 end of side 2*
G01X0Y13779D01*
G04 end of side 3*
G01X9251Y13779D01*

G04 -------------- Draw Parts, Pads, Traces, Vias and Text (positive)*
%LPD*%
G04 Draw part dbc1*
G04 draw part outline for part dbc1*
G54D11*
G01X6996Y6581D02*
G01X6996Y681D01*
G01X6996Y681D02*
G01X5996Y681D01*
G01X5996Y681D02*
G01X5996Y6581D01*
G01X5996Y6581D02*
G01X6996Y6581D01*
G04 Draw part dbc2*
G04 draw part outline for part dbc2*
G01X3602Y13177D02*
G01X602Y13177D01*
G01X602Y13177D02*
G01X602Y12177D01*
G01X602Y12177D02*
G01X3602Y12177D01*
G01X3602Y12177D02*
G01X3602Y13177D01*
G04 Draw part dbc3*
G04 draw part outline for part dbc3*
G54D10*
G01X6259Y11535D02*
G01X6259Y8023D01*
G01X6259Y8023D02*
G01X7165Y8023D01*
G01X7165Y8023D02*
G01X7165Y11535D01*
G01X7165Y11535D02*
G01X6259Y11535D01*
G01X6456Y11535D02*
G01X6456Y11338D01*
G01X6456Y11338D02*
G01X6968Y11338D01*
G01X6968Y11338D02*
G01X6968Y11535D01*
G01X6968Y11535D02*
G01X6456Y11535D01*
G04 Draw part dbc4*
G04 draw part outline for part dbc4*
G01X4527Y6023D02*
G01X1015Y6023D01*
G01X1015Y6023D02*
G01X1015Y5118D01*
G01X1015Y5118D02*
G01X4527Y5118D01*
G01X4527Y5118D02*
G01X4527Y6023D01*
G01X4527Y5826D02*
G01X4330Y5826D01*
G01X4330Y5826D02*
G01X4330Y5314D01*
G01X4330Y5314D02*
G01X4527Y5314D01*
G01X4527Y5314D02*
G01X4527Y5826D01*
G04 Draw part dbc5*
G04 draw part outline for part dbc5*
G54D11*
G01X8688Y6581D02*
G01X8688Y681D01*
G01X8688Y681D02*
G01X7688Y681D01*
G01X7688Y681D02*
G01X7688Y6581D01*
G01X7688Y6581D02*
G01X8688Y6581D01*
G04 Draw part dbc6*
G04 draw part outline for part dbc6*
G01X3570Y1618D02*
G01X570Y1618D01*
G01X570Y1618D02*
G01X570Y2618D01*
G01X570Y2618D02*
G01X3570Y2618D01*
G01X3570Y2618D02*
G01X3570Y1618D01*
G04 Draw part dbc7*
G04 draw part outline for part dbc7*
G01X3618Y10854D02*
G01X3618Y7854D01*
G01X3618Y7854D02*
G01X2618Y7854D01*
G01X2618Y7854D02*
G01X2618Y10854D01*
G01X2618Y10854D02*
G01X3618Y10854D01*
G04 Draw part dbc8*
G04 draw part outline for part dbc8*
G54D10*
G01X4566Y9271D02*
G01X4566Y7933D01*
G01X4566Y7933D02*
G01X3858Y7933D01*
G01X3858Y7933D02*
G01X3858Y9271D01*
G01X3858Y9271D02*
G01X4566Y9271D01*
G04 Draw part dbc9*
G04 draw part outline for part dbc9*
G01X7263Y12598D02*
G01X8602Y12598D01*
G01X8602Y12598D02*
G01X8602Y11889D01*
G01X8602Y11889D02*
G01X7263Y11889D01*
G01X7263Y11889D02*
G01X7263Y12598D01*
G04 Draw part dbc10*
G04 draw part outline for part dbc10*
G01X1653Y7893D02*
G01X1653Y9232D01*
G01X1653Y9232D02*
G01X2362Y9232D01*
G01X2362Y9232D02*
G01X2362Y7893D01*
G01X2362Y7893D02*
G01X1653Y7893D01*
G04 Draw part dbc11*
G04 draw part outline for part dbc11*
G01X3602Y2834D02*
G01X2263Y2834D01*
G01X2263Y2834D02*
G01X2263Y3543D01*
G01X2263Y3543D02*
G01X3602Y3543D01*
G01X3602Y3543D02*
G01X3602Y2834D01*
G04 Draw part dbc12*
G04 draw part outline for part dbc12*
G01X4566Y10846D02*
G01X4566Y9507D01*
G01X4566Y9507D02*
G01X3858Y9507D01*
G01X3858Y9507D02*
G01X3858Y10846D01*
G01X3858Y10846D02*
G01X4566Y10846D01*
G04 Draw part dbc13*
G04 draw part outline for part dbc13*
G01X1653Y9429D02*
G01X1653Y10767D01*
G01X1653Y10767D02*
G01X2362Y10767D01*
G01X2362Y10767D02*
G01X2362Y9429D01*
G01X2362Y9429D02*
G01X1653Y9429D01*
G04 Draw part dbc14*
G04 draw part outline for part dbc14*
G01X3759Y10984D02*
G01X2421Y10984D01*
G01X2421Y10984D02*
G01X2421Y11692D01*
G01X2421Y11692D02*
G01X3759Y11692D01*
G01X3759Y11692D02*
G01X3759Y10984D01*
G04 Draw part dbc15*
G04 draw part outline for part dbc15*
G01X4566Y2066D02*
G01X4566Y728D01*
G01X4566Y728D02*
G01X3858Y728D01*
G01X3858Y728D02*
G01X3858Y2066D01*
G01X3858Y2066D02*
G01X4566Y2066D01*
G04 Draw part dbc16*
G04 draw part outline for part dbc16*
G01X649Y3543D02*
G01X1988Y3543D01*
G01X1988Y3543D02*
G01X1988Y2834D01*
G01X1988Y2834D02*
G01X649Y2834D01*
G01X649Y2834D02*
G01X649Y3543D01*
G04 Draw part dbc17*
G04 draw part outline for part dbc17*
G01X3858Y2224D02*
G01X3858Y3562D01*
G01X3858Y3562D02*
G01X4566Y3562D01*
G01X4566Y3562D02*
G01X4566Y2224D01*
G01X4566Y2224D02*
G01X3858Y2224D01*
G04 Draw part powled44*
G04 draw part outline for part powled44*
G01X7263Y7559D02*
G01X8602Y7559D01*
G01X8602Y7559D02*
G01X8602Y6850D01*
G01X8602Y6850D02*
G01X7263Y6850D01*
G01X7263Y6850D02*
G01X7263Y7559D01*
G04 Draw part powled45*
G04 draw part outline for part powled45*
G01X5688Y7559D02*
G01X7027Y7559D01*
G01X7027Y7559D02*
G01X7027Y6850D01*
G01X7027Y6850D02*
G01X5688Y6850D01*
G01X5688Y6850D02*
G01X5688Y7559D01*
G04 Draw part cap77*
G04 draw part outline for part cap77*
G01X1948Y669D02*
G01X610Y669D01*
G01X610Y669D02*
G01X610Y1377D01*
G01X610Y1377D02*
G01X1948Y1377D01*
G01X1948Y1377D02*
G01X1948Y669D01*
G04 Draw part cap78*
G04 draw part outline for part cap78*
G01X2224Y1377D02*
G01X3562Y1377D01*
G01X3562Y1377D02*
G01X3562Y669D01*
G01X3562Y669D02*
G01X2224Y669D01*
G01X2224Y669D02*
G01X2224Y1377D01*

G04 Draw traces*

G04 Draw Text*
G01X372Y7204D02*
G01X748Y7204D01*
G01X372Y7204D02*
G01X372Y7365D01*
G01X372Y7365D02*
G01X390Y7419D01*
G01X390Y7419D02*
G01X408Y7437D01*
G01X408Y7437D02*
G01X443Y7455D01*
G01X443Y7455D02*
G01X497Y7455D01*
G01X497Y7455D02*
G01X533Y7437D01*
G01X533Y7437D02*
G01X551Y7419D01*
G01X551Y7419D02*
G01X569Y7365D01*
G01X569Y7365D02*
G01X569Y7204D01*
G01X604Y7598D02*
G01X604Y7813D01*
G01X604Y7813D02*
G01X569Y7813D01*
G01X569Y7813D02*
G01X533Y7795D01*
G01X533Y7795D02*
G01X515Y7777D01*
G01X515Y7777D02*
G01X497Y7741D01*
G01X497Y7741D02*
G01X497Y7687D01*
G01X497Y7687D02*
G01X515Y7652D01*
G01X515Y7652D02*
G01X551Y7616D01*
G01X551Y7616D02*
G01X604Y7598D01*
G01X604Y7598D02*
G01X640Y7598D01*
G01X640Y7598D02*
G01X694Y7616D01*
G01X694Y7616D02*
G01X730Y7652D01*
G01X730Y7652D02*
G01X748Y7687D01*
G01X748Y7687D02*
G01X748Y7741D01*
G01X748Y7741D02*
G01X730Y7777D01*
G01X730Y7777D02*
G01X694Y7813D01*
G01X497Y7956D02*
G01X748Y7956D01*
G01X569Y7956D02*
G01X515Y8010D01*
G01X515Y8010D02*
G01X497Y8045D01*
G01X497Y8045D02*
G01X497Y8099D01*
G01X497Y8099D02*
G01X515Y8135D01*
G01X515Y8135D02*
G01X569Y8153D01*
G01X569Y8153D02*
G01X748Y8153D01*
G01X372Y8511D02*
G01X748Y8511D01*
G01X551Y8511D02*
G01X515Y8475D01*
G01X515Y8475D02*
G01X497Y8439D01*
G01X497Y8439D02*
G01X497Y8385D01*
G01X497Y8385D02*
G01X515Y8350D01*
G01X515Y8350D02*
G01X551Y8314D01*
G01X551Y8314D02*
G01X604Y8296D01*
G01X604Y8296D02*
G01X640Y8296D01*
G01X640Y8296D02*
G01X694Y8314D01*
G01X694Y8314D02*
G01X730Y8350D01*
G01X730Y8350D02*
G01X748Y8385D01*
G01X748Y8385D02*
G01X748Y8439D01*
G01X748Y8439D02*
G01X730Y8475D01*
G01X730Y8475D02*
G01X694Y8511D01*
G01X497Y8654D02*
G01X676Y8654D01*
G01X676Y8654D02*
G01X730Y8672D01*
G01X730Y8672D02*
G01X748Y8707D01*
G01X748Y8707D02*
G01X748Y8761D01*
G01X748Y8761D02*
G01X730Y8797D01*
G01X730Y8797D02*
G01X676Y8851D01*
G01X497Y8851D02*
G01X748Y8851D01*
G01X372Y8994D02*
G01X748Y8994D01*
G01X497Y9137D02*
G01X676Y9137D01*
G01X676Y9137D02*
G01X730Y9155D01*
G01X730Y9155D02*
G01X748Y9191D01*
G01X748Y9191D02*
G01X748Y9244D01*
G01X748Y9244D02*
G01X730Y9280D01*
G01X730Y9280D02*
G01X676Y9334D01*
G01X497Y9334D02*
G01X748Y9334D01*
G01X497Y9477D02*
G01X748Y9477D01*
G01X569Y9477D02*
G01X515Y9531D01*
G01X515Y9531D02*
G01X497Y9566D01*
G01X497Y9566D02*
G01X497Y9620D01*
G01X497Y9620D02*
G01X515Y9656D01*
G01X515Y9656D02*
G01X569Y9674D01*
G01X569Y9674D02*
G01X748Y9674D01*
G01X569Y9674D02*
G01X515Y9727D01*
G01X515Y9727D02*
G01X497Y9763D01*
G01X497Y9763D02*
G01X497Y9817D01*
G01X497Y9817D02*
G01X515Y9853D01*
G01X515Y9853D02*
G01X569Y9871D01*
G01X569Y9871D02*
G01X748Y9871D01*
G01X443Y10300D02*
G01X425Y10336D01*
G01X425Y10336D02*
G01X372Y10390D01*
G01X372Y10390D02*
G01X748Y10390D01*
G01X712Y10551D02*
G01X730Y10533D01*
G01X730Y10533D02*
G01X748Y10551D01*
G01X748Y10551D02*
G01X730Y10569D01*
G01X730Y10569D02*
G01X712Y10551D01*
G01X443Y10712D02*
G01X425Y10748D01*
G01X425Y10748D02*
G01X372Y10801D01*
G01X372Y10801D02*
G01X748Y10801D01*
G01X372Y10944D02*
G01X748Y10944D01*
G01X551Y10944D02*
G01X515Y10980D01*
G01X515Y10980D02*
G01X497Y11016D01*
G01X497Y11016D02*
G01X497Y11070D01*
G01X497Y11070D02*
G01X515Y11105D01*
G01X515Y11105D02*
G01X551Y11141D01*
G01X551Y11141D02*
G01X604Y11159D01*
G01X604Y11159D02*
G01X640Y11159D01*
G01X640Y11159D02*
G01X694Y11141D01*
G01X694Y11141D02*
G01X730Y11105D01*
G01X730Y11105D02*
G01X748Y11070D01*
G01X748Y11070D02*
G01X748Y11016D01*
G01X748Y11016D02*
G01X730Y10980D01*
G01X730Y10980D02*
G01X694Y10944D01*
M00*
M02*
