G04 FreePCB version 1.353*
G04 C:\Program Files\FreePCB\projects\V6Z80P_FIX\CAM\bottom_solder_mask.grb*
G04 bottom solder mask layer *
G04 Scale: 100 percent, Rotated: No, Reflected: No *
%FSLAX24Y24*%
%MOIN*%
%LN bottom solder mask *%
G04 Rounded Rectangle Macro, params: W/2, H/2, R *
%AMRNDREC*
21,1,$1+$1,$2+$2-$3-$3,0,0,0*
21,1,$1+$1-$3-$3,$2+$2,0,0,0*
1,1,$3+$3,$1-$3,$2-$3*
1,1,$3+$3,$3-$1,$2-$3*
1,1,$3+$3,$1-$3,$3-$2*
1,1,$3+$3,$3-$1,$3-$2*%
G04 Rectangular Thermal Macro, params: W/2, H/2, T/2 *
%AMRECTHERM*
$4=$3/2*
21,1,$1-$3,$2-$3,0-$1/2-$4,0-$2/2-$4,0*
21,1,$1-$3,$2-$3,0-$1/2-$4,$2/2+$4,0*
21,1,$1-$3,$2-$3,$1/2+$4,0-$2/2-$4,0*
21,1,$1-$3,$2-$3,$1/2+$4,$2/2+$4,0*%
%ADD10C,0.007874*%
%ADD11R,0.074803X0.074803*%
%ADD12C,0.074803*%
%ADD13C,0.075748*%
%ADD14C,0.153543*%
%ADD15C,0.161417*%
%ADD16C,0.094488*%
%ADD17C,0.082677*%
%ADD18R,0.078740X0.078740*%
%ADD19C,0.078740*%
%ADD20C,0.212598*%
%ADD21C,0.093748*%
%ADD22R,0.059055X0.062992*%
%ADD23C,0.098425*%
%ADD24C,0.086614*%
%ADD25R,0.062992X0.059055*%
%ADD26C,0.141732*%
%ADD27R,0.066929X0.078740*%
%ADD28R,0.055748X0.063748*%
%ADD29C,0.204724*%
%ADD30C,0.192913*%
%ADD31C,0.080748*%
%ADD32R,0.102362X0.062992*%
%ADD33R,0.102362X0.157480*%
%ADD34R,0.062992X0.102362*%
%ADD35R,0.157480X0.102362*%
%ADD36C,0.085748*%
%ADD37R,0.066929X0.070866*%
%ADD38C,0.015748*%
G90*
G70D02*

G04 Step and Repeat for panelization *

G04 ----------------------- Draw board outline (positive)*
%LPD*%
G54D10*
G01X-196Y-157D02*
G01X45393Y-157D01*
G04 end of side 1*
G01X45393Y47007D01*
G04 end of side 2*
G01X-196Y47007D01*
G04 end of side 3*
G01X-196Y-157D01*

G04 -------------- Draw Parts, Pads, Traces, Vias and Text (positive)*
%LPD*%
G04 Draw part spartan_ii*
G04 Draw part z80*
G04 Draw part spr_ram*
G04 Draw part cfg_pic*
G54D11*
G01X39960Y30413D03*
G54D12*
G01X39960Y29413D03*
G01X39960Y28413D03*
G01X39960Y27413D03*
G01X39960Y26413D03*
G01X39960Y25413D03*
G01X39960Y24413D03*
G01X39960Y23413D03*
G01X39960Y22413D03*
G01X42960Y22413D03*
G01X42960Y23413D03*
G01X42960Y24413D03*
G01X42960Y25413D03*
G01X42960Y26413D03*
G01X42960Y27413D03*
G01X42960Y28413D03*
G01X42960Y29413D03*
G01X42960Y30413D03*
G04 Draw part spi_eeprom*
G54D11*
G01X39960Y35826D03*
G54D12*
G01X39960Y34826D03*
G01X39960Y33826D03*
G01X39960Y32826D03*
G01X42960Y32826D03*
G01X42960Y33826D03*
G01X42960Y34826D03*
G01X42960Y35826D03*
G04 Draw part osc*
G54D11*
G01X39929Y19503D03*
G54D13*
G01X39929Y16503D03*
G01X42929Y16503D03*
G01X42929Y19503D03*
G04 Draw part hct08*
G04 Draw part res1*
G04 Draw part res3*
G04 Draw part res4*
G04 Draw part res5*
G04 Draw part res6*
G04 Draw part res10*
G04 Draw part vidcon*
G54D14*
G01X18503Y44685D03*
G01X13188Y44685D03*
G54D12*
G01X16397Y43503D03*
G01X15295Y43503D03*
G01X14566Y43503D03*
G01X17145Y43503D03*
G54D15*
G01X15846Y44980D03*
G54D12*
G01X17145Y42519D03*
G01X14547Y42519D03*
G01X16122Y42519D03*
G01X15334Y42519D03*
G04 Draw part kbcon*
G54D14*
G01X2460Y34547D03*
G01X2460Y29232D03*
G54D12*
G01X3641Y32440D03*
G01X3641Y31338D03*
G01X3641Y30610D03*
G01X3641Y33169D03*
G54D15*
G01X2165Y31889D03*
G54D16*
G01X4625Y33169D03*
G01X4625Y30610D03*
G04 Draw part mousecon*
G54D14*
G01X2460Y41437D03*
G01X2460Y36122D03*
G54D12*
G01X3641Y39330D03*
G01X3641Y38228D03*
G01X3641Y37500D03*
G01X3641Y40059D03*
G54D15*
G01X2165Y38779D03*
G54D16*
G01X4625Y40059D03*
G01X4625Y37500D03*
G04 Draw part rs232con*
G54D14*
G01X11614Y44685D03*
G01X6299Y44685D03*
G54D17*
G01X7677Y43503D03*
G01X10236Y43503D03*
G54D15*
G01X8956Y44980D03*
G54D16*
G01X10236Y42519D03*
G01X7677Y42519D03*
G04 Draw part joy1con*
G54D18*
G01X40255Y42322D03*
G54D19*
G01X39165Y42322D03*
G01X38075Y42322D03*
G01X36985Y42322D03*
G01X35895Y42322D03*
G01X39715Y43442D03*
G01X38625Y43442D03*
G01X37535Y43442D03*
G01X36445Y43442D03*
G54D20*
G01X33169Y42834D03*
G01X43011Y42834D03*
G04 Draw part joy2con*
G54D18*
G01X27460Y42322D03*
G54D19*
G01X26370Y42322D03*
G01X25280Y42322D03*
G01X24190Y42322D03*
G01X23100Y42322D03*
G01X26920Y43442D03*
G01X25830Y43442D03*
G01X24740Y43442D03*
G01X23650Y43442D03*
G54D20*
G01X20374Y42834D03*
G01X30216Y42834D03*
G04 Draw part audiocon*
G54D16*
G01X4814Y43790D03*
G54D21*
G01X894Y43790D03*
G01X3834Y43790D03*
G01X1874Y43790D03*
G54D16*
G01X4814Y45760D03*
G01X894Y45760D03*
G01X2854Y45760D03*
G04 Draw part joypic*
G54D11*
G01X35334Y37598D03*
G54D12*
G01X36334Y37598D03*
G01X37334Y37598D03*
G01X38334Y37598D03*
G01X39334Y37598D03*
G01X40334Y37598D03*
G01X41334Y37598D03*
G01X42334Y37598D03*
G01X43334Y37598D03*
G01X43334Y40598D03*
G01X42334Y40598D03*
G01X41334Y40598D03*
G01X40334Y40598D03*
G01X39334Y40598D03*
G01X38334Y40598D03*
G01X37334Y40598D03*
G01X36334Y40598D03*
G01X35334Y40598D03*
G04 Draw part st232*
G04 Draw part jrespu1*
G54D22*
G01X23622Y44389D03*
G01X24291Y44389D03*
G04 Draw part jrespu2*
G01X26870Y44389D03*
G01X27539Y44389D03*
G04 Draw part jrespu3*
G01X36417Y44389D03*
G01X35748Y44389D03*
G04 Draw part jrespu4*
G01X39665Y44389D03*
G01X38996Y44389D03*
G04 Draw part coldac1*
G04 Draw part coldac2*
G04 Draw part coldac3*
G04 Draw part coldac4*
G04 Draw part coldac5*
G04 Draw part coldac6*
G04 Draw part coldac7*
G04 Draw part coldac8*
G04 Draw part coldac9*
G04 Draw part coldac10*
G04 Draw part coldac11*
G04 Draw part coldac12*
G04 Draw part coldac13*
G04 Draw part audfilter1*
G01X8562Y38484D03*
G01X7893Y38484D03*
G04 Draw part audfilter2*
G01X10137Y41141D03*
G01X9468Y41141D03*
G04 Draw part audfilter3*
G01X8562Y39370D03*
G01X7893Y39370D03*
G04 Draw part audfilter4*
G01X10137Y40255D03*
G01X9468Y40255D03*
G04 Draw part audfilter5*
G01X8562Y41141D03*
G01X7893Y41141D03*
G04 Draw part audfilter6*
G01X8562Y40255D03*
G01X7893Y40255D03*
G04 Draw part audfilter7*
G01X6692Y41141D03*
G01X6023Y41141D03*
G04 Draw part audfilter8*
G01X6692Y39468D03*
G01X6023Y39468D03*
G04 Draw part audfilter9*
G01X10137Y39370D03*
G01X9468Y39370D03*
G04 Draw part audfilter10*
G01X10137Y38484D03*
G01X9468Y38484D03*
G04 Draw part rs232dec1*
G04 Draw part rs232dec2*
G04 Draw part rs232dec3*
G04 Draw part rs232dec4*
G04 Draw part rs232dec5*
G04 Draw part kbpu1*
G01X5610Y31397D03*
G01X6279Y31397D03*
G04 Draw part kbpu2*
G01X6299Y30610D03*
G01X5629Y30610D03*
G04 Draw part kbpu3*
G04 Draw part kbpu4*
G04 Draw part kbpu5*
G04 Draw part kbpu6*
G04 Draw part kbpu7*
G01X6397Y37500D03*
G01X5728Y37500D03*
G04 Draw part kbpu8*
G01X6397Y38287D03*
G01X5728Y38287D03*
G04 Draw part kbpu9*
G04 Draw part kbpu10*
G04 Draw part kbpu11*
G04 Draw part kbpu12*
G04 Draw part power*
G54D23*
G01X43996Y9153D03*
G01X42996Y9153D03*
G01X41996Y9153D03*
G01X40996Y9153D03*
G04 Draw part confsel*
G54D24*
G01X24901Y20275D03*
G01X24901Y21275D03*
G04 Draw part cfgres1*
G54D25*
G01X24901Y18700D03*
G01X24901Y19370D03*
G04 Draw part cfgres2*
G01X24015Y18700D03*
G01X24015Y19370D03*
G04 Draw part jp5*
G54D24*
G01X38385Y34566D03*
G01X38385Y35566D03*
G04 Draw part cfgres*
G04 Draw part picdec*
G54D25*
G01X39271Y38779D03*
G01X39271Y39448D03*
G04 Draw part serdec*
G01X41437Y33858D03*
G01X41437Y34527D03*
G04 Draw part picdec2*
G54D22*
G01X41830Y26377D03*
G01X41161Y26377D03*
G04 Draw part oscdec3*
G54D25*
G01X42913Y17716D03*
G01X42913Y18385D03*
G04 Draw part icdec1*
G04 Draw part memdec*
G04 Draw part memdec2*
G04 Draw part fpgacap1*
G01X15748Y31791D03*
G01X15748Y32460D03*
G04 Draw part fpgacap2*
G54D22*
G01X14566Y30216D03*
G01X13897Y30216D03*
G04 Draw part fpgacap3*
G54D25*
G01X16437Y31791D03*
G01X16437Y32460D03*
G04 Draw part fpgacap4*
G01X19192Y31791D03*
G01X19192Y32460D03*
G04 Draw part fpgacap5*
G54D22*
G01X14566Y29527D03*
G01X13897Y29527D03*
G04 Draw part fpgacap6*
G54D25*
G01X19980Y31791D03*
G01X19980Y32460D03*
G04 Draw part fpgacap7*
G01X13976Y31791D03*
G01X13976Y32460D03*
G04 Draw part fpgacap8*
G54D22*
G01X14566Y27460D03*
G01X13897Y27460D03*
G04 Draw part fpgacap9*
G54D25*
G01X20669Y31791D03*
G01X20669Y32460D03*
G04 Draw part fpgacap10*
G01X18503Y31791D03*
G01X18503Y32460D03*
G04 Draw part fpgacap11*
G54D22*
G01X14566Y25688D03*
G01X13897Y25688D03*
G04 Draw part fpgacap12*
G01X14566Y26771D03*
G01X13897Y26771D03*
G04 Draw part fpgacap13*
G54D25*
G01X16338Y23425D03*
G01X16338Y24094D03*
G04 Draw part fpgacap14*
G01X15649Y23425D03*
G01X15649Y24094D03*
G04 Draw part fpgacap15*
G01X13877Y23326D03*
G01X13877Y23996D03*
G04 Draw part fpgacap16*
G54D22*
G01X14566Y25000D03*
G01X13897Y25000D03*
G04 Draw part fpgacap17*
G54D25*
G01X22145Y31791D03*
G01X22145Y32460D03*
G04 Draw part fpgacap18*
G01X18996Y23425D03*
G01X18996Y24094D03*
G04 Draw part fpgacap19*
G01X18307Y23425D03*
G01X18307Y24094D03*
G04 Draw part fpgacap20*
G01X19881Y23425D03*
G01X19881Y24094D03*
G04 Draw part fpgacap21*
G01X20570Y23425D03*
G01X20570Y24094D03*
G04 Draw part fpgacap22*
G54D22*
G01X22440Y27460D03*
G01X21771Y27460D03*
G04 Draw part fpgacap23*
G01X22440Y26082D03*
G01X21771Y26082D03*
G04 Draw part fpgacap24*
G01X22440Y25393D03*
G01X21771Y25393D03*
G04 Draw part fpgacap25*
G01X22637Y23425D03*
G01X21968Y23425D03*
G04 Draw part fpgacap26*
G01X22440Y29625D03*
G01X21771Y29625D03*
G04 Draw part fpgacap27*
G01X22440Y28149D03*
G01X21771Y28149D03*
G04 Draw part fpgacap28*
G01X22440Y30314D03*
G01X21771Y30314D03*
G04 Draw part jtagcon*
G54D19*
G01X12204Y21062D03*
G01X12204Y20062D03*
G01X12204Y19062D03*
G01X12204Y18062D03*
G01X12204Y17062D03*
G01X12204Y16062D03*
G04 Draw part hole1*
G54D26*
G01X31496Y39763D03*
G04 Draw part ps2dec1*
G54D22*
G01X2657Y33267D03*
G01X1988Y33267D03*
G04 Draw part ps2dec2*
G01X2755Y40059D03*
G01X2086Y40059D03*
G04 Draw part ps2dec4*
G54D27*
G01X15708Y12952D03*
G01X14960Y12952D03*
G04 Draw part ps2dec5*
G01X17244Y14212D03*
G01X16496Y14212D03*
G04 Draw part wr_pullup*
G54D22*
G01X35629Y11909D03*
G01X36299Y11909D03*
G04 Draw part selres*
G04 Draw part vidram*
G04 Draw part SDCMMC*
G54D17*
G01X5826Y25905D03*
G01X5826Y15984D03*
G04 Draw part scpowres*
G54D25*
G01X4173Y24881D03*
G01X4173Y24212D03*
G04 Draw part sdpowtr*
G54D28*
G01X4488Y21968D03*
G01X4888Y21068D03*
G01X4088Y21068D03*
G04 Draw part sdpowres2*
G54D22*
G01X4803Y19842D03*
G01X4133Y19842D03*
G04 Draw part sdcdin_pd*
G54D25*
G01X5000Y24212D03*
G01X5000Y24881D03*
G04 Draw part sdcdinres*
G04 Draw part sdc_led_trres*
G54D22*
G01X4842Y17952D03*
G01X4173Y17952D03*
G04 Draw part dscledres2*
G01X4803Y14685D03*
G01X5472Y14685D03*
G04 Draw part dscledtr*
G54D28*
G01X4488Y15944D03*
G01X4088Y16844D03*
G01X4888Y16844D03*
G04 Draw part scddecoup*
G54D25*
G01X5787Y21692D03*
G01X5787Y22362D03*
G04 Draw part jack*
G54D29*
G01X5590Y3976D03*
G54D30*
G01X3031Y3976D03*
G54D14*
G01X4606Y2007D03*
G04 Draw part powerswitch*
G54D16*
G01X8881Y1771D03*
G01X9881Y1771D03*
G01X10881Y1771D03*
G04 Draw part diode1*
G54D24*
G01X8700Y4212D03*
G01X7700Y4212D03*
G04 Draw part diode2*
G01X8700Y5472D03*
G01X7700Y5472D03*
G04 Draw part powcap*
G54D31*
G01X10866Y5389D03*
G01X10866Y4409D03*
G04 Draw part vregukm*
G04 Draw part regcap1*
G01X1815Y10748D03*
G01X2795Y10748D03*
G04 Draw part regcap2*
G01X4020Y12519D03*
G01X5000Y12519D03*
G04 Draw part regcap4*
G01X6373Y7362D03*
G01X5393Y7362D03*
G04 Draw part vreg3*
G54D32*
G01X11062Y12086D03*
G01X11062Y11181D03*
G01X11062Y10275D03*
G54D33*
G01X8622Y11181D03*
G04 Draw part vreg4*
G54D32*
G01X11102Y8818D03*
G01X11102Y7913D03*
G01X11102Y7007D03*
G54D33*
G01X8661Y7913D03*
G04 Draw part vreg5*
G54D34*
G01X15236Y1771D03*
G01X14330Y1771D03*
G01X13425Y1771D03*
G54D35*
G01X14330Y4212D03*
G04 Draw part vreg6*
G54D31*
G01X13149Y11137D03*
G01X13149Y10157D03*
G04 Draw part srdecoup20*
G01X16535Y831D03*
G01X16535Y1811D03*
G04 Draw part srdecoup21*
G01X13464Y6972D03*
G01X13464Y7952D03*
G04 Draw part cpudec*
G04 Draw part jumperblock*
G54D24*
G01X13307Y40551D03*
G01X13307Y39551D03*
G01X13307Y38551D03*
G01X13307Y37551D03*
G01X13307Y36551D03*
G54D36*
G01X12307Y40551D03*
G01X12307Y39551D03*
G01X12307Y38551D03*
G01X12307Y37551D03*
G01X12307Y36551D03*
G04 Draw part mounthole3*
G54D26*
G01X43307Y984D03*
G04 Draw part mounthole5*
G01X1574Y984D03*
G04 Draw part mounthole6*
G01X17322Y37401D03*
G04 Draw part ledres34*
G04 Draw part led100*
G04 Draw part led101*
G04 Draw part 5vreg*
G04 Draw part led400*
G04 Draw part dinpd*
G54D25*
G01X39055Y27716D03*
G01X39055Y28385D03*
G04 Draw part cpowpd*
G54D37*
G01X4803Y23070D03*
G01X4055Y23070D03*
G04 Draw part sysram*
G04 Draw part smdcap*
G04 Draw part spare_pin*

G04 Draw traces*

G04 Draw Text*
G54D38*

G04 Draw solder mask cutouts*
M00*
M02*
