;Holesize 1 =   27.0 PLATED MILS
;Holesize 2 =   23.0 PLATED MILS
;Holesize 3 =   78.0 PLATED MILS
;Holesize 4 =   31.0 PLATED MILS
;Holesize 5 =   98.0 PLATED MILS
;Holesize 6 =   35.0 PLATED MILS
;Holesize 7 =  118.0 PLATED MILS
;Holesize 8 =   51.0 PLATED MILS
;Holesize 9 =   66.0 PLATED MILS
;Holesize 10 =  114.0 PLATED MILS
;Holesize 11 =   94.0 PLATED MILS
;Holesize 12 =   90.0 PLATED MILS
;Holesize 13 =   28.0 PLATED MILS
;Holesize 14 =   16.0 PLATED MILS
M48
INCH
T01C0.027
T02C0.023
T03C0.078
T04C0.031
T05C0.098
T06C0.035
T07C0.118
T08C0.051
T09C0.066
T10C0.114
T11C0.094
T12C0.090
T13C0.028
T14C0.016
%
G05
G90
T01
X039960Y030413
X039960Y029413
X039960Y028413
X039960Y027413
X039960Y026413
X039960Y025413
X039960Y024413
X039960Y023413
X039960Y022413
X042960Y022413
X042960Y023413
X042960Y024413
X042960Y025413
X042960Y026413
X042960Y027413
X042960Y028413
X042960Y029413
X042960Y030413
X039960Y035826
X039960Y034826
X039960Y033826
X039960Y032826
X042960Y032826
X042960Y033826
X042960Y034826
X042960Y035826
X035334Y037598
X036334Y037598
X037334Y037598
X038334Y037598
X039334Y037598
X040334Y037598
X041334Y037598
X042334Y037598
X043334Y037598
X043334Y040598
X042334Y040598
X041334Y040598
X040334Y040598
X039334Y040598
X038334Y040598
X037334Y040598
X036334Y040598
X035334Y040598
T02
X039929Y019503
X039929Y016503
X042929Y016503
X042929Y019503
T03
X018503Y044685
X013188Y044685
X002460Y034547
X002460Y029232
X002460Y041437
X002460Y036122
X011614Y044685
X006299Y044685
T04
X016397Y043503
X015295Y043503
X014566Y043503
X017145Y043503
X017145Y042519
X014547Y042519
X016122Y042519
X015334Y042519
X003641Y032440
X003641Y031338
X003641Y030610
X003641Y033169
X003641Y039330
X003641Y038228
X003641Y037500
X003641Y040059
X040255Y042322
X039165Y042322
X038075Y042322
X036985Y042322
X035895Y042322
X039715Y043442
X038625Y043442
X037535Y043442
X036445Y043442
X027460Y042322
X026370Y042322
X025280Y042322
X024190Y042322
X023100Y042322
X026920Y043442
X025830Y043442
X024740Y043442
X023650Y043442
X002854Y045760
T05
X015846Y044980
X002165Y031889
X002165Y038779
X008956Y044980
X031496Y039763
X043307Y000984
X001574Y000984
X017322Y037401
T06
X004625Y033169
X004625Y030610
X004625Y040059
X004625Y037500
X007677Y043503
X010236Y043503
X010236Y042519
X007677Y042519
X043996Y009153
X042996Y009153
X041996Y009153
X040996Y009153
X024901Y020275
X024901Y021275
X038385Y034566
X038385Y035566
X012204Y021062
X012204Y020062
X012204Y019062
X012204Y018062
X012204Y017062
X012204Y016062
X008881Y001771
X009881Y001771
X010881Y001771
X008700Y004212
X007700Y004212
X008700Y005472
X007700Y005472
X013307Y040551
X013307Y039551
X013307Y038551
X013307Y037551
X013307Y036551
X012307Y040551
X012307Y039551
X012307Y038551
X012307Y037551
X012307Y036551
T07
X033169Y042834
X043011Y042834
X020374Y042834
X030216Y042834
T08
X004814Y043790
X000894Y043790
X003834Y043790
X001874Y043790
X004814Y045760
X000894Y045760
T09
X005826Y025905
X005826Y015984
T10
X005590Y003976
T11
X003031Y003976
T12
X004606Y002007
T13
X010866Y005389
X010866Y004409
X001815Y010748
X002795Y010748
X004020Y012519
X005000Y012519
X006373Y007362
X005393Y007362
X013149Y011137
X013149Y010157
X016535Y000831
X016535Y001811
X013464Y006972
X013464Y007952
T14
X003622Y014842
X025531Y028405
X025531Y027637
X028110Y010885
X035452Y009822
X024921Y033976
X031496Y033976
X026889Y009055
X033877Y007834
X026003Y008720
X033562Y008720
X005452Y019035
X005787Y020905
X011535Y020590
X010905Y033110
X026377Y009803
X034704Y007992
X025885Y009409
X034704Y008700
X025393Y010177
X034940Y009488
X010826Y038996
X013385Y035433
X030000Y035452
X013858Y037047
X028838Y036358
X012244Y035413
X030452Y035787
X025413Y033543
X031850Y033562
X024015Y020748
X015590Y034645
X016240Y033051
X019133Y033011
X020866Y034645
X020000Y032992
X011496Y030413
X013208Y026889
X011496Y027381
X013208Y025708
X011456Y025098
X016318Y022913
X019035Y022933
X015314Y021062
X018346Y021023
X019862Y022933
X020728Y021122
X023169Y026082
X024960Y025275
X023267Y027421
X024940Y027618
X023267Y029625
X024921Y030570
X013267Y029527
X018622Y034783
X010925Y033779
X032322Y015019
X034311Y015019
X038228Y011181
X042992Y015649
X033425Y021062
X032992Y022047
X017795Y031870
X022244Y026791
X022007Y024665
X014389Y028208
X014389Y028720
X015748Y031102
X018503Y031102
X019980Y031102
X017185Y031889
X015177Y030216
X015177Y027460
X015196Y025688
X016338Y024685
X018996Y024685
X020570Y024665
X021161Y025393
X021161Y027460
X021141Y029625
X021161Y030925
X006988Y035334
X007677Y033070
X007677Y031299
X007677Y029724
X008956Y035137
X016988Y023759
X017657Y023759
X002460Y027814
X004527Y036122
X004527Y034547
X033228Y023877
X034488Y023877
X034173Y030039
X033444Y030708
X004763Y011200
X000669Y016338
X000669Y025629
X006043Y019921
X005964Y023031
X035905Y023661
X031062Y011200
X030531Y011200
X030019Y011200
X006692Y012893
X018740Y012342
X039448Y009763
X043503Y026870
X043503Y025787
X022381Y010098
X033681Y004507
X005748Y025019
X025807Y033188
X032283Y033188
X041338Y020866
X022874Y010078
X034744Y004547
X024389Y010295
X034744Y005275
X034350Y011909
X021141Y010118
X023385Y010059
X035275Y005275
X007657Y026692
X010826Y038208
X035433Y008543
X019389Y010866
X018956Y006220
X021870Y010118
X036062Y004901
X005688Y017952
X005314Y013740
X025866Y007460
X036535Y009507
X029488Y036141
X012814Y035984
X026377Y007834
X036515Y010078
X043897Y019488
X034350Y021062
X043897Y020177
X033464Y015059
X034291Y019212
X015708Y033031
X018503Y032992
X020669Y032992
X013976Y033110
X022165Y033011
X013267Y030216
X013208Y027440
X013208Y025059
X013208Y023326
X015649Y022913
X018307Y022933
X020570Y022933
X023326Y022893
X023169Y025393
X023208Y028129
X023248Y030314
X034429Y025688
X044291Y030964
X034488Y028484
X043818Y030984
X035826Y022933
X035826Y022145
X026889Y007086
X036594Y008779
X037185Y011122
X032480Y011122
M30
