G04 FreePCB version 1.353*
G04 C:\Program Files\FreePCB\projects\V6Z80P_FIX\CAM\top_silk.grb*
G04 top silk layer *
G04 Scale: 100 percent, Rotated: No, Reflected: No *
%FSLAX24Y24*%
%MOIN*%
%LN top silk *%
G04 Rounded Rectangle Macro, params: W/2, H/2, R *
%AMRNDREC*
21,1,$1+$1,$2+$2-$3-$3,0,0,0*
21,1,$1+$1-$3-$3,$2+$2,0,0,0*
1,1,$3+$3,$1-$3,$2-$3*
1,1,$3+$3,$3-$1,$2-$3*
1,1,$3+$3,$1-$3,$3-$2*
1,1,$3+$3,$3-$1,$3-$2*%
G04 Rectangular Thermal Macro, params: W/2, H/2, T/2 *
%AMRECTHERM*
$4=$3/2*
21,1,$1-$3,$2-$3,0-$1/2-$4,0-$2/2-$4,0*
21,1,$1-$3,$2-$3,0-$1/2-$4,$2/2+$4,0*
21,1,$1-$3,$2-$3,$1/2+$4,0-$2/2-$4,0*
21,1,$1-$3,$2-$3,$1/2+$4,$2/2+$4,0*%
%ADD10C,0.007874*%
%ADD11C,0.010000*%
G90*
G70D02*

G04 Step and Repeat for panelization *

G04 ----------------------- Draw board outline (positive)*
%LPD*%
G54D10*
G01X-196Y-157D02*
G01X45393Y-157D01*
G04 end of side 1*
G01X45393Y47007D01*
G04 end of side 2*
G01X-196Y47007D01*
G04 end of side 3*
G01X-196Y-157D01*

G04 -------------- Draw Parts, Pads, Traces, Vias and Text (positive)*
%LPD*%
G04 Draw part spartan_ii*
G04 draw part outline for part spartan_ii*
G54D10*
G01X13031Y22263D02*
G01X23858Y22263D01*
G01X23858Y22263D02*
G01X23858Y33562D01*
G01X23858Y33562D02*
G01X12559Y33562D01*
G01X12559Y33562D02*
G01X12559Y22736D01*
G01X12559Y22736D02*
G01X13031Y22263D01*
G04 draw reference designator for part spartan_ii*
G01X16369Y27854D02*
G01X16391Y27809D01*
G01X16300Y27877D02*
G01X16369Y27854D01*
G01X16232Y27877D02*
G01X16300Y27877D01*
G01X16232Y27877D02*
G01X16164Y27854D01*
G01X16164Y27854D02*
G01X16141Y27809D01*
G01X16141Y27809D02*
G01X16164Y27763D01*
G01X16164Y27763D02*
G01X16209Y27740D01*
G01X16209Y27740D02*
G01X16323Y27718D01*
G01X16323Y27718D02*
G01X16369Y27695D01*
G01X16369Y27695D02*
G01X16391Y27649D01*
G01X16391Y27649D02*
G01X16391Y27627D01*
G01X16391Y27627D02*
G01X16369Y27581D01*
G01X16369Y27581D02*
G01X16300Y27559D01*
G01X16232Y27559D02*
G01X16300Y27559D01*
G01X16164Y27581D02*
G01X16232Y27559D01*
G01X16141Y27627D02*
G01X16164Y27581D01*
G01X16573Y27877D02*
G01X16573Y27399D01*
G01X16619Y27854D02*
G01X16573Y27809D01*
G01X16664Y27877D02*
G01X16619Y27854D01*
G01X16732Y27877D02*
G01X16664Y27877D01*
G01X16732Y27877D02*
G01X16778Y27854D01*
G01X16778Y27854D02*
G01X16823Y27809D01*
G01X16823Y27809D02*
G01X16846Y27740D01*
G01X16846Y27740D02*
G01X16846Y27695D01*
G01X16846Y27695D02*
G01X16823Y27627D01*
G01X16823Y27627D02*
G01X16778Y27581D01*
G01X16778Y27581D02*
G01X16732Y27559D01*
G01X16664Y27559D02*
G01X16732Y27559D01*
G01X16619Y27581D02*
G01X16664Y27559D01*
G01X16573Y27627D02*
G01X16619Y27581D01*
G01X17300Y27877D02*
G01X17300Y27559D01*
G01X17255Y27854D02*
G01X17300Y27809D01*
G01X17209Y27877D02*
G01X17255Y27854D01*
G01X17141Y27877D02*
G01X17209Y27877D01*
G01X17141Y27877D02*
G01X17096Y27854D01*
G01X17096Y27854D02*
G01X17050Y27809D01*
G01X17050Y27809D02*
G01X17028Y27740D01*
G01X17028Y27740D02*
G01X17028Y27695D01*
G01X17028Y27695D02*
G01X17050Y27627D01*
G01X17050Y27627D02*
G01X17096Y27581D01*
G01X17096Y27581D02*
G01X17141Y27559D01*
G01X17209Y27559D02*
G01X17141Y27559D01*
G01X17255Y27581D02*
G01X17209Y27559D01*
G01X17300Y27627D02*
G01X17255Y27581D01*
G01X17482Y27877D02*
G01X17482Y27559D01*
G01X17505Y27809D02*
G01X17482Y27740D01*
G01X17550Y27854D02*
G01X17505Y27809D01*
G01X17596Y27877D02*
G01X17550Y27854D01*
G01X17664Y27877D02*
G01X17596Y27877D01*
G01X17914Y28036D02*
G01X17914Y27649D01*
G01X17914Y27649D02*
G01X17937Y27581D01*
G01X17937Y27581D02*
G01X17982Y27559D01*
G01X18028Y27559D02*
G01X17982Y27559D01*
G01X18005Y27877D02*
G01X17846Y27877D01*
G01X18482Y27877D02*
G01X18482Y27559D01*
G01X18437Y27854D02*
G01X18482Y27809D01*
G01X18391Y27877D02*
G01X18437Y27854D01*
G01X18323Y27877D02*
G01X18391Y27877D01*
G01X18323Y27877D02*
G01X18278Y27854D01*
G01X18278Y27854D02*
G01X18232Y27809D01*
G01X18232Y27809D02*
G01X18209Y27740D01*
G01X18209Y27740D02*
G01X18209Y27695D01*
G01X18209Y27695D02*
G01X18232Y27627D01*
G01X18232Y27627D02*
G01X18278Y27581D01*
G01X18278Y27581D02*
G01X18323Y27559D01*
G01X18391Y27559D02*
G01X18323Y27559D01*
G01X18437Y27581D02*
G01X18391Y27559D01*
G01X18482Y27627D02*
G01X18437Y27581D01*
G01X18664Y27877D02*
G01X18664Y27559D01*
G01X18732Y27854D02*
G01X18664Y27786D01*
G01X18778Y27877D02*
G01X18732Y27854D01*
G01X18846Y27877D02*
G01X18778Y27877D01*
G01X18846Y27877D02*
G01X18891Y27854D01*
G01X18891Y27854D02*
G01X18914Y27786D01*
G01X18914Y27786D02*
G01X18914Y27559D01*
G01X19505Y27559D02*
G01X19096Y27559D01*
G01X19687Y28036D02*
G01X19709Y28013D01*
G01X19732Y28036D02*
G01X19709Y28013D01*
G01X19709Y28059D02*
G01X19732Y28036D01*
G01X19709Y28059D02*
G01X19687Y28036D01*
G01X19709Y27877D02*
G01X19709Y27559D01*
G01X19914Y28036D02*
G01X19937Y28013D01*
G01X19959Y28036D02*
G01X19937Y28013D01*
G01X19937Y28059D02*
G01X19959Y28036D01*
G01X19937Y28059D02*
G01X19914Y28036D01*
G01X19937Y27877D02*
G01X19937Y27559D01*
G04 Draw part z80*
G04 draw part outline for part z80*
G01X37086Y6811D02*
G01X37086Y10590D01*
G01X37086Y10590D02*
G01X32834Y10590D01*
G01X32834Y10590D02*
G01X32834Y6338D01*
G01X32834Y6338D02*
G01X36614Y6338D01*
G01X36614Y6338D02*
G01X37086Y6811D01*
G04 draw reference designator for part z80*
G01X33658Y8163D02*
G01X33976Y7913D01*
G01X33658Y8163D02*
G01X33658Y7913D01*
G01X33976Y8163D02*
G01X33976Y7913D01*
G01X33499Y8458D02*
G01X33521Y8390D01*
G01X33521Y8390D02*
G01X33567Y8367D01*
G01X33567Y8367D02*
G01X33612Y8367D01*
G01X33612Y8367D02*
G01X33658Y8390D01*
G01X33658Y8390D02*
G01X33680Y8436D01*
G01X33680Y8436D02*
G01X33703Y8527D01*
G01X33703Y8527D02*
G01X33726Y8595D01*
G01X33726Y8595D02*
G01X33771Y8640D01*
G01X33771Y8640D02*
G01X33817Y8663D01*
G01X33817Y8663D02*
G01X33885Y8663D01*
G01X33885Y8663D02*
G01X33930Y8640D01*
G01X33930Y8640D02*
G01X33953Y8617D01*
G01X33953Y8617D02*
G01X33976Y8549D01*
G01X33976Y8458D02*
G01X33976Y8549D01*
G01X33953Y8390D02*
G01X33976Y8458D01*
G01X33930Y8367D02*
G01X33953Y8390D01*
G01X33885Y8345D02*
G01X33930Y8367D01*
G01X33817Y8345D02*
G01X33885Y8345D01*
G01X33771Y8367D02*
G01X33817Y8345D01*
G01X33726Y8413D02*
G01X33771Y8367D01*
G01X33703Y8481D02*
G01X33726Y8413D01*
G01X33680Y8572D02*
G01X33703Y8481D01*
G01X33658Y8617D02*
G01X33680Y8572D01*
G01X33612Y8640D02*
G01X33658Y8617D01*
G01X33567Y8640D02*
G01X33612Y8640D01*
G01X33521Y8617D02*
G01X33567Y8640D01*
G01X33499Y8549D02*
G01X33521Y8617D01*
G01X33499Y8458D02*
G01X33499Y8549D01*
G01X33499Y8981D02*
G01X33521Y8913D01*
G01X33521Y8913D02*
G01X33590Y8867D01*
G01X33590Y8867D02*
G01X33703Y8845D01*
G01X33703Y8845D02*
G01X33771Y8845D01*
G01X33771Y8845D02*
G01X33885Y8867D01*
G01X33885Y8867D02*
G01X33953Y8913D01*
G01X33953Y8913D02*
G01X33976Y8981D01*
G01X33976Y9027D02*
G01X33976Y8981D01*
G01X33953Y9095D02*
G01X33976Y9027D01*
G01X33885Y9140D02*
G01X33953Y9095D01*
G01X33771Y9163D02*
G01X33885Y9140D01*
G01X33703Y9163D02*
G01X33771Y9163D01*
G01X33590Y9140D02*
G01X33703Y9163D01*
G01X33521Y9095D02*
G01X33590Y9140D01*
G01X33499Y9027D02*
G01X33521Y9095D01*
G01X33499Y8981D02*
G01X33499Y9027D01*
G04 Draw part spr_ram*
G04 draw part outline for part spr_ram*
G01X29914Y16148D02*
G01X29914Y19848D01*
G01X29914Y19848D02*
G01X38014Y19848D01*
G01X38014Y19848D02*
G01X38014Y16148D01*
G01X38014Y16148D02*
G01X29914Y16148D01*
G01X29915Y17755D02*
G01X29915Y18188D01*
G01X29915Y18188D02*
G01X30171Y18188D01*
G01X30171Y18188D02*
G01X30171Y17755D01*
G01X30171Y17755D02*
G01X29915Y17755D01*
G04 Draw part cfg_pic*
G04 draw part outline for part cfg_pic*
G01X40460Y30913D02*
G01X40460Y21913D01*
G01X40460Y21913D02*
G01X42460Y21913D01*
G01X42460Y21913D02*
G01X42460Y30913D01*
G01X42460Y30913D02*
G01X40460Y30913D01*
G01X40960Y30913D02*
G01X40960Y30413D01*
G01X40960Y30413D02*
G01X41960Y30413D01*
G01X41960Y30413D02*
G01X41960Y30913D01*
G01X41960Y30913D02*
G01X40960Y30913D01*
G04 Draw part spi_eeprom*
G04 draw part outline for part spi_eeprom*
G01X40460Y36326D02*
G01X40460Y32326D01*
G01X40460Y32326D02*
G01X42460Y32326D01*
G01X42460Y32326D02*
G01X42460Y36326D01*
G01X42460Y36326D02*
G01X40460Y36326D01*
G01X40960Y36326D02*
G01X40960Y35826D01*
G01X40960Y35826D02*
G01X41960Y35826D01*
G01X41960Y35826D02*
G01X41960Y36326D01*
G01X41960Y36326D02*
G01X40960Y36326D01*
G04 Draw part osc*
G04 draw part outline for part osc*
G54D11*
G01X38858Y20590D02*
G01X38858Y15629D01*
G01X38858Y15629D02*
G01X39055Y15433D01*
G01X39055Y15433D02*
G01X43779Y15433D01*
G01X43779Y15433D02*
G01X44015Y15629D01*
G01X44015Y15629D02*
G01X44015Y20236D01*
G01X44015Y20236D02*
G01X43661Y20590D01*
G01X43661Y20590D02*
G01X38858Y20590D01*
G04 draw reference designator for part osc*
G01X41058Y17936D02*
G01X41013Y17913D01*
G01X41013Y17913D02*
G01X40967Y17868D01*
G01X40967Y17868D02*
G01X40944Y17799D01*
G01X40944Y17799D02*
G01X40944Y17754D01*
G01X40944Y17754D02*
G01X40967Y17686D01*
G01X40967Y17686D02*
G01X41013Y17640D01*
G01X41013Y17640D02*
G01X41058Y17618D01*
G01X41126Y17618D02*
G01X41058Y17618D01*
G01X41172Y17640D02*
G01X41126Y17618D01*
G01X41217Y17686D02*
G01X41172Y17640D01*
G01X41240Y17754D02*
G01X41217Y17686D01*
G01X41240Y17799D02*
G01X41240Y17754D01*
G01X41217Y17868D02*
G01X41240Y17799D01*
G01X41172Y17913D02*
G01X41217Y17868D01*
G01X41126Y17936D02*
G01X41172Y17913D01*
G01X41058Y17936D02*
G01X41126Y17936D01*
G01X41649Y17913D02*
G01X41672Y17868D01*
G01X41581Y17936D02*
G01X41649Y17913D01*
G01X41513Y17936D02*
G01X41581Y17936D01*
G01X41513Y17936D02*
G01X41444Y17913D01*
G01X41444Y17913D02*
G01X41422Y17868D01*
G01X41422Y17868D02*
G01X41444Y17822D01*
G01X41444Y17822D02*
G01X41490Y17799D01*
G01X41490Y17799D02*
G01X41603Y17777D01*
G01X41603Y17777D02*
G01X41649Y17754D01*
G01X41649Y17754D02*
G01X41672Y17709D01*
G01X41672Y17709D02*
G01X41672Y17686D01*
G01X41672Y17686D02*
G01X41649Y17640D01*
G01X41649Y17640D02*
G01X41581Y17618D01*
G01X41513Y17618D02*
G01X41581Y17618D01*
G01X41444Y17640D02*
G01X41513Y17618D01*
G01X41422Y17686D02*
G01X41444Y17640D01*
G01X42081Y17913D02*
G01X42126Y17868D01*
G01X42035Y17936D02*
G01X42081Y17913D01*
G01X41967Y17936D02*
G01X42035Y17936D01*
G01X41967Y17936D02*
G01X41922Y17913D01*
G01X41922Y17913D02*
G01X41876Y17868D01*
G01X41876Y17868D02*
G01X41853Y17799D01*
G01X41853Y17799D02*
G01X41853Y17754D01*
G01X41853Y17754D02*
G01X41876Y17686D01*
G01X41876Y17686D02*
G01X41922Y17640D01*
G01X41922Y17640D02*
G01X41967Y17618D01*
G01X42035Y17618D02*
G01X41967Y17618D01*
G01X42081Y17640D02*
G01X42035Y17618D01*
G01X42126Y17686D02*
G01X42081Y17640D01*
G04 Draw part hct08*
G04 draw part outline for part hct08*
G54D10*
G01X39665Y14448D02*
G01X39665Y10937D01*
G01X39665Y10937D02*
G01X40570Y10937D01*
G01X40570Y10937D02*
G01X40570Y14448D01*
G01X40570Y14448D02*
G01X39665Y14448D01*
G01X39862Y14448D02*
G01X39862Y14251D01*
G01X39862Y14251D02*
G01X40374Y14251D01*
G01X40374Y14251D02*
G01X40374Y14448D01*
G01X40374Y14448D02*
G01X39862Y14448D01*
G04 Draw part res1*
G04 draw part outline for part res1*
G01X42677Y14507D02*
G01X42677Y13169D01*
G01X42677Y13169D02*
G01X41968Y13169D01*
G01X41968Y13169D02*
G01X41968Y14507D01*
G01X41968Y14507D02*
G01X42677Y14507D01*
G04 Draw part res3*
G04 draw part outline for part res3*
G01X41791Y26122D02*
G01X41791Y24783D01*
G01X41791Y24783D02*
G01X41082Y24783D01*
G01X41082Y24783D02*
G01X41082Y26122D01*
G01X41082Y26122D02*
G01X41791Y26122D01*
G04 Draw part res4*
G04 draw part outline for part res4*
G01X41791Y24547D02*
G01X41791Y23208D01*
G01X41791Y23208D02*
G01X41082Y23208D01*
G01X41082Y23208D02*
G01X41082Y24547D01*
G01X41082Y24547D02*
G01X41791Y24547D01*
G04 Draw part res5*
G04 draw part outline for part res5*
G01X41791Y34881D02*
G01X41791Y33543D01*
G01X41791Y33543D02*
G01X41082Y33543D01*
G01X41082Y33543D02*
G01X41082Y34881D01*
G01X41082Y34881D02*
G01X41791Y34881D01*
G04 Draw part res6*
G04 draw part outline for part res6*
G01X38011Y22716D02*
G01X39350Y22716D01*
G01X39350Y22716D02*
G01X39350Y22007D01*
G01X39350Y22007D02*
G01X38011Y22007D01*
G01X38011Y22007D02*
G01X38011Y22716D01*
G04 Draw part res10*
G04 draw part outline for part res10*
G01X41791Y27795D02*
G01X41791Y26456D01*
G01X41791Y26456D02*
G01X41082Y26456D01*
G01X41082Y26456D02*
G01X41082Y27795D01*
G01X41082Y27795D02*
G01X41791Y27795D01*
G04 Draw part vidcon*
G04 draw part outline for part vidcon*
G54D11*
G01X18602Y46850D02*
G01X13090Y46850D01*
G01X13090Y46850D02*
G01X13090Y41732D01*
G01X13090Y41732D02*
G01X18602Y41732D01*
G01X18602Y41732D02*
G01X18602Y46850D01*
G04 Draw part kbcon*
G04 draw part outline for part kbcon*
G01X295Y34645D02*
G01X295Y29133D01*
G01X295Y29133D02*
G01X5413Y29133D01*
G01X5413Y29133D02*
G01X5413Y34645D01*
G01X5413Y34645D02*
G01X295Y34645D01*
G04 Draw part mousecon*
G04 draw part outline for part mousecon*
G01X295Y41535D02*
G01X295Y36023D01*
G01X295Y36023D02*
G01X5413Y36023D01*
G01X5413Y36023D02*
G01X5413Y41535D01*
G01X5413Y41535D02*
G01X295Y41535D01*
G04 Draw part rs232con*
G04 draw part outline for part rs232con*
G01X11712Y46850D02*
G01X6200Y46850D01*
G01X6200Y46850D02*
G01X6200Y41732D01*
G01X6200Y41732D02*
G01X11712Y41732D01*
G01X11712Y41732D02*
G01X11712Y46850D01*
G04 Draw part joy1con*
G04 draw part outline for part joy1con*
G01X44389Y41732D02*
G01X31988Y41732D01*
G01X31988Y41732D02*
G01X31988Y46653D01*
G01X31988Y46653D02*
G01X44429Y46653D01*
G01X44429Y46653D02*
G01X44429Y41732D01*
G01X44429Y41732D02*
G01X44389Y41732D01*
G04 Draw part joy2con*
G04 draw part outline for part joy2con*
G01X31594Y41732D02*
G01X19192Y41732D01*
G01X19192Y41732D02*
G01X19192Y46653D01*
G01X19192Y46653D02*
G01X31633Y46653D01*
G01X31633Y46653D02*
G01X31633Y41732D01*
G01X31633Y41732D02*
G01X31594Y41732D01*
G04 Draw part audiocon*
G04 draw part outline for part audiocon*
G01X5216Y42618D02*
G01X492Y42618D01*
G01X492Y42618D02*
G01X492Y46948D01*
G01X492Y46948D02*
G01X5216Y46948D01*
G01X5216Y46948D02*
G01X5216Y42618D01*
G01X5177Y46476D02*
G01X492Y46476D01*
G04 Draw part joypic*
G04 draw part outline for part joypic*
G54D10*
G01X34834Y38098D02*
G01X43834Y38098D01*
G01X43834Y38098D02*
G01X43834Y40098D01*
G01X43834Y40098D02*
G01X34834Y40098D01*
G01X34834Y40098D02*
G01X34834Y38098D01*
G01X34834Y38598D02*
G01X35334Y38598D01*
G01X35334Y38598D02*
G01X35334Y39598D01*
G01X35334Y39598D02*
G01X34834Y39598D01*
G01X34834Y39598D02*
G01X34834Y38598D01*
G04 Draw part st232*
G04 draw part outline for part st232*
G01X8267Y40433D02*
G01X8267Y36381D01*
G01X8267Y36381D02*
G01X9055Y36381D01*
G01X9055Y36381D02*
G01X9055Y40433D01*
G01X9055Y40433D02*
G01X8267Y40433D01*
G01X8464Y40433D02*
G01X8464Y40236D01*
G01X8464Y40236D02*
G01X8858Y40236D01*
G01X8858Y40236D02*
G01X8858Y40433D01*
G01X8858Y40433D02*
G01X8464Y40433D01*
G04 Draw part jrespu1*
G04 Draw part jrespu2*
G04 Draw part jrespu3*
G04 Draw part jrespu4*
G04 Draw part coldac1*
G04 draw part outline for part coldac1*
G01X22204Y41122D02*
G01X22204Y39625D01*
G01X22204Y39625D02*
G01X21417Y39625D01*
G01X21417Y39625D02*
G01X21417Y41122D01*
G01X21417Y41122D02*
G01X22204Y41122D01*
G04 Draw part coldac2*
G04 draw part outline for part coldac2*
G01X22992Y41122D02*
G01X22992Y39625D01*
G01X22992Y39625D02*
G01X22204Y39625D01*
G01X22204Y39625D02*
G01X22204Y41122D01*
G01X22204Y41122D02*
G01X22992Y41122D01*
G04 Draw part coldac3*
G04 draw part outline for part coldac3*
G01X21417Y41122D02*
G01X21417Y39625D01*
G01X21417Y39625D02*
G01X20629Y39625D01*
G01X20629Y39625D02*
G01X20629Y41122D01*
G01X20629Y41122D02*
G01X21417Y41122D01*
G04 Draw part coldac4*
G04 draw part outline for part coldac4*
G01X20629Y41122D02*
G01X20629Y39625D01*
G01X20629Y39625D02*
G01X19842Y39625D01*
G01X19842Y39625D02*
G01X19842Y41122D01*
G01X19842Y41122D02*
G01X20629Y41122D01*
G04 Draw part coldac5*
G04 draw part outline for part coldac5*
G01X26574Y41122D02*
G01X26574Y39625D01*
G01X26574Y39625D02*
G01X25787Y39625D01*
G01X25787Y39625D02*
G01X25787Y41122D01*
G01X25787Y41122D02*
G01X26574Y41122D01*
G04 Draw part coldac6*
G04 draw part outline for part coldac6*
G01X25787Y41122D02*
G01X25787Y39625D01*
G01X25787Y39625D02*
G01X25000Y39625D01*
G01X25000Y39625D02*
G01X25000Y41122D01*
G01X25000Y41122D02*
G01X25787Y41122D01*
G04 Draw part coldac7*
G04 draw part outline for part coldac7*
G01X25000Y41122D02*
G01X25000Y39625D01*
G01X25000Y39625D02*
G01X24212Y39625D01*
G01X24212Y39625D02*
G01X24212Y41122D01*
G01X24212Y41122D02*
G01X25000Y41122D01*
G04 Draw part coldac8*
G04 draw part outline for part coldac8*
G01X24212Y41122D02*
G01X24212Y39625D01*
G01X24212Y39625D02*
G01X23425Y39625D01*
G01X23425Y39625D02*
G01X23425Y41122D01*
G01X23425Y41122D02*
G01X24212Y41122D01*
G04 Draw part coldac9*
G04 draw part outline for part coldac9*
G01X17204Y41122D02*
G01X17204Y39625D01*
G01X17204Y39625D02*
G01X16417Y39625D01*
G01X16417Y39625D02*
G01X16417Y41122D01*
G01X16417Y41122D02*
G01X17204Y41122D01*
G04 Draw part coldac10*
G04 draw part outline for part coldac10*
G01X16456Y41122D02*
G01X16456Y39625D01*
G01X16456Y39625D02*
G01X15669Y39625D01*
G01X15669Y39625D02*
G01X15669Y41122D01*
G01X15669Y41122D02*
G01X16456Y41122D01*
G04 Draw part coldac11*
G04 draw part outline for part coldac11*
G01X15669Y41122D02*
G01X15669Y39625D01*
G01X15669Y39625D02*
G01X14881Y39625D01*
G01X14881Y39625D02*
G01X14881Y41122D01*
G01X14881Y41122D02*
G01X15669Y41122D01*
G04 Draw part coldac12*
G04 draw part outline for part coldac12*
G01X17992Y41122D02*
G01X17992Y39625D01*
G01X17992Y39625D02*
G01X17204Y39625D01*
G01X17204Y39625D02*
G01X17204Y41122D01*
G01X17204Y41122D02*
G01X17992Y41122D01*
G04 Draw part coldac13*
G04 draw part outline for part coldac13*
G01X19488Y40826D02*
G01X19488Y39330D01*
G01X19488Y39330D02*
G01X18700Y39330D01*
G01X18700Y39330D02*
G01X18700Y40826D01*
G01X18700Y40826D02*
G01X19488Y40826D01*
G04 Draw part audfilter1*
G04 Draw part audfilter2*
G04 Draw part audfilter3*
G04 Draw part audfilter4*
G04 Draw part audfilter5*
G04 Draw part audfilter6*
G04 Draw part audfilter7*
G04 Draw part audfilter8*
G04 Draw part audfilter9*
G04 Draw part audfilter10*
G04 Draw part rs232dec1*
G04 draw part outline for part rs232dec1*
G01X11377Y40688D02*
G01X11377Y39350D01*
G01X11377Y39350D02*
G01X10669Y39350D01*
G01X10669Y39350D02*
G01X10669Y40688D01*
G01X10669Y40688D02*
G01X11377Y40688D01*
G04 Draw part rs232dec2*
G04 draw part outline for part rs232dec2*
G01X9291Y35374D02*
G01X7952Y35374D01*
G01X7952Y35374D02*
G01X7952Y36082D01*
G01X7952Y36082D02*
G01X9291Y36082D01*
G01X9291Y36082D02*
G01X9291Y35374D01*
G04 Draw part rs232dec3*
G04 draw part outline for part rs232dec3*
G01X6653Y39114D02*
G01X6653Y37775D01*
G01X6653Y37775D02*
G01X5944Y37775D01*
G01X5944Y37775D02*
G01X5944Y39114D01*
G01X5944Y39114D02*
G01X6653Y39114D01*
G04 Draw part rs232dec4*
G04 draw part outline for part rs232dec4*
G01X9291Y40688D02*
G01X7952Y40688D01*
G01X7952Y40688D02*
G01X7952Y41397D01*
G01X7952Y41397D02*
G01X9291Y41397D01*
G01X9291Y41397D02*
G01X9291Y40688D01*
G04 Draw part rs232dec5*
G04 draw part outline for part rs232dec5*
G01X6653Y40688D02*
G01X6653Y39350D01*
G01X6653Y39350D02*
G01X5944Y39350D01*
G01X5944Y39350D02*
G01X5944Y40688D01*
G01X5944Y40688D02*
G01X6653Y40688D01*
G04 Draw part kbpu1*
G04 Draw part kbpu2*
G04 Draw part kbpu3*
G04 draw part outline for part kbpu3*
G01X5762Y28630D02*
G01X5762Y30030D01*
G01X5762Y30030D02*
G01X7442Y30030D01*
G01X7442Y30030D02*
G01X7442Y28630D01*
G01X7442Y28630D02*
G01X5762Y28630D01*
G04 Draw part kbpu4*
G04 draw part outline for part kbpu4*
G01X5762Y30205D02*
G01X5762Y31605D01*
G01X5762Y31605D02*
G01X7442Y31605D01*
G01X7442Y31605D02*
G01X7442Y30205D01*
G01X7442Y30205D02*
G01X5762Y30205D01*
G04 Draw part kbpu5*
G04 draw part outline for part kbpu5*
G01X7637Y29291D02*
G01X8976Y29291D01*
G01X8976Y29291D02*
G01X8976Y28582D01*
G01X8976Y28582D02*
G01X7637Y28582D01*
G01X7637Y28582D02*
G01X7637Y29291D01*
G04 Draw part kbpu6*
G04 draw part outline for part kbpu6*
G01X7637Y30866D02*
G01X8976Y30866D01*
G01X8976Y30866D02*
G01X8976Y30157D01*
G01X8976Y30157D02*
G01X7637Y30157D01*
G01X7637Y30157D02*
G01X7637Y30866D01*
G04 Draw part kbpu7*
G04 Draw part kbpu8*
G04 Draw part kbpu9*
G04 draw part outline for part kbpu9*
G01X5762Y33650D02*
G01X5762Y35050D01*
G01X5762Y35050D02*
G01X7442Y35050D01*
G01X7442Y35050D02*
G01X7442Y33650D01*
G01X7442Y33650D02*
G01X5762Y33650D01*
G04 Draw part kbpu10*
G04 draw part outline for part kbpu10*
G01X5762Y31977D02*
G01X5762Y33377D01*
G01X5762Y33377D02*
G01X7442Y33377D01*
G01X7442Y33377D02*
G01X7442Y31977D01*
G01X7442Y31977D02*
G01X5762Y31977D01*
G04 Draw part kbpu11*
G04 draw part outline for part kbpu11*
G01X7421Y32637D02*
G01X8759Y32637D01*
G01X8759Y32637D02*
G01X8759Y31929D01*
G01X8759Y31929D02*
G01X7421Y31929D01*
G01X7421Y31929D02*
G01X7421Y32637D01*
G04 Draw part kbpu12*
G04 draw part outline for part kbpu12*
G01X7381Y34291D02*
G01X8720Y34291D01*
G01X8720Y34291D02*
G01X8720Y33582D01*
G01X8720Y33582D02*
G01X7381Y33582D01*
G01X7381Y33582D02*
G01X7381Y34291D01*
G04 Draw part power*
G04 draw part outline for part power*
G04 Draw part confsel*
G04 draw part outline for part confsel*
G54D11*
G01X24429Y21732D02*
G01X25374Y21732D01*
G01X25374Y21732D02*
G01X25374Y19842D01*
G01X25374Y19842D02*
G01X24429Y19842D01*
G01X24429Y19842D02*
G01X24429Y21496D01*
G01X24429Y21496D02*
G01X24429Y21732D01*
G04 Draw part cfgres1*
G04 Draw part cfgres2*
G04 Draw part jp5*
G04 draw part outline for part jp5*
G01X37913Y36023D02*
G01X38858Y36023D01*
G01X38858Y36023D02*
G01X38858Y34133D01*
G01X38858Y34133D02*
G01X37913Y34133D01*
G01X37913Y34133D02*
G01X37913Y35787D01*
G01X37913Y35787D02*
G01X37913Y36023D01*
G04 Draw part cfgres*
G04 draw part outline for part cfgres*
G54D10*
G01X41791Y29370D02*
G01X41791Y28031D01*
G01X41791Y28031D02*
G01X41082Y28031D01*
G01X41082Y28031D02*
G01X41082Y29370D01*
G01X41082Y29370D02*
G01X41791Y29370D01*
G04 Draw part picdec*
G04 Draw part serdec*
G04 Draw part picdec2*
G04 Draw part oscdec3*
G04 Draw part icdec1*
G04 draw part outline for part icdec1*
G01X41988Y15314D02*
G01X43326Y15314D01*
G01X43326Y15314D02*
G01X43326Y14606D01*
G01X43326Y14606D02*
G01X41988Y14606D01*
G01X41988Y14606D02*
G01X41988Y15314D01*
G04 Draw part memdec*
G04 draw part outline for part memdec*
G01X33720Y31062D02*
G01X35059Y31062D01*
G01X35059Y31062D02*
G01X35059Y30354D01*
G01X35059Y30354D02*
G01X33720Y30354D01*
G01X33720Y30354D02*
G01X33720Y31062D01*
G04 Draw part memdec2*
G04 draw part outline for part memdec2*
G01X33425Y22401D02*
G01X34763Y22401D01*
G01X34763Y22401D02*
G01X34763Y21692D01*
G01X34763Y21692D02*
G01X33425Y21692D01*
G01X33425Y21692D02*
G01X33425Y22401D01*
G04 Draw part fpgacap1*
G04 Draw part fpgacap2*
G04 Draw part fpgacap3*
G04 Draw part fpgacap4*
G04 Draw part fpgacap5*
G04 Draw part fpgacap6*
G04 Draw part fpgacap7*
G04 Draw part fpgacap8*
G04 Draw part fpgacap9*
G04 Draw part fpgacap10*
G04 Draw part fpgacap11*
G04 Draw part fpgacap12*
G04 Draw part fpgacap13*
G04 Draw part fpgacap14*
G04 Draw part fpgacap15*
G04 Draw part fpgacap16*
G04 Draw part fpgacap17*
G04 Draw part fpgacap18*
G04 Draw part fpgacap19*
G04 Draw part fpgacap20*
G04 Draw part fpgacap21*
G04 Draw part fpgacap22*
G04 Draw part fpgacap23*
G04 Draw part fpgacap24*
G04 Draw part fpgacap25*
G04 Draw part fpgacap26*
G04 Draw part fpgacap27*
G04 Draw part fpgacap28*
G04 Draw part jtagcon*
G04 draw part outline for part jtagcon*
G54D11*
G01X12704Y21462D02*
G01X12704Y15562D01*
G01X12704Y15562D02*
G01X11704Y15562D01*
G01X11704Y15562D02*
G01X11704Y21462D01*
G01X11704Y21462D02*
G01X12704Y21462D01*
G04 Draw part hole1*
G04 draw part outline for part hole1*
G04 Draw part ps2dec1*
G04 Draw part ps2dec2*
G04 Draw part ps2dec4*
G04 Draw part ps2dec5*
G04 Draw part wr_pullup*
G04 Draw part selres*
G04 draw part outline for part selres*
G54D10*
G01X12795Y43287D02*
G01X12795Y41791D01*
G01X12795Y41791D02*
G01X12007Y41791D01*
G01X12007Y41791D02*
G01X12007Y43287D01*
G01X12007Y43287D02*
G01X12795Y43287D01*
G04 Draw part vidram*
G04 draw part outline for part vidram*
G54D11*
G01X37716Y24842D02*
G01X30669Y24842D01*
G01X30669Y24842D02*
G01X30669Y28740D01*
G01X30669Y28740D02*
G01X37913Y28740D01*
G01X37913Y28740D02*
G01X37913Y24842D01*
G01X37913Y24842D02*
G01X37716Y24842D01*
G01X30944Y25157D02*
G01X31299Y25157D01*
G01X31299Y25157D02*
G01X31299Y25511D01*
G01X31299Y25511D02*
G01X30944Y25511D01*
G01X30944Y25511D02*
G01X30944Y25157D01*
G04 Draw part SDCMMC*
G04 draw part outline for part SDCMMC*
G01X6417Y26535D02*
G01X-39Y26535D01*
G01X-39Y26535D02*
G01X-39Y15314D01*
G01X-39Y15314D02*
G01X6417Y15314D01*
G01X6417Y15314D02*
G01X6417Y26535D01*
G01X-39Y25511D02*
G01X-2Y25511D01*
G01X35Y25510D01*
G01X72Y25508D01*
G01X109Y25506D01*
G01X147Y25503D01*
G01X184Y25499D01*
G01X221Y25495D01*
G01X258Y25490D01*
G01X295Y25484D01*
G01X332Y25478D01*
G01X369Y25471D01*
G01X406Y25463D01*
G01X442Y25455D01*
G01X479Y25445D01*
G01X515Y25436D01*
G01X551Y25425D01*
G01X587Y25414D01*
G01X623Y25403D01*
G01X659Y25391D01*
G01X694Y25378D01*
G01X729Y25364D01*
G01X764Y25350D01*
G01X799Y25335D01*
G01X834Y25320D01*
G01X868Y25303D01*
G01X903Y25287D01*
G01X936Y25269D01*
G01X970Y25251D01*
G01X1003Y25233D01*
G01X1037Y25214D01*
G01X1069Y25194D01*
G01X1102Y25174D01*
G01X1134Y25153D01*
G01X1166Y25131D01*
G01X1198Y25109D01*
G01X1229Y25087D01*
G01X1260Y25063D01*
G01X1290Y25040D01*
G01X1320Y25015D01*
G01X1350Y24991D01*
G01X1380Y24965D01*
G01X1409Y24939D01*
G01X1437Y24913D01*
G01X1466Y24886D01*
G01X1494Y24859D01*
G01X1521Y24831D01*
G01X1548Y24802D01*
G01X1575Y24773D01*
G01X1601Y24744D01*
G01X1627Y24714D01*
G01X1652Y24684D01*
G01X1677Y24653D01*
G01X1701Y24622D01*
G01X1725Y24590D01*
G01X1749Y24558D01*
G01X1772Y24526D01*
G01X1794Y24493D01*
G01X1816Y24459D01*
G01X1838Y24426D01*
G01X1859Y24391D01*
G01X1879Y24357D01*
G01X1899Y24322D01*
G01X1919Y24287D01*
G01X1938Y24251D01*
G01X1956Y24216D01*
G01X1974Y24179D01*
G01X1991Y24143D01*
G01X2008Y24106D01*
G01X2024Y24069D01*
G01X2040Y24032D01*
G01X2055Y23994D01*
G01X2070Y23956D01*
G01X2084Y23918D01*
G01X2097Y23879D01*
G01X2110Y23840D01*
G01X2122Y23802D01*
G01X2134Y23762D01*
G01X2145Y23723D01*
G01X2156Y23684D01*
G01X2166Y23644D01*
G01X2175Y23604D01*
G01X2184Y23564D01*
G01X2192Y23524D01*
G01X2200Y23483D01*
G01X2207Y23443D01*
G01X2213Y23402D01*
G01X2219Y23361D01*
G01X2224Y23321D01*
G01X2229Y23280D01*
G01X2233Y23239D01*
G01X2236Y23198D01*
G01X2239Y23156D01*
G01X2241Y23115D01*
G01X2242Y23074D01*
G01X2243Y23033D01*
G01X2244Y22992D01*
G01X2244Y22992D02*
G01X2244Y18425D01*
G01X2244Y18425D02*
G01X2243Y18385D01*
G01X2242Y18345D01*
G01X2241Y18305D01*
G01X2238Y18265D01*
G01X2235Y18226D01*
G01X2231Y18186D01*
G01X2227Y18146D01*
G01X2222Y18107D01*
G01X2216Y18067D01*
G01X2210Y18028D01*
G01X2202Y17989D01*
G01X2195Y17950D01*
G01X2186Y17911D01*
G01X2177Y17872D01*
G01X2167Y17834D01*
G01X2157Y17795D01*
G01X2146Y17757D01*
G01X2134Y17719D01*
G01X2121Y17681D01*
G01X2108Y17644D01*
G01X2095Y17606D01*
G01X2080Y17569D01*
G01X2065Y17532D01*
G01X2050Y17496D01*
G01X2033Y17460D01*
G01X2016Y17424D01*
G01X1999Y17388D01*
G01X1981Y17353D01*
G01X1962Y17318D01*
G01X1943Y17283D01*
G01X1923Y17249D01*
G01X1903Y17215D01*
G01X1882Y17181D01*
G01X1860Y17148D01*
G01X1838Y17115D01*
G01X1815Y17083D01*
G01X1792Y17050D01*
G01X1768Y17019D01*
G01X1743Y16988D01*
G01X1719Y16957D01*
G01X1693Y16927D01*
G01X1667Y16897D01*
G01X1641Y16867D01*
G01X1614Y16838D01*
G01X1586Y16810D01*
G01X1558Y16782D01*
G01X1530Y16755D01*
G01X1501Y16728D01*
G01X1472Y16701D01*
G01X1442Y16675D01*
G01X1412Y16650D01*
G01X1381Y16625D01*
G01X1350Y16601D01*
G01X1319Y16577D01*
G01X1287Y16554D01*
G01X1254Y16532D01*
G01X1222Y16510D01*
G01X1189Y16488D01*
G01X1155Y16467D01*
G01X1122Y16447D01*
G01X1087Y16428D01*
G01X1053Y16409D01*
G01X1018Y16390D01*
G01X983Y16372D01*
G01X948Y16355D01*
G01X912Y16339D01*
G01X876Y16323D01*
G01X840Y16308D01*
G01X804Y16293D01*
G01X767Y16279D01*
G01X730Y16266D01*
G01X693Y16253D01*
G01X656Y16241D01*
G01X618Y16230D01*
G01X580Y16219D01*
G01X542Y16209D01*
G01X504Y16200D01*
G01X466Y16191D01*
G01X428Y16183D01*
G01X389Y16176D01*
G01X351Y16169D01*
G01X312Y16163D01*
G01X273Y16158D01*
G01X234Y16154D01*
G01X195Y16150D01*
G01X156Y16147D01*
G01X117Y16144D01*
G01X78Y16143D01*
G01X39Y16142D01*
G01X0Y16141D01*
G04 Draw part scpowres*
G04 Draw part sdpowtr*
G04 Draw part sdpowres2*
G04 Draw part sdcdin_pd*
G04 Draw part sdcdinres*
G04 draw part outline for part sdcdinres*
G54D10*
G01X7933Y26377D02*
G01X9271Y26377D01*
G01X9271Y26377D02*
G01X9271Y25669D01*
G01X9271Y25669D02*
G01X7933Y25669D01*
G01X7933Y25669D02*
G01X7933Y26377D01*
G04 Draw part sdc_led_trres*
G04 Draw part dscledres2*
G04 Draw part dscledtr*
G04 Draw part scddecoup*
G04 Draw part jack*
G04 draw part outline for part jack*
G54D11*
G01X275Y2047D02*
G01X5787Y2047D01*
G01X5787Y2047D02*
G01X5787Y5748D01*
G01X5787Y5748D02*
G01X275Y5748D01*
G01X275Y5748D02*
G01X275Y2047D01*
G01X1259Y5708D02*
G01X1259Y2047D01*
G04 Draw part powerswitch*
G04 draw part outline for part powerswitch*
G01X7125Y3267D02*
G01X12637Y3267D01*
G01X12637Y3267D02*
G01X12637Y275D01*
G01X12637Y275D02*
G01X7125Y275D01*
G01X7125Y275D02*
G01X7125Y3267D01*
G04 Draw part diode1*
G04 draw part outline for part diode1*
G01X7244Y3740D02*
G01X7244Y4685D01*
G01X7244Y4685D02*
G01X9173Y4685D01*
G01X9173Y4685D02*
G01X9173Y3700D01*
G01X9173Y3700D02*
G01X7244Y3700D01*
G01X9173Y3700D02*
G01X9330Y3700D01*
G01X9330Y3700D02*
G01X9330Y4685D01*
G01X9330Y4685D02*
G01X9173Y4685D01*
G01X9173Y4685D02*
G01X9173Y3700D01*
G04 Draw part diode2*
G04 draw part outline for part diode2*
G01X7244Y5000D02*
G01X7244Y5944D01*
G01X7244Y5944D02*
G01X9173Y5944D01*
G01X9173Y5944D02*
G01X9173Y4960D01*
G01X9173Y4960D02*
G01X7244Y4960D01*
G01X9173Y4960D02*
G01X9330Y4960D01*
G01X9330Y4960D02*
G01X9330Y5944D01*
G01X9330Y5944D02*
G01X9173Y5944D01*
G01X9173Y5944D02*
G01X9173Y4960D01*
G04 Draw part powcap*
G04 draw part outline for part powcap*
G54D10*
G01X11366Y4259D02*
G01X11366Y4559D01*
G01X11216Y4409D02*
G01X11516Y4409D01*
G01X10866Y6139D02*
G01X10826Y6138D01*
G01X10786Y6136D01*
G01X10747Y6133D01*
G01X10707Y6129D01*
G01X10668Y6123D01*
G01X10629Y6116D01*
G01X10590Y6108D01*
G01X10551Y6098D01*
G01X10513Y6088D01*
G01X10475Y6076D01*
G01X10437Y6063D01*
G01X10400Y6048D01*
G01X10364Y6033D01*
G01X10328Y6016D01*
G01X10292Y5998D01*
G01X10257Y5979D01*
G01X10223Y5959D01*
G01X10189Y5938D01*
G01X10156Y5916D01*
G01X10124Y5893D01*
G01X10093Y5868D01*
G01X10062Y5843D01*
G01X10032Y5817D01*
G01X10003Y5790D01*
G01X9975Y5762D01*
G01X9948Y5733D01*
G01X9921Y5703D01*
G01X9896Y5672D01*
G01X9872Y5641D01*
G01X9849Y5608D01*
G01X9826Y5575D01*
G01X9805Y5542D01*
G01X9785Y5507D01*
G01X9766Y5472D01*
G01X9748Y5437D01*
G01X9732Y5401D01*
G01X9716Y5364D01*
G01X9702Y5327D01*
G01X9689Y5290D01*
G01X9677Y5252D01*
G01X9666Y5213D01*
G01X9657Y5175D01*
G01X9649Y5136D01*
G01X9642Y5097D01*
G01X9636Y5058D01*
G01X9631Y5018D01*
G01X9628Y4978D01*
G01X9626Y4939D01*
G01X9626Y4899D01*
G01X9626Y4899D02*
G01X9626Y4859D01*
G01X9628Y4820D01*
G01X9631Y4780D01*
G01X9636Y4740D01*
G01X9642Y4701D01*
G01X9649Y4662D01*
G01X9657Y4623D01*
G01X9666Y4584D01*
G01X9677Y4546D01*
G01X9689Y4508D01*
G01X9702Y4471D01*
G01X9716Y4434D01*
G01X9732Y4397D01*
G01X9748Y4361D01*
G01X9766Y4325D01*
G01X9785Y4290D01*
G01X9805Y4256D01*
G01X9826Y4222D01*
G01X9849Y4190D01*
G01X9872Y4157D01*
G01X9896Y4126D01*
G01X9921Y4095D01*
G01X9948Y4065D01*
G01X9975Y4036D01*
G01X10003Y4008D01*
G01X10032Y3981D01*
G01X10062Y3955D01*
G01X10093Y3929D01*
G01X10124Y3905D01*
G01X10156Y3882D01*
G01X10189Y3860D01*
G01X10223Y3839D01*
G01X10257Y3819D01*
G01X10292Y3800D01*
G01X10328Y3782D01*
G01X10364Y3765D01*
G01X10400Y3750D01*
G01X10437Y3735D01*
G01X10475Y3722D01*
G01X10513Y3710D01*
G01X10551Y3700D01*
G01X10590Y3690D01*
G01X10629Y3682D01*
G01X10668Y3675D01*
G01X10707Y3669D01*
G01X10747Y3665D01*
G01X10786Y3661D01*
G01X10826Y3660D01*
G01X10866Y3659D01*
G01X10866Y3659D02*
G01X10905Y3660D01*
G01X10945Y3661D01*
G01X10985Y3665D01*
G01X11024Y3669D01*
G01X11064Y3675D01*
G01X11103Y3682D01*
G01X11142Y3690D01*
G01X11180Y3700D01*
G01X11218Y3710D01*
G01X11256Y3722D01*
G01X11294Y3735D01*
G01X11331Y3750D01*
G01X11368Y3765D01*
G01X11404Y3782D01*
G01X11439Y3800D01*
G01X11474Y3819D01*
G01X11508Y3839D01*
G01X11542Y3860D01*
G01X11575Y3882D01*
G01X11607Y3905D01*
G01X11639Y3929D01*
G01X11669Y3955D01*
G01X11699Y3981D01*
G01X11728Y4008D01*
G01X11756Y4036D01*
G01X11784Y4065D01*
G01X11810Y4095D01*
G01X11835Y4126D01*
G01X11859Y4157D01*
G01X11883Y4190D01*
G01X11905Y4222D01*
G01X11926Y4256D01*
G01X11946Y4290D01*
G01X11965Y4325D01*
G01X11983Y4361D01*
G01X12000Y4397D01*
G01X12015Y4434D01*
G01X12029Y4471D01*
G01X12042Y4508D01*
G01X12054Y4546D01*
G01X12065Y4584D01*
G01X12075Y4623D01*
G01X12083Y4662D01*
G01X12090Y4701D01*
G01X12095Y4740D01*
G01X12100Y4780D01*
G01X12103Y4820D01*
G01X12105Y4859D01*
G01X12106Y4899D01*
G01X12106Y4899D02*
G01X12105Y4939D01*
G01X12103Y4978D01*
G01X12100Y5018D01*
G01X12095Y5058D01*
G01X12090Y5097D01*
G01X12083Y5136D01*
G01X12075Y5175D01*
G01X12065Y5213D01*
G01X12054Y5252D01*
G01X12042Y5290D01*
G01X12029Y5327D01*
G01X12015Y5364D01*
G01X12000Y5401D01*
G01X11983Y5437D01*
G01X11965Y5472D01*
G01X11946Y5507D01*
G01X11926Y5542D01*
G01X11905Y5575D01*
G01X11883Y5608D01*
G01X11859Y5641D01*
G01X11835Y5672D01*
G01X11810Y5703D01*
G01X11784Y5733D01*
G01X11756Y5762D01*
G01X11728Y5790D01*
G01X11699Y5817D01*
G01X11669Y5843D01*
G01X11639Y5868D01*
G01X11607Y5893D01*
G01X11575Y5916D01*
G01X11542Y5938D01*
G01X11508Y5959D01*
G01X11474Y5979D01*
G01X11439Y5998D01*
G01X11404Y6016D01*
G01X11368Y6033D01*
G01X11331Y6048D01*
G01X11294Y6063D01*
G01X11256Y6076D01*
G01X11218Y6088D01*
G01X11180Y6098D01*
G01X11142Y6108D01*
G01X11103Y6116D01*
G01X11064Y6123D01*
G01X11024Y6129D01*
G01X10985Y6133D01*
G01X10945Y6136D01*
G01X10905Y6138D01*
G01X10866Y6139D01*
G04 Draw part vregukm*
G04 draw part outline for part vregukm*
G01X5354Y10787D02*
G01X5354Y8775D01*
G01X5354Y8775D02*
G01X6141Y8775D01*
G01X6141Y8775D02*
G01X6141Y10787D01*
G01X6141Y10787D02*
G01X5354Y10787D01*
G01X5551Y10787D02*
G01X5551Y10590D01*
G01X5551Y10590D02*
G01X5944Y10590D01*
G01X5944Y10590D02*
G01X5944Y10787D01*
G01X5944Y10787D02*
G01X5551Y10787D01*
G04 Draw part regcap1*
G04 draw part outline for part regcap1*
G01X2945Y11248D02*
G01X2645Y11248D01*
G01X2795Y11098D02*
G01X2795Y11398D01*
G01X1065Y10748D02*
G01X1065Y10708D01*
G01X1067Y10668D01*
G01X1071Y10628D01*
G01X1075Y10589D01*
G01X1081Y10550D01*
G01X1088Y10510D01*
G01X1096Y10472D01*
G01X1105Y10433D01*
G01X1116Y10395D01*
G01X1128Y10357D01*
G01X1141Y10319D01*
G01X1155Y10282D01*
G01X1171Y10246D01*
G01X1188Y10210D01*
G01X1205Y10174D01*
G01X1224Y10139D01*
G01X1244Y10105D01*
G01X1266Y10071D01*
G01X1288Y10038D01*
G01X1311Y10006D01*
G01X1335Y9974D01*
G01X1361Y9944D01*
G01X1387Y9914D01*
G01X1414Y9885D01*
G01X1442Y9857D01*
G01X1471Y9830D01*
G01X1501Y9803D01*
G01X1532Y9778D01*
G01X1563Y9754D01*
G01X1595Y9731D01*
G01X1628Y9708D01*
G01X1662Y9687D01*
G01X1696Y9667D01*
G01X1731Y9648D01*
G01X1767Y9630D01*
G01X1803Y9614D01*
G01X1839Y9598D01*
G01X1877Y9584D01*
G01X1914Y9571D01*
G01X1952Y9559D01*
G01X1990Y9548D01*
G01X2029Y9539D01*
G01X2068Y9530D01*
G01X2107Y9523D01*
G01X2146Y9518D01*
G01X2186Y9513D01*
G01X2225Y9510D01*
G01X2265Y9508D01*
G01X2305Y9508D01*
G01X2305Y9508D02*
G01X2345Y9508D01*
G01X2384Y9510D01*
G01X2424Y9513D01*
G01X2463Y9518D01*
G01X2503Y9523D01*
G01X2542Y9530D01*
G01X2581Y9539D01*
G01X2619Y9548D01*
G01X2658Y9559D01*
G01X2696Y9571D01*
G01X2733Y9584D01*
G01X2770Y9598D01*
G01X2807Y9614D01*
G01X2843Y9630D01*
G01X2878Y9648D01*
G01X2913Y9667D01*
G01X2948Y9687D01*
G01X2981Y9708D01*
G01X3014Y9731D01*
G01X3046Y9754D01*
G01X3078Y9778D01*
G01X3109Y9803D01*
G01X3138Y9830D01*
G01X3167Y9857D01*
G01X3196Y9885D01*
G01X3223Y9914D01*
G01X3249Y9944D01*
G01X3274Y9974D01*
G01X3299Y10006D01*
G01X3322Y10038D01*
G01X3344Y10071D01*
G01X3365Y10105D01*
G01X3385Y10139D01*
G01X3404Y10174D01*
G01X3422Y10210D01*
G01X3439Y10246D01*
G01X3454Y10282D01*
G01X3468Y10319D01*
G01X3482Y10357D01*
G01X3494Y10395D01*
G01X3504Y10433D01*
G01X3514Y10472D01*
G01X3522Y10510D01*
G01X3529Y10550D01*
G01X3535Y10589D01*
G01X3539Y10628D01*
G01X3542Y10668D01*
G01X3544Y10708D01*
G01X3545Y10748D01*
G01X3545Y10748D02*
G01X3544Y10787D01*
G01X3542Y10827D01*
G01X3539Y10867D01*
G01X3535Y10906D01*
G01X3529Y10945D01*
G01X3522Y10985D01*
G01X3514Y11023D01*
G01X3504Y11062D01*
G01X3494Y11100D01*
G01X3482Y11138D01*
G01X3468Y11176D01*
G01X3454Y11213D01*
G01X3439Y11249D01*
G01X3422Y11286D01*
G01X3404Y11321D01*
G01X3385Y11356D01*
G01X3365Y11390D01*
G01X3344Y11424D01*
G01X3322Y11457D01*
G01X3299Y11489D01*
G01X3274Y11521D01*
G01X3249Y11551D01*
G01X3223Y11581D01*
G01X3196Y11610D01*
G01X3167Y11638D01*
G01X3138Y11665D01*
G01X3109Y11692D01*
G01X3078Y11717D01*
G01X3046Y11741D01*
G01X3014Y11765D01*
G01X2981Y11787D01*
G01X2948Y11808D01*
G01X2913Y11828D01*
G01X2878Y11847D01*
G01X2843Y11865D01*
G01X2807Y11881D01*
G01X2770Y11897D01*
G01X2733Y11911D01*
G01X2696Y11924D01*
G01X2658Y11936D01*
G01X2619Y11947D01*
G01X2581Y11956D01*
G01X2542Y11965D01*
G01X2503Y11972D01*
G01X2463Y11977D01*
G01X2424Y11982D01*
G01X2384Y11985D01*
G01X2345Y11987D01*
G01X2305Y11988D01*
G01X2305Y11988D02*
G01X2265Y11987D01*
G01X2225Y11985D01*
G01X2186Y11982D01*
G01X2146Y11977D01*
G01X2107Y11972D01*
G01X2068Y11965D01*
G01X2029Y11956D01*
G01X1990Y11947D01*
G01X1952Y11936D01*
G01X1914Y11924D01*
G01X1877Y11911D01*
G01X1839Y11897D01*
G01X1803Y11881D01*
G01X1767Y11865D01*
G01X1731Y11847D01*
G01X1696Y11828D01*
G01X1662Y11808D01*
G01X1628Y11787D01*
G01X1595Y11765D01*
G01X1563Y11741D01*
G01X1532Y11717D01*
G01X1501Y11692D01*
G01X1471Y11665D01*
G01X1442Y11638D01*
G01X1414Y11610D01*
G01X1387Y11581D01*
G01X1361Y11551D01*
G01X1335Y11521D01*
G01X1311Y11489D01*
G01X1288Y11457D01*
G01X1266Y11424D01*
G01X1244Y11390D01*
G01X1224Y11356D01*
G01X1205Y11321D01*
G01X1188Y11286D01*
G01X1171Y11249D01*
G01X1155Y11213D01*
G01X1141Y11176D01*
G01X1128Y11138D01*
G01X1116Y11100D01*
G01X1105Y11062D01*
G01X1096Y11023D01*
G01X1088Y10985D01*
G01X1081Y10945D01*
G01X1075Y10906D01*
G01X1071Y10867D01*
G01X1067Y10827D01*
G01X1065Y10787D01*
G01X1065Y10748D01*
G04 Draw part regcap2*
G04 draw part outline for part regcap2*
G01X5150Y13019D02*
G01X4850Y13019D01*
G01X5000Y12869D02*
G01X5000Y13169D01*
G01X3270Y12519D02*
G01X3270Y12479D01*
G01X3272Y12440D01*
G01X3275Y12400D01*
G01X3280Y12361D01*
G01X3285Y12321D01*
G01X3292Y12282D01*
G01X3301Y12243D01*
G01X3310Y12205D01*
G01X3321Y12166D01*
G01X3333Y12128D01*
G01X3346Y12091D01*
G01X3360Y12054D01*
G01X3376Y12017D01*
G01X3392Y11981D01*
G01X3410Y11946D01*
G01X3429Y11911D01*
G01X3449Y11876D01*
G01X3470Y11843D01*
G01X3492Y11810D01*
G01X3516Y11778D01*
G01X3540Y11746D01*
G01X3565Y11715D01*
G01X3592Y11686D01*
G01X3619Y11657D01*
G01X3647Y11628D01*
G01X3676Y11601D01*
G01X3706Y11575D01*
G01X3736Y11550D01*
G01X3768Y11525D01*
G01X3800Y11502D01*
G01X3833Y11480D01*
G01X3867Y11459D01*
G01X3901Y11439D01*
G01X3936Y11420D01*
G01X3971Y11402D01*
G01X4008Y11385D01*
G01X4044Y11370D01*
G01X4081Y11355D01*
G01X4119Y11342D01*
G01X4157Y11330D01*
G01X4195Y11320D01*
G01X4234Y11310D01*
G01X4272Y11302D01*
G01X4312Y11295D01*
G01X4351Y11289D01*
G01X4390Y11285D01*
G01X4430Y11282D01*
G01X4470Y11280D01*
G01X4510Y11279D01*
G01X4510Y11279D02*
G01X4549Y11280D01*
G01X4589Y11282D01*
G01X4629Y11285D01*
G01X4668Y11289D01*
G01X4707Y11295D01*
G01X4747Y11302D01*
G01X4785Y11310D01*
G01X4824Y11320D01*
G01X4862Y11330D01*
G01X4900Y11342D01*
G01X4938Y11355D01*
G01X4975Y11370D01*
G01X5011Y11385D01*
G01X5048Y11402D01*
G01X5083Y11420D01*
G01X5118Y11439D01*
G01X5152Y11459D01*
G01X5186Y11480D01*
G01X5219Y11502D01*
G01X5251Y11525D01*
G01X5283Y11550D01*
G01X5313Y11575D01*
G01X5343Y11601D01*
G01X5372Y11628D01*
G01X5400Y11657D01*
G01X5427Y11686D01*
G01X5454Y11715D01*
G01X5479Y11746D01*
G01X5503Y11778D01*
G01X5527Y11810D01*
G01X5549Y11843D01*
G01X5570Y11876D01*
G01X5590Y11911D01*
G01X5609Y11946D01*
G01X5627Y11981D01*
G01X5643Y12017D01*
G01X5659Y12054D01*
G01X5673Y12091D01*
G01X5686Y12128D01*
G01X5698Y12166D01*
G01X5709Y12205D01*
G01X5718Y12243D01*
G01X5727Y12282D01*
G01X5734Y12321D01*
G01X5739Y12361D01*
G01X5744Y12400D01*
G01X5747Y12440D01*
G01X5749Y12479D01*
G01X5750Y12519D01*
G01X5750Y12519D02*
G01X5749Y12559D01*
G01X5747Y12599D01*
G01X5744Y12638D01*
G01X5739Y12678D01*
G01X5734Y12717D01*
G01X5727Y12756D01*
G01X5718Y12795D01*
G01X5709Y12834D01*
G01X5698Y12872D01*
G01X5686Y12910D01*
G01X5673Y12947D01*
G01X5659Y12985D01*
G01X5643Y13021D01*
G01X5627Y13057D01*
G01X5609Y13093D01*
G01X5590Y13128D01*
G01X5570Y13162D01*
G01X5549Y13196D01*
G01X5527Y13229D01*
G01X5503Y13261D01*
G01X5479Y13292D01*
G01X5454Y13323D01*
G01X5427Y13353D01*
G01X5400Y13382D01*
G01X5372Y13410D01*
G01X5343Y13437D01*
G01X5313Y13463D01*
G01X5283Y13489D01*
G01X5251Y13513D01*
G01X5219Y13536D01*
G01X5186Y13558D01*
G01X5152Y13580D01*
G01X5118Y13600D01*
G01X5083Y13619D01*
G01X5048Y13636D01*
G01X5011Y13653D01*
G01X4975Y13669D01*
G01X4938Y13683D01*
G01X4900Y13696D01*
G01X4862Y13708D01*
G01X4824Y13719D01*
G01X4785Y13728D01*
G01X4747Y13736D01*
G01X4707Y13743D01*
G01X4668Y13749D01*
G01X4629Y13753D01*
G01X4589Y13757D01*
G01X4549Y13759D01*
G01X4510Y13759D01*
G01X4510Y13759D02*
G01X4470Y13759D01*
G01X4430Y13757D01*
G01X4390Y13753D01*
G01X4351Y13749D01*
G01X4312Y13743D01*
G01X4272Y13736D01*
G01X4234Y13728D01*
G01X4195Y13719D01*
G01X4157Y13708D01*
G01X4119Y13696D01*
G01X4081Y13683D01*
G01X4044Y13669D01*
G01X4008Y13653D01*
G01X3971Y13636D01*
G01X3936Y13619D01*
G01X3901Y13600D01*
G01X3867Y13580D01*
G01X3833Y13558D01*
G01X3800Y13536D01*
G01X3768Y13513D01*
G01X3736Y13489D01*
G01X3706Y13463D01*
G01X3676Y13437D01*
G01X3647Y13410D01*
G01X3619Y13382D01*
G01X3592Y13353D01*
G01X3565Y13323D01*
G01X3540Y13292D01*
G01X3516Y13261D01*
G01X3492Y13229D01*
G01X3470Y13196D01*
G01X3449Y13162D01*
G01X3429Y13128D01*
G01X3410Y13093D01*
G01X3392Y13057D01*
G01X3376Y13021D01*
G01X3360Y12985D01*
G01X3346Y12947D01*
G01X3333Y12910D01*
G01X3321Y12872D01*
G01X3310Y12834D01*
G01X3301Y12795D01*
G01X3292Y12756D01*
G01X3285Y12717D01*
G01X3280Y12678D01*
G01X3275Y12638D01*
G01X3272Y12599D01*
G01X3270Y12559D01*
G01X3270Y12519D01*
G04 Draw part regcap4*
G04 draw part outline for part regcap4*
G01X5243Y6862D02*
G01X5543Y6862D01*
G01X5393Y7012D02*
G01X5393Y6712D01*
G01X7123Y7362D02*
G01X7123Y7401D01*
G01X7121Y7441D01*
G01X7117Y7481D01*
G01X7113Y7520D01*
G01X7107Y7560D01*
G01X7100Y7599D01*
G01X7092Y7638D01*
G01X7083Y7676D01*
G01X7072Y7715D01*
G01X7060Y7752D01*
G01X7047Y7790D01*
G01X7033Y7827D01*
G01X7017Y7864D01*
G01X7000Y7900D01*
G01X6983Y7935D01*
G01X6964Y7970D01*
G01X6944Y8005D01*
G01X6922Y8038D01*
G01X6900Y8071D01*
G01X6877Y8103D01*
G01X6853Y8135D01*
G01X6827Y8166D01*
G01X6801Y8195D01*
G01X6774Y8224D01*
G01X6746Y8252D01*
G01X6717Y8280D01*
G01X6687Y8306D01*
G01X6656Y8331D01*
G01X6625Y8355D01*
G01X6593Y8379D01*
G01X6560Y8401D01*
G01X6526Y8422D01*
G01X6492Y8442D01*
G01X6457Y8461D01*
G01X6421Y8479D01*
G01X6385Y8496D01*
G01X6349Y8511D01*
G01X6311Y8525D01*
G01X6274Y8539D01*
G01X6236Y8550D01*
G01X6198Y8561D01*
G01X6159Y8571D01*
G01X6120Y8579D01*
G01X6081Y8586D01*
G01X6042Y8592D01*
G01X6002Y8596D01*
G01X5963Y8599D01*
G01X5923Y8601D01*
G01X5883Y8602D01*
G01X5883Y8602D02*
G01X5843Y8601D01*
G01X5804Y8599D01*
G01X5764Y8596D01*
G01X5725Y8592D01*
G01X5685Y8586D01*
G01X5646Y8579D01*
G01X5607Y8571D01*
G01X5569Y8561D01*
G01X5530Y8550D01*
G01X5492Y8539D01*
G01X5455Y8525D01*
G01X5418Y8511D01*
G01X5381Y8496D01*
G01X5345Y8479D01*
G01X5310Y8461D01*
G01X5275Y8442D01*
G01X5240Y8422D01*
G01X5207Y8401D01*
G01X5174Y8379D01*
G01X5142Y8355D01*
G01X5110Y8331D01*
G01X5079Y8306D01*
G01X5050Y8280D01*
G01X5021Y8252D01*
G01X4992Y8224D01*
G01X4965Y8195D01*
G01X4939Y8166D01*
G01X4914Y8135D01*
G01X4889Y8103D01*
G01X4866Y8071D01*
G01X4844Y8038D01*
G01X4823Y8005D01*
G01X4803Y7970D01*
G01X4784Y7935D01*
G01X4766Y7900D01*
G01X4749Y7864D01*
G01X4734Y7827D01*
G01X4719Y7790D01*
G01X4706Y7752D01*
G01X4694Y7715D01*
G01X4684Y7676D01*
G01X4674Y7638D01*
G01X4666Y7599D01*
G01X4659Y7560D01*
G01X4653Y7520D01*
G01X4649Y7481D01*
G01X4646Y7441D01*
G01X4644Y7401D01*
G01X4643Y7362D01*
G01X4643Y7362D02*
G01X4644Y7322D01*
G01X4646Y7282D01*
G01X4649Y7243D01*
G01X4653Y7203D01*
G01X4659Y7164D01*
G01X4666Y7125D01*
G01X4674Y7086D01*
G01X4684Y7047D01*
G01X4694Y7009D01*
G01X4706Y6971D01*
G01X4719Y6933D01*
G01X4734Y6896D01*
G01X4749Y6860D01*
G01X4766Y6824D01*
G01X4784Y6788D01*
G01X4803Y6753D01*
G01X4823Y6719D01*
G01X4844Y6685D01*
G01X4866Y6652D01*
G01X4889Y6620D01*
G01X4914Y6589D01*
G01X4939Y6558D01*
G01X4965Y6528D01*
G01X4992Y6499D01*
G01X5021Y6471D01*
G01X5050Y6444D01*
G01X5079Y6418D01*
G01X5110Y6392D01*
G01X5142Y6368D01*
G01X5174Y6345D01*
G01X5207Y6322D01*
G01X5240Y6301D01*
G01X5275Y6281D01*
G01X5310Y6262D01*
G01X5345Y6245D01*
G01X5381Y6228D01*
G01X5418Y6212D01*
G01X5455Y6198D01*
G01X5492Y6185D01*
G01X5530Y6173D01*
G01X5569Y6162D01*
G01X5607Y6153D01*
G01X5646Y6145D01*
G01X5685Y6138D01*
G01X5725Y6132D01*
G01X5764Y6127D01*
G01X5804Y6124D01*
G01X5843Y6122D01*
G01X5883Y6122D01*
G01X5883Y6122D02*
G01X5923Y6122D01*
G01X5963Y6124D01*
G01X6002Y6127D01*
G01X6042Y6132D01*
G01X6081Y6138D01*
G01X6120Y6145D01*
G01X6159Y6153D01*
G01X6198Y6162D01*
G01X6236Y6173D01*
G01X6274Y6185D01*
G01X6311Y6198D01*
G01X6349Y6212D01*
G01X6385Y6228D01*
G01X6421Y6245D01*
G01X6457Y6262D01*
G01X6492Y6281D01*
G01X6526Y6301D01*
G01X6560Y6322D01*
G01X6593Y6345D01*
G01X6625Y6368D01*
G01X6656Y6392D01*
G01X6687Y6418D01*
G01X6717Y6444D01*
G01X6746Y6471D01*
G01X6774Y6499D01*
G01X6801Y6528D01*
G01X6827Y6558D01*
G01X6853Y6589D01*
G01X6877Y6620D01*
G01X6900Y6652D01*
G01X6922Y6685D01*
G01X6944Y6719D01*
G01X6964Y6753D01*
G01X6983Y6788D01*
G01X7000Y6824D01*
G01X7017Y6860D01*
G01X7033Y6896D01*
G01X7047Y6933D01*
G01X7060Y6971D01*
G01X7072Y7009D01*
G01X7083Y7047D01*
G01X7092Y7086D01*
G01X7100Y7125D01*
G01X7107Y7164D01*
G01X7113Y7203D01*
G01X7117Y7243D01*
G01X7121Y7282D01*
G01X7123Y7322D01*
G01X7123Y7362D01*
G04 Draw part vreg3*
G04 Draw part vreg4*
G04 Draw part vreg5*
G04 Draw part vreg6*
G04 draw part outline for part vreg6*
G01X13649Y10007D02*
G01X13649Y10307D01*
G01X13499Y10157D02*
G01X13799Y10157D01*
G01X13149Y11887D02*
G01X13109Y11886D01*
G01X13070Y11884D01*
G01X13030Y11881D01*
G01X12991Y11877D01*
G01X12951Y11871D01*
G01X12912Y11864D01*
G01X12873Y11856D01*
G01X12835Y11846D01*
G01X12796Y11836D01*
G01X12758Y11824D01*
G01X12721Y11811D01*
G01X12684Y11796D01*
G01X12647Y11781D01*
G01X12611Y11764D01*
G01X12576Y11746D01*
G01X12541Y11727D01*
G01X12506Y11707D01*
G01X12473Y11686D01*
G01X12440Y11664D01*
G01X12407Y11641D01*
G01X12376Y11616D01*
G01X12345Y11591D01*
G01X12315Y11565D01*
G01X12286Y11538D01*
G01X12258Y11510D01*
G01X12231Y11481D01*
G01X12205Y11451D01*
G01X12180Y11420D01*
G01X12155Y11389D01*
G01X12132Y11356D01*
G01X12110Y11323D01*
G01X12089Y11290D01*
G01X12069Y11255D01*
G01X12050Y11221D01*
G01X12032Y11185D01*
G01X12015Y11149D01*
G01X12000Y11112D01*
G01X11985Y11075D01*
G01X11972Y11038D01*
G01X11960Y11000D01*
G01X11950Y10962D01*
G01X11940Y10923D01*
G01X11932Y10884D01*
G01X11925Y10845D01*
G01X11919Y10806D01*
G01X11915Y10766D01*
G01X11912Y10726D01*
G01X11910Y10687D01*
G01X11909Y10647D01*
G01X11909Y10647D02*
G01X11910Y10607D01*
G01X11912Y10568D01*
G01X11915Y10528D01*
G01X11919Y10488D01*
G01X11925Y10449D01*
G01X11932Y10410D01*
G01X11940Y10371D01*
G01X11950Y10332D01*
G01X11960Y10294D01*
G01X11972Y10256D01*
G01X11985Y10219D01*
G01X12000Y10182D01*
G01X12015Y10145D01*
G01X12032Y10109D01*
G01X12050Y10073D01*
G01X12069Y10038D01*
G01X12089Y10004D01*
G01X12110Y9971D01*
G01X12132Y9938D01*
G01X12155Y9905D01*
G01X12180Y9874D01*
G01X12205Y9843D01*
G01X12231Y9813D01*
G01X12258Y9784D01*
G01X12286Y9756D01*
G01X12315Y9729D01*
G01X12345Y9703D01*
G01X12376Y9678D01*
G01X12407Y9653D01*
G01X12440Y9630D01*
G01X12473Y9608D01*
G01X12506Y9587D01*
G01X12541Y9567D01*
G01X12576Y9548D01*
G01X12611Y9530D01*
G01X12647Y9513D01*
G01X12684Y9498D01*
G01X12721Y9483D01*
G01X12758Y9470D01*
G01X12796Y9458D01*
G01X12835Y9448D01*
G01X12873Y9438D01*
G01X12912Y9430D01*
G01X12951Y9423D01*
G01X12991Y9417D01*
G01X13030Y9413D01*
G01X13070Y9410D01*
G01X13109Y9408D01*
G01X13149Y9407D01*
G01X13149Y9407D02*
G01X13189Y9408D01*
G01X13229Y9410D01*
G01X13268Y9413D01*
G01X13308Y9417D01*
G01X13347Y9423D01*
G01X13386Y9430D01*
G01X13425Y9438D01*
G01X13464Y9448D01*
G01X13502Y9458D01*
G01X13540Y9470D01*
G01X13577Y9483D01*
G01X13614Y9498D01*
G01X13651Y9513D01*
G01X13687Y9530D01*
G01X13723Y9548D01*
G01X13758Y9567D01*
G01X13792Y9587D01*
G01X13826Y9608D01*
G01X13859Y9630D01*
G01X13891Y9653D01*
G01X13922Y9678D01*
G01X13953Y9703D01*
G01X13983Y9729D01*
G01X14012Y9756D01*
G01X14040Y9784D01*
G01X14067Y9813D01*
G01X14093Y9843D01*
G01X14119Y9874D01*
G01X14143Y9905D01*
G01X14166Y9938D01*
G01X14188Y9971D01*
G01X14209Y10004D01*
G01X14230Y10038D01*
G01X14248Y10073D01*
G01X14266Y10109D01*
G01X14283Y10145D01*
G01X14298Y10182D01*
G01X14313Y10219D01*
G01X14326Y10256D01*
G01X14338Y10294D01*
G01X14349Y10332D01*
G01X14358Y10371D01*
G01X14366Y10410D01*
G01X14373Y10449D01*
G01X14379Y10488D01*
G01X14383Y10528D01*
G01X14387Y10568D01*
G01X14388Y10607D01*
G01X14389Y10647D01*
G01X14389Y10647D02*
G01X14388Y10687D01*
G01X14387Y10726D01*
G01X14383Y10766D01*
G01X14379Y10806D01*
G01X14373Y10845D01*
G01X14366Y10884D01*
G01X14358Y10923D01*
G01X14349Y10962D01*
G01X14338Y11000D01*
G01X14326Y11038D01*
G01X14313Y11075D01*
G01X14298Y11112D01*
G01X14283Y11149D01*
G01X14266Y11185D01*
G01X14248Y11221D01*
G01X14230Y11255D01*
G01X14209Y11290D01*
G01X14188Y11323D01*
G01X14166Y11356D01*
G01X14143Y11389D01*
G01X14119Y11420D01*
G01X14093Y11451D01*
G01X14067Y11481D01*
G01X14040Y11510D01*
G01X14012Y11538D01*
G01X13983Y11565D01*
G01X13953Y11591D01*
G01X13922Y11616D01*
G01X13891Y11641D01*
G01X13859Y11664D01*
G01X13826Y11686D01*
G01X13792Y11707D01*
G01X13758Y11727D01*
G01X13723Y11746D01*
G01X13687Y11764D01*
G01X13651Y11781D01*
G01X13614Y11796D01*
G01X13577Y11811D01*
G01X13540Y11824D01*
G01X13502Y11836D01*
G01X13464Y11846D01*
G01X13425Y11856D01*
G01X13386Y11864D01*
G01X13347Y11871D01*
G01X13308Y11877D01*
G01X13268Y11881D01*
G01X13229Y11884D01*
G01X13189Y11886D01*
G01X13149Y11887D01*
G04 Draw part srdecoup20*
G04 draw part outline for part srdecoup20*
G01X16035Y1961D02*
G01X16035Y1661D01*
G01X16185Y1811D02*
G01X15885Y1811D01*
G01X16535Y81D02*
G01X16575Y81D01*
G01X16614Y83D01*
G01X16654Y86D01*
G01X16694Y91D01*
G01X16733Y96D01*
G01X16772Y103D01*
G01X16811Y112D01*
G01X16849Y121D01*
G01X16888Y132D01*
G01X16926Y144D01*
G01X16963Y157D01*
G01X17000Y171D01*
G01X17037Y187D01*
G01X17073Y203D01*
G01X17108Y221D01*
G01X17143Y240D01*
G01X17178Y260D01*
G01X17211Y281D01*
G01X17244Y304D01*
G01X17277Y327D01*
G01X17308Y351D01*
G01X17339Y376D01*
G01X17369Y403D01*
G01X17398Y430D01*
G01X17426Y458D01*
G01X17453Y487D01*
G01X17479Y517D01*
G01X17504Y547D01*
G01X17529Y579D01*
G01X17552Y611D01*
G01X17574Y644D01*
G01X17595Y678D01*
G01X17615Y712D01*
G01X17634Y747D01*
G01X17652Y783D01*
G01X17669Y819D01*
G01X17684Y855D01*
G01X17699Y892D01*
G01X17712Y930D01*
G01X17724Y968D01*
G01X17734Y1006D01*
G01X17744Y1045D01*
G01X17752Y1083D01*
G01X17759Y1123D01*
G01X17765Y1162D01*
G01X17769Y1201D01*
G01X17772Y1241D01*
G01X17774Y1281D01*
G01X17775Y1321D01*
G01X17775Y1321D02*
G01X17774Y1360D01*
G01X17772Y1400D01*
G01X17769Y1440D01*
G01X17765Y1479D01*
G01X17759Y1518D01*
G01X17752Y1558D01*
G01X17744Y1596D01*
G01X17734Y1635D01*
G01X17724Y1673D01*
G01X17712Y1711D01*
G01X17699Y1749D01*
G01X17684Y1786D01*
G01X17669Y1822D01*
G01X17652Y1859D01*
G01X17634Y1894D01*
G01X17615Y1929D01*
G01X17595Y1963D01*
G01X17574Y1997D01*
G01X17552Y2030D01*
G01X17529Y2062D01*
G01X17504Y2094D01*
G01X17479Y2124D01*
G01X17453Y2154D01*
G01X17426Y2183D01*
G01X17398Y2211D01*
G01X17369Y2238D01*
G01X17339Y2265D01*
G01X17308Y2290D01*
G01X17277Y2314D01*
G01X17244Y2338D01*
G01X17211Y2360D01*
G01X17178Y2381D01*
G01X17143Y2401D01*
G01X17108Y2420D01*
G01X17073Y2438D01*
G01X17037Y2454D01*
G01X17000Y2470D01*
G01X16963Y2484D01*
G01X16926Y2497D01*
G01X16888Y2509D01*
G01X16849Y2520D01*
G01X16811Y2529D01*
G01X16772Y2538D01*
G01X16733Y2545D01*
G01X16694Y2550D01*
G01X16654Y2555D01*
G01X16614Y2558D01*
G01X16575Y2560D01*
G01X16535Y2561D01*
G01X16535Y2561D02*
G01X16495Y2560D01*
G01X16455Y2558D01*
G01X16416Y2555D01*
G01X16376Y2550D01*
G01X16337Y2545D01*
G01X16298Y2538D01*
G01X16259Y2529D01*
G01X16220Y2520D01*
G01X16182Y2509D01*
G01X16144Y2497D01*
G01X16107Y2484D01*
G01X16070Y2470D01*
G01X16033Y2454D01*
G01X15997Y2438D01*
G01X15961Y2420D01*
G01X15926Y2401D01*
G01X15892Y2381D01*
G01X15858Y2360D01*
G01X15826Y2338D01*
G01X15793Y2314D01*
G01X15762Y2290D01*
G01X15731Y2265D01*
G01X15701Y2238D01*
G01X15672Y2211D01*
G01X15644Y2183D01*
G01X15617Y2154D01*
G01X15591Y2124D01*
G01X15565Y2094D01*
G01X15541Y2062D01*
G01X15518Y2030D01*
G01X15496Y1997D01*
G01X15475Y1963D01*
G01X15454Y1929D01*
G01X15436Y1894D01*
G01X15418Y1859D01*
G01X15401Y1822D01*
G01X15386Y1786D01*
G01X15371Y1749D01*
G01X15358Y1711D01*
G01X15346Y1673D01*
G01X15335Y1635D01*
G01X15326Y1596D01*
G01X15318Y1558D01*
G01X15311Y1518D01*
G01X15305Y1479D01*
G01X15301Y1440D01*
G01X15297Y1400D01*
G01X15296Y1360D01*
G01X15295Y1321D01*
G01X15295Y1321D02*
G01X15296Y1281D01*
G01X15297Y1241D01*
G01X15301Y1201D01*
G01X15305Y1162D01*
G01X15311Y1123D01*
G01X15318Y1083D01*
G01X15326Y1045D01*
G01X15335Y1006D01*
G01X15346Y968D01*
G01X15358Y930D01*
G01X15371Y892D01*
G01X15386Y855D01*
G01X15401Y819D01*
G01X15418Y783D01*
G01X15436Y747D01*
G01X15454Y712D01*
G01X15475Y678D01*
G01X15496Y644D01*
G01X15518Y611D01*
G01X15541Y579D01*
G01X15565Y547D01*
G01X15591Y517D01*
G01X15617Y487D01*
G01X15644Y458D01*
G01X15672Y430D01*
G01X15701Y403D01*
G01X15731Y376D01*
G01X15762Y351D01*
G01X15793Y327D01*
G01X15826Y304D01*
G01X15858Y281D01*
G01X15892Y260D01*
G01X15926Y240D01*
G01X15961Y221D01*
G01X15997Y203D01*
G01X16033Y187D01*
G01X16070Y171D01*
G01X16107Y157D01*
G01X16144Y144D01*
G01X16182Y132D01*
G01X16220Y121D01*
G01X16259Y112D01*
G01X16298Y103D01*
G01X16337Y96D01*
G01X16376Y91D01*
G01X16416Y86D01*
G01X16455Y83D01*
G01X16495Y81D01*
G01X16535Y81D01*
G04 Draw part srdecoup21*
G04 draw part outline for part srdecoup21*
G01X12964Y8102D02*
G01X12964Y7802D01*
G01X13114Y7952D02*
G01X12814Y7952D01*
G01X13464Y6222D02*
G01X13504Y6223D01*
G01X13544Y6225D01*
G01X13583Y6228D01*
G01X13623Y6232D01*
G01X13662Y6238D01*
G01X13701Y6245D01*
G01X13740Y6253D01*
G01X13779Y6263D01*
G01X13817Y6274D01*
G01X13855Y6285D01*
G01X13892Y6299D01*
G01X13929Y6313D01*
G01X13966Y6328D01*
G01X14002Y6345D01*
G01X14038Y6363D01*
G01X14073Y6382D01*
G01X14107Y6402D01*
G01X14141Y6423D01*
G01X14173Y6445D01*
G01X14206Y6469D01*
G01X14237Y6493D01*
G01X14268Y6518D01*
G01X14298Y6544D01*
G01X14327Y6572D01*
G01X14355Y6600D01*
G01X14382Y6629D01*
G01X14408Y6658D01*
G01X14434Y6689D01*
G01X14458Y6721D01*
G01X14481Y6753D01*
G01X14503Y6786D01*
G01X14524Y6819D01*
G01X14545Y6854D01*
G01X14563Y6889D01*
G01X14581Y6924D01*
G01X14598Y6960D01*
G01X14613Y6997D01*
G01X14628Y7034D01*
G01X14641Y7072D01*
G01X14653Y7109D01*
G01X14664Y7148D01*
G01X14673Y7186D01*
G01X14681Y7225D01*
G01X14688Y7264D01*
G01X14694Y7304D01*
G01X14698Y7343D01*
G01X14702Y7383D01*
G01X14703Y7423D01*
G01X14704Y7462D01*
G01X14704Y7462D02*
G01X14703Y7502D01*
G01X14702Y7542D01*
G01X14698Y7581D01*
G01X14694Y7621D01*
G01X14688Y7660D01*
G01X14681Y7699D01*
G01X14673Y7738D01*
G01X14664Y7777D01*
G01X14653Y7815D01*
G01X14641Y7853D01*
G01X14628Y7891D01*
G01X14613Y7928D01*
G01X14598Y7964D01*
G01X14581Y8000D01*
G01X14563Y8036D01*
G01X14545Y8071D01*
G01X14524Y8105D01*
G01X14503Y8139D01*
G01X14481Y8172D01*
G01X14458Y8204D01*
G01X14434Y8235D01*
G01X14408Y8266D01*
G01X14382Y8296D01*
G01X14355Y8325D01*
G01X14327Y8353D01*
G01X14298Y8380D01*
G01X14268Y8406D01*
G01X14237Y8432D01*
G01X14206Y8456D01*
G01X14173Y8479D01*
G01X14141Y8501D01*
G01X14107Y8523D01*
G01X14073Y8543D01*
G01X14038Y8562D01*
G01X14002Y8579D01*
G01X13966Y8596D01*
G01X13929Y8612D01*
G01X13892Y8626D01*
G01X13855Y8639D01*
G01X13817Y8651D01*
G01X13779Y8662D01*
G01X13740Y8671D01*
G01X13701Y8679D01*
G01X13662Y8686D01*
G01X13623Y8692D01*
G01X13583Y8697D01*
G01X13544Y8700D01*
G01X13504Y8702D01*
G01X13464Y8702D01*
G01X13464Y8702D02*
G01X13424Y8702D01*
G01X13385Y8700D01*
G01X13345Y8697D01*
G01X13305Y8692D01*
G01X13266Y8686D01*
G01X13227Y8679D01*
G01X13188Y8671D01*
G01X13150Y8662D01*
G01X13111Y8651D01*
G01X13073Y8639D01*
G01X13036Y8626D01*
G01X12999Y8612D01*
G01X12962Y8596D01*
G01X12926Y8579D01*
G01X12891Y8562D01*
G01X12856Y8543D01*
G01X12821Y8523D01*
G01X12788Y8501D01*
G01X12755Y8479D01*
G01X12722Y8456D01*
G01X12691Y8432D01*
G01X12660Y8406D01*
G01X12630Y8380D01*
G01X12601Y8353D01*
G01X12573Y8325D01*
G01X12546Y8296D01*
G01X12520Y8266D01*
G01X12495Y8235D01*
G01X12470Y8204D01*
G01X12447Y8172D01*
G01X12425Y8139D01*
G01X12404Y8105D01*
G01X12384Y8071D01*
G01X12365Y8036D01*
G01X12347Y8000D01*
G01X12330Y7964D01*
G01X12315Y7928D01*
G01X12300Y7891D01*
G01X12287Y7853D01*
G01X12275Y7815D01*
G01X12265Y7777D01*
G01X12255Y7738D01*
G01X12247Y7699D01*
G01X12240Y7660D01*
G01X12234Y7621D01*
G01X12230Y7581D01*
G01X12227Y7542D01*
G01X12225Y7502D01*
G01X12224Y7462D01*
G01X12224Y7462D02*
G01X12225Y7423D01*
G01X12227Y7383D01*
G01X12230Y7343D01*
G01X12234Y7304D01*
G01X12240Y7264D01*
G01X12247Y7225D01*
G01X12255Y7186D01*
G01X12265Y7148D01*
G01X12275Y7109D01*
G01X12287Y7072D01*
G01X12300Y7034D01*
G01X12315Y6997D01*
G01X12330Y6960D01*
G01X12347Y6924D01*
G01X12365Y6889D01*
G01X12384Y6854D01*
G01X12404Y6819D01*
G01X12425Y6786D01*
G01X12447Y6753D01*
G01X12470Y6721D01*
G01X12495Y6689D01*
G01X12520Y6658D01*
G01X12546Y6629D01*
G01X12573Y6600D01*
G01X12601Y6572D01*
G01X12630Y6544D01*
G01X12660Y6518D01*
G01X12691Y6493D01*
G01X12722Y6469D01*
G01X12755Y6445D01*
G01X12788Y6423D01*
G01X12821Y6402D01*
G01X12856Y6382D01*
G01X12891Y6363D01*
G01X12926Y6345D01*
G01X12962Y6328D01*
G01X12999Y6313D01*
G01X13036Y6299D01*
G01X13073Y6285D01*
G01X13111Y6274D01*
G01X13150Y6263D01*
G01X13188Y6253D01*
G01X13227Y6245D01*
G01X13266Y6238D01*
G01X13305Y6232D01*
G01X13345Y6228D01*
G01X13385Y6225D01*
G01X13424Y6223D01*
G01X13464Y6222D01*
G04 Draw part cpudec*
G04 draw part outline for part cpudec*
G01X38385Y8759D02*
G01X38385Y10098D01*
G01X38385Y10098D02*
G01X39094Y10098D01*
G01X39094Y10098D02*
G01X39094Y8759D01*
G01X39094Y8759D02*
G01X38385Y8759D01*
G04 Draw part jumperblock*
G04 draw part outline for part jumperblock*
G04 Draw part mounthole3*
G04 draw part outline for part mounthole3*
G04 Draw part mounthole5*
G04 draw part outline for part mounthole5*
G04 Draw part mounthole6*
G04 draw part outline for part mounthole6*
G04 Draw part ledres34*
G04 draw part outline for part ledres34*
G01X38011Y21889D02*
G01X39350Y21889D01*
G01X39350Y21889D02*
G01X39350Y21181D01*
G01X39350Y21181D02*
G01X38011Y21181D01*
G01X38011Y21181D02*
G01X38011Y21889D01*
G04 Draw part led100*
G04 draw part outline for part led100*
G01X36358Y24015D02*
G01X37696Y24015D01*
G01X37696Y24015D02*
G01X37696Y23307D01*
G01X37696Y23307D02*
G01X36358Y23307D01*
G01X36358Y23307D02*
G01X36358Y24015D01*
G04 Draw part led101*
G04 draw part outline for part led101*
G01X36358Y23188D02*
G01X37696Y23188D01*
G01X37696Y23188D02*
G01X37696Y22480D01*
G01X37696Y22480D02*
G01X36358Y22480D01*
G01X36358Y22480D02*
G01X36358Y23188D01*
G04 Draw part 5vreg*
G04 draw part outline for part 5vreg*
G01X1968Y9291D02*
G01X1968Y7279D01*
G01X1968Y7279D02*
G01X2755Y7279D01*
G01X2755Y7279D02*
G01X2755Y9291D01*
G01X2755Y9291D02*
G01X1968Y9291D01*
G01X2165Y9291D02*
G01X2165Y9094D01*
G01X2165Y9094D02*
G01X2559Y9094D01*
G01X2559Y9094D02*
G01X2559Y9291D01*
G01X2559Y9291D02*
G01X2165Y9291D01*
G04 Draw part led400*
G04 draw part outline for part led400*
G01X5688Y14094D02*
G01X7027Y14094D01*
G01X7027Y14094D02*
G01X7027Y13385D01*
G01X7027Y13385D02*
G01X5688Y13385D01*
G01X5688Y13385D02*
G01X5688Y14094D01*
G04 Draw part dinpd*
G04 Draw part cpowpd*
G04 Draw part sysram*
G04 draw part outline for part sysram*
G01X19481Y6777D02*
G01X19481Y10477D01*
G01X19481Y10477D02*
G01X27581Y10477D01*
G01X27581Y10477D02*
G01X27581Y6777D01*
G01X27581Y6777D02*
G01X19481Y6777D01*
G01X19482Y8385D02*
G01X19482Y8818D01*
G01X19482Y8818D02*
G01X19738Y8818D01*
G01X19738Y8818D02*
G01X19738Y8385D01*
G01X19738Y8385D02*
G01X19482Y8385D01*
G04 draw reference designator for part sysram*
G01X23405Y7550D02*
G01X23450Y7572D01*
G01X23382Y7481D02*
G01X23405Y7550D01*
G01X23382Y7413D02*
G01X23382Y7481D01*
G01X23382Y7413D02*
G01X23405Y7345D01*
G01X23405Y7345D02*
G01X23450Y7322D01*
G01X23450Y7322D02*
G01X23496Y7345D01*
G01X23496Y7345D02*
G01X23518Y7391D01*
G01X23518Y7391D02*
G01X23541Y7504D01*
G01X23541Y7504D02*
G01X23564Y7550D01*
G01X23564Y7550D02*
G01X23609Y7572D01*
G01X23609Y7572D02*
G01X23632Y7572D01*
G01X23632Y7572D02*
G01X23678Y7550D01*
G01X23678Y7550D02*
G01X23700Y7481D01*
G01X23700Y7413D02*
G01X23700Y7481D01*
G01X23678Y7345D02*
G01X23700Y7413D01*
G01X23632Y7322D02*
G01X23678Y7345D01*
G01X23382Y7777D02*
G01X23700Y7913D01*
G01X23382Y8050D02*
G01X23700Y7913D01*
G01X23700Y7913D02*
G01X23791Y7868D01*
G01X23791Y7868D02*
G01X23837Y7822D01*
G01X23837Y7822D02*
G01X23859Y7777D01*
G01X23859Y7754D02*
G01X23859Y7777D01*
G01X23405Y8459D02*
G01X23450Y8481D01*
G01X23382Y8391D02*
G01X23405Y8459D01*
G01X23382Y8322D02*
G01X23382Y8391D01*
G01X23382Y8322D02*
G01X23405Y8254D01*
G01X23405Y8254D02*
G01X23450Y8231D01*
G01X23450Y8231D02*
G01X23496Y8254D01*
G01X23496Y8254D02*
G01X23518Y8300D01*
G01X23518Y8300D02*
G01X23541Y8413D01*
G01X23541Y8413D02*
G01X23564Y8459D01*
G01X23564Y8459D02*
G01X23609Y8481D01*
G01X23609Y8481D02*
G01X23632Y8481D01*
G01X23632Y8481D02*
G01X23678Y8459D01*
G01X23678Y8459D02*
G01X23700Y8391D01*
G01X23700Y8322D02*
G01X23700Y8391D01*
G01X23678Y8254D02*
G01X23700Y8322D01*
G01X23632Y8231D02*
G01X23678Y8254D01*
G01X23382Y8663D02*
G01X23700Y8663D01*
G01X23450Y8686D02*
G01X23518Y8663D01*
G01X23405Y8731D02*
G01X23450Y8686D01*
G01X23382Y8777D02*
G01X23405Y8731D01*
G01X23382Y8845D02*
G01X23382Y8777D01*
G01X23382Y9300D02*
G01X23700Y9300D01*
G01X23405Y9254D02*
G01X23450Y9300D01*
G01X23382Y9209D02*
G01X23405Y9254D01*
G01X23382Y9141D02*
G01X23382Y9209D01*
G01X23382Y9141D02*
G01X23405Y9095D01*
G01X23405Y9095D02*
G01X23450Y9050D01*
G01X23450Y9050D02*
G01X23518Y9027D01*
G01X23518Y9027D02*
G01X23564Y9027D01*
G01X23564Y9027D02*
G01X23632Y9050D01*
G01X23632Y9050D02*
G01X23678Y9095D01*
G01X23678Y9095D02*
G01X23700Y9141D01*
G01X23700Y9209D02*
G01X23700Y9141D01*
G01X23678Y9254D02*
G01X23700Y9209D01*
G01X23632Y9300D02*
G01X23678Y9254D01*
G01X23382Y9481D02*
G01X23700Y9481D01*
G01X23405Y9550D02*
G01X23473Y9481D01*
G01X23382Y9595D02*
G01X23405Y9550D01*
G01X23382Y9663D02*
G01X23382Y9595D01*
G01X23382Y9663D02*
G01X23405Y9709D01*
G01X23405Y9709D02*
G01X23473Y9731D01*
G01X23473Y9731D02*
G01X23700Y9731D01*
G01X23405Y9800D02*
G01X23473Y9731D01*
G01X23382Y9845D02*
G01X23405Y9800D01*
G01X23382Y9913D02*
G01X23382Y9845D01*
G01X23382Y9913D02*
G01X23405Y9959D01*
G01X23405Y9959D02*
G01X23473Y9981D01*
G01X23473Y9981D02*
G01X23700Y9981D01*
G04 Draw part smdcap*
G04 draw part outline for part smdcap*
G01X18405Y12165D02*
G01X19744Y12165D01*
G01X19744Y12165D02*
G01X19744Y11456D01*
G01X19744Y11456D02*
G01X18405Y11456D01*
G01X18405Y11456D02*
G01X18405Y12165D01*
G04 Draw part spare_pin*
G04 draw part outline for part spare_pin*

G04 Draw traces*

G04 Draw Text*
G01X10236Y21320D02*
G01X10379Y20944D01*
G01X10522Y21320D02*
G01X10379Y20944D01*
G01X10934Y21231D02*
G01X10916Y21267D01*
G01X10916Y21267D02*
G01X10880Y21302D01*
G01X10880Y21302D02*
G01X10844Y21320D01*
G01X10844Y21320D02*
G01X10773Y21320D01*
G01X10773Y21320D02*
G01X10737Y21302D01*
G01X10737Y21302D02*
G01X10701Y21267D01*
G01X10701Y21267D02*
G01X10683Y21231D01*
G01X10683Y21231D02*
G01X10665Y21177D01*
G01X10665Y21177D02*
G01X10665Y21088D01*
G01X10665Y21088D02*
G01X10683Y21034D01*
G01X10683Y21034D02*
G01X10701Y20998D01*
G01X10701Y20998D02*
G01X10737Y20962D01*
G01X10737Y20962D02*
G01X10773Y20944D01*
G01X10773Y20944D02*
G01X10844Y20944D01*
G01X10844Y20944D02*
G01X10880Y20962D01*
G01X10880Y20962D02*
G01X10916Y20998D01*
G01X10916Y20998D02*
G01X10934Y21034D01*
G01X11345Y21231D02*
G01X11327Y21267D01*
G01X11327Y21267D02*
G01X11292Y21302D01*
G01X11292Y21302D02*
G01X11256Y21320D01*
G01X11256Y21320D02*
G01X11184Y21320D01*
G01X11184Y21320D02*
G01X11148Y21302D01*
G01X11148Y21302D02*
G01X11113Y21267D01*
G01X11113Y21267D02*
G01X11095Y21231D01*
G01X11095Y21231D02*
G01X11077Y21177D01*
G01X11077Y21177D02*
G01X11077Y21088D01*
G01X11077Y21088D02*
G01X11095Y21034D01*
G01X11095Y21034D02*
G01X11113Y20998D01*
G01X11113Y20998D02*
G01X11148Y20962D01*
G01X11148Y20962D02*
G01X11184Y20944D01*
G01X11184Y20944D02*
G01X11256Y20944D01*
G01X11256Y20944D02*
G01X11292Y20962D01*
G01X11292Y20962D02*
G01X11327Y20998D01*
G01X11327Y20998D02*
G01X11345Y21034D01*
G01X10504Y20168D02*
G01X10486Y20204D01*
G01X10486Y20204D02*
G01X10450Y20239D01*
G01X10450Y20239D02*
G01X10415Y20257D01*
G01X10415Y20257D02*
G01X10343Y20257D01*
G01X10343Y20257D02*
G01X10307Y20239D01*
G01X10307Y20239D02*
G01X10272Y20204D01*
G01X10272Y20204D02*
G01X10254Y20168D01*
G01X10254Y20168D02*
G01X10236Y20114D01*
G01X10236Y20114D02*
G01X10236Y20025D01*
G01X10236Y20025D02*
G01X10254Y19971D01*
G01X10254Y19971D02*
G01X10272Y19935D01*
G01X10272Y19935D02*
G01X10307Y19899D01*
G01X10307Y19899D02*
G01X10343Y19881D01*
G01X10343Y19881D02*
G01X10415Y19881D01*
G01X10415Y19881D02*
G01X10450Y19899D01*
G01X10450Y19899D02*
G01X10486Y19935D01*
G01X10486Y19935D02*
G01X10504Y19971D01*
G01X10504Y19971D02*
G01X10504Y20025D01*
G01X10415Y20025D02*
G01X10504Y20025D01*
G01X10647Y20257D02*
G01X10647Y19881D01*
G01X10647Y20257D02*
G01X10898Y19881D01*
G01X10898Y20257D02*
G01X10898Y19881D01*
G01X11041Y20257D02*
G01X11041Y19881D01*
G01X11041Y20257D02*
G01X11166Y20257D01*
G01X11166Y20257D02*
G01X11220Y20239D01*
G01X11220Y20239D02*
G01X11256Y20204D01*
G01X11256Y20204D02*
G01X11274Y20168D01*
G01X11274Y20168D02*
G01X11292Y20114D01*
G01X11292Y20114D02*
G01X11292Y20025D01*
G01X11292Y20025D02*
G01X11274Y19971D01*
G01X11274Y19971D02*
G01X11256Y19935D01*
G01X11256Y19935D02*
G01X11220Y19899D01*
G01X11220Y19899D02*
G01X11166Y19881D01*
G01X11166Y19881D02*
G01X11041Y19881D01*
G01X10282Y16281D02*
G01X10282Y15905D01*
G01X10157Y16281D02*
G01X10408Y16281D01*
G01X10551Y16281D02*
G01X10551Y15905D01*
G01X10551Y16281D02*
G01X10694Y15905D01*
G01X10837Y16281D02*
G01X10694Y15905D01*
G01X10837Y16281D02*
G01X10837Y15905D01*
G01X11231Y16227D02*
G01X11195Y16263D01*
G01X11195Y16263D02*
G01X11141Y16281D01*
G01X11141Y16281D02*
G01X11070Y16281D01*
G01X11070Y16281D02*
G01X11016Y16263D01*
G01X11016Y16263D02*
G01X10980Y16227D01*
G01X10980Y16227D02*
G01X10980Y16191D01*
G01X10980Y16191D02*
G01X10998Y16156D01*
G01X10998Y16156D02*
G01X11016Y16138D01*
G01X11016Y16138D02*
G01X11052Y16120D01*
G01X11052Y16120D02*
G01X11159Y16084D01*
G01X11159Y16084D02*
G01X11195Y16066D01*
G01X11195Y16066D02*
G01X11213Y16048D01*
G01X11213Y16048D02*
G01X11231Y16012D01*
G01X11231Y16012D02*
G01X11231Y15959D01*
G01X11231Y15959D02*
G01X11195Y15923D01*
G01X11195Y15923D02*
G01X11141Y15905D01*
G01X11141Y15905D02*
G01X11070Y15905D01*
G01X11070Y15905D02*
G01X11016Y15923D01*
G01X11016Y15923D02*
G01X10980Y15959D01*
G54D11*
G01X9081Y17551D02*
G01X9511Y17551D01*
G01X9511Y17551D02*
G01X9591Y17525D01*
G01X9591Y17525D02*
G01X9618Y17498D01*
G01X9618Y17498D02*
G01X9645Y17444D01*
G01X9645Y17444D02*
G01X9645Y17390D01*
G01X9645Y17390D02*
G01X9618Y17337D01*
G01X9618Y17337D02*
G01X9591Y17310D01*
G01X9591Y17310D02*
G01X9511Y17283D01*
G01X9511Y17283D02*
G01X9457Y17283D01*
G01X9081Y17954D02*
G01X9645Y17954D01*
G01X9081Y17766D02*
G01X9081Y18142D01*
G01X9081Y18571D02*
G01X9645Y18357D01*
G01X9081Y18571D02*
G01X9645Y18786D01*
G01X9457Y18437D02*
G01X9457Y18706D01*
G01X9216Y19404D02*
G01X9162Y19377D01*
G01X9162Y19377D02*
G01X9108Y19323D01*
G01X9108Y19323D02*
G01X9081Y19269D01*
G01X9081Y19269D02*
G01X9081Y19162D01*
G01X9081Y19162D02*
G01X9108Y19108D01*
G01X9108Y19108D02*
G01X9162Y19055D01*
G01X9162Y19055D02*
G01X9216Y19028D01*
G01X9216Y19028D02*
G01X9296Y19001D01*
G01X9296Y19001D02*
G01X9430Y19001D01*
G01X9430Y19001D02*
G01X9511Y19028D01*
G01X9511Y19028D02*
G01X9565Y19055D01*
G01X9565Y19055D02*
G01X9618Y19108D01*
G01X9618Y19108D02*
G01X9645Y19162D01*
G01X9645Y19162D02*
G01X9645Y19269D01*
G01X9645Y19269D02*
G01X9618Y19323D01*
G01X9618Y19323D02*
G01X9565Y19377D01*
G01X9565Y19377D02*
G01X9511Y19404D01*
G01X9511Y19404D02*
G01X9430Y19404D01*
G01X9430Y19269D02*
G01X9430Y19404D01*
G54D10*
G01X10361Y17265D02*
G01X10361Y16889D01*
G01X10236Y17265D02*
G01X10486Y17265D01*
G01X10629Y17265D02*
G01X10629Y16889D01*
G01X10629Y17265D02*
G01X10755Y17265D01*
G01X10755Y17265D02*
G01X10808Y17247D01*
G01X10808Y17247D02*
G01X10844Y17211D01*
G01X10844Y17211D02*
G01X10862Y17176D01*
G01X10862Y17176D02*
G01X10880Y17122D01*
G01X10880Y17122D02*
G01X10880Y17032D01*
G01X10880Y17032D02*
G01X10862Y16979D01*
G01X10862Y16979D02*
G01X10844Y16943D01*
G01X10844Y16943D02*
G01X10808Y16907D01*
G01X10808Y16907D02*
G01X10755Y16889D01*
G01X10755Y16889D02*
G01X10629Y16889D01*
G01X11023Y17265D02*
G01X11023Y16889D01*
G01X10322Y18249D02*
G01X10322Y17874D01*
G01X10196Y18249D02*
G01X10447Y18249D01*
G01X10590Y18249D02*
G01X10590Y17874D01*
G01X10590Y18249D02*
G01X10715Y18249D01*
G01X10715Y18249D02*
G01X10769Y18231D01*
G01X10769Y18231D02*
G01X10805Y18196D01*
G01X10805Y18196D02*
G01X10823Y18160D01*
G01X10823Y18160D02*
G01X10841Y18106D01*
G01X10841Y18106D02*
G01X10841Y18017D01*
G01X10841Y18017D02*
G01X10823Y17963D01*
G01X10823Y17963D02*
G01X10805Y17927D01*
G01X10805Y17927D02*
G01X10769Y17891D01*
G01X10769Y17891D02*
G01X10715Y17874D01*
G01X10715Y17874D02*
G01X10590Y17874D01*
G01X11091Y18249D02*
G01X11037Y18231D01*
G01X11037Y18231D02*
G01X11002Y18178D01*
G01X11002Y18178D02*
G01X10984Y18088D01*
G01X10984Y18088D02*
G01X10984Y18035D01*
G01X10984Y18035D02*
G01X11002Y17945D01*
G01X11002Y17945D02*
G01X11037Y17891D01*
G01X11037Y17891D02*
G01X11091Y17874D01*
G01X11091Y17874D02*
G01X11127Y17874D01*
G01X11127Y17874D02*
G01X11181Y17891D01*
G01X11181Y17891D02*
G01X11216Y17945D01*
G01X11216Y17945D02*
G01X11234Y18035D01*
G01X11234Y18035D02*
G01X11234Y18088D01*
G01X11234Y18088D02*
G01X11216Y18178D01*
G01X11216Y18178D02*
G01X11181Y18231D01*
G01X11181Y18231D02*
G01X11127Y18249D01*
G01X11127Y18249D02*
G01X11091Y18249D01*
G01X10361Y19234D02*
G01X10361Y18858D01*
G01X10236Y19234D02*
G01X10486Y19234D01*
G01X10898Y19144D02*
G01X10880Y19180D01*
G01X10880Y19180D02*
G01X10844Y19216D01*
G01X10844Y19216D02*
G01X10808Y19234D01*
G01X10808Y19234D02*
G01X10737Y19234D01*
G01X10737Y19234D02*
G01X10701Y19216D01*
G01X10701Y19216D02*
G01X10665Y19180D01*
G01X10665Y19180D02*
G01X10647Y19144D01*
G01X10647Y19144D02*
G01X10629Y19090D01*
G01X10629Y19090D02*
G01X10629Y19001D01*
G01X10629Y19001D02*
G01X10647Y18947D01*
G01X10647Y18947D02*
G01X10665Y18911D01*
G01X10665Y18911D02*
G01X10701Y18876D01*
G01X10701Y18876D02*
G01X10737Y18858D01*
G01X10737Y18858D02*
G01X10808Y18858D01*
G01X10808Y18858D02*
G01X10844Y18876D01*
G01X10844Y18876D02*
G01X10880Y18911D01*
G01X10880Y18911D02*
G01X10898Y18947D01*
G01X11041Y19234D02*
G01X11041Y18858D01*
G01X11292Y19234D02*
G01X11041Y18983D01*
G01X11130Y19073D02*
G01X11292Y18858D01*
G01X24763Y1060D02*
G01X24763Y590D01*
G01X24763Y1060D02*
G01X24965Y1060D01*
G01X24965Y1060D02*
G01X25032Y1037D01*
G01X25032Y1037D02*
G01X25054Y1015D01*
G01X25054Y1015D02*
G01X25076Y970D01*
G01X25076Y970D02*
G01X25076Y926D01*
G01X25076Y926D02*
G01X25054Y881D01*
G01X25054Y881D02*
G01X25032Y858D01*
G01X25032Y858D02*
G01X24965Y836D01*
G01X24763Y836D02*
G01X24965Y836D01*
G01X24965Y836D02*
G01X25032Y814D01*
G01X25032Y814D02*
G01X25054Y791D01*
G01X25054Y791D02*
G01X25076Y747D01*
G01X25076Y747D02*
G01X25076Y680D01*
G01X25076Y680D02*
G01X25054Y635D01*
G01X25054Y635D02*
G01X25032Y612D01*
G01X25032Y612D02*
G01X24965Y590D01*
G01X24965Y590D02*
G01X24763Y590D01*
G01X25278Y903D02*
G01X25412Y590D01*
G01X25546Y903D02*
G01X25412Y590D01*
G01X25412Y590D02*
G01X25367Y501D01*
G01X25367Y501D02*
G01X25323Y456D01*
G01X25323Y456D02*
G01X25278Y433D01*
G01X25278Y433D02*
G01X25255Y433D01*
G01X26083Y1060D02*
G01X26083Y590D01*
G01X26083Y1060D02*
G01X26284Y1060D01*
G01X26284Y1060D02*
G01X26352Y1037D01*
G01X26352Y1037D02*
G01X26374Y1015D01*
G01X26374Y1015D02*
G01X26396Y970D01*
G01X26396Y970D02*
G01X26396Y903D01*
G01X26396Y903D02*
G01X26374Y858D01*
G01X26374Y858D02*
G01X26352Y836D01*
G01X26352Y836D02*
G01X26284Y814D01*
G01X26284Y814D02*
G01X26083Y814D01*
G01X26598Y635D02*
G01X26575Y612D01*
G01X26575Y612D02*
G01X26598Y590D01*
G01X26598Y590D02*
G01X26620Y612D01*
G01X26620Y612D02*
G01X26598Y635D01*
G01X26799Y1060D02*
G01X26799Y590D01*
G01X26799Y1060D02*
G01X27000Y1060D01*
G01X27000Y1060D02*
G01X27067Y1037D01*
G01X27067Y1037D02*
G01X27090Y1015D01*
G01X27090Y1015D02*
G01X27112Y970D01*
G01X27112Y970D02*
G01X27112Y926D01*
G01X27112Y926D02*
G01X27090Y881D01*
G01X27090Y881D02*
G01X27067Y858D01*
G01X27067Y858D02*
G01X27000Y836D01*
G01X27000Y836D02*
G01X26799Y836D01*
G01X26955Y836D02*
G01X27112Y590D01*
G01X27291Y903D02*
G01X27291Y680D01*
G01X27291Y680D02*
G01X27313Y612D01*
G01X27313Y612D02*
G01X27358Y590D01*
G01X27358Y590D02*
G01X27425Y590D01*
G01X27425Y590D02*
G01X27470Y612D01*
G01X27470Y612D02*
G01X27537Y680D01*
G01X27537Y903D02*
G01X27537Y590D01*
G01X27962Y836D02*
G01X27940Y881D01*
G01X27940Y881D02*
G01X27873Y903D01*
G01X27873Y903D02*
G01X27806Y903D01*
G01X27806Y903D02*
G01X27738Y881D01*
G01X27738Y881D02*
G01X27716Y836D01*
G01X27716Y836D02*
G01X27738Y791D01*
G01X27738Y791D02*
G01X27783Y769D01*
G01X27783Y769D02*
G01X27895Y747D01*
G01X27895Y747D02*
G01X27940Y724D01*
G01X27940Y724D02*
G01X27962Y680D01*
G01X27962Y680D02*
G01X27962Y657D01*
G01X27962Y657D02*
G01X27940Y612D01*
G01X27940Y612D02*
G01X27873Y590D01*
G01X27873Y590D02*
G01X27806Y590D01*
G01X27806Y590D02*
G01X27738Y612D01*
G01X27738Y612D02*
G01X27716Y657D01*
G01X28208Y1060D02*
G01X28208Y680D01*
G01X28208Y680D02*
G01X28231Y612D01*
G01X28231Y612D02*
G01X28275Y590D01*
G01X28275Y590D02*
G01X28320Y590D01*
G01X28141Y903D02*
G01X28298Y903D01*
G01X28611Y903D02*
G01X28566Y881D01*
G01X28566Y881D02*
G01X28521Y836D01*
G01X28521Y836D02*
G01X28499Y769D01*
G01X28499Y769D02*
G01X28499Y724D01*
G01X28499Y724D02*
G01X28521Y657D01*
G01X28521Y657D02*
G01X28566Y612D01*
G01X28566Y612D02*
G01X28611Y590D01*
G01X28611Y590D02*
G01X28678Y590D01*
G01X28678Y590D02*
G01X28723Y612D01*
G01X28723Y612D02*
G01X28767Y657D01*
G01X28767Y657D02*
G01X28790Y724D01*
G01X28790Y724D02*
G01X28790Y769D01*
G01X28790Y769D02*
G01X28767Y836D01*
G01X28767Y836D02*
G01X28723Y881D01*
G01X28723Y881D02*
G01X28678Y903D01*
G01X28678Y903D02*
G01X28611Y903D01*
G01X28969Y903D02*
G01X28969Y590D01*
G01X28969Y814D02*
G01X29036Y881D01*
G01X29036Y881D02*
G01X29081Y903D01*
G01X29081Y903D02*
G01X29148Y903D01*
G01X29148Y903D02*
G01X29192Y881D01*
G01X29192Y881D02*
G01X29215Y814D01*
G01X29215Y814D02*
G01X29215Y590D01*
G01X29774Y948D02*
G01X29774Y970D01*
G01X29774Y970D02*
G01X29796Y1015D01*
G01X29796Y1015D02*
G01X29819Y1037D01*
G01X29819Y1037D02*
G01X29863Y1060D01*
G01X29863Y1060D02*
G01X29953Y1060D01*
G01X29953Y1060D02*
G01X29998Y1037D01*
G01X29998Y1037D02*
G01X30020Y1015D01*
G01X30020Y1015D02*
G01X30042Y970D01*
G01X30042Y970D02*
G01X30042Y926D01*
G01X30042Y926D02*
G01X30020Y881D01*
G01X30020Y881D02*
G01X29975Y814D01*
G01X29975Y814D02*
G01X29752Y590D01*
G01X29752Y590D02*
G01X30065Y590D01*
G01X30378Y1060D02*
G01X30311Y1037D01*
G01X30311Y1037D02*
G01X30266Y970D01*
G01X30266Y970D02*
G01X30244Y858D01*
G01X30244Y858D02*
G01X30244Y791D01*
G01X30244Y791D02*
G01X30266Y680D01*
G01X30266Y680D02*
G01X30311Y612D01*
G01X30311Y612D02*
G01X30378Y590D01*
G01X30378Y590D02*
G01X30423Y590D01*
G01X30423Y590D02*
G01X30490Y612D01*
G01X30490Y612D02*
G01X30535Y680D01*
G01X30535Y680D02*
G01X30557Y791D01*
G01X30557Y791D02*
G01X30557Y858D01*
G01X30557Y858D02*
G01X30535Y970D01*
G01X30535Y970D02*
G01X30490Y1037D01*
G01X30490Y1037D02*
G01X30423Y1060D01*
G01X30423Y1060D02*
G01X30378Y1060D01*
G01X30870Y1060D02*
G01X30803Y1037D01*
G01X30803Y1037D02*
G01X30758Y970D01*
G01X30758Y970D02*
G01X30736Y858D01*
G01X30736Y858D02*
G01X30736Y791D01*
G01X30736Y791D02*
G01X30758Y680D01*
G01X30758Y680D02*
G01X30803Y612D01*
G01X30803Y612D02*
G01X30870Y590D01*
G01X30870Y590D02*
G01X30915Y590D01*
G01X30915Y590D02*
G01X30982Y612D01*
G01X30982Y612D02*
G01X31027Y680D01*
G01X31027Y680D02*
G01X31049Y791D01*
G01X31049Y791D02*
G01X31049Y858D01*
G01X31049Y858D02*
G01X31027Y970D01*
G01X31027Y970D02*
G01X30982Y1037D01*
G01X30982Y1037D02*
G01X30915Y1060D01*
G01X30915Y1060D02*
G01X30870Y1060D01*
G01X31340Y1060D02*
G01X31273Y1037D01*
G01X31273Y1037D02*
G01X31250Y993D01*
G01X31250Y993D02*
G01X31250Y948D01*
G01X31250Y948D02*
G01X31273Y903D01*
G01X31273Y903D02*
G01X31318Y881D01*
G01X31318Y881D02*
G01X31407Y858D01*
G01X31407Y858D02*
G01X31474Y836D01*
G01X31474Y836D02*
G01X31519Y791D01*
G01X31519Y791D02*
G01X31541Y747D01*
G01X31541Y747D02*
G01X31541Y680D01*
G01X31541Y680D02*
G01X31519Y635D01*
G01X31519Y635D02*
G01X31496Y612D01*
G01X31496Y612D02*
G01X31429Y590D01*
G01X31429Y590D02*
G01X31340Y590D01*
G01X31340Y590D02*
G01X31273Y612D01*
G01X31273Y612D02*
G01X31250Y635D01*
G01X31250Y635D02*
G01X31228Y680D01*
G01X31228Y680D02*
G01X31228Y747D01*
G01X31228Y747D02*
G01X31250Y791D01*
G01X31250Y791D02*
G01X31295Y836D01*
G01X31295Y836D02*
G01X31362Y858D01*
G01X31362Y858D02*
G01X31452Y881D01*
G01X31452Y881D02*
G01X31496Y903D01*
G01X31496Y903D02*
G01X31519Y948D01*
G01X31519Y948D02*
G01X31519Y993D01*
G01X31519Y993D02*
G01X31496Y1037D01*
G01X31496Y1037D02*
G01X31429Y1060D01*
G01X31429Y1060D02*
G01X31340Y1060D01*
G01X32078Y791D02*
G01X32481Y791D01*
G01X33018Y1060D02*
G01X33129Y590D01*
G01X33241Y1060D02*
G01X33129Y590D01*
G01X33241Y1060D02*
G01X33353Y590D01*
G01X33465Y1060D02*
G01X33353Y590D01*
G01X33644Y1060D02*
G01X33756Y590D01*
G01X33868Y1060D02*
G01X33756Y590D01*
G01X33868Y1060D02*
G01X33979Y590D01*
G01X34091Y1060D02*
G01X33979Y590D01*
G01X34270Y1060D02*
G01X34382Y590D01*
G01X34494Y1060D02*
G01X34382Y590D01*
G01X34494Y1060D02*
G01X34606Y590D01*
G01X34718Y1060D02*
G01X34606Y590D01*
G01X34919Y635D02*
G01X34897Y612D01*
G01X34897Y612D02*
G01X34919Y590D01*
G01X34919Y590D02*
G01X34941Y612D01*
G01X34941Y612D02*
G01X34919Y635D01*
G01X35120Y1060D02*
G01X35120Y590D01*
G01X35120Y1060D02*
G01X35322Y1060D01*
G01X35322Y1060D02*
G01X35389Y1037D01*
G01X35389Y1037D02*
G01X35411Y1015D01*
G01X35411Y1015D02*
G01X35433Y970D01*
G01X35433Y970D02*
G01X35433Y926D01*
G01X35433Y926D02*
G01X35411Y881D01*
G01X35411Y881D02*
G01X35389Y858D01*
G01X35389Y858D02*
G01X35322Y836D01*
G01X35322Y836D02*
G01X35120Y836D01*
G01X35277Y836D02*
G01X35433Y590D01*
G01X35612Y1060D02*
G01X35612Y590D01*
G01X35612Y1060D02*
G01X35903Y1060D01*
G01X35612Y836D02*
G01X35791Y836D01*
G01X35612Y590D02*
G01X35903Y590D01*
G01X36239Y1060D02*
G01X36239Y590D01*
G01X36082Y1060D02*
G01X36395Y1060D01*
G01X36574Y1060D02*
G01X36574Y590D01*
G01X36574Y1060D02*
G01X36776Y1060D01*
G01X36776Y1060D02*
G01X36843Y1037D01*
G01X36843Y1037D02*
G01X36865Y1015D01*
G01X36865Y1015D02*
G01X36887Y970D01*
G01X36887Y970D02*
G01X36887Y926D01*
G01X36887Y926D02*
G01X36865Y881D01*
G01X36865Y881D02*
G01X36843Y858D01*
G01X36843Y858D02*
G01X36776Y836D01*
G01X36776Y836D02*
G01X36574Y836D01*
G01X36731Y836D02*
G01X36887Y590D01*
G01X37201Y1060D02*
G01X37156Y1037D01*
G01X37156Y1037D02*
G01X37111Y993D01*
G01X37111Y993D02*
G01X37089Y948D01*
G01X37089Y948D02*
G01X37066Y881D01*
G01X37066Y881D02*
G01X37066Y769D01*
G01X37066Y769D02*
G01X37089Y702D01*
G01X37089Y702D02*
G01X37111Y657D01*
G01X37111Y657D02*
G01X37156Y612D01*
G01X37156Y612D02*
G01X37201Y590D01*
G01X37201Y590D02*
G01X37290Y590D01*
G01X37290Y590D02*
G01X37335Y612D01*
G01X37335Y612D02*
G01X37380Y657D01*
G01X37380Y657D02*
G01X37402Y702D01*
G01X37402Y702D02*
G01X37424Y769D01*
G01X37424Y769D02*
G01X37424Y881D01*
G01X37424Y881D02*
G01X37402Y948D01*
G01X37402Y948D02*
G01X37380Y993D01*
G01X37380Y993D02*
G01X37335Y1037D01*
G01X37335Y1037D02*
G01X37290Y1060D01*
G01X37290Y1060D02*
G01X37201Y1060D01*
G01X37603Y1060D02*
G01X37603Y590D01*
G01X37603Y590D02*
G01X37872Y590D01*
G01X38051Y1060D02*
G01X38051Y590D01*
G01X38051Y1060D02*
G01X38341Y1060D01*
G01X38051Y836D02*
G01X38230Y836D01*
G01X38051Y590D02*
G01X38341Y590D01*
G01X38520Y1060D02*
G01X38520Y724D01*
G01X38520Y724D02*
G01X38543Y657D01*
G01X38543Y657D02*
G01X38588Y612D01*
G01X38588Y612D02*
G01X38655Y590D01*
G01X38655Y590D02*
G01X38699Y590D01*
G01X38699Y590D02*
G01X38767Y612D01*
G01X38767Y612D02*
G01X38811Y657D01*
G01X38811Y657D02*
G01X38834Y724D01*
G01X38834Y724D02*
G01X38834Y1060D01*
G01X39013Y1060D02*
G01X39013Y590D01*
G01X39013Y1060D02*
G01X39192Y590D01*
G01X39370Y1060D02*
G01X39192Y590D01*
G01X39370Y1060D02*
G01X39370Y590D01*
G01X39572Y635D02*
G01X39549Y612D01*
G01X39549Y612D02*
G01X39572Y590D01*
G01X39572Y590D02*
G01X39594Y612D01*
G01X39594Y612D02*
G01X39572Y635D01*
G01X40109Y948D02*
G01X40086Y993D01*
G01X40086Y993D02*
G01X40042Y1037D01*
G01X40042Y1037D02*
G01X39997Y1060D01*
G01X39997Y1060D02*
G01X39907Y1060D01*
G01X39907Y1060D02*
G01X39863Y1037D01*
G01X39863Y1037D02*
G01X39818Y993D01*
G01X39818Y993D02*
G01X39795Y948D01*
G01X39795Y948D02*
G01X39773Y881D01*
G01X39773Y881D02*
G01X39773Y769D01*
G01X39773Y769D02*
G01X39795Y702D01*
G01X39795Y702D02*
G01X39818Y657D01*
G01X39818Y657D02*
G01X39863Y612D01*
G01X39863Y612D02*
G01X39907Y590D01*
G01X39907Y590D02*
G01X39997Y590D01*
G01X39997Y590D02*
G01X40042Y612D01*
G01X40042Y612D02*
G01X40086Y657D01*
G01X40086Y657D02*
G01X40109Y702D01*
G01X40422Y1060D02*
G01X40377Y1037D01*
G01X40377Y1037D02*
G01X40332Y993D01*
G01X40332Y993D02*
G01X40310Y948D01*
G01X40310Y948D02*
G01X40288Y881D01*
G01X40288Y881D02*
G01X40288Y769D01*
G01X40288Y769D02*
G01X40310Y702D01*
G01X40310Y702D02*
G01X40332Y657D01*
G01X40332Y657D02*
G01X40377Y612D01*
G01X40377Y612D02*
G01X40422Y590D01*
G01X40422Y590D02*
G01X40511Y590D01*
G01X40511Y590D02*
G01X40556Y612D01*
G01X40556Y612D02*
G01X40601Y657D01*
G01X40601Y657D02*
G01X40623Y702D01*
G01X40623Y702D02*
G01X40646Y769D01*
G01X40646Y769D02*
G01X40646Y881D01*
G01X40646Y881D02*
G01X40623Y948D01*
G01X40623Y948D02*
G01X40601Y993D01*
G01X40601Y993D02*
G01X40556Y1037D01*
G01X40556Y1037D02*
G01X40511Y1060D01*
G01X40511Y1060D02*
G01X40422Y1060D01*
G01X40847Y635D02*
G01X40824Y612D01*
G01X40824Y612D02*
G01X40847Y590D01*
G01X40847Y590D02*
G01X40869Y612D01*
G01X40869Y612D02*
G01X40847Y635D01*
G01X41048Y1060D02*
G01X41048Y724D01*
G01X41048Y724D02*
G01X41071Y657D01*
G01X41071Y657D02*
G01X41115Y612D01*
G01X41115Y612D02*
G01X41182Y590D01*
G01X41182Y590D02*
G01X41227Y590D01*
G01X41227Y590D02*
G01X41294Y612D01*
G01X41294Y612D02*
G01X41339Y657D01*
G01X41339Y657D02*
G01X41361Y724D01*
G01X41361Y724D02*
G01X41361Y1060D01*
G01X41540Y1060D02*
G01X41540Y590D01*
G01X41853Y1060D02*
G01X41540Y747D01*
G01X41652Y858D02*
G01X41853Y590D01*
G54D11*
G01X24869Y19564D02*
G01X24869Y19206D01*
G01X24869Y19206D02*
G01X24846Y19139D01*
G01X24846Y19139D02*
G01X24824Y19116D01*
G01X24824Y19116D02*
G01X24779Y19094D01*
G01X24779Y19094D02*
G01X24735Y19094D01*
G01X24735Y19094D02*
G01X24690Y19116D01*
G01X24690Y19116D02*
G01X24668Y19139D01*
G01X24668Y19139D02*
G01X24645Y19206D01*
G01X24645Y19206D02*
G01X24645Y19251D01*
G01X25048Y19474D02*
G01X25093Y19497D01*
G01X25093Y19497D02*
G01X25160Y19564D01*
G01X25160Y19564D02*
G01X25160Y19094D01*
G01X38176Y33855D02*
G01X38176Y33497D01*
G01X38176Y33497D02*
G01X38154Y33430D01*
G01X38154Y33430D02*
G01X38131Y33408D01*
G01X38131Y33408D02*
G01X38086Y33385D01*
G01X38086Y33385D02*
G01X38042Y33385D01*
G01X38042Y33385D02*
G01X37997Y33408D01*
G01X37997Y33408D02*
G01X37975Y33430D01*
G01X37975Y33430D02*
G01X37952Y33497D01*
G01X37952Y33497D02*
G01X37952Y33542D01*
G01X38377Y33743D02*
G01X38377Y33766D01*
G01X38377Y33766D02*
G01X38400Y33810D01*
G01X38400Y33810D02*
G01X38422Y33833D01*
G01X38422Y33833D02*
G01X38467Y33855D01*
G01X38467Y33855D02*
G01X38556Y33855D01*
G01X38556Y33855D02*
G01X38601Y33833D01*
G01X38601Y33833D02*
G01X38623Y33810D01*
G01X38623Y33810D02*
G01X38646Y33766D01*
G01X38646Y33766D02*
G01X38646Y33721D01*
G01X38646Y33721D02*
G01X38623Y33676D01*
G01X38623Y33676D02*
G01X38579Y33609D01*
G01X38579Y33609D02*
G01X38355Y33385D01*
G01X38355Y33385D02*
G01X38668Y33385D01*
G54D10*
G01X3147Y863D02*
G01X2924Y393D01*
G01X2834Y863D02*
G01X3147Y863D01*
G01X3349Y438D02*
G01X3326Y416D01*
G01X3326Y416D02*
G01X3349Y393D01*
G01X3349Y393D02*
G01X3371Y416D01*
G01X3371Y416D02*
G01X3349Y438D01*
G01X3818Y863D02*
G01X3595Y863D01*
G01X3595Y863D02*
G01X3572Y662D01*
G01X3572Y662D02*
G01X3595Y684D01*
G01X3595Y684D02*
G01X3662Y706D01*
G01X3662Y706D02*
G01X3729Y706D01*
G01X3729Y706D02*
G01X3796Y684D01*
G01X3796Y684D02*
G01X3841Y639D01*
G01X3841Y639D02*
G01X3863Y572D01*
G01X3863Y572D02*
G01X3863Y527D01*
G01X3863Y527D02*
G01X3841Y460D01*
G01X3841Y460D02*
G01X3796Y416D01*
G01X3796Y416D02*
G01X3729Y393D01*
G01X3729Y393D02*
G01X3662Y393D01*
G01X3662Y393D02*
G01X3595Y416D01*
G01X3595Y416D02*
G01X3572Y438D01*
G01X3572Y438D02*
G01X3550Y483D01*
G01X4042Y706D02*
G01X4176Y393D01*
G01X4311Y706D02*
G01X4176Y393D01*
G01X4847Y863D02*
G01X4847Y393D01*
G01X4847Y863D02*
G01X5004Y863D01*
G01X5004Y863D02*
G01X5071Y841D01*
G01X5071Y841D02*
G01X5116Y796D01*
G01X5116Y796D02*
G01X5138Y751D01*
G01X5138Y751D02*
G01X5161Y684D01*
G01X5161Y684D02*
G01X5161Y572D01*
G01X5161Y572D02*
G01X5138Y505D01*
G01X5138Y505D02*
G01X5116Y460D01*
G01X5116Y460D02*
G01X5071Y416D01*
G01X5071Y416D02*
G01X5004Y393D01*
G01X5004Y393D02*
G01X4847Y393D01*
G01X5675Y751D02*
G01X5653Y796D01*
G01X5653Y796D02*
G01X5608Y841D01*
G01X5608Y841D02*
G01X5563Y863D01*
G01X5563Y863D02*
G01X5474Y863D01*
G01X5474Y863D02*
G01X5429Y841D01*
G01X5429Y841D02*
G01X5384Y796D01*
G01X5384Y796D02*
G01X5362Y751D01*
G01X5362Y751D02*
G01X5340Y684D01*
G01X5340Y684D02*
G01X5340Y572D01*
G01X5340Y572D02*
G01X5362Y505D01*
G01X5362Y505D02*
G01X5384Y460D01*
G01X5384Y460D02*
G01X5429Y416D01*
G01X5429Y416D02*
G01X5474Y393D01*
G01X5474Y393D02*
G01X5563Y393D01*
G01X5563Y393D02*
G01X5608Y416D01*
G01X5608Y416D02*
G01X5653Y460D01*
G01X5653Y460D02*
G01X5675Y505D01*
G01X2595Y8353D02*
G01X2595Y8577D01*
G01X2595Y8577D02*
G01X2394Y8599D01*
G01X2394Y8599D02*
G01X2416Y8577D01*
G01X2416Y8577D02*
G01X2439Y8510D01*
G01X2439Y8510D02*
G01X2439Y8443D01*
G01X2439Y8443D02*
G01X2416Y8375D01*
G01X2416Y8375D02*
G01X2372Y8331D01*
G01X2372Y8331D02*
G01X2304Y8308D01*
G01X2304Y8308D02*
G01X2260Y8308D01*
G01X2260Y8308D02*
G01X2193Y8331D01*
G01X2193Y8331D02*
G01X2148Y8375D01*
G01X2148Y8375D02*
G01X2125Y8443D01*
G01X2125Y8443D02*
G01X2125Y8510D01*
G01X2125Y8510D02*
G01X2148Y8577D01*
G01X2148Y8577D02*
G01X2170Y8599D01*
G01X2170Y8599D02*
G01X2215Y8622D01*
G01X2439Y8129D02*
G01X2125Y7995D01*
G01X2439Y7861D02*
G01X2125Y7995D01*
G01X5942Y10427D02*
G01X5942Y10181D01*
G01X5942Y10181D02*
G01X5763Y10315D01*
G01X5763Y10315D02*
G01X5763Y10248D01*
G01X5763Y10248D02*
G01X5740Y10204D01*
G01X5740Y10204D02*
G01X5718Y10181D01*
G01X5718Y10181D02*
G01X5651Y10159D01*
G01X5651Y10159D02*
G01X5606Y10159D01*
G01X5606Y10159D02*
G01X5539Y10181D01*
G01X5539Y10181D02*
G01X5494Y10226D01*
G01X5494Y10226D02*
G01X5472Y10293D01*
G01X5472Y10293D02*
G01X5472Y10360D01*
G01X5472Y10360D02*
G01X5494Y10427D01*
G01X5494Y10427D02*
G01X5517Y10450D01*
G01X5517Y10450D02*
G01X5561Y10472D01*
G01X5517Y9957D02*
G01X5494Y9980D01*
G01X5494Y9980D02*
G01X5472Y9957D01*
G01X5472Y9957D02*
G01X5494Y9935D01*
G01X5494Y9935D02*
G01X5517Y9957D01*
G01X5942Y9711D02*
G01X5942Y9465D01*
G01X5942Y9465D02*
G01X5763Y9600D01*
G01X5763Y9600D02*
G01X5763Y9532D01*
G01X5763Y9532D02*
G01X5740Y9488D01*
G01X5740Y9488D02*
G01X5718Y9465D01*
G01X5718Y9465D02*
G01X5651Y9443D01*
G01X5651Y9443D02*
G01X5606Y9443D01*
G01X5606Y9443D02*
G01X5539Y9465D01*
G01X5539Y9465D02*
G01X5494Y9510D01*
G01X5494Y9510D02*
G01X5472Y9577D01*
G01X5472Y9577D02*
G01X5472Y9644D01*
G01X5472Y9644D02*
G01X5494Y9711D01*
G01X5494Y9711D02*
G01X5517Y9734D01*
G01X5517Y9734D02*
G01X5561Y9756D01*
G01X5785Y9264D02*
G01X5472Y9130D01*
G01X5785Y8996D02*
G01X5472Y9130D01*
G54D11*
G01X27440Y2568D02*
G01X27804Y1614D01*
G01X28168Y2568D02*
G01X27804Y1614D01*
G01X29077Y2432D02*
G01X29031Y2523D01*
G01X29031Y2523D02*
G01X28895Y2568D01*
G01X28895Y2568D02*
G01X28804Y2568D01*
G01X28804Y2568D02*
G01X28668Y2523D01*
G01X28668Y2523D02*
G01X28577Y2386D01*
G01X28577Y2386D02*
G01X28531Y2159D01*
G01X28531Y2159D02*
G01X28531Y1932D01*
G01X28531Y1932D02*
G01X28577Y1750D01*
G01X28577Y1750D02*
G01X28668Y1659D01*
G01X28668Y1659D02*
G01X28804Y1614D01*
G01X28804Y1614D02*
G01X28850Y1614D01*
G01X28850Y1614D02*
G01X28986Y1659D01*
G01X28986Y1659D02*
G01X29077Y1750D01*
G01X29077Y1750D02*
G01X29122Y1886D01*
G01X29122Y1886D02*
G01X29122Y1932D01*
G01X29122Y1932D02*
G01X29077Y2068D01*
G01X29077Y2068D02*
G01X28986Y2159D01*
G01X28986Y2159D02*
G01X28850Y2205D01*
G01X28850Y2205D02*
G01X28804Y2205D01*
G01X28804Y2205D02*
G01X28668Y2159D01*
G01X28668Y2159D02*
G01X28577Y2068D01*
G01X28577Y2068D02*
G01X28531Y1932D01*
G01X30122Y2568D02*
G01X29486Y1614D01*
G01X29486Y2568D02*
G01X30122Y2568D01*
G01X29486Y1614D02*
G01X30122Y1614D01*
G01X30713Y2568D02*
G01X30577Y2523D01*
G01X30577Y2523D02*
G01X30531Y2432D01*
G01X30531Y2432D02*
G01X30531Y2341D01*
G01X30531Y2341D02*
G01X30577Y2250D01*
G01X30577Y2250D02*
G01X30668Y2205D01*
G01X30668Y2205D02*
G01X30850Y2159D01*
G01X30850Y2159D02*
G01X30986Y2114D01*
G01X30986Y2114D02*
G01X31077Y2023D01*
G01X31077Y2023D02*
G01X31122Y1932D01*
G01X31122Y1932D02*
G01X31122Y1795D01*
G01X31122Y1795D02*
G01X31077Y1705D01*
G01X31077Y1705D02*
G01X31031Y1659D01*
G01X31031Y1659D02*
G01X30895Y1614D01*
G01X30895Y1614D02*
G01X30713Y1614D01*
G01X30713Y1614D02*
G01X30577Y1659D01*
G01X30577Y1659D02*
G01X30531Y1705D01*
G01X30531Y1705D02*
G01X30486Y1795D01*
G01X30486Y1795D02*
G01X30486Y1932D01*
G01X30486Y1932D02*
G01X30531Y2023D01*
G01X30531Y2023D02*
G01X30622Y2114D01*
G01X30622Y2114D02*
G01X30759Y2159D01*
G01X30759Y2159D02*
G01X30940Y2205D01*
G01X30940Y2205D02*
G01X31031Y2250D01*
G01X31031Y2250D02*
G01X31077Y2341D01*
G01X31077Y2341D02*
G01X31077Y2432D01*
G01X31077Y2432D02*
G01X31031Y2523D01*
G01X31031Y2523D02*
G01X30895Y2568D01*
G01X30895Y2568D02*
G01X30713Y2568D01*
G01X31759Y2568D02*
G01X31622Y2523D01*
G01X31622Y2523D02*
G01X31531Y2386D01*
G01X31531Y2386D02*
G01X31486Y2159D01*
G01X31486Y2159D02*
G01X31486Y2023D01*
G01X31486Y2023D02*
G01X31531Y1795D01*
G01X31531Y1795D02*
G01X31622Y1659D01*
G01X31622Y1659D02*
G01X31759Y1614D01*
G01X31759Y1614D02*
G01X31850Y1614D01*
G01X31850Y1614D02*
G01X31986Y1659D01*
G01X31986Y1659D02*
G01X32077Y1795D01*
G01X32077Y1795D02*
G01X32122Y2023D01*
G01X32122Y2023D02*
G01X32122Y2159D01*
G01X32122Y2159D02*
G01X32077Y2386D01*
G01X32077Y2386D02*
G01X31986Y2523D01*
G01X31986Y2523D02*
G01X31850Y2568D01*
G01X31850Y2568D02*
G01X31759Y2568D01*
G01X32486Y2568D02*
G01X32486Y1614D01*
G01X32486Y2568D02*
G01X32895Y2568D01*
G01X32895Y2568D02*
G01X33031Y2523D01*
G01X33031Y2523D02*
G01X33077Y2477D01*
G01X33077Y2477D02*
G01X33122Y2386D01*
G01X33122Y2386D02*
G01X33122Y2250D01*
G01X33122Y2250D02*
G01X33077Y2159D01*
G01X33077Y2159D02*
G01X33031Y2114D01*
G01X33031Y2114D02*
G01X32895Y2068D01*
G01X32895Y2068D02*
G01X32486Y2068D01*
G01X34213Y2568D02*
G01X34213Y1614D01*
G01X34213Y2568D02*
G01X34622Y2568D01*
G01X34622Y2568D02*
G01X34759Y2523D01*
G01X34759Y2523D02*
G01X34804Y2477D01*
G01X34804Y2477D02*
G01X34850Y2386D01*
G01X34850Y2386D02*
G01X34850Y2295D01*
G01X34850Y2295D02*
G01X34804Y2205D01*
G01X34804Y2205D02*
G01X34759Y2159D01*
G01X34759Y2159D02*
G01X34622Y2114D01*
G01X34622Y2114D02*
G01X34213Y2114D01*
G01X34531Y2114D02*
G01X34850Y1614D01*
G01X35213Y1977D02*
G01X35759Y1977D01*
G01X35759Y1977D02*
G01X35759Y2068D01*
G01X35759Y2068D02*
G01X35713Y2159D01*
G01X35713Y2159D02*
G01X35668Y2205D01*
G01X35668Y2205D02*
G01X35577Y2250D01*
G01X35577Y2250D02*
G01X35440Y2250D01*
G01X35440Y2250D02*
G01X35350Y2205D01*
G01X35350Y2205D02*
G01X35259Y2114D01*
G01X35259Y2114D02*
G01X35213Y1977D01*
G01X35213Y1977D02*
G01X35213Y1886D01*
G01X35213Y1886D02*
G01X35259Y1750D01*
G01X35259Y1750D02*
G01X35350Y1659D01*
G01X35350Y1659D02*
G01X35440Y1614D01*
G01X35440Y1614D02*
G01X35577Y1614D01*
G01X35577Y1614D02*
G01X35668Y1659D01*
G01X35668Y1659D02*
G01X35759Y1750D01*
G01X36122Y2250D02*
G01X36395Y1614D01*
G01X36668Y2250D02*
G01X36395Y1614D01*
G01X37031Y2386D02*
G01X37122Y2432D01*
G01X37122Y2432D02*
G01X37259Y2568D01*
G01X37259Y2568D02*
G01X37259Y1614D01*
G01X37668Y1705D02*
G01X37622Y1659D01*
G01X37622Y1659D02*
G01X37668Y1614D01*
G01X37668Y1614D02*
G01X37713Y1659D01*
G01X37713Y1659D02*
G01X37668Y1705D01*
G01X38077Y2386D02*
G01X38168Y2432D01*
G01X38168Y2432D02*
G01X38304Y2568D01*
G01X38304Y2568D02*
G01X38304Y1614D01*
M00*
M02*
