G04 FreePCB version 1.359*
G04 D:\My_Own_Files\Coding\Z80_Project\V6Z80P Other Files\Daughterboard\FreePCB Project\double_layer\for rev1.1\CAM\top_copper.grb*
G04 top copper layer *
G04 Scale: 100 percent, Rotated: No, Reflected: No *
%FSLAX24Y24*%
%MOIN*%
%LN top copper *%
G04 Rounded Rectangle Macro, params: W/2, H/2, R *
%AMRNDREC*
21,1,$1+$1,$2+$2-$3-$3,0,0,0*
21,1,$1+$1-$3-$3,$2+$2,0,0,0*
1,1,$3+$3,$1-$3,$2-$3*
1,1,$3+$3,$3-$1,$2-$3*
1,1,$3+$3,$1-$3,$3-$2*
1,1,$3+$3,$3-$1,$3-$2*%
G04 Rectangular Thermal Macro, params: W/2, H/2, T/2 *
%AMRECTHERM*
$4=$3/2*
21,1,$1-$3,$2-$3,0-$1/2-$4,0-$2/2-$4,0*
21,1,$1-$3,$2-$3,0-$1/2-$4,$2/2+$4,0*
21,1,$1-$3,$2-$3,$1/2+$4,0-$2/2-$4,0*
21,1,$1-$3,$2-$3,$1/2+$4,$2/2+$4,0*%
%ADD10C,0.007874*%
%ADD11C,0.094488*%
%ADD12R,0.101496X0.101496*%
%ADD13C,0.101496*%
%ADD14R,0.118110X0.059055*%
%ADD15R,0.059055X0.118110*%
%ADD16C,0.121496*%
%ADD17R,0.078740X0.074803*%
%ADD18R,0.074803X0.078740*%
%ADD19C,0.051496*%
%ADD20C,0.062992*%
%ADD21R,0.070000X0.070000*%
%ADD22C,0.070000*%
%ADD23R,0.086614X0.027559*%
%ADD24R,0.027559X0.086614*%
%ADD25C,0.090000*%
%ADD26R,0.047244X0.043307*%
%ADD27R,0.043307X0.047244*%
%ADD28C,0.020000*%
%ADD29C,0.040000*%
G90*
G70D02*

G04 Step and Repeat for panelization *

G04 ----------------------- Draw board outline (positive)*
%LPD*%
G54D10*
G01X9251Y13976D02*
G01X9251Y0D01*
G04 end of side 1*
G01X0Y0D01*
G04 end of side 2*
G01X0Y13976D01*
G04 end of side 3*
G01X9251Y13976D01*

G04 ----------------------- Draw copper area (positive)*
G36*
G01X9055Y196D02*
G01X196Y196D01*
G01X196Y13779D01*
G01X9055Y13779D01*
G01X9055Y196D01*
G37*

G04 -------------------- Draw copper area cutout (negative)*
%LPC*%
G36*
G01X3641Y13444D02*
G01X511Y13444D01*
G01X511Y12322D01*
G01X1082Y12322D01*
G01X472Y11712D01*
G01X472Y5196D01*
G01X925Y4744D01*
G01X925Y4074D01*
G01X472Y4074D01*
G01X472Y944D01*
G01X4704Y944D01*
G01X4704Y4547D01*
G01X5098Y4547D01*
G01X5098Y1574D01*
G01X5531Y1141D01*
G01X6299Y1141D01*
G01X6968Y472D01*
G01X8366Y472D01*
G01X8740Y846D01*
G01X8740Y5944D01*
G01X8779Y5984D01*
G01X8779Y12125D01*
G01X8779Y12244D01*
G01X8779Y13248D01*
G01X8779Y13326D01*
G01X7165Y13326D01*
G01X7165Y12224D01*
G01X7165Y8996D01*
G01X7165Y8937D01*
G01X6811Y8562D01*
G01X6811Y7696D01*
G01X5472Y7696D01*
G01X5472Y5688D01*
G01X5472Y5255D01*
G01X4704Y5255D01*
G01X4704Y5688D01*
G01X1240Y5688D01*
G01X1102Y5826D01*
G01X1102Y6220D01*
G01X4586Y6220D01*
G01X4586Y7696D01*
G01X984Y7696D01*
G01X984Y11141D01*
G01X2185Y12342D01*
G01X2342Y12342D01*
G01X2342Y11437D01*
G01X1889Y11437D01*
G01X1692Y11240D01*
G01X1555Y11102D01*
G01X1555Y8110D01*
G01X4822Y8110D01*
G01X4822Y8779D01*
G01X6161Y8779D01*
G01X6377Y8996D01*
G01X6377Y9015D01*
G01X6377Y10295D01*
G01X6791Y10708D01*
G01X6791Y12460D01*
G01X6062Y13188D01*
G01X3897Y13188D01*
G01X3641Y13444D01*
G37*

G04 -------------------- Draw copper area clearances (negative)*
%LPC*%

G04 Draw clearances for pads*
G54D11*
G01X5984Y7125D03*
G01X5984Y6125D03*
G01X5984Y5125D03*
G01X5984Y4125D03*
G01X5984Y3125D03*
G01X5984Y2125D03*
G54D12*
G01X1102Y12874D03*
G54D13*
G01X2102Y12874D03*
G01X3102Y12874D03*
G54D14*
G01X5669Y12125D03*
G01X5669Y11625D03*
G01X5669Y11125D03*
G01X5669Y10625D03*
G01X5669Y10125D03*
G01X5669Y9625D03*
G01X5669Y9125D03*
G01X7795Y9125D03*
G01X7795Y9625D03*
G01X7795Y10125D03*
G01X7795Y10625D03*
G01X7795Y11125D03*
G01X7795Y11625D03*
G01X7795Y12125D03*
G54D15*
G01X4251Y7007D03*
G01X3751Y7007D03*
G01X3251Y7007D03*
G01X2751Y7007D03*
G01X2251Y7007D03*
G01X1751Y7007D03*
G01X1251Y7007D03*
G01X1251Y4881D03*
G01X1751Y4881D03*
G01X2251Y4881D03*
G01X2751Y4881D03*
G01X3251Y4881D03*
G01X3751Y4881D03*
G01X4251Y4881D03*
G54D11*
G01X7795Y6299D03*
G01X7795Y5299D03*
G01X7795Y4299D03*
G01X7795Y3299D03*
G01X7795Y2299D03*
G01X7795Y1299D03*
G54D16*
G01X3110Y2472D03*
G01X1110Y2472D03*
G01X3196Y10748D03*
G01X3196Y8748D03*
G54D17*
G01X4370Y9330D03*
G01X4370Y8661D03*
G54D18*
G01X7637Y12834D03*
G01X8307Y12834D03*
G54D17*
G01X2047Y10905D03*
G01X2047Y10236D03*
G54D18*
G01X3228Y3622D03*
G01X2559Y3622D03*
G54D17*
G01X4370Y10905D03*
G01X4370Y10236D03*
G01X2047Y9330D03*
G01X2047Y8661D03*
G54D18*
G01X3503Y11771D03*
G01X2834Y11771D03*
G54D17*
G01X4212Y1377D03*
G01X4212Y2047D03*
G54D18*
G01X984Y3622D03*
G01X1653Y3622D03*
G54D17*
G01X4212Y2992D03*
G01X4212Y3661D03*
G54D18*
G01X7992Y7322D03*
G01X7322Y7322D03*
G01X7322Y8267D03*
G01X7992Y8267D03*
G01X1614Y1377D03*
G01X944Y1377D03*
G01X2519Y1377D03*
G01X3188Y1377D03*

G04 Draw clearances for traces*
G54D19*
G01X4212Y3661D02*
G01X4251Y3799D01*
G01X4251Y3799D02*
G01X4251Y4881D01*
G01X7795Y6299D02*
G01X8543Y6299D01*
G01X8543Y6299D02*
G01X8543Y11910D01*
G01X8543Y11910D02*
G01X8326Y12125D01*
G01X8326Y12125D02*
G01X7795Y12125D01*
G01X7795Y6299D02*
G01X8444Y6300D01*
G01X8444Y6300D02*
G01X8444Y1063D01*
G01X8444Y1063D02*
G01X8114Y729D01*
G01X8114Y729D02*
G01X7126Y728D01*
G01X7126Y728D02*
G01X6397Y1456D01*
G01X6397Y1456D02*
G01X5610Y1456D01*
G01X5610Y1456D02*
G01X5393Y1673D01*
G01X5393Y1673D02*
G01X5393Y4881D01*
G01X5393Y4881D02*
G01X4251Y4881D01*
G01X5984Y7125D02*
G01X6437Y7125D01*
G01X6437Y7125D02*
G01X7283Y6279D01*
G01X7283Y6279D02*
G01X7657Y6279D01*
G01X7657Y6279D02*
G01X7795Y6299D01*
G01X5984Y7125D02*
G01X6456Y7125D01*
G01X6456Y7125D02*
G01X6653Y7322D01*
G01X6653Y7322D02*
G01X7322Y7322D01*
G01X7637Y12834D02*
G01X7637Y12185D01*
G01X7637Y12185D02*
G01X7795Y12125D01*
G01X5669Y11125D02*
G01X5669Y11625D01*
G01X4370Y9330D02*
G01X4370Y10236D01*
G01X4370Y10236D02*
G01X4685Y10236D01*
G01X4685Y10236D02*
G01X4901Y10452D01*
G01X4901Y10452D02*
G01X4901Y11437D01*
G01X4901Y11437D02*
G01X5098Y11633D01*
G01X5098Y11633D02*
G01X5393Y11633D01*
G01X5393Y11633D02*
G01X5669Y11625D01*
G01X7992Y7322D02*
G01X7992Y8267D01*
G01X7795Y2299D02*
G01X7267Y2299D01*
G01X7267Y2299D02*
G01X6417Y3149D01*
G01X6417Y3149D02*
G01X5984Y3149D01*
G01X5984Y3149D02*
G01X5984Y3125D01*
G01X7795Y1299D02*
G01X7224Y1299D01*
G01X7224Y1299D02*
G01X6377Y2145D01*
G01X6377Y2145D02*
G01X6082Y2145D01*
G01X6082Y2145D02*
G01X5984Y2125D01*
G01X3110Y2472D02*
G01X3228Y2755D01*
G01X3228Y2755D02*
G01X3228Y3622D01*
G01X4212Y2047D02*
G01X4212Y2381D01*
G01X4212Y2381D02*
G01X4094Y2500D01*
G01X4094Y2500D02*
G01X3405Y2500D01*
G01X3405Y2500D02*
G01X3110Y2472D01*
G01X3228Y3622D02*
G01X3208Y3858D01*
G01X3208Y3858D02*
G01X2751Y4314D01*
G01X2751Y4314D02*
G01X2751Y4881D01*
G01X984Y3622D02*
G01X984Y2716D01*
G01X984Y2716D02*
G01X1110Y2472D01*
G01X1614Y1377D02*
G01X1614Y1988D01*
G01X1614Y1988D02*
G01X1240Y2362D01*
G01X1240Y2362D02*
G01X1110Y2472D01*
G01X2519Y1377D02*
G01X1614Y1377D01*
G01X3102Y12874D02*
G01X4370Y12874D01*
G01X4370Y12874D02*
G01X4506Y12873D01*
G01X4506Y12873D02*
G01X5236Y12873D01*
G01X5236Y12873D02*
G01X5925Y12874D01*
G01X5925Y12874D02*
G01X6476Y12324D01*
G01X6476Y12324D02*
G01X6475Y12044D01*
G01X6475Y12044D02*
G01X6476Y10944D01*
G01X6476Y10944D02*
G01X6181Y10649D01*
G01X6181Y10649D02*
G01X6023Y10649D01*
G01X6023Y10649D02*
G01X5669Y10625D01*
G01X2047Y10236D02*
G01X2047Y9330D01*
G01X2047Y9330D02*
G01X2618Y9330D01*
G01X2618Y9330D02*
G01X3129Y8818D01*
G01X3129Y8818D02*
G01X3196Y8748D01*
G01X4370Y8661D02*
G01X3622Y8661D01*
G01X3622Y8661D02*
G01X3543Y8740D01*
G01X3543Y8740D02*
G01X3196Y8748D01*
G01X7795Y3299D02*
G01X7255Y3299D01*
G01X7255Y3299D02*
G01X7244Y3287D01*
G01X7244Y3287D02*
G01X6417Y4114D01*
G01X6417Y4114D02*
G01X6003Y4114D01*
G01X6003Y4114D02*
G01X5984Y4125D01*
G01X7795Y4299D02*
G01X7334Y4299D01*
G01X7334Y4299D02*
G01X6515Y5118D01*
G01X6515Y5118D02*
G01X5984Y5118D01*
G01X5984Y5118D02*
G01X5984Y5125D01*
G01X1653Y3622D02*
G01X2559Y3622D01*
G01X1751Y4881D02*
G01X2251Y4881D01*
G01X2251Y4881D02*
G01X2263Y4842D01*
G01X2263Y4842D02*
G01X2263Y4212D01*
G01X2263Y4212D02*
G01X2559Y3917D01*
G01X2559Y3917D02*
G01X2559Y3622D01*
G01X3196Y10748D02*
G01X3464Y10905D01*
G01X3464Y10905D02*
G01X4370Y10905D01*
G01X4370Y10905D02*
G01X4370Y11476D01*
G01X4370Y11476D02*
G01X5019Y12125D01*
G01X5019Y12125D02*
G01X5669Y12125D01*
G01X3503Y11771D02*
G01X3523Y11751D01*
G01X3523Y11751D02*
G01X3523Y11299D01*
G01X3523Y11299D02*
G01X3196Y10972D01*
G01X3196Y10972D02*
G01X3196Y10748D01*
G01X1251Y4881D02*
G01X1259Y5157D01*
G01X1259Y5157D02*
G01X728Y5688D01*
G01X728Y5688D02*
G01X728Y11437D01*
G01X728Y11437D02*
G01X1909Y12618D01*
G01X1909Y12618D02*
G01X2102Y12874D01*

G04 Draw clearances for text*

G04 -------------- Draw Parts, Pads, Traces, Vias and Text (positive)*
%LPD*%
G04 Draw part dbc1*
G54D20*
G01X5984Y7125D03*
G01X5984Y6125D03*
G01X5984Y5125D03*
G01X5984Y4125D03*
G01X5984Y3125D03*
G01X5984Y2125D03*
G04 Draw part dbc2*
G54D21*
G01X1102Y12874D03*
G54D22*
G01X2102Y12874D03*
G01X3102Y12874D03*
G04 Draw part dbc3*
G54D23*
G01X5669Y12125D03*
G01X5669Y11625D03*
G01X5669Y11125D03*
G01X5669Y10625D03*
G01X5669Y10125D03*
G01X5669Y9625D03*
G01X5669Y9125D03*
G01X7795Y9125D03*
G01X7795Y9625D03*
G01X7795Y10125D03*
G01X7795Y10625D03*
G01X7795Y11125D03*
G01X7795Y11625D03*
G01X7795Y12125D03*
G04 Draw part dbc4*
G54D24*
G01X4251Y7007D03*
G01X3751Y7007D03*
G01X3251Y7007D03*
G01X2751Y7007D03*
G01X2251Y7007D03*
G01X1751Y7007D03*
G01X1251Y7007D03*
G01X1251Y4881D03*
G01X1751Y4881D03*
G01X2251Y4881D03*
G01X2751Y4881D03*
G01X3251Y4881D03*
G01X3751Y4881D03*
G01X4251Y4881D03*
G04 Draw part dbc5*
G54D20*
G01X7795Y6299D03*
G01X7795Y5299D03*
G01X7795Y4299D03*
G01X7795Y3299D03*
G01X7795Y2299D03*
G01X7795Y1299D03*
G04 Draw part dbc6*
G54D25*
G01X3110Y2472D03*
G01X1110Y2472D03*
G04 Draw part dbc7*
G01X3196Y10748D03*
G01X3196Y8748D03*
G04 Draw part dbc8*
G54D26*
G01X4370Y9330D03*
G01X4370Y8661D03*
G04 Draw part dbc9*
G54D27*
G01X7637Y12834D03*
G01X8307Y12834D03*
G04 Draw part dbc10*
G54D26*
G01X2047Y10905D03*
G01X2047Y10236D03*
G04 Draw part dbc11*
G54D27*
G01X3228Y3622D03*
G01X2559Y3622D03*
G04 Draw part dbc12*
G54D26*
G01X4370Y10905D03*
G01X4370Y10236D03*
G04 Draw part dbc13*
G01X2047Y9330D03*
G01X2047Y8661D03*
G04 Draw part dbc14*
G54D27*
G01X3503Y11771D03*
G01X2834Y11771D03*
G04 Draw part dbc15*
G54D26*
G01X4212Y1377D03*
G01X4212Y2047D03*
G04 Draw part dbc16*
G54D27*
G01X984Y3622D03*
G01X1653Y3622D03*
G04 Draw part dbc17*
G54D26*
G01X4212Y2992D03*
G01X4212Y3661D03*
G04 Draw part powled44*
G54D27*
G01X7992Y7322D03*
G01X7322Y7322D03*
G04 Draw part powled45*
G01X7322Y8267D03*
G01X7992Y8267D03*
G04 Draw part cap77*
G01X1614Y1377D03*
G01X944Y1377D03*
G04 Draw part cap78*
G01X2519Y1377D03*
G01X3188Y1377D03*

G04 Draw traces*
G54D28*
G01X4212Y3661D02*
G01X4251Y3799D01*
G01X4251Y3799D02*
G01X4251Y4881D01*
G01X7795Y6299D02*
G01X8543Y6299D01*
G01X8543Y6299D02*
G01X8543Y11910D01*
G01X8543Y11910D02*
G01X8326Y12125D01*
G01X8326Y12125D02*
G01X7795Y12125D01*
G01X7795Y6299D02*
G01X8444Y6300D01*
G01X8444Y6300D02*
G01X8444Y1063D01*
G01X8444Y1063D02*
G01X8114Y729D01*
G01X8114Y729D02*
G01X7126Y728D01*
G01X7126Y728D02*
G01X6397Y1456D01*
G01X6397Y1456D02*
G01X5610Y1456D01*
G01X5610Y1456D02*
G01X5393Y1673D01*
G01X5393Y1673D02*
G01X5393Y4881D01*
G01X5393Y4881D02*
G01X4251Y4881D01*
G01X5984Y7125D02*
G01X6437Y7125D01*
G01X6437Y7125D02*
G01X7283Y6279D01*
G01X7283Y6279D02*
G01X7657Y6279D01*
G01X7657Y6279D02*
G01X7795Y6299D01*
G01X5984Y7125D02*
G01X6456Y7125D01*
G01X6456Y7125D02*
G01X6653Y7322D01*
G01X6653Y7322D02*
G01X7322Y7322D01*
G01X7637Y12834D02*
G01X7637Y12185D01*
G01X7637Y12185D02*
G01X7795Y12125D01*
G01X5669Y11125D02*
G01X5669Y11625D01*
G01X4370Y9330D02*
G01X4370Y10236D01*
G01X4370Y10236D02*
G01X4685Y10236D01*
G01X4685Y10236D02*
G01X4901Y10452D01*
G01X4901Y10452D02*
G01X4901Y11437D01*
G01X4901Y11437D02*
G01X5098Y11633D01*
G01X5098Y11633D02*
G01X5393Y11633D01*
G01X5393Y11633D02*
G01X5669Y11625D01*
G01X7992Y7322D02*
G01X7992Y8267D01*
G01X7795Y2299D02*
G01X7267Y2299D01*
G01X7267Y2299D02*
G01X6417Y3149D01*
G01X6417Y3149D02*
G01X5984Y3149D01*
G01X5984Y3149D02*
G01X5984Y3125D01*
G01X7795Y1299D02*
G01X7224Y1299D01*
G01X7224Y1299D02*
G01X6377Y2145D01*
G01X6377Y2145D02*
G01X6082Y2145D01*
G01X6082Y2145D02*
G01X5984Y2125D01*
G01X1102Y12874D02*
G01X1102Y13562D01*
G54D29*
G01X5984Y6125D02*
G01X5944Y6122D01*
G01X5944Y6122D02*
G01X6437Y6122D01*
G01X6437Y6122D02*
G01X7259Y5299D01*
G01X7259Y5299D02*
G01X7795Y5299D01*
G54D28*
G01X7795Y11625D02*
G01X6968Y11614D01*
G01X7795Y10625D02*
G01X6968Y10629D01*
G01X7795Y9625D02*
G01X6791Y9625D01*
G01X5669Y10125D02*
G01X6791Y10118D01*
G01X5669Y9125D02*
G01X6641Y9125D01*
G01X5669Y9125D02*
G01X5669Y8464D01*
G01X1102Y12874D02*
G01X393Y12874D01*
G01X944Y1377D02*
G01X944Y590D01*
G01X3188Y1377D02*
G01X3188Y590D01*
G01X3188Y1377D02*
G01X4212Y1377D01*
G01X4212Y1377D02*
G01X4212Y551D01*
G01X4212Y2992D02*
G01X4921Y2992D01*
G01X3751Y4881D02*
G01X3751Y5877D01*
G01X1251Y7007D02*
G01X1240Y5964D01*
G01X1251Y7007D02*
G01X1240Y8070D01*
G01X4251Y7007D02*
G01X4251Y6023D01*
G01X3251Y7007D02*
G01X3251Y5988D01*
G01X2251Y7007D02*
G01X2251Y5976D01*
G54D29*
G01X5984Y6125D02*
G01X5153Y6125D01*
G54D28*
G01X7322Y8267D02*
G01X6417Y8267D01*
G01X2047Y10905D02*
G01X1417Y10905D01*
G01X2047Y8661D02*
G01X1377Y8661D01*
G01X2834Y11771D02*
G01X2106Y11771D01*
G01X8307Y12834D02*
G01X8897Y12834D01*
G01X3110Y2472D02*
G01X3228Y2755D01*
G01X3228Y2755D02*
G01X3228Y3622D01*
G01X4212Y2047D02*
G01X4212Y2381D01*
G01X4212Y2381D02*
G01X4094Y2500D01*
G01X4094Y2500D02*
G01X3405Y2500D01*
G01X3405Y2500D02*
G01X3110Y2472D01*
G01X3228Y3622D02*
G01X3208Y3858D01*
G01X3208Y3858D02*
G01X2751Y4314D01*
G01X2751Y4314D02*
G01X2751Y4881D01*
G01X984Y3622D02*
G01X984Y2716D01*
G01X984Y2716D02*
G01X1110Y2472D01*
G01X1614Y1377D02*
G01X1614Y1988D01*
G01X1614Y1988D02*
G01X1240Y2362D01*
G01X1240Y2362D02*
G01X1110Y2472D01*
G01X2519Y1377D02*
G01X1614Y1377D01*
G01X3102Y12874D02*
G01X4370Y12874D01*
G01X4370Y12874D02*
G01X4506Y12873D01*
G01X4506Y12873D02*
G01X5236Y12873D01*
G01X5236Y12873D02*
G01X5925Y12874D01*
G01X5925Y12874D02*
G01X6476Y12324D01*
G01X6476Y12324D02*
G01X6475Y12044D01*
G01X6475Y12044D02*
G01X6476Y10944D01*
G01X6476Y10944D02*
G01X6181Y10649D01*
G01X6181Y10649D02*
G01X6023Y10649D01*
G01X6023Y10649D02*
G01X5669Y10625D01*
G01X2047Y10236D02*
G01X2047Y9330D01*
G01X2047Y9330D02*
G01X2618Y9330D01*
G01X2618Y9330D02*
G01X3129Y8818D01*
G01X3129Y8818D02*
G01X3196Y8748D01*
G01X4370Y8661D02*
G01X3622Y8661D01*
G01X3622Y8661D02*
G01X3543Y8740D01*
G01X3543Y8740D02*
G01X3196Y8748D01*
G01X7795Y3299D02*
G01X7255Y3299D01*
G01X7255Y3299D02*
G01X7244Y3287D01*
G01X7244Y3287D02*
G01X6417Y4114D01*
G01X6417Y4114D02*
G01X6003Y4114D01*
G01X6003Y4114D02*
G01X5984Y4125D01*
G01X7795Y4299D02*
G01X7334Y4299D01*
G01X7334Y4299D02*
G01X6515Y5118D01*
G01X6515Y5118D02*
G01X5984Y5118D01*
G01X5984Y5118D02*
G01X5984Y5125D01*
G01X1653Y3622D02*
G01X2559Y3622D01*
G01X1751Y4881D02*
G01X2251Y4881D01*
G01X2251Y4881D02*
G01X2263Y4842D01*
G01X2263Y4842D02*
G01X2263Y4212D01*
G01X2263Y4212D02*
G01X2559Y3917D01*
G01X2559Y3917D02*
G01X2559Y3622D01*
G01X3196Y10748D02*
G01X3464Y10905D01*
G01X3464Y10905D02*
G01X4370Y10905D01*
G01X4370Y10905D02*
G01X4370Y11476D01*
G01X4370Y11476D02*
G01X5019Y12125D01*
G01X5019Y12125D02*
G01X5669Y12125D01*
G01X3503Y11771D02*
G01X3523Y11751D01*
G01X3523Y11751D02*
G01X3523Y11299D01*
G01X3523Y11299D02*
G01X3196Y10972D01*
G01X3196Y10972D02*
G01X3196Y10748D01*
G01X1251Y4881D02*
G01X1259Y5157D01*
G01X1259Y5157D02*
G01X728Y5688D01*
G01X728Y5688D02*
G01X728Y11437D01*
G01X728Y11437D02*
G01X1909Y12618D01*
G01X1909Y12618D02*
G01X2102Y12874D01*

G04 Draw Text*
M00*
M02*
