G04 FreePCB version 1.353*
G04 C:\Program Files\FreePCB\projects\V6Z80P_FIX\CAM\bottom_copper.grb*
G04 bottom copper layer *
G04 Scale: 100 percent, Rotated: No, Reflected: No *
%FSLAX24Y24*%
%MOIN*%
%LN bottom copper *%
G04 Rounded Rectangle Macro, params: W/2, H/2, R *
%AMRNDREC*
21,1,$1+$1,$2+$2-$3-$3,0,0,0*
21,1,$1+$1-$3-$3,$2+$2,0,0,0*
1,1,$3+$3,$1-$3,$2-$3*
1,1,$3+$3,$3-$1,$2-$3*
1,1,$3+$3,$1-$3,$3-$2*
1,1,$3+$3,$3-$1,$3-$2*%
G04 Rectangular Thermal Macro, params: W/2, H/2, T/2 *
%AMRECTHERM*
$4=$3/2*
21,1,$1-$3,$2-$3,0-$1/2-$4,0-$2/2-$4,0*
21,1,$1-$3,$2-$3,0-$1/2-$4,$2/2+$4,0*
21,1,$1-$3,$2-$3,$1/2+$4,0-$2/2-$4,0*
21,1,$1-$3,$2-$3,$1/2+$4,$2/2+$4,0*%
%ADD10C,0.007874*%
%ADD11R,0.074803X0.074803*%
%ADD12C,0.074803*%
%AMTHERM13*7,0,0,0.075748,0.060000,0.019685,45.0*%
%ADD13THERM13*%
%ADD14C,0.001000*%
%ADD15C,0.075748*%
%ADD16C,0.153543*%
%ADD17C,0.161417*%
%ADD18C,0.094488*%
%AMTHERM19*7,0,0,0.153543,0.137795,0.019685,45.0*%
%ADD19THERM19*%
%ADD20C,0.082677*%
%ADD21R,0.078740X0.078740*%
%ADD22C,0.078740*%
%ADD23C,0.212598*%
%AMTHERM24*7,0,0,0.212598,0.196850,0.019685,45.0*%
%ADD24THERM24*%
%ADD25C,0.093748*%
%AMTHERM26*7,0,0,0.094488,0.078740,0.019685,45.0*%
%ADD26THERM26*%
%ADD27R,0.059055X0.062992*%
%ADD28C,0.098425*%
%ADD29C,0.086614*%
%AMTHERM30*7,0,0,0.086614,0.070866,0.019685,45.0*%
%ADD30THERM30*%
%ADD31R,0.062992X0.059055*%
%AMTHERM32*7,0,0,0.141732,0.125984,0.019685,45.0*%
%ADD32THERM32*%
%ADD33R,0.066929X0.078740*%
%ADD34R,0.055748X0.063748*%
%ADD35C,0.204724*%
%ADD36C,0.192913*%
%AMTHERM37*7,0,0,0.080748,0.065000,0.019685,45.0*%
%ADD37THERM37*%
%ADD38C,0.080748*%
%ADD39R,0.102362X0.062992*%
%ADD40R,0.102362X0.157480*%
%ADD41R,0.062992X0.102362*%
%ADD42R,0.157480X0.102362*%
%AMTHERM43*7,0,0,0.085748,0.070000,0.019685,45.0*%
%ADD43THERM43*%
%ADD44C,0.085748*%
%ADD45R,0.066929X0.070866*%
%ADD46C,0.024748*%
%ADD47C,0.030748*%
%ADD48C,0.055748*%
%ADD49C,0.040748*%
%ADD50C,0.035748*%
%ADD51C,0.025748*%
%AMTHERM52*7,0,0,0.055748,0.040000,0.019685,45.0*%
%ADD52THERM52*%
%ADD53C,0.050748*%
%ADD54C,0.065748*%
%ADD55R,0.059055X0.059055*%
%ADD56C,0.059055*%
%ADD57C,0.060000*%
%ADD58C,0.137795*%
%ADD59C,0.145669*%
%ADD60C,0.066929*%
%ADD61R,0.062992X0.062992*%
%ADD62C,0.062992*%
%ADD63C,0.196850*%
%ADD64C,0.078000*%
%ADD65R,0.043307X0.047244*%
%ADD66C,0.070866*%
%ADD67R,0.047244X0.043307*%
%ADD68C,0.125984*%
%ADD69R,0.051181X0.062992*%
%ADD70R,0.040000X0.048000*%
%ADD71C,0.188976*%
%ADD72C,0.177165*%
%ADD73C,0.065000*%
%ADD74R,0.086614X0.047244*%
%ADD75R,0.086614X0.141732*%
%ADD76R,0.047244X0.086614*%
%ADD77R,0.141732X0.086614*%
%ADD78C,0.070000*%
%ADD79R,0.051181X0.055118*%
%ADD80C,0.009000*%
%ADD81C,0.015000*%
%ADD82C,0.040000*%
%ADD83C,0.025000*%
%ADD84C,0.020000*%
%ADD85C,0.010000*%
%ADD86C,0.035000*%
%ADD87C,0.050000*%
G90*
G70D02*

G04 Step and Repeat for panelization *

G04 ----------------------- Draw board outline (positive)*
%LPD*%
G54D10*
G01X-196Y-157D02*
G01X45393Y-157D01*
G04 end of side 1*
G01X45393Y47007D01*
G04 end of side 2*
G01X-196Y47007D01*
G04 end of side 3*
G01X-196Y-157D01*

G04 ----------------------- Draw copper area (positive)*
G36*
G01X24507Y34094D02*
G01X24507Y33818D01*
G01X24842Y33464D01*
G01X25236Y33070D01*
G01X25236Y24960D01*
G01X24586Y24960D01*
G01X24586Y32696D01*
G01X23031Y34251D01*
G01X11811Y34251D01*
G01X11811Y22992D01*
G01X13346Y21456D01*
G01X21476Y21456D01*
G01X21476Y20688D01*
G01X13326Y20688D01*
G01X11062Y22952D01*
G01X11062Y32519D01*
G01X11240Y32696D01*
G01X11240Y35098D01*
G01X23484Y35098D01*
G01X24507Y34094D01*
G37*

G04 ----------------------- Draw copper area (positive)*
G36*
G01X44881Y36909D02*
G01X44881Y36102D01*
G01X44901Y17381D01*
G01X44901Y17106D01*
G01X44901Y16338D01*
G01X44901Y9783D01*
G01X40425Y9783D01*
G01X40334Y9625D01*
G01X40334Y9114D01*
G01X40334Y8622D01*
G01X40413Y8523D01*
G01X42519Y8523D01*
G01X42519Y7755D01*
G01X40767Y6003D01*
G01X38858Y4094D01*
G01X36417Y4094D01*
G01X36417Y5039D01*
G01X35866Y5590D01*
G01X24901Y5590D01*
G01X24724Y5767D01*
G01X24724Y9842D01*
G01X25452Y9842D01*
G01X25452Y6751D01*
G01X27066Y6751D01*
G01X27874Y7559D01*
G01X31988Y7559D01*
G01X32854Y6692D01*
G01X35708Y6692D01*
G01X36968Y7952D01*
G01X36968Y9842D01*
G01X37342Y10216D01*
G01X37913Y10767D01*
G01X37913Y11515D01*
G01X37913Y12145D01*
G01X37775Y12283D01*
G01X31988Y12283D01*
G01X31633Y11929D01*
G01X31633Y10984D01*
G01X31417Y10767D01*
G01X29429Y10767D01*
G01X28641Y11555D01*
G01X27539Y11555D01*
G01X27342Y11358D01*
G01X18228Y11358D01*
G01X18228Y10314D01*
G01X18228Y6299D01*
G01X18818Y5708D01*
G01X21358Y5708D01*
G01X23051Y4015D01*
G01X27637Y4015D01*
G01X25728Y2106D01*
G01X17795Y2106D01*
G01X17086Y2814D01*
G01X17086Y3917D01*
G01X17086Y5177D01*
G01X14763Y7500D01*
G01X14763Y9133D01*
G01X17086Y11496D01*
G01X17086Y12283D01*
G01X17086Y12795D01*
G01X17084Y13602D01*
G01X17874Y13602D01*
G01X17874Y14803D01*
G01X17081Y14803D01*
G01X17066Y19881D01*
G01X22007Y19881D01*
G01X23562Y18326D01*
G01X24685Y18326D01*
G01X25334Y18346D01*
G01X25570Y18582D01*
G01X25570Y20787D01*
G01X24586Y20787D01*
G01X23700Y21653D01*
G01X23700Y23208D01*
G01X23051Y23208D01*
G01X23051Y23779D01*
G01X21043Y23779D01*
G01X21043Y24448D01*
G01X17913Y24448D01*
G01X17913Y22933D01*
G01X16732Y22933D01*
G01X16732Y24448D01*
G01X14921Y24448D01*
G01X14921Y27874D01*
G01X13169Y27874D01*
G01X13169Y29153D01*
G01X14921Y29153D01*
G01X14921Y31318D01*
G01X16811Y31318D01*
G01X16811Y33070D01*
G01X18090Y33070D01*
G01X18090Y31318D01*
G01X21437Y31318D01*
G01X21437Y29251D01*
G01X23346Y29251D01*
G01X23346Y28523D01*
G01X21437Y28523D01*
G01X21437Y27125D01*
G01X23070Y27125D01*
G01X23346Y26850D01*
G01X23346Y26456D01*
G01X21437Y26456D01*
G01X21437Y24921D01*
G01X23346Y24921D01*
G01X23346Y24527D01*
G01X25570Y24527D01*
G01X25570Y27185D01*
G01X25846Y27185D01*
G01X25846Y28759D01*
G01X25570Y28759D01*
G01X25570Y32795D01*
G01X32834Y32795D01*
G01X32834Y33464D01*
G01X31476Y34448D01*
G01X24704Y34448D01*
G01X24114Y35039D01*
G01X30826Y35039D01*
G01X30826Y36496D01*
G01X29409Y36496D01*
G01X29133Y36771D01*
G01X28503Y36771D01*
G01X28208Y36476D01*
G01X14803Y36496D01*
G01X13858Y37440D01*
G01X13858Y41141D01*
G01X12795Y41141D01*
G01X12795Y37066D01*
G01X11712Y37066D01*
G01X11712Y36122D01*
G01X11712Y35433D01*
G01X10295Y35433D01*
G01X10295Y28248D01*
G01X10295Y27362D01*
G01X10295Y20452D01*
G01X11220Y19527D01*
G01X11220Y15472D01*
G01X12913Y15472D01*
G01X12913Y20492D01*
G01X15354Y20492D01*
G01X15354Y13562D01*
G01X14488Y13562D01*
G01X14488Y12696D01*
G01X14488Y11771D01*
G01X11948Y11771D01*
G01X11948Y12696D01*
G01X7125Y12696D01*
G01X7125Y6417D01*
G01X11496Y6417D01*
G01X11496Y4940D01*
G01X10374Y4940D01*
G01X10118Y4685D01*
G01X10118Y2519D01*
G01X8602Y2519D01*
G01X8129Y2047D01*
G01X8129Y1417D01*
G01X8484Y1062D01*
G01X15728Y1062D01*
G01X15964Y1318D01*
G01X26535Y1318D01*
G01X28503Y3307D01*
G01X39783Y3307D01*
G01X41437Y4960D01*
G01X43444Y6968D01*
G01X43444Y8484D01*
G01X44901Y8484D01*
G01X44901Y98D01*
G01X177Y98D01*
G01X177Y137D01*
G01X177Y157D01*
G01X177Y28248D01*
G01X177Y46791D01*
G01X44881Y46791D01*
G01X44881Y36909D01*
G37*

G04 ----------------------- Draw copper area (positive)*
G36*
G01X10354Y9881D02*
G01X9173Y9881D01*
G01X9173Y12401D01*
G01X10354Y12401D01*
G01X10354Y9881D01*
G37*

G04 ----------------------- Draw copper area (positive)*
G36*
G01X8011Y9881D02*
G01X7460Y9881D01*
G01X7460Y12401D01*
G01X8011Y12401D01*
G01X8011Y9881D01*
G37*

G04 ----------------------- Draw copper area (positive)*
G36*
G01X10433Y6673D02*
G01X9153Y6673D01*
G01X9173Y9173D01*
G01X10433Y9173D01*
G01X10433Y6673D01*
G37*

G04 ----------------------- Draw copper area (positive)*
G36*
G01X8011Y6673D02*
G01X7460Y6673D01*
G01X7460Y9173D01*
G01X8011Y9173D01*
G01X8011Y6673D01*
G37*

G04 ----------------------- Draw copper area (positive)*
G36*
G01X15964Y4822D02*
G01X13051Y4822D01*
G01X13051Y2539D01*
G01X12519Y2539D01*
G01X12539Y6397D01*
G01X14370Y6397D01*
G01X15964Y4822D01*
G37*

G04 ----------------------- Draw copper area (positive)*
G36*
G01X24330Y32401D02*
G01X24330Y24960D01*
G01X23622Y24960D01*
G01X23622Y32342D01*
G01X22618Y33366D01*
G01X12893Y33366D01*
G01X12893Y23287D01*
G01X13582Y22578D01*
G01X23484Y22578D01*
G01X23484Y21811D01*
G01X13464Y21811D01*
G01X12145Y23149D01*
G01X12145Y33464D01*
G01X12145Y33956D01*
G01X22814Y33956D01*
G01X24330Y32401D01*
G37*

G04 -------------------- Draw copper area cutout (negative)*
%LPC*%
G36*
G01X16240Y45866D02*
G01X15354Y45866D01*
G01X15059Y45570D01*
G01X9842Y45570D01*
G01X9744Y45669D01*
G01X9547Y45866D01*
G01X8464Y45866D01*
G01X8169Y45570D01*
G01X7854Y45275D01*
G01X7086Y45275D01*
G01X7086Y44744D01*
G01X7086Y43897D01*
G01X7086Y42027D01*
G01X5354Y42027D01*
G01X5354Y44350D01*
G01X334Y44350D01*
G01X334Y43464D01*
G01X964Y42834D01*
G01X2263Y42834D01*
G01X2263Y42618D01*
G01X1574Y41929D01*
G01X1574Y39665D01*
G01X1181Y39271D01*
G01X1181Y38287D01*
G01X1574Y37893D01*
G01X1574Y32775D01*
G01X1181Y32381D01*
G01X1181Y31299D01*
G01X1673Y30807D01*
G01X1673Y28838D01*
G01X2047Y28464D01*
G01X3366Y28464D01*
G01X3366Y30019D01*
G01X6791Y30019D01*
G01X6791Y31791D01*
G01X6181Y32401D01*
G01X5216Y32401D01*
G01X5216Y32677D01*
G01X5216Y33661D01*
G01X4232Y33661D01*
G01X4232Y36909D01*
G01X6889Y36909D01*
G01X6889Y37598D01*
G01X10728Y37598D01*
G01X11122Y37992D01*
G01X11122Y40157D01*
G01X10826Y40452D01*
G01X10826Y40649D01*
G01X10826Y42027D01*
G01X10826Y43799D01*
G01X14074Y43799D01*
G01X14074Y42027D01*
G01X17618Y42027D01*
G01X17618Y43818D01*
G01X19192Y43818D01*
G01X19192Y41614D01*
G01X28956Y41614D01*
G01X29527Y41043D01*
G01X34645Y41043D01*
G01X34645Y40059D01*
G01X38582Y40059D01*
G01X38582Y38287D01*
G01X34645Y38287D01*
G01X34645Y37007D01*
G01X44192Y37007D01*
G01X44192Y38090D01*
G01X39862Y38090D01*
G01X39862Y40059D01*
G01X43937Y40059D01*
G01X43937Y41102D01*
G01X41515Y41102D01*
G01X41515Y45177D01*
G01X35334Y45177D01*
G01X35334Y44783D01*
G01X35334Y44586D01*
G01X27952Y44586D01*
G01X27952Y45177D01*
G01X23129Y45177D01*
G01X23129Y42913D01*
G01X22637Y42913D01*
G01X22637Y42125D01*
G01X21555Y42125D01*
G01X21555Y43996D01*
G01X19389Y43996D01*
G01X19389Y45078D01*
G01X18897Y45570D01*
G01X16535Y45570D01*
G01X16240Y45866D01*
G37*

G04 -------------------- Draw copper area cutout (negative)*
G36*
G01X3523Y46358D02*
G01X2165Y46358D01*
G01X2165Y45177D01*
G01X3523Y45177D01*
G01X3523Y46358D01*
G37*

G04 -------------------- Draw copper area cutout (negative)*
G36*
G01X43503Y36279D02*
G01X37795Y36279D01*
G01X37795Y33346D01*
G01X37795Y31397D01*
G01X36712Y31397D01*
G01X33956Y28641D01*
G01X33956Y28149D01*
G01X33956Y24901D01*
G01X34842Y24901D01*
G01X34842Y28149D01*
G01X37303Y30610D01*
G01X38523Y30610D01*
G01X38523Y26889D01*
G01X39350Y26889D01*
G01X39350Y23582D01*
G01X39350Y21850D01*
G01X40452Y21850D01*
G01X40452Y23248D01*
G01X41023Y23248D01*
G01X41023Y21220D01*
G01X40551Y20767D01*
G01X35334Y20767D01*
G01X34744Y21358D01*
G01X33937Y21358D01*
G01X33937Y19921D01*
G01X33937Y16318D01*
G01X33759Y16141D01*
G01X32972Y16141D01*
G01X32972Y14665D01*
G01X33956Y14665D01*
G01X33956Y15354D01*
G01X34744Y15354D01*
G01X34744Y19291D01*
G01X34744Y19586D01*
G01X39370Y19586D01*
G01X39370Y19055D01*
G01X40354Y19055D01*
G01X40354Y19783D01*
G01X42322Y19783D01*
G01X42322Y16043D01*
G01X43464Y16043D01*
G01X43464Y16338D01*
G01X43464Y17106D01*
G01X43464Y19133D01*
G01X44192Y19133D01*
G01X44192Y20570D01*
G01X41732Y20570D01*
G01X41732Y23720D01*
G01X40452Y23720D01*
G01X40452Y25787D01*
G01X42519Y25787D01*
G01X42519Y21948D01*
G01X43444Y21948D01*
G01X43444Y25393D01*
G01X43799Y25393D01*
G01X43897Y25492D01*
G01X43897Y25885D01*
G01X43897Y27165D01*
G01X43799Y27263D01*
G01X43503Y27263D01*
G01X43503Y30649D01*
G01X44527Y30649D01*
G01X44645Y30767D01*
G01X44645Y31161D01*
G01X44527Y31299D01*
G01X38976Y31299D01*
G01X38976Y32381D01*
G01X43503Y32381D01*
G01X43503Y36279D01*
G37*

G04 -------------------- Draw copper area cutout (negative)*
G36*
G01X36122Y23228D02*
G01X35531Y23228D01*
G01X35531Y21751D01*
G01X36122Y21751D01*
G01X36122Y23228D01*
G37*

G04 -------------------- Draw copper area cutout (negative)*
G36*
G01X8011Y27106D02*
G01X5472Y27106D01*
G01X3543Y25177D01*
G01X2874Y24507D01*
G01X2874Y21850D01*
G01X2874Y14881D01*
G01X3385Y14370D01*
G01X3385Y13818D01*
G01X2381Y12814D01*
G01X2322Y12775D01*
G01X2322Y11299D01*
G01X2322Y10511D01*
G01X2598Y10255D01*
G01X3031Y10255D01*
G01X3287Y10511D01*
G01X3287Y12500D01*
G01X3956Y13169D01*
G01X4507Y13169D01*
G01X4507Y12696D01*
G01X4507Y12007D01*
G01X5826Y12007D01*
G01X5826Y16515D01*
G01X6397Y17086D01*
G01X6397Y18799D01*
G01X5728Y19488D01*
G01X5728Y20511D01*
G01X6377Y20511D01*
G01X6377Y22696D01*
G01X5610Y22696D01*
G01X5452Y22854D01*
G01X5452Y23228D01*
G01X5452Y24645D01*
G01X6299Y24645D01*
G01X6299Y26377D01*
G01X8011Y26377D01*
G01X8011Y27106D01*
G37*

G04 -------------------- Draw copper area cutout (negative)*
G36*
G01X5846Y7814D02*
G01X4940Y7814D01*
G01X4940Y6909D01*
G01X5846Y6909D01*
G01X5846Y7814D01*
G37*

G04 -------------------- Draw copper area cutout (negative)*
G36*
G01X9311Y6122D02*
G01X7165Y6122D01*
G01X7165Y5314D01*
G01X1791Y5314D01*
G01X1791Y3149D01*
G01X3996Y964D01*
G01X5728Y964D01*
G01X5728Y1811D01*
G01X7559Y3641D01*
G01X9311Y3641D01*
G01X9311Y6122D01*
G37*

G04 ----------------------- Draw copper area (positive)*
%LPD*%
G36*
G01X40452Y30728D02*
G01X42027Y30728D01*
G01X42500Y30728D01*
G01X42500Y26909D01*
G01X40452Y26909D01*
G01X40452Y30688D01*
G01X40452Y30728D01*
G37*

G04 -------------------- Draw copper area clearances (negative)*
%LPC*%

G04 Draw clearances for pads*
G54D11*
G01X39960Y30413D03*
G54D12*
G01X39960Y29413D03*
G01X39960Y28413D03*
G01X39960Y27413D03*
G01X39960Y26413D03*
G01X39960Y25413D03*
G01X39960Y24413D03*
G01X39960Y23413D03*
G01X39960Y22413D03*
G01X42960Y22413D03*
G01X42960Y23413D03*
G01X42960Y24413D03*
G01X42960Y25413D03*
G01X42960Y26413D03*
G01X42960Y27413D03*
G01X42960Y28413D03*
G01X42960Y29413D03*
G01X42960Y30413D03*
G54D11*
G01X39960Y35826D03*
G54D12*
G01X39960Y34826D03*
G01X39960Y33826D03*
G01X39960Y32826D03*
G01X42960Y32826D03*
G01X42960Y33826D03*
G01X42960Y34826D03*
G01X42960Y35826D03*
G54D11*
G01X39929Y19503D03*
G54D13*
G01X39929Y16503D03*
G54D14*
G54D15*
G01X42929Y16503D03*
G01X42929Y19503D03*
G54D16*
G01X18503Y44685D03*
G01X13188Y44685D03*
G54D12*
G01X16397Y43503D03*
G01X15295Y43503D03*
G01X14566Y43503D03*
G01X17145Y43503D03*
G54D17*
G01X15846Y44980D03*
G54D12*
G01X17145Y42519D03*
G01X14547Y42519D03*
G01X16122Y42519D03*
G01X15334Y42519D03*
G54D16*
G01X2460Y34547D03*
G01X2460Y29232D03*
G54D12*
G01X3641Y32440D03*
G01X3641Y31338D03*
G01X3641Y30610D03*
G01X3641Y33169D03*
G54D17*
G01X2165Y31889D03*
G54D18*
G01X4625Y33169D03*
G01X4625Y30610D03*
G54D16*
G01X2460Y41437D03*
G01X2460Y36122D03*
G54D12*
G01X3641Y39330D03*
G01X3641Y38228D03*
G01X3641Y37500D03*
G01X3641Y40059D03*
G54D17*
G01X2165Y38779D03*
G54D18*
G01X4625Y40059D03*
G01X4625Y37500D03*
G54D16*
G01X11614Y44685D03*
G54D19*
G01X6299Y44685D03*
G54D14*
G54D20*
G01X7677Y43503D03*
G01X10236Y43503D03*
G54D17*
G01X8956Y44980D03*
G54D18*
G01X10236Y42519D03*
G01X7677Y42519D03*
G54D21*
G01X40255Y42322D03*
G54D22*
G01X39165Y42322D03*
G01X38075Y42322D03*
G01X36985Y42322D03*
G01X35895Y42322D03*
G01X39715Y43442D03*
G01X38625Y43442D03*
G01X37535Y43442D03*
G01X36445Y43442D03*
G54D23*
G01X33169Y42834D03*
G54D24*
G01X43011Y42834D03*
G54D14*
G54D21*
G01X27460Y42322D03*
G54D22*
G01X26370Y42322D03*
G01X25280Y42322D03*
G01X24190Y42322D03*
G01X23100Y42322D03*
G01X26920Y43442D03*
G01X25830Y43442D03*
G01X24740Y43442D03*
G01X23650Y43442D03*
G54D23*
G01X20374Y42834D03*
G01X30216Y42834D03*
G54D18*
G01X4814Y43790D03*
G54D25*
G01X894Y43790D03*
G01X3834Y43790D03*
G01X1874Y43790D03*
G54D26*
G01X4814Y45760D03*
G54D14*
G54D26*
G01X894Y45760D03*
G54D14*
G54D18*
G01X2854Y45760D03*
G54D11*
G01X35334Y37598D03*
G54D12*
G01X36334Y37598D03*
G01X37334Y37598D03*
G01X38334Y37598D03*
G01X39334Y37598D03*
G01X40334Y37598D03*
G01X41334Y37598D03*
G01X42334Y37598D03*
G01X43334Y37598D03*
G01X43334Y40598D03*
G01X42334Y40598D03*
G01X41334Y40598D03*
G01X40334Y40598D03*
G01X39334Y40598D03*
G01X38334Y40598D03*
G01X37334Y40598D03*
G01X36334Y40598D03*
G01X35334Y40598D03*
G54D27*
G01X23622Y44389D03*
G01X24291Y44389D03*
G01X26870Y44389D03*
G01X27539Y44389D03*
G01X36417Y44389D03*
G01X35748Y44389D03*
G01X39665Y44389D03*
G01X38996Y44389D03*
G01X8562Y38484D03*
G01X7893Y38484D03*
G01X10137Y41141D03*
G01X9468Y41141D03*
G01X8562Y39370D03*
G01X7893Y39370D03*
G01X10137Y40255D03*
G01X9468Y40255D03*
G01X8562Y41141D03*
G01X7893Y41141D03*
G01X8562Y40255D03*
G01X7893Y40255D03*
G01X6692Y41141D03*
G01X6023Y41141D03*
G01X6692Y39468D03*
G01X6023Y39468D03*
G01X10137Y39370D03*
G01X9468Y39370D03*
G01X10137Y38484D03*
G01X9468Y38484D03*
G01X5610Y31397D03*
G01X6279Y31397D03*
G01X6299Y30610D03*
G01X5629Y30610D03*
G01X6397Y37500D03*
G01X5728Y37500D03*
G01X6397Y38287D03*
G01X5728Y38287D03*
G54D28*
G01X43996Y9153D03*
G01X42996Y9153D03*
G01X41996Y9153D03*
G01X40996Y9153D03*
G54D29*
G01X24901Y20275D03*
G54D30*
G01X24901Y21275D03*
G54D14*
G54D31*
G01X24901Y18700D03*
G01X24901Y19370D03*
G01X24015Y18700D03*
G01X24015Y19370D03*
G54D29*
G01X38385Y34566D03*
G01X38385Y35566D03*
G54D31*
G01X39271Y38779D03*
G01X39271Y39448D03*
G01X41437Y33858D03*
G01X41437Y34527D03*
G54D27*
G01X41830Y26377D03*
G01X41161Y26377D03*
G54D31*
G01X42913Y17716D03*
G01X42913Y18385D03*
G01X15748Y31791D03*
G01X15748Y32460D03*
G54D27*
G01X14566Y30216D03*
G01X13897Y30216D03*
G54D31*
G01X16437Y31791D03*
G01X16437Y32460D03*
G01X19192Y31791D03*
G01X19192Y32460D03*
G54D27*
G01X14566Y29527D03*
G01X13897Y29527D03*
G54D31*
G01X19980Y31791D03*
G01X19980Y32460D03*
G01X13976Y31791D03*
G01X13976Y32460D03*
G54D27*
G01X14566Y27460D03*
G01X13897Y27460D03*
G54D31*
G01X20669Y31791D03*
G01X20669Y32460D03*
G01X18503Y31791D03*
G01X18503Y32460D03*
G54D27*
G01X14566Y25688D03*
G01X13897Y25688D03*
G01X14566Y26771D03*
G01X13897Y26771D03*
G54D31*
G01X16338Y23425D03*
G01X16338Y24094D03*
G01X15649Y23425D03*
G01X15649Y24094D03*
G01X13877Y23326D03*
G01X13877Y23996D03*
G54D27*
G01X14566Y25000D03*
G01X13897Y25000D03*
G54D31*
G01X22145Y31791D03*
G01X22145Y32460D03*
G01X18996Y23425D03*
G01X18996Y24094D03*
G01X18307Y23425D03*
G01X18307Y24094D03*
G01X19881Y23425D03*
G01X19881Y24094D03*
G01X20570Y23425D03*
G01X20570Y24094D03*
G54D27*
G01X22440Y27460D03*
G01X21771Y27460D03*
G01X22440Y26082D03*
G01X21771Y26082D03*
G01X22440Y25393D03*
G01X21771Y25393D03*
G01X22637Y23425D03*
G01X21968Y23425D03*
G01X22440Y29625D03*
G01X21771Y29625D03*
G01X22440Y28149D03*
G01X21771Y28149D03*
G01X22440Y30314D03*
G01X21771Y30314D03*
G54D22*
G01X12204Y21062D03*
G01X12204Y20062D03*
G01X12204Y19062D03*
G01X12204Y18062D03*
G01X12204Y17062D03*
G01X12204Y16062D03*
G54D32*
G01X31496Y39763D03*
G54D14*
G54D27*
G01X2657Y33267D03*
G01X1988Y33267D03*
G01X2755Y40059D03*
G01X2086Y40059D03*
G54D33*
G01X15708Y12952D03*
G01X14960Y12952D03*
G01X17244Y14212D03*
G01X16496Y14212D03*
G54D27*
G01X35629Y11909D03*
G01X36299Y11909D03*
G54D28*
G01X5826Y25905D03*
G01X5826Y15984D03*
G54D31*
G01X4173Y24881D03*
G01X4173Y24212D03*
G54D34*
G01X4488Y21968D03*
G01X4888Y21068D03*
G01X4088Y21068D03*
G54D27*
G01X4803Y19842D03*
G01X4133Y19842D03*
G54D31*
G01X5000Y24212D03*
G01X5000Y24881D03*
G54D27*
G01X4842Y17952D03*
G01X4173Y17952D03*
G01X4803Y14685D03*
G01X5472Y14685D03*
G54D34*
G01X4488Y15944D03*
G01X4088Y16844D03*
G01X4888Y16844D03*
G54D31*
G01X5787Y21692D03*
G01X5787Y22362D03*
G54D35*
G01X5590Y3976D03*
G54D36*
G01X3031Y3976D03*
G54D16*
G01X4606Y2007D03*
G54D18*
G01X8881Y1771D03*
G01X9881Y1771D03*
G01X10881Y1771D03*
G54D29*
G01X8700Y4212D03*
G01X7700Y4212D03*
G01X8700Y5472D03*
G01X7700Y5472D03*
G54D37*
G01X10866Y5389D03*
G54D14*
G54D38*
G01X10866Y4409D03*
G54D37*
G01X1815Y10748D03*
G54D14*
G54D38*
G01X2795Y10748D03*
G54D37*
G01X4020Y12519D03*
G54D14*
G54D38*
G01X5000Y12519D03*
G54D37*
G01X6373Y7362D03*
G54D14*
G54D38*
G01X5393Y7362D03*
G54D39*
G01X11062Y12086D03*
G01X11062Y11181D03*
G01X11062Y10275D03*
G54D40*
G01X8622Y11181D03*
G54D39*
G01X11102Y8818D03*
G01X11102Y7913D03*
G01X11102Y7007D03*
G54D40*
G01X8661Y7913D03*
G54D41*
G01X15236Y1771D03*
G01X14330Y1771D03*
G01X13425Y1771D03*
G54D42*
G01X14330Y4212D03*
G54D38*
G01X13149Y11137D03*
G01X13149Y10157D03*
G54D37*
G01X16535Y831D03*
G54D14*
G54D38*
G01X16535Y1811D03*
G01X13464Y6972D03*
G01X13464Y7952D03*
G54D29*
G01X13307Y40551D03*
G01X13307Y39551D03*
G01X13307Y38551D03*
G01X13307Y37551D03*
G01X13307Y36551D03*
G54D43*
G01X12307Y40551D03*
G54D14*
G54D43*
G01X12307Y39551D03*
G54D14*
G54D43*
G01X12307Y38551D03*
G54D14*
G54D43*
G01X12307Y37551D03*
G54D14*
G54D44*
G01X12307Y36551D03*
G54D32*
G01X43307Y984D03*
G54D14*
G54D32*
G01X1574Y984D03*
G54D14*
G54D32*
G01X17322Y37401D03*
G54D14*
G54D31*
G01X39055Y27716D03*
G01X39055Y28385D03*
G54D45*
G01X4803Y23070D03*
G01X4055Y23070D03*

G04 Draw clearances for traces*
G54D46*
G01X6397Y37500D02*
G01X6397Y38287D01*
G01X6299Y30610D02*
G01X6279Y30728D01*
G01X6279Y30728D02*
G01X6279Y31397D01*
G54D47*
G01X2755Y40059D02*
G01X3641Y40059D01*
G01X2657Y33267D02*
G01X3484Y33267D01*
G54D46*
G01X3484Y33267D02*
G01X3641Y33169D01*
G54D47*
G01X2755Y40059D02*
G01X3129Y40078D01*
G01X3129Y40078D02*
G01X3129Y37047D01*
G01X3129Y37047D02*
G01X3602Y36574D01*
G01X3602Y36574D02*
G01X3602Y33267D01*
G01X3602Y33267D02*
G01X3641Y33169D01*
G54D46*
G01X3641Y33169D02*
G01X4744Y32066D01*
G01X4744Y32066D02*
G01X6003Y32066D01*
G01X6003Y32066D02*
G01X6279Y31791D01*
G01X6279Y31791D02*
G01X6279Y31397D01*
G01X3641Y40059D02*
G01X4822Y38877D01*
G01X4822Y38877D02*
G01X6200Y38877D01*
G01X6200Y38877D02*
G01X6397Y38681D01*
G01X6397Y38681D02*
G01X6397Y38287D01*
G54D48*
G01X3622Y14842D03*
G54D49*
G01X3622Y14842D02*
G01X3799Y14625D01*
G01X3799Y14625D02*
G01X3799Y13602D01*
G01X3799Y13602D02*
G01X2795Y12598D01*
G01X2795Y12598D02*
G01X2795Y10964D01*
G54D47*
G01X2795Y10964D02*
G01X2795Y10748D01*
G54D46*
G01X8562Y39370D02*
G01X9468Y39370D01*
G01X9468Y39370D02*
G01X9468Y38484D01*
G54D48*
G01X25531Y28405D03*
G01X25531Y27637D03*
G54D46*
G01X25531Y28405D02*
G01X25531Y27637D01*
G54D48*
G01X28110Y10885D03*
G54D46*
G01X28110Y10885D02*
G01X28818Y10177D01*
G01X28818Y10177D02*
G01X35078Y10177D01*
G54D48*
G01X35452Y9822D03*
G54D46*
G01X35078Y10177D02*
G01X35452Y9822D01*
G54D48*
G01X24921Y33976D03*
G01X31496Y33976D03*
G54D46*
G01X24921Y33976D02*
G01X31496Y33976D01*
G54D48*
G01X26889Y9055D03*
G54D46*
G01X26889Y9055D02*
G01X27047Y9094D01*
G01X27047Y9094D02*
G01X33759Y9094D01*
G01X33759Y9094D02*
G01X33976Y8877D01*
G01X33976Y8877D02*
G01X33976Y7952D01*
G54D48*
G01X33877Y7834D03*
G54D46*
G01X33976Y7952D02*
G01X33877Y7834D01*
G54D48*
G01X26003Y8720D03*
G01X33562Y8720D03*
G54D46*
G01X26003Y8720D02*
G01X33562Y8720D01*
G54D48*
G01X5452Y19035D03*
G54D47*
G01X5452Y19035D02*
G01X6102Y18385D01*
G01X6102Y18385D02*
G01X6102Y17303D01*
G01X6102Y17303D02*
G01X5649Y16850D01*
G01X5649Y16850D02*
G01X4921Y16850D01*
G01X4921Y16850D02*
G01X4888Y16844D01*
G54D49*
G01X5787Y21692D02*
G01X5314Y21692D01*
G01X5314Y21692D02*
G01X5019Y21988D01*
G01X5019Y21988D02*
G01X4468Y21988D01*
G01X4468Y21988D02*
G01X4488Y21968D01*
G54D48*
G01X5787Y20905D03*
G54D49*
G01X5787Y21692D02*
G01X5787Y20905D01*
G54D50*
G01X4488Y21968D02*
G01X4488Y22185D01*
G01X4488Y22185D02*
G01X4055Y22618D01*
G01X4055Y22618D02*
G01X4055Y23070D01*
G54D48*
G01X11535Y20590D03*
G54D46*
G01X11535Y20590D02*
G01X10748Y21377D01*
G01X10748Y21377D02*
G01X10748Y32716D01*
G01X10748Y32716D02*
G01X10905Y32874D01*
G54D48*
G01X10905Y33110D03*
G54D46*
G01X10905Y32874D02*
G01X10905Y33110D01*
G54D48*
G01X26377Y9803D03*
G54D46*
G01X26377Y9803D02*
G01X26594Y9724D01*
G01X26594Y9724D02*
G01X34212Y9704D01*
G01X34212Y9704D02*
G01X35059Y8858D01*
G01X35059Y8858D02*
G01X35059Y8346D01*
G54D48*
G01X34704Y7992D03*
G54D46*
G01X35059Y8346D02*
G01X34704Y7992D01*
G54D48*
G01X25885Y9409D03*
G54D46*
G01X25885Y9409D02*
G01X33976Y9409D01*
G54D48*
G01X34704Y8700D03*
G54D46*
G01X33976Y9409D02*
G01X34704Y8700D01*
G54D48*
G01X25393Y10177D03*
G54D46*
G01X25393Y10177D02*
G01X26732Y10177D01*
G01X26732Y10177D02*
G01X26968Y9940D01*
G01X26968Y9940D02*
G01X34488Y9940D01*
G54D48*
G01X34940Y9488D03*
G54D46*
G01X34488Y9940D02*
G01X34940Y9488D01*
G54D51*
G01X4173Y17952D02*
G01X4173Y16968D01*
G54D46*
G01X4173Y16968D02*
G01X4088Y16844D01*
G54D49*
G01X5000Y12519D02*
G01X5039Y12559D01*
G01X5039Y12559D02*
G01X5039Y13326D01*
G01X5039Y13326D02*
G01X4251Y14114D01*
G01X4251Y14114D02*
G01X4251Y15137D01*
G01X4251Y15137D02*
G01X3366Y16023D01*
G01X3366Y16023D02*
G01X3366Y18543D01*
G01X3366Y18543D02*
G01X3681Y18858D01*
G01X3681Y18858D02*
G01X4133Y19291D01*
G01X4133Y19291D02*
G01X4133Y19842D01*
G01X4133Y19842D02*
G01X4133Y20944D01*
G54D46*
G01X4133Y20944D02*
G01X4088Y21068D01*
G01X10137Y40255D02*
G01X10629Y40255D01*
G01X10629Y40255D02*
G01X10826Y40059D01*
G54D48*
G01X10826Y38996D03*
G54D46*
G01X10826Y40059D02*
G01X10826Y38996D01*
G54D48*
G01X13385Y35433D03*
G54D46*
G01X13385Y35433D02*
G01X13503Y35590D01*
G01X13503Y35590D02*
G01X29921Y35590D01*
G54D48*
G01X30000Y35452D03*
G54D46*
G01X29921Y35590D02*
G01X30000Y35452D01*
G01X39055Y28385D02*
G01X39901Y28385D01*
G01X39901Y28385D02*
G01X39960Y28413D01*
G54D48*
G01X13858Y37047D03*
G54D46*
G01X13858Y37047D02*
G01X13877Y36870D01*
G01X13877Y36870D02*
G01X13877Y36299D01*
G01X13877Y36299D02*
G01X13996Y36181D01*
G01X13996Y36181D02*
G01X28661Y36181D01*
G54D48*
G01X28838Y36358D03*
G54D46*
G01X28661Y36181D02*
G01X28838Y36358D01*
G01X6023Y41141D02*
G01X5905Y41240D01*
G01X5905Y41240D02*
G01X5511Y41240D01*
G01X5511Y41240D02*
G01X4822Y41929D01*
G01X4822Y41929D02*
G01X4822Y43700D01*
G01X4822Y43700D02*
G01X4814Y43790D01*
G54D48*
G01X12244Y35413D03*
G54D46*
G01X12244Y35413D02*
G01X12814Y35413D01*
G01X12814Y35413D02*
G01X13188Y35787D01*
G54D48*
G01X30452Y35787D03*
G54D46*
G01X13188Y35787D02*
G01X30452Y35787D01*
G54D48*
G01X25413Y33543D03*
G01X31850Y33562D03*
G54D46*
G01X25413Y33543D02*
G01X31850Y33562D01*
G54D48*
G01X24015Y20748D03*
G54D46*
G01X24015Y20748D02*
G01X24015Y19370D01*
G01X6023Y39468D02*
G01X5905Y39566D01*
G01X5905Y39566D02*
G01X5610Y39566D01*
G01X5610Y39566D02*
G01X5511Y39665D01*
G01X5511Y39665D02*
G01X5511Y40059D01*
G01X5511Y40059D02*
G01X2559Y43011D01*
G01X2559Y43011D02*
G01X1279Y43011D01*
G01X1279Y43011D02*
G01X885Y43405D01*
G01X885Y43405D02*
G01X894Y43790D01*
G54D52*
G01X15590Y34645D03*
G54D14*
G54D46*
G01X16437Y32460D02*
G01X16417Y32559D01*
G54D47*
G01X16417Y32559D02*
G01X16417Y32992D01*
G54D48*
G01X16240Y33051D03*
G54D46*
G01X16417Y32992D02*
G01X16240Y33051D01*
G01X19192Y32460D02*
G01X19133Y32460D01*
G54D48*
G01X19133Y33011D03*
G54D47*
G01X19133Y32460D02*
G01X19133Y33011D01*
G54D52*
G01X20866Y34645D03*
G54D14*
G54D48*
G01X20000Y32992D03*
G54D47*
G01X20000Y32992D02*
G01X20000Y32519D01*
G54D46*
G01X20000Y32519D02*
G01X19980Y32460D01*
G54D52*
G01X11496Y30413D03*
G54D14*
G54D48*
G01X13208Y26889D03*
G54D46*
G01X13208Y26889D02*
G01X13326Y26771D01*
G54D47*
G01X13326Y26771D02*
G01X13838Y26771D01*
G54D46*
G01X13838Y26771D02*
G01X13897Y26771D01*
G54D52*
G01X11496Y27381D03*
G54D14*
G54D48*
G01X13208Y25708D03*
G54D47*
G01X13208Y25708D02*
G01X13858Y25708D01*
G54D46*
G01X13858Y25708D02*
G01X13897Y25688D01*
G54D52*
G01X11456Y25098D03*
G54D14*
G54D46*
G01X16338Y23425D02*
G01X16318Y23366D01*
G54D48*
G01X16318Y22913D03*
G54D47*
G01X16318Y23366D02*
G01X16318Y22913D01*
G54D46*
G01X18996Y23425D02*
G01X19035Y23346D01*
G54D48*
G01X19035Y22933D03*
G54D47*
G01X19035Y23346D02*
G01X19035Y22933D01*
G54D52*
G01X15314Y21062D03*
G54D14*
G54D52*
G01X18346Y21023D03*
G54D14*
G54D46*
G01X19881Y23425D02*
G01X19862Y23346D01*
G54D48*
G01X19862Y22933D03*
G54D47*
G01X19862Y23346D02*
G01X19862Y22933D01*
G54D52*
G01X20728Y21122D03*
G54D14*
G54D48*
G01X23169Y26082D03*
G54D46*
G01X23169Y26082D02*
G01X22440Y26082D01*
G54D52*
G01X24960Y25275D03*
G54D14*
G54D46*
G01X22440Y27460D02*
G01X22519Y27421D01*
G54D48*
G01X23267Y27421D03*
G54D46*
G01X22519Y27421D02*
G01X23267Y27421D01*
G54D52*
G01X24940Y27618D03*
G54D14*
G54D48*
G01X23267Y29625D03*
G54D46*
G01X23267Y29625D02*
G01X22440Y29625D01*
G54D52*
G01X24921Y30570D03*
G54D14*
G54D46*
G01X13897Y29527D02*
G01X13917Y29527D01*
G54D48*
G01X13267Y29527D03*
G54D47*
G01X13917Y29527D02*
G01X13267Y29527D01*
G54D52*
G01X18622Y34783D03*
G54D14*
G54D53*
G01X11062Y11181D02*
G01X12125Y11181D01*
G01X12125Y11181D02*
G01X13149Y10157D01*
G01X13149Y10157D02*
G01X13937Y10157D01*
G01X13937Y10157D02*
G01X15708Y11929D01*
G01X15708Y11929D02*
G01X15708Y12972D01*
G01X15708Y12972D02*
G01X15708Y12952D01*
G01X15708Y12952D02*
G01X15748Y12992D01*
G54D14*
G54D46*
G01X24901Y19370D02*
G01X24901Y20275D01*
G01X6692Y39468D02*
G01X6692Y39074D01*
G01X6692Y39074D02*
G01X6889Y38877D01*
G01X6889Y38877D02*
G01X6889Y37933D01*
G01X6889Y37933D02*
G01X7027Y37795D01*
G01X7027Y37795D02*
G01X8562Y37795D01*
G01X8562Y37795D02*
G01X8562Y38484D01*
G01X8562Y38484D02*
G01X8562Y37795D01*
G01X8562Y37795D02*
G01X10137Y37795D01*
G01X10137Y37795D02*
G01X10137Y38484D01*
G54D48*
G01X10925Y33779D03*
G54D46*
G01X10925Y33779D02*
G01X10551Y33405D01*
G01X10551Y33405D02*
G01X10551Y20866D01*
G01X10551Y20866D02*
G01X11594Y19822D01*
G01X11594Y19822D02*
G01X11594Y18366D01*
G01X11594Y18366D02*
G01X11870Y18070D01*
G01X11870Y18070D02*
G01X12106Y18070D01*
G01X12106Y18070D02*
G01X12204Y18062D01*
G54D14*
G54D52*
G01X32322Y15019D03*
G54D14*
G54D46*
G01X7893Y41141D02*
G01X7893Y40255D01*
G01X7893Y40255D02*
G01X7893Y39370D01*
G01X7893Y39370D02*
G01X7893Y38484D01*
G54D49*
G01X39271Y38779D02*
G01X39271Y37598D01*
G54D46*
G01X39271Y37598D02*
G01X39334Y37598D01*
G54D49*
G01X41437Y33858D02*
G01X41437Y33366D01*
G01X41437Y33366D02*
G01X40846Y32775D01*
G01X40846Y32775D02*
G01X39960Y32775D01*
G01X39960Y32775D02*
G01X39960Y32826D01*
G54D46*
G01X39960Y26413D02*
G01X39960Y26377D01*
G54D49*
G01X39960Y26377D02*
G01X41161Y26377D01*
G54D52*
G01X34311Y15019D03*
G54D14*
G54D52*
G01X38228Y11181D03*
G54D14*
G54D52*
G01X42992Y15649D03*
G54D14*
G54D52*
G01X33425Y21062D03*
G54D14*
G54D52*
G01X32992Y22047D03*
G54D14*
G54D52*
G01X17795Y31870D03*
G54D14*
G54D52*
G01X22244Y26791D03*
G54D14*
G54D52*
G01X22007Y24665D03*
G54D14*
G54D52*
G01X14389Y28208D03*
G54D14*
G54D52*
G01X14389Y28720D03*
G54D14*
G54D52*
G01X15748Y31102D03*
G54D14*
G54D52*
G01X18503Y31102D03*
G54D14*
G54D52*
G01X19980Y31102D03*
G54D14*
G54D52*
G01X17185Y31889D03*
G54D14*
G54D52*
G01X15177Y30216D03*
G54D14*
G54D52*
G01X15177Y27460D03*
G54D14*
G54D52*
G01X15196Y25688D03*
G54D14*
G54D52*
G01X16338Y24685D03*
G54D14*
G54D52*
G01X18996Y24685D03*
G54D14*
G54D52*
G01X20570Y24665D03*
G54D14*
G54D52*
G01X21161Y25393D03*
G54D14*
G54D52*
G01X21161Y27460D03*
G54D14*
G54D52*
G01X21141Y29625D03*
G54D14*
G54D52*
G01X21161Y30925D03*
G54D14*
G54D52*
G01X6988Y35334D03*
G54D14*
G54D52*
G01X7677Y33070D03*
G54D14*
G54D52*
G01X7677Y31299D03*
G54D14*
G54D52*
G01X7677Y29724D03*
G54D14*
G54D52*
G01X8956Y35137D03*
G54D14*
G54D49*
G01X7893Y40255D02*
G01X5905Y40255D01*
G01X5905Y40255D02*
G01X2854Y43307D01*
G54D14*
G54D52*
G01X16988Y23759D03*
G54D14*
G54D52*
G01X17657Y23759D03*
G54D14*
G54D52*
G01X2460Y27814D03*
G54D14*
G54D52*
G01X4527Y36122D03*
G54D14*
G54D52*
G01X4527Y34547D03*
G54D14*
G54D52*
G01X33228Y23877D03*
G54D14*
G54D52*
G01X34488Y23877D03*
G54D14*
G54D52*
G01X34173Y30039D03*
G54D14*
G54D52*
G01X33444Y30708D03*
G54D14*
G54D52*
G01X4763Y11200D03*
G54D14*
G54D52*
G01X669Y16338D03*
G54D14*
G54D52*
G01X669Y25629D03*
G54D14*
G54D52*
G01X6043Y19921D03*
G54D14*
G54D52*
G01X5964Y23031D03*
G54D14*
G54D46*
G01X13149Y11137D02*
G01X13149Y11318D01*
G54D14*
G54D52*
G01X35905Y23661D03*
G54D14*
G54D52*
G01X31062Y11200D03*
G54D14*
G54D52*
G01X30531Y11200D03*
G54D14*
G54D52*
G01X30019Y11200D03*
G54D14*
G54D52*
G01X6692Y12893D03*
G54D14*
G54D52*
G01X18740Y12342D03*
G54D14*
G54D52*
G01X39448Y9763D03*
G54D14*
G54D48*
G01X43503Y26870D03*
G01X43503Y25787D03*
G54D46*
G01X43503Y26870D02*
G01X43503Y25787D01*
G54D48*
G01X22381Y10098D03*
G54D46*
G01X22381Y10098D02*
G01X22381Y5826D01*
G01X22381Y5826D02*
G01X23562Y4645D01*
G01X23562Y4645D02*
G01X33543Y4645D01*
G54D48*
G01X33681Y4507D03*
G54D46*
G01X33543Y4645D02*
G01X33681Y4507D01*
G01X5000Y24881D02*
G01X5137Y25019D01*
G54D48*
G01X5748Y25019D03*
G54D46*
G01X5137Y25019D02*
G01X5748Y25019D01*
G54D48*
G01X25807Y33188D03*
G01X32283Y33188D03*
G54D46*
G01X25807Y33188D02*
G01X32283Y33188D01*
G54D48*
G01X41338Y20866D03*
G54D46*
G01X41338Y20866D02*
G01X41338Y23425D01*
G01X41338Y23425D02*
G01X40059Y23425D01*
G01X40059Y23425D02*
G01X39960Y23413D01*
G54D48*
G01X22874Y10078D03*
G54D46*
G01X22874Y10078D02*
G01X22874Y5905D01*
G01X22874Y5905D02*
G01X23917Y4862D01*
G01X23917Y4862D02*
G01X34251Y4862D01*
G01X34251Y4862D02*
G01X34566Y4547D01*
G54D48*
G01X34744Y4547D03*
G54D46*
G01X34566Y4547D02*
G01X34744Y4547D01*
G54D48*
G01X24389Y10295D03*
G54D46*
G01X24389Y10295D02*
G01X24389Y5629D01*
G01X24389Y5629D02*
G01X24744Y5275D01*
G54D48*
G01X34744Y5275D03*
G54D46*
G01X24744Y5275D02*
G01X34744Y5275D01*
G01X8562Y40255D02*
G01X9468Y40255D01*
G01X9468Y40255D02*
G01X9468Y41141D01*
G01X4625Y37500D02*
G01X5728Y37500D01*
G54D48*
G01X34350Y11909D03*
G54D46*
G01X35629Y11909D02*
G01X34350Y11909D01*
G54D48*
G01X21141Y10118D03*
G54D46*
G01X21141Y10118D02*
G01X21141Y10413D01*
G01X21141Y10413D02*
G01X21476Y10748D01*
G01X21476Y10748D02*
G01X27263Y10748D01*
G01X27263Y10748D02*
G01X27814Y11299D01*
G01X27814Y11299D02*
G01X28484Y11299D01*
G01X28484Y11299D02*
G01X29330Y10452D01*
G01X29330Y10452D02*
G01X31496Y10452D01*
G01X31496Y10452D02*
G01X31909Y10866D01*
G01X31909Y10866D02*
G01X31909Y11653D01*
G01X31909Y11653D02*
G01X32165Y11909D01*
G01X32165Y11909D02*
G01X34350Y11909D01*
G54D48*
G01X23385Y10059D03*
G54D46*
G01X23385Y10059D02*
G01X23385Y5944D01*
G01X23385Y5944D02*
G01X24271Y5059D01*
G01X24271Y5059D02*
G01X34429Y5059D01*
G01X34429Y5059D02*
G01X34606Y4881D01*
G01X34606Y4881D02*
G01X35118Y4881D01*
G01X35118Y4881D02*
G01X35275Y5039D01*
G54D48*
G01X35275Y5275D03*
G54D46*
G01X35275Y5039D02*
G01X35275Y5275D01*
G54D47*
G01X4488Y15944D02*
G01X4803Y15629D01*
G01X4803Y15629D02*
G01X4803Y14685D01*
G54D48*
G01X7657Y26692D03*
G54D46*
G01X7657Y26692D02*
G01X5492Y26692D01*
G01X5492Y26692D02*
G01X4173Y25374D01*
G01X4173Y25374D02*
G01X4173Y24881D01*
G54D48*
G01X10826Y38208D03*
G54D46*
G01X10826Y38208D02*
G01X10826Y38523D01*
G01X10826Y38523D02*
G01X10393Y38956D01*
G01X10393Y38956D02*
G01X10196Y38956D01*
G01X10196Y38956D02*
G01X10118Y39035D01*
G01X10118Y39035D02*
G01X10118Y39271D01*
G01X10118Y39271D02*
G01X10137Y39370D01*
G01X3641Y38228D02*
G01X3740Y38287D01*
G01X3740Y38287D02*
G01X5728Y38287D01*
G54D51*
G01X36299Y11909D02*
G01X37637Y11909D01*
G01X37637Y11909D02*
G01X37637Y10826D01*
G01X37637Y10826D02*
G01X37263Y10452D01*
G01X37263Y10452D02*
G01X36200Y10452D01*
G01X36200Y10452D02*
G01X35944Y10196D01*
G01X35944Y10196D02*
G01X35944Y9803D01*
G01X35944Y9803D02*
G01X35433Y9291D01*
G54D48*
G01X35433Y8543D03*
G54D51*
G01X35433Y9291D02*
G01X35433Y8543D01*
G54D49*
G01X11102Y7913D02*
G01X12066Y7913D01*
G01X12066Y7913D02*
G01X12066Y10275D01*
G01X12066Y10275D02*
G01X11062Y10275D01*
G01X11102Y7913D02*
G01X11220Y7933D01*
G01X11220Y7933D02*
G01X13385Y7933D01*
G01X13385Y7933D02*
G01X13464Y7952D01*
G54D48*
G01X19389Y10866D03*
G01X19389Y10866D02*
G01X19389Y6653D01*
G01X18956Y6220D03*
G01X19389Y6653D02*
G01X18956Y6220D01*
G54D14*
G54D48*
G01X21870Y10118D03*
G54D46*
G01X21870Y10118D02*
G01X21870Y5807D01*
G01X21870Y5807D02*
G01X23267Y4429D01*
G01X23267Y4429D02*
G01X33188Y4429D01*
G01X33188Y4429D02*
G01X33523Y4094D01*
G01X33523Y4094D02*
G01X35669Y4094D01*
G01X35669Y4094D02*
G01X36062Y4488D01*
G54D48*
G01X36062Y4901D03*
G54D46*
G01X36062Y4488D02*
G01X36062Y4901D01*
G54D53*
G01X10881Y1771D02*
G01X10885Y4271D01*
G01X10885Y4271D02*
G01X10866Y4409D01*
G01X11102Y7007D02*
G01X11948Y7007D01*
G01X11948Y7007D02*
G01X11948Y4409D01*
G01X11948Y4409D02*
G01X10866Y4409D01*
G01X10866Y4409D02*
G01X11948Y4409D01*
G01X11948Y4409D02*
G01X11948Y2047D01*
G01X11948Y2047D02*
G01X12224Y1771D01*
G01X12224Y1771D02*
G01X13425Y1771D01*
G54D14*
G54D48*
G01X5688Y17952D03*
G54D50*
G01X4842Y17952D02*
G01X5688Y17952D01*
G54D46*
G01X26920Y43442D02*
G01X27165Y43503D01*
G01X27165Y43503D02*
G01X28740Y43503D01*
G01X28740Y43503D02*
G01X28937Y43307D01*
G01X28937Y43307D02*
G01X28937Y42224D01*
G01X28937Y42224D02*
G01X29724Y41437D01*
G01X29724Y41437D02*
G01X37500Y41437D01*
G01X37500Y41437D02*
G01X38287Y40649D01*
G01X38287Y40649D02*
G01X38334Y40598D01*
G01X26870Y44389D02*
G01X26870Y43562D01*
G01X26870Y43562D02*
G01X26920Y43442D01*
G54D14*
G54D48*
G01X5314Y13740D03*
G54D47*
G01X5314Y13740D02*
G01X5314Y14665D01*
G54D46*
G01X5314Y14665D02*
G01X5472Y14685D01*
G01X4625Y30610D02*
G01X5629Y30610D01*
G54D48*
G01X25866Y7460D03*
G54D46*
G01X25866Y7460D02*
G01X26751Y7460D01*
G01X26751Y7460D02*
G01X27342Y8051D01*
G01X27342Y8051D02*
G01X32381Y8051D01*
G01X32381Y8051D02*
G01X33267Y7165D01*
G01X33267Y7165D02*
G01X35354Y7165D01*
G01X35354Y7165D02*
G01X36200Y8011D01*
G01X36200Y8011D02*
G01X36200Y9311D01*
G01X36200Y9311D02*
G01X36397Y9507D01*
G54D48*
G01X36535Y9507D03*
G54D46*
G01X36397Y9507D02*
G01X36535Y9507D01*
G01X39665Y44389D02*
G01X39665Y43700D01*
G01X39665Y43700D02*
G01X39715Y43442D01*
G01X23650Y43442D02*
G01X24212Y42913D01*
G01X24212Y42913D02*
G01X28641Y42913D01*
G01X28641Y42913D02*
G01X28740Y42814D01*
G01X28740Y42814D02*
G01X28740Y42125D01*
G01X28740Y42125D02*
G01X29625Y41240D01*
G01X29625Y41240D02*
G01X36712Y41240D01*
G01X36712Y41240D02*
G01X37303Y40649D01*
G01X37303Y40649D02*
G01X37334Y40598D01*
G01X23622Y44389D02*
G01X23622Y43641D01*
G01X23622Y43641D02*
G01X23650Y43442D01*
G54D54*
G01X7700Y5472D02*
G01X7700Y4212D01*
G01X8700Y5472D02*
G01X8700Y4212D01*
G54D48*
G01X29488Y36141D03*
G54D46*
G01X29488Y36141D02*
G01X29330Y35984D01*
G54D48*
G01X12814Y35984D03*
G54D46*
G01X29330Y35984D02*
G01X12814Y35984D01*
G01X3641Y31338D02*
G01X3838Y31299D01*
G01X3838Y31299D02*
G01X5511Y31299D01*
G01X5511Y31299D02*
G01X5610Y31397D01*
G54D48*
G01X26377Y7834D03*
G54D46*
G01X26377Y7834D02*
G01X26850Y8307D01*
G01X26850Y8307D02*
G01X32519Y8307D01*
G01X32519Y8307D02*
G01X33405Y7401D01*
G01X33405Y7401D02*
G01X35137Y7401D01*
G01X35137Y7401D02*
G01X35826Y8090D01*
G01X35826Y8090D02*
G01X35826Y9389D01*
G54D48*
G01X36515Y10078D03*
G54D46*
G01X35826Y9389D02*
G01X36515Y10078D01*
G01X36417Y44389D02*
G01X36417Y43700D01*
G01X36417Y43700D02*
G01X36445Y43442D01*
G01X4803Y19842D02*
G01X4783Y19803D01*
G01X4783Y19803D02*
G01X4888Y19907D01*
G01X4888Y19907D02*
G01X4888Y21068D01*
G01X4888Y21068D02*
G01X4881Y21062D01*
G01X4881Y21062D02*
G01X4389Y21555D01*
G01X4389Y21555D02*
G01X3799Y21555D01*
G01X3799Y21555D02*
G01X3582Y21771D01*
G01X3582Y21771D02*
G01X3582Y23897D01*
G01X3582Y23897D02*
G01X3897Y24212D01*
G01X3897Y24212D02*
G01X4173Y24212D01*
G01X6692Y41141D02*
G01X6692Y41594D01*
G01X6692Y41594D02*
G01X6929Y41830D01*
G01X6929Y41830D02*
G01X8562Y41830D01*
G01X8562Y41830D02*
G01X8562Y41141D01*
G01X8562Y41141D02*
G01X8562Y41830D01*
G01X8562Y41830D02*
G01X10137Y41830D01*
G01X10137Y41830D02*
G01X10137Y41141D01*
G01X24015Y18700D02*
G01X24901Y18700D01*
G54D49*
G01X42929Y19503D02*
G01X42913Y19488D01*
G54D48*
G01X43897Y19488D03*
G54D49*
G01X42913Y19488D02*
G01X43897Y19488D01*
G54D46*
G01X39334Y40598D02*
G01X39960Y41240D01*
G01X39960Y41240D02*
G01X40748Y41240D01*
G01X40748Y41240D02*
G01X41240Y41732D01*
G01X41240Y41732D02*
G01X41240Y44862D01*
G01X41240Y44862D02*
G01X41161Y44940D01*
G01X41161Y44940D02*
G01X38996Y44940D01*
G01X38996Y44940D02*
G01X38996Y44389D01*
G01X24291Y44389D02*
G01X24291Y44862D01*
G01X24291Y44862D02*
G01X27578Y44862D01*
G01X27578Y44862D02*
G01X27578Y44429D01*
G01X27578Y44429D02*
G01X27539Y44389D01*
G01X39271Y39448D02*
G01X39271Y39566D01*
G54D49*
G01X39271Y39566D02*
G01X39271Y40452D01*
G54D46*
G01X39271Y40452D02*
G01X39334Y40598D01*
G54D49*
G01X41437Y34527D02*
G01X41437Y35039D01*
G01X41437Y35039D02*
G01X42224Y35826D01*
G01X42224Y35826D02*
G01X42960Y35826D01*
G01X41830Y26377D02*
G01X42913Y26377D01*
G54D46*
G01X42913Y26377D02*
G01X42960Y26413D01*
G54D49*
G01X42913Y18385D02*
G01X42913Y19291D01*
G01X42913Y19291D02*
G01X42929Y19503D01*
G54D46*
G01X27539Y44389D02*
G01X35748Y44389D01*
G01X38996Y44389D02*
G01X38996Y44940D01*
G01X38996Y44940D02*
G01X35885Y44940D01*
G01X35885Y44940D02*
G01X35748Y44803D01*
G01X35748Y44803D02*
G01X35748Y44350D01*
G01X35748Y44350D02*
G01X35748Y44389D01*
G54D48*
G01X34350Y21062D03*
G54D50*
G01X34350Y21062D02*
G01X35236Y20177D01*
G54D48*
G01X43897Y20177D03*
G54D50*
G01X35236Y20177D02*
G01X43897Y20177D01*
G54D48*
G01X33464Y15059D03*
G54D50*
G01X33464Y15059D02*
G01X33464Y15511D01*
G01X33464Y15511D02*
G01X33661Y15708D01*
G01X33661Y15708D02*
G01X34094Y15708D01*
G01X34094Y15708D02*
G01X34291Y15905D01*
G54D48*
G01X34291Y19212D03*
G54D50*
G01X34291Y15905D02*
G01X34291Y19212D01*
G54D48*
G01X15708Y33031D03*
G54D46*
G01X15708Y33031D02*
G01X15708Y32637D01*
G01X15708Y32637D02*
G01X15748Y32460D01*
G54D48*
G01X18503Y32992D03*
G54D46*
G01X18503Y32992D02*
G01X18503Y32460D01*
G54D48*
G01X20669Y32992D03*
G54D46*
G01X20669Y32992D02*
G01X20669Y32460D01*
G54D14*
G54D48*
G01X13976Y33110D03*
G54D46*
G01X13976Y32460D02*
G01X13976Y33110D01*
G54D14*
G54D48*
G01X22165Y33011D03*
G54D46*
G01X22165Y33011D02*
G01X22165Y32519D01*
G01X22165Y32519D02*
G01X22145Y32460D01*
G54D14*
G54D48*
G01X13267Y30216D03*
G54D46*
G01X13267Y30216D02*
G01X13956Y30216D01*
G01X13956Y30216D02*
G01X13897Y30216D01*
G54D14*
G54D46*
G01X13897Y27460D02*
G01X13818Y27440D01*
G54D48*
G01X13208Y27440D03*
G54D46*
G01X13818Y27440D02*
G01X13208Y27440D01*
G54D14*
G54D48*
G01X13208Y25059D03*
G54D46*
G01X13208Y25059D02*
G01X13779Y25059D01*
G01X13779Y25059D02*
G01X13897Y25000D01*
G54D48*
G01X13208Y23326D03*
G54D46*
G01X13208Y23326D02*
G01X13877Y23326D01*
G54D14*
G54D48*
G01X15649Y22913D03*
G54D46*
G01X15649Y23425D02*
G01X15649Y22913D01*
G54D48*
G01X18307Y22933D03*
G54D46*
G01X18307Y23425D02*
G01X18307Y22933D01*
G54D14*
G54D48*
G01X20570Y22933D03*
G54D46*
G01X20570Y23425D02*
G01X20570Y22933D01*
G54D14*
G54D47*
G01X22637Y23425D02*
G01X22637Y22893D01*
G54D48*
G01X23326Y22893D03*
G54D47*
G01X22637Y22893D02*
G01X23326Y22893D01*
G54D48*
G01X23169Y25393D03*
G54D46*
G01X23169Y25393D02*
G01X22440Y25393D01*
G54D14*
G54D46*
G01X22440Y28149D02*
G01X22480Y28129D01*
G54D48*
G01X23208Y28129D03*
G54D46*
G01X22480Y28129D02*
G01X23208Y28129D01*
G54D14*
G54D48*
G01X23248Y30314D03*
G54D46*
G01X23248Y30314D02*
G01X22440Y30314D01*
G54D14*
G54D48*
G01X34429Y25688D03*
G54D49*
G01X34429Y25688D02*
G01X34429Y28385D01*
G01X34429Y28385D02*
G01X37007Y30964D01*
G54D48*
G01X44291Y30964D03*
G54D49*
G01X37007Y30964D02*
G01X44291Y30964D01*
G54D48*
G01X34488Y28484D03*
G54D47*
G01X34488Y28484D02*
G01X34547Y28484D01*
G01X34547Y28484D02*
G01X37047Y30984D01*
G54D48*
G01X43818Y30984D03*
G54D47*
G01X37047Y30984D02*
G01X43818Y30984D01*
G54D53*
G01X16535Y1811D02*
G01X15452Y2893D01*
G01X15452Y2893D02*
G01X14881Y2893D01*
G01X14881Y2893D02*
G01X14330Y2342D01*
G01X14330Y2342D02*
G01X14330Y1771D01*
G01X16535Y1811D02*
G01X16771Y1732D01*
G01X16771Y1732D02*
G01X26082Y1732D01*
G01X26082Y1732D02*
G01X27992Y3661D01*
G01X27992Y3661D02*
G01X39192Y3661D01*
G01X39192Y3661D02*
G01X42992Y7440D01*
G01X42992Y7440D02*
G01X42992Y9153D01*
G01X42992Y9153D02*
G01X42996Y9153D01*
G01X16496Y14212D02*
G01X16496Y20334D01*
G01X16496Y20334D02*
G01X22618Y20334D01*
G54D14*
G54D47*
G01X24015Y18700D02*
G01X23582Y18700D01*
G01X23582Y18700D02*
G01X22618Y19665D01*
G01X22618Y19665D02*
G01X22618Y20354D01*
G54D14*
G54D53*
G01X16496Y14212D02*
G01X16496Y11417D01*
G01X16496Y11417D02*
G01X14350Y9271D01*
G01X14350Y9271D02*
G01X14350Y7283D01*
G01X14350Y7283D02*
G01X16496Y5137D01*
G01X16496Y5137D02*
G01X16496Y1889D01*
G01X16496Y1889D02*
G01X16535Y1811D01*
G54D48*
G01X35826Y22933D03*
G01X35826Y22145D03*
G54D46*
G01X35826Y22933D02*
G01X35826Y22145D01*
G54D48*
G01X26889Y7086D03*
G54D46*
G01X26889Y7086D02*
G01X27539Y7716D01*
G01X27539Y7716D02*
G01X27598Y7775D01*
G01X27598Y7775D02*
G01X32224Y7775D01*
G01X32224Y7775D02*
G01X33090Y6909D01*
G01X33090Y6909D02*
G01X35511Y6909D01*
G01X35511Y6909D02*
G01X36594Y7952D01*
G54D48*
G01X36594Y8779D03*
G54D46*
G01X36594Y7952D02*
G01X36594Y8779D01*
G54D48*
G01X37185Y11122D03*
G01X32480Y11122D03*
G54D46*
G01X37185Y11122D02*
G01X32480Y11122D01*

G04 Draw clearances for text*

G04 -------------- Draw Parts, Pads, Traces, Vias and Text (positive)*
%LPD*%
G04 Draw part spartan_ii*
G04 Draw part z80*
G04 Draw part spr_ram*
G04 Draw part cfg_pic*
G54D55*
G01X39960Y30413D03*
G54D56*
G01X39960Y29413D03*
G01X39960Y28413D03*
G01X39960Y27413D03*
G01X39960Y26413D03*
G01X39960Y25413D03*
G01X39960Y24413D03*
G01X39960Y23413D03*
G01X39960Y22413D03*
G01X42960Y22413D03*
G01X42960Y23413D03*
G01X42960Y24413D03*
G01X42960Y25413D03*
G01X42960Y26413D03*
G01X42960Y27413D03*
G01X42960Y28413D03*
G01X42960Y29413D03*
G01X42960Y30413D03*
G04 Draw part spi_eeprom*
G54D55*
G01X39960Y35826D03*
G54D56*
G01X39960Y34826D03*
G01X39960Y33826D03*
G01X39960Y32826D03*
G01X42960Y32826D03*
G01X42960Y33826D03*
G01X42960Y34826D03*
G01X42960Y35826D03*
G04 Draw part osc*
G54D55*
G01X39929Y19503D03*
G54D57*
G01X39929Y16503D03*
G01X42929Y16503D03*
G01X42929Y19503D03*
G04 Draw part hct08*
G04 Draw part res1*
G04 Draw part res3*
G04 Draw part res4*
G04 Draw part res5*
G04 Draw part res6*
G04 Draw part res10*
G04 Draw part vidcon*
G54D58*
G01X18503Y44685D03*
G01X13188Y44685D03*
G54D56*
G01X16397Y43503D03*
G01X15295Y43503D03*
G01X14566Y43503D03*
G01X17145Y43503D03*
G54D59*
G01X15846Y44980D03*
G54D56*
G01X17145Y42519D03*
G01X14547Y42519D03*
G01X16122Y42519D03*
G01X15334Y42519D03*
G04 Draw part kbcon*
G54D58*
G01X2460Y34547D03*
G01X2460Y29232D03*
G54D56*
G01X3641Y32440D03*
G01X3641Y31338D03*
G01X3641Y30610D03*
G01X3641Y33169D03*
G54D59*
G01X2165Y31889D03*
G54D22*
G01X4625Y33169D03*
G01X4625Y30610D03*
G04 Draw part mousecon*
G54D58*
G01X2460Y41437D03*
G01X2460Y36122D03*
G54D56*
G01X3641Y39330D03*
G01X3641Y38228D03*
G01X3641Y37500D03*
G01X3641Y40059D03*
G54D59*
G01X2165Y38779D03*
G54D22*
G01X4625Y40059D03*
G01X4625Y37500D03*
G04 Draw part rs232con*
G54D58*
G01X11614Y44685D03*
G01X6299Y44685D03*
G54D60*
G01X7677Y43503D03*
G01X10236Y43503D03*
G54D59*
G01X8956Y44980D03*
G54D22*
G01X10236Y42519D03*
G01X7677Y42519D03*
G04 Draw part joy1con*
G54D61*
G01X40255Y42322D03*
G54D62*
G01X39165Y42322D03*
G01X38075Y42322D03*
G01X36985Y42322D03*
G01X35895Y42322D03*
G01X39715Y43442D03*
G01X38625Y43442D03*
G01X37535Y43442D03*
G01X36445Y43442D03*
G54D63*
G01X33169Y42834D03*
G01X43011Y42834D03*
G04 Draw part joy2con*
G54D61*
G01X27460Y42322D03*
G54D62*
G01X26370Y42322D03*
G01X25280Y42322D03*
G01X24190Y42322D03*
G01X23100Y42322D03*
G01X26920Y43442D03*
G01X25830Y43442D03*
G01X24740Y43442D03*
G01X23650Y43442D03*
G54D63*
G01X20374Y42834D03*
G01X30216Y42834D03*
G04 Draw part audiocon*
G54D22*
G01X4814Y43790D03*
G54D64*
G01X894Y43790D03*
G01X3834Y43790D03*
G01X1874Y43790D03*
G54D22*
G01X4814Y45760D03*
G01X894Y45760D03*
G01X2854Y45760D03*
G04 Draw part joypic*
G54D55*
G01X35334Y37598D03*
G54D56*
G01X36334Y37598D03*
G01X37334Y37598D03*
G01X38334Y37598D03*
G01X39334Y37598D03*
G01X40334Y37598D03*
G01X41334Y37598D03*
G01X42334Y37598D03*
G01X43334Y37598D03*
G01X43334Y40598D03*
G01X42334Y40598D03*
G01X41334Y40598D03*
G01X40334Y40598D03*
G01X39334Y40598D03*
G01X38334Y40598D03*
G01X37334Y40598D03*
G01X36334Y40598D03*
G01X35334Y40598D03*
G04 Draw part st232*
G04 Draw part jrespu1*
G54D65*
G01X23622Y44389D03*
G01X24291Y44389D03*
G04 Draw part jrespu2*
G01X26870Y44389D03*
G01X27539Y44389D03*
G04 Draw part jrespu3*
G01X36417Y44389D03*
G01X35748Y44389D03*
G04 Draw part jrespu4*
G01X39665Y44389D03*
G01X38996Y44389D03*
G04 Draw part coldac1*
G04 Draw part coldac2*
G04 Draw part coldac3*
G04 Draw part coldac4*
G04 Draw part coldac5*
G04 Draw part coldac6*
G04 Draw part coldac7*
G04 Draw part coldac8*
G04 Draw part coldac9*
G04 Draw part coldac10*
G04 Draw part coldac11*
G04 Draw part coldac12*
G04 Draw part coldac13*
G04 Draw part audfilter1*
G01X8562Y38484D03*
G01X7893Y38484D03*
G04 Draw part audfilter2*
G01X10137Y41141D03*
G01X9468Y41141D03*
G04 Draw part audfilter3*
G01X8562Y39370D03*
G01X7893Y39370D03*
G04 Draw part audfilter4*
G01X10137Y40255D03*
G01X9468Y40255D03*
G04 Draw part audfilter5*
G01X8562Y41141D03*
G01X7893Y41141D03*
G04 Draw part audfilter6*
G01X8562Y40255D03*
G01X7893Y40255D03*
G04 Draw part audfilter7*
G01X6692Y41141D03*
G01X6023Y41141D03*
G04 Draw part audfilter8*
G01X6692Y39468D03*
G01X6023Y39468D03*
G04 Draw part audfilter9*
G01X10137Y39370D03*
G01X9468Y39370D03*
G04 Draw part audfilter10*
G01X10137Y38484D03*
G01X9468Y38484D03*
G04 Draw part rs232dec1*
G04 Draw part rs232dec2*
G04 Draw part rs232dec3*
G04 Draw part rs232dec4*
G04 Draw part rs232dec5*
G04 Draw part kbpu1*
G01X5610Y31397D03*
G01X6279Y31397D03*
G04 Draw part kbpu2*
G01X6299Y30610D03*
G01X5629Y30610D03*
G04 Draw part kbpu3*
G04 Draw part kbpu4*
G04 Draw part kbpu5*
G04 Draw part kbpu6*
G04 Draw part kbpu7*
G01X6397Y37500D03*
G01X5728Y37500D03*
G04 Draw part kbpu8*
G01X6397Y38287D03*
G01X5728Y38287D03*
G04 Draw part kbpu9*
G04 Draw part kbpu10*
G04 Draw part kbpu11*
G04 Draw part kbpu12*
G04 Draw part power*
G54D20*
G01X43996Y9153D03*
G01X42996Y9153D03*
G01X41996Y9153D03*
G01X40996Y9153D03*
G04 Draw part confsel*
G54D66*
G01X24901Y20275D03*
G01X24901Y21275D03*
G04 Draw part cfgres1*
G54D67*
G01X24901Y18700D03*
G01X24901Y19370D03*
G04 Draw part cfgres2*
G01X24015Y18700D03*
G01X24015Y19370D03*
G04 Draw part jp5*
G54D66*
G01X38385Y34566D03*
G01X38385Y35566D03*
G04 Draw part cfgres*
G04 Draw part picdec*
G54D67*
G01X39271Y38779D03*
G01X39271Y39448D03*
G04 Draw part serdec*
G01X41437Y33858D03*
G01X41437Y34527D03*
G04 Draw part picdec2*
G54D65*
G01X41830Y26377D03*
G01X41161Y26377D03*
G04 Draw part oscdec3*
G54D67*
G01X42913Y17716D03*
G01X42913Y18385D03*
G04 Draw part icdec1*
G04 Draw part memdec*
G04 Draw part memdec2*
G04 Draw part fpgacap1*
G01X15748Y31791D03*
G01X15748Y32460D03*
G04 Draw part fpgacap2*
G54D65*
G01X14566Y30216D03*
G01X13897Y30216D03*
G04 Draw part fpgacap3*
G54D67*
G01X16437Y31791D03*
G01X16437Y32460D03*
G04 Draw part fpgacap4*
G01X19192Y31791D03*
G01X19192Y32460D03*
G04 Draw part fpgacap5*
G54D65*
G01X14566Y29527D03*
G01X13897Y29527D03*
G04 Draw part fpgacap6*
G54D67*
G01X19980Y31791D03*
G01X19980Y32460D03*
G04 Draw part fpgacap7*
G01X13976Y31791D03*
G01X13976Y32460D03*
G04 Draw part fpgacap8*
G54D65*
G01X14566Y27460D03*
G01X13897Y27460D03*
G04 Draw part fpgacap9*
G54D67*
G01X20669Y31791D03*
G01X20669Y32460D03*
G04 Draw part fpgacap10*
G01X18503Y31791D03*
G01X18503Y32460D03*
G04 Draw part fpgacap11*
G54D65*
G01X14566Y25688D03*
G01X13897Y25688D03*
G04 Draw part fpgacap12*
G01X14566Y26771D03*
G01X13897Y26771D03*
G04 Draw part fpgacap13*
G54D67*
G01X16338Y23425D03*
G01X16338Y24094D03*
G04 Draw part fpgacap14*
G01X15649Y23425D03*
G01X15649Y24094D03*
G04 Draw part fpgacap15*
G01X13877Y23326D03*
G01X13877Y23996D03*
G04 Draw part fpgacap16*
G54D65*
G01X14566Y25000D03*
G01X13897Y25000D03*
G04 Draw part fpgacap17*
G54D67*
G01X22145Y31791D03*
G01X22145Y32460D03*
G04 Draw part fpgacap18*
G01X18996Y23425D03*
G01X18996Y24094D03*
G04 Draw part fpgacap19*
G01X18307Y23425D03*
G01X18307Y24094D03*
G04 Draw part fpgacap20*
G01X19881Y23425D03*
G01X19881Y24094D03*
G04 Draw part fpgacap21*
G01X20570Y23425D03*
G01X20570Y24094D03*
G04 Draw part fpgacap22*
G54D65*
G01X22440Y27460D03*
G01X21771Y27460D03*
G04 Draw part fpgacap23*
G01X22440Y26082D03*
G01X21771Y26082D03*
G04 Draw part fpgacap24*
G01X22440Y25393D03*
G01X21771Y25393D03*
G04 Draw part fpgacap25*
G01X22637Y23425D03*
G01X21968Y23425D03*
G04 Draw part fpgacap26*
G01X22440Y29625D03*
G01X21771Y29625D03*
G04 Draw part fpgacap27*
G01X22440Y28149D03*
G01X21771Y28149D03*
G04 Draw part fpgacap28*
G01X22440Y30314D03*
G01X21771Y30314D03*
G04 Draw part jtagcon*
G54D62*
G01X12204Y21062D03*
G01X12204Y20062D03*
G01X12204Y19062D03*
G01X12204Y18062D03*
G01X12204Y17062D03*
G01X12204Y16062D03*
G04 Draw part hole1*
G54D68*
G01X31496Y39763D03*
G04 Draw part ps2dec1*
G54D65*
G01X2657Y33267D03*
G01X1988Y33267D03*
G04 Draw part ps2dec2*
G01X2755Y40059D03*
G01X2086Y40059D03*
G04 Draw part ps2dec4*
G54D69*
G01X15708Y12952D03*
G01X14960Y12952D03*
G04 Draw part ps2dec5*
G01X17244Y14212D03*
G01X16496Y14212D03*
G04 Draw part wr_pullup*
G54D65*
G01X35629Y11909D03*
G01X36299Y11909D03*
G04 Draw part selres*
G04 Draw part vidram*
G04 Draw part SDCMMC*
G04 Draw part scpowres*
G54D67*
G01X4173Y24881D03*
G01X4173Y24212D03*
G04 Draw part sdpowtr*
G54D70*
G01X4488Y21968D03*
G01X4888Y21068D03*
G01X4088Y21068D03*
G04 Draw part sdpowres2*
G54D65*
G01X4803Y19842D03*
G01X4133Y19842D03*
G04 Draw part sdcdin_pd*
G54D67*
G01X5000Y24212D03*
G01X5000Y24881D03*
G04 Draw part sdcdinres*
G04 Draw part sdc_led_trres*
G54D65*
G01X4842Y17952D03*
G01X4173Y17952D03*
G04 Draw part dscledres2*
G01X4803Y14685D03*
G01X5472Y14685D03*
G04 Draw part dscledtr*
G54D70*
G01X4488Y15944D03*
G01X4088Y16844D03*
G01X4888Y16844D03*
G04 Draw part scddecoup*
G54D67*
G01X5787Y21692D03*
G01X5787Y22362D03*
G04 Draw part jack*
G54D71*
G01X5590Y3976D03*
G54D72*
G01X3031Y3976D03*
G54D58*
G01X4606Y2007D03*
G04 Draw part powerswitch*
G54D22*
G01X8881Y1771D03*
G01X9881Y1771D03*
G01X10881Y1771D03*
G04 Draw part diode1*
G54D66*
G01X8700Y4212D03*
G01X7700Y4212D03*
G04 Draw part diode2*
G01X8700Y5472D03*
G01X7700Y5472D03*
G04 Draw part powcap*
G54D73*
G01X10866Y5389D03*
G01X10866Y4409D03*
G04 Draw part vregukm*
G04 Draw part regcap1*
G01X1815Y10748D03*
G01X2795Y10748D03*
G04 Draw part regcap2*
G01X4020Y12519D03*
G01X5000Y12519D03*
G04 Draw part regcap4*
G01X6373Y7362D03*
G01X5393Y7362D03*
G04 Draw part vreg3*
G54D74*
G01X11062Y12086D03*
G01X11062Y11181D03*
G01X11062Y10275D03*
G54D75*
G01X8622Y11181D03*
G04 Draw part vreg4*
G54D74*
G01X11102Y8818D03*
G01X11102Y7913D03*
G01X11102Y7007D03*
G54D75*
G01X8661Y7913D03*
G04 Draw part vreg5*
G54D76*
G01X15236Y1771D03*
G01X14330Y1771D03*
G01X13425Y1771D03*
G54D77*
G01X14330Y4212D03*
G04 Draw part vreg6*
G54D73*
G01X13149Y11137D03*
G01X13149Y10157D03*
G04 Draw part srdecoup20*
G01X16535Y831D03*
G01X16535Y1811D03*
G04 Draw part srdecoup21*
G01X13464Y6972D03*
G01X13464Y7952D03*
G04 Draw part cpudec*
G04 Draw part jumperblock*
G54D66*
G01X13307Y40551D03*
G01X13307Y39551D03*
G01X13307Y38551D03*
G01X13307Y37551D03*
G01X13307Y36551D03*
G54D78*
G01X12307Y40551D03*
G01X12307Y39551D03*
G01X12307Y38551D03*
G01X12307Y37551D03*
G01X12307Y36551D03*
G04 Draw part mounthole3*
G54D68*
G01X43307Y984D03*
G04 Draw part mounthole5*
G01X1574Y984D03*
G04 Draw part mounthole6*
G01X17322Y37401D03*
G04 Draw part ledres34*
G04 Draw part led100*
G04 Draw part led101*
G04 Draw part 5vreg*
G04 Draw part led400*
G04 Draw part dinpd*
G54D67*
G01X39055Y27716D03*
G01X39055Y28385D03*
G04 Draw part cpowpd*
G54D79*
G01X4803Y23070D03*
G01X4055Y23070D03*
G04 Draw part sysram*
G04 Draw part smdcap*
G04 Draw part spare_pin*

G04 Draw traces*
G54D80*
G01X6397Y37500D02*
G01X6397Y38287D01*
G01X6299Y30610D02*
G01X6279Y30728D01*
G01X6279Y30728D02*
G01X6279Y31397D01*
G54D81*
G01X2755Y40059D02*
G01X3641Y40059D01*
G01X2657Y33267D02*
G01X3484Y33267D01*
G54D80*
G01X3484Y33267D02*
G01X3641Y33169D01*
G54D81*
G01X2755Y40059D02*
G01X3129Y40078D01*
G01X3129Y40078D02*
G01X3129Y37047D01*
G01X3129Y37047D02*
G01X3602Y36574D01*
G01X3602Y36574D02*
G01X3602Y33267D01*
G01X3602Y33267D02*
G01X3641Y33169D01*
G54D80*
G01X3641Y33169D02*
G01X4744Y32066D01*
G01X4744Y32066D02*
G01X6003Y32066D01*
G01X6003Y32066D02*
G01X6279Y31791D01*
G01X6279Y31791D02*
G01X6279Y31397D01*
G01X3641Y40059D02*
G01X4822Y38877D01*
G01X4822Y38877D02*
G01X6200Y38877D01*
G01X6200Y38877D02*
G01X6397Y38681D01*
G01X6397Y38681D02*
G01X6397Y38287D01*
G54D82*
G01X3622Y14842D03*
G54D83*
G01X3622Y14842D02*
G01X3799Y14625D01*
G01X3799Y14625D02*
G01X3799Y13602D01*
G01X3799Y13602D02*
G01X2795Y12598D01*
G01X2795Y12598D02*
G01X2795Y10964D01*
G54D81*
G01X2795Y10964D02*
G01X2795Y10748D01*
G54D80*
G01X8562Y39370D02*
G01X9468Y39370D01*
G01X9468Y39370D02*
G01X9468Y38484D01*
G54D82*
G01X25531Y28405D03*
G54D80*
G01X25531Y28405D02*
G01X25531Y27637D01*
G54D82*
G01X25531Y27637D03*
G01X28110Y10885D03*
G54D80*
G01X28110Y10885D02*
G01X28818Y10177D01*
G01X28818Y10177D02*
G01X35078Y10177D01*
G01X35078Y10177D02*
G01X35452Y9822D01*
G54D82*
G01X35452Y9822D03*
G01X24921Y33976D03*
G54D80*
G01X24921Y33976D02*
G01X31496Y33976D01*
G54D82*
G01X31496Y33976D03*
G01X26889Y9055D03*
G54D80*
G01X26889Y9055D02*
G01X27047Y9094D01*
G01X27047Y9094D02*
G01X33759Y9094D01*
G01X33759Y9094D02*
G01X33976Y8877D01*
G01X33976Y8877D02*
G01X33976Y7952D01*
G01X33976Y7952D02*
G01X33877Y7834D01*
G54D82*
G01X33877Y7834D03*
G01X26003Y8720D03*
G54D80*
G01X26003Y8720D02*
G01X33562Y8720D01*
G54D82*
G01X33562Y8720D03*
G01X5452Y19035D03*
G54D81*
G01X5452Y19035D02*
G01X6102Y18385D01*
G01X6102Y18385D02*
G01X6102Y17303D01*
G01X6102Y17303D02*
G01X5649Y16850D01*
G01X5649Y16850D02*
G01X4921Y16850D01*
G01X4921Y16850D02*
G01X4888Y16844D01*
G54D83*
G01X5787Y21692D02*
G01X5314Y21692D01*
G01X5314Y21692D02*
G01X5019Y21988D01*
G01X5019Y21988D02*
G01X4468Y21988D01*
G01X4468Y21988D02*
G01X4488Y21968D01*
G01X5787Y21692D02*
G01X5787Y20905D01*
G54D82*
G01X5787Y20905D03*
G54D84*
G01X4488Y21968D02*
G01X4488Y22185D01*
G01X4488Y22185D02*
G01X4055Y22618D01*
G01X4055Y22618D02*
G01X4055Y23070D01*
G54D82*
G01X11535Y20590D03*
G54D80*
G01X11535Y20590D02*
G01X10748Y21377D01*
G01X10748Y21377D02*
G01X10748Y32716D01*
G01X10748Y32716D02*
G01X10905Y32874D01*
G01X10905Y32874D02*
G01X10905Y33110D01*
G54D82*
G01X10905Y33110D03*
G01X26377Y9803D03*
G54D80*
G01X26377Y9803D02*
G01X26594Y9724D01*
G01X26594Y9724D02*
G01X34212Y9704D01*
G01X34212Y9704D02*
G01X35059Y8858D01*
G01X35059Y8858D02*
G01X35059Y8346D01*
G01X35059Y8346D02*
G01X34704Y7992D01*
G54D82*
G01X34704Y7992D03*
G01X25885Y9409D03*
G54D80*
G01X25885Y9409D02*
G01X33976Y9409D01*
G01X33976Y9409D02*
G01X34704Y8700D01*
G54D82*
G01X34704Y8700D03*
G01X25393Y10177D03*
G54D80*
G01X25393Y10177D02*
G01X26732Y10177D01*
G01X26732Y10177D02*
G01X26968Y9940D01*
G01X26968Y9940D02*
G01X34488Y9940D01*
G01X34488Y9940D02*
G01X34940Y9488D01*
G54D82*
G01X34940Y9488D03*
G54D85*
G01X4173Y17952D02*
G01X4173Y16968D01*
G54D80*
G01X4173Y16968D02*
G01X4088Y16844D01*
G54D83*
G01X5000Y12519D02*
G01X5039Y12559D01*
G01X5039Y12559D02*
G01X5039Y13326D01*
G01X5039Y13326D02*
G01X4251Y14114D01*
G01X4251Y14114D02*
G01X4251Y15137D01*
G01X4251Y15137D02*
G01X3366Y16023D01*
G01X3366Y16023D02*
G01X3366Y18543D01*
G01X3366Y18543D02*
G01X3681Y18858D01*
G01X3681Y18858D02*
G01X4133Y19291D01*
G01X4133Y19291D02*
G01X4133Y19842D01*
G01X4133Y19842D02*
G01X4133Y20944D01*
G54D80*
G01X4133Y20944D02*
G01X4088Y21068D01*
G01X10137Y40255D02*
G01X10629Y40255D01*
G01X10629Y40255D02*
G01X10826Y40059D01*
G01X10826Y40059D02*
G01X10826Y38996D01*
G54D82*
G01X10826Y38996D03*
G01X13385Y35433D03*
G54D80*
G01X13385Y35433D02*
G01X13503Y35590D01*
G01X13503Y35590D02*
G01X29921Y35590D01*
G01X29921Y35590D02*
G01X30000Y35452D01*
G54D82*
G01X30000Y35452D03*
G54D80*
G01X39055Y28385D02*
G01X39901Y28385D01*
G01X39901Y28385D02*
G01X39960Y28413D01*
G54D82*
G01X13858Y37047D03*
G54D80*
G01X13858Y37047D02*
G01X13877Y36870D01*
G01X13877Y36870D02*
G01X13877Y36299D01*
G01X13877Y36299D02*
G01X13996Y36181D01*
G01X13996Y36181D02*
G01X28661Y36181D01*
G01X28661Y36181D02*
G01X28838Y36358D01*
G54D82*
G01X28838Y36358D03*
G54D80*
G01X6023Y41141D02*
G01X5905Y41240D01*
G01X5905Y41240D02*
G01X5511Y41240D01*
G01X5511Y41240D02*
G01X4822Y41929D01*
G01X4822Y41929D02*
G01X4822Y43700D01*
G01X4822Y43700D02*
G01X4814Y43790D01*
G54D82*
G01X12244Y35413D03*
G54D80*
G01X12244Y35413D02*
G01X12814Y35413D01*
G01X12814Y35413D02*
G01X13188Y35787D01*
G01X13188Y35787D02*
G01X30452Y35787D01*
G54D82*
G01X30452Y35787D03*
G01X25413Y33543D03*
G54D80*
G01X25413Y33543D02*
G01X31850Y33562D01*
G54D82*
G01X31850Y33562D03*
G01X24015Y20748D03*
G54D80*
G01X24015Y20748D02*
G01X24015Y19370D01*
G01X6023Y39468D02*
G01X5905Y39566D01*
G01X5905Y39566D02*
G01X5610Y39566D01*
G01X5610Y39566D02*
G01X5511Y39665D01*
G01X5511Y39665D02*
G01X5511Y40059D01*
G01X5511Y40059D02*
G01X2559Y43011D01*
G01X2559Y43011D02*
G01X1279Y43011D01*
G01X1279Y43011D02*
G01X885Y43405D01*
G01X885Y43405D02*
G01X894Y43790D01*
G54D82*
G01X15590Y34645D03*
G54D80*
G01X16437Y32460D02*
G01X16417Y32559D01*
G54D81*
G01X16417Y32559D02*
G01X16417Y32992D01*
G54D80*
G01X16417Y32992D02*
G01X16240Y33051D01*
G54D82*
G01X16240Y33051D03*
G54D80*
G01X19192Y32460D02*
G01X19133Y32460D01*
G54D81*
G01X19133Y32460D02*
G01X19133Y33011D01*
G54D82*
G01X19133Y33011D03*
G01X20866Y34645D03*
G01X20000Y32992D03*
G54D81*
G01X20000Y32992D02*
G01X20000Y32519D01*
G54D80*
G01X20000Y32519D02*
G01X19980Y32460D01*
G54D82*
G01X11496Y30413D03*
G01X13208Y26889D03*
G54D80*
G01X13208Y26889D02*
G01X13326Y26771D01*
G54D81*
G01X13326Y26771D02*
G01X13838Y26771D01*
G54D80*
G01X13838Y26771D02*
G01X13897Y26771D01*
G54D82*
G01X11496Y27381D03*
G01X13208Y25708D03*
G54D81*
G01X13208Y25708D02*
G01X13858Y25708D01*
G54D80*
G01X13858Y25708D02*
G01X13897Y25688D01*
G54D82*
G01X11456Y25098D03*
G54D80*
G01X16338Y23425D02*
G01X16318Y23366D01*
G54D81*
G01X16318Y23366D02*
G01X16318Y22913D01*
G54D82*
G01X16318Y22913D03*
G54D80*
G01X18996Y23425D02*
G01X19035Y23346D01*
G54D81*
G01X19035Y23346D02*
G01X19035Y22933D01*
G54D82*
G01X19035Y22933D03*
G01X15314Y21062D03*
G01X18346Y21023D03*
G54D80*
G01X19881Y23425D02*
G01X19862Y23346D01*
G54D81*
G01X19862Y23346D02*
G01X19862Y22933D01*
G54D82*
G01X19862Y22933D03*
G01X20728Y21122D03*
G01X23169Y26082D03*
G54D80*
G01X23169Y26082D02*
G01X22440Y26082D01*
G54D82*
G01X24960Y25275D03*
G54D80*
G01X22440Y27460D02*
G01X22519Y27421D01*
G01X22519Y27421D02*
G01X23267Y27421D01*
G54D82*
G01X23267Y27421D03*
G01X24940Y27618D03*
G01X23267Y29625D03*
G54D80*
G01X23267Y29625D02*
G01X22440Y29625D01*
G54D82*
G01X24921Y30570D03*
G54D80*
G01X13897Y29527D02*
G01X13917Y29527D01*
G54D81*
G01X13917Y29527D02*
G01X13267Y29527D01*
G54D82*
G01X13267Y29527D03*
G01X18622Y34783D03*
G54D86*
G01X11062Y11181D02*
G01X12125Y11181D01*
G01X12125Y11181D02*
G01X13149Y10157D01*
G01X13149Y10157D02*
G01X13937Y10157D01*
G01X13937Y10157D02*
G01X15708Y11929D01*
G01X15708Y11929D02*
G01X15708Y12972D01*
G01X15708Y12972D02*
G01X15708Y12952D01*
G01X15708Y12952D02*
G01X15748Y12992D01*
G01X15748Y12992D02*
G01X15748Y21102D01*
G54D80*
G01X24901Y19370D02*
G01X24901Y20275D01*
G01X6692Y39468D02*
G01X6692Y39074D01*
G01X6692Y39074D02*
G01X6889Y38877D01*
G01X6889Y38877D02*
G01X6889Y37933D01*
G01X6889Y37933D02*
G01X7027Y37795D01*
G01X7027Y37795D02*
G01X8562Y37795D01*
G01X8562Y37795D02*
G01X8562Y38484D01*
G01X8562Y38484D02*
G01X8562Y37795D01*
G01X8562Y37795D02*
G01X10137Y37795D01*
G01X10137Y37795D02*
G01X10137Y38484D01*
G54D82*
G01X10925Y33779D03*
G54D80*
G01X10925Y33779D02*
G01X10551Y33405D01*
G01X10551Y33405D02*
G01X10551Y20866D01*
G01X10551Y20866D02*
G01X11594Y19822D01*
G01X11594Y19822D02*
G01X11594Y18366D01*
G01X11594Y18366D02*
G01X11870Y18070D01*
G01X11870Y18070D02*
G01X12106Y18070D01*
G01X12106Y18070D02*
G01X12204Y18062D01*
G54D83*
G01X1988Y33267D02*
G01X1318Y33267D01*
G01X2086Y40059D02*
G01X1279Y40059D01*
G54D82*
G01X32322Y15019D03*
G54D83*
G01X41161Y26377D02*
G01X41161Y27185D01*
G54D80*
G01X7893Y41141D02*
G01X7893Y40255D01*
G01X7893Y40255D02*
G01X7893Y39370D01*
G01X7893Y39370D02*
G01X7893Y38484D01*
G54D83*
G01X39271Y38779D02*
G01X39271Y37598D01*
G54D80*
G01X39271Y37598D02*
G01X39334Y37598D01*
G54D83*
G01X41437Y33858D02*
G01X41437Y33366D01*
G01X41437Y33366D02*
G01X40846Y32775D01*
G01X40846Y32775D02*
G01X39960Y32775D01*
G01X39960Y32775D02*
G01X39960Y32826D01*
G54D80*
G01X39960Y26413D02*
G01X39960Y26377D01*
G54D83*
G01X39960Y26377D02*
G01X41161Y26377D01*
G54D82*
G01X34311Y15019D03*
G01X38228Y11181D03*
G01X42992Y15649D03*
G54D83*
G01X42913Y17716D02*
G01X43838Y17716D01*
G01X39929Y16503D02*
G01X39035Y16515D01*
G01X39960Y26413D02*
G01X39015Y26417D01*
G54D81*
G01X38385Y35566D02*
G01X37440Y35570D01*
G54D83*
G01X39334Y37598D02*
G01X39330Y36751D01*
G54D82*
G01X33425Y21062D03*
G01X32992Y22047D03*
G01X17795Y31870D03*
G01X22244Y26791D03*
G01X22007Y24665D03*
G01X14389Y28208D03*
G01X14389Y28720D03*
G54D81*
G01X15748Y31791D02*
G01X15748Y31102D01*
G54D82*
G01X15748Y31102D03*
G54D81*
G01X16437Y31791D02*
G01X16437Y31102D01*
G01X18503Y31791D02*
G01X18503Y31102D01*
G54D82*
G01X18503Y31102D03*
G54D81*
G01X19192Y31791D02*
G01X19192Y31102D01*
G01X19980Y31791D02*
G01X19980Y31102D01*
G54D82*
G01X19980Y31102D03*
G54D81*
G01X20669Y31791D02*
G01X20669Y31102D01*
G54D82*
G01X17185Y31889D03*
G54D81*
G01X14566Y30216D02*
G01X15177Y30216D01*
G54D82*
G01X15177Y30216D03*
G54D81*
G01X14566Y29527D02*
G01X15177Y29527D01*
G01X14566Y27460D02*
G01X15177Y27460D01*
G54D82*
G01X15177Y27460D03*
G54D81*
G01X14566Y26771D02*
G01X15196Y26771D01*
G01X14566Y25688D02*
G01X15196Y25688D01*
G54D82*
G01X15196Y25688D03*
G54D81*
G01X14566Y25000D02*
G01X15196Y25000D01*
G54D84*
G01X13877Y23996D02*
G01X14507Y23996D01*
G01X14507Y23996D02*
G01X15098Y24586D01*
G54D81*
G01X15649Y24094D02*
G01X15649Y24685D01*
G01X16338Y24094D02*
G01X16338Y24685D01*
G54D82*
G01X16338Y24685D03*
G54D81*
G01X18307Y24094D02*
G01X18307Y24665D01*
G01X18996Y24094D02*
G01X18996Y24685D01*
G54D82*
G01X18996Y24685D03*
G54D81*
G01X19881Y24094D02*
G01X19881Y24685D01*
G01X20570Y24094D02*
G01X20570Y24665D01*
G54D82*
G01X20570Y24665D03*
G54D81*
G01X21968Y23425D02*
G01X21299Y23425D01*
G01X21299Y23425D02*
G01X21062Y23661D01*
G01X21062Y23661D02*
G01X21062Y24744D01*
G01X21771Y25393D02*
G01X21161Y25393D01*
G54D82*
G01X21161Y25393D03*
G54D81*
G01X21771Y26082D02*
G01X21161Y26082D01*
G01X21771Y27460D02*
G01X21161Y27460D01*
G54D82*
G01X21161Y27460D03*
G54D81*
G01X21771Y28149D02*
G01X21161Y28149D01*
G01X21771Y29625D02*
G01X21141Y29625D01*
G54D82*
G01X21141Y29625D03*
G54D81*
G01X21771Y30314D02*
G01X21161Y30314D01*
G54D83*
G01X13976Y31791D02*
G01X14409Y31791D01*
G01X14409Y31791D02*
G01X15295Y30905D01*
G01X22145Y31791D02*
G01X21279Y30925D01*
G01X21279Y30925D02*
G01X21161Y30925D01*
G54D82*
G01X21161Y30925D03*
G54D84*
G01X3641Y30610D02*
G01X3641Y29724D01*
G54D83*
G01X8956Y44980D02*
G01X8956Y46259D01*
G01X10236Y43503D02*
G01X11122Y43503D01*
G01X15846Y44980D02*
G01X15846Y46259D01*
G54D87*
G01X20374Y42834D02*
G01X20374Y44389D01*
G54D83*
G01X43011Y42834D02*
G01X44586Y42814D01*
G01X2165Y38779D02*
G01X787Y38779D01*
G01X2165Y31889D02*
G01X885Y31889D01*
G01X894Y45760D02*
G01X885Y44881D01*
G01X4814Y45760D02*
G01X4822Y44881D01*
G01X6299Y44685D02*
G01X6299Y45964D01*
G01X11614Y44685D02*
G01X11614Y46259D01*
G01X18503Y44685D02*
G01X18503Y46259D01*
G01X14566Y43503D02*
G01X13877Y43503D01*
G54D87*
G01X33169Y42834D02*
G01X30216Y42834D01*
G54D83*
G01X2460Y41437D02*
G01X1181Y41437D01*
G01X2460Y36122D02*
G01X1377Y36122D01*
G01X2460Y34547D02*
G01X1377Y34547D01*
G01X2460Y29232D02*
G01X1476Y29232D01*
G54D82*
G01X6988Y35334D03*
G01X7677Y33070D03*
G01X7677Y31299D03*
G01X7677Y29724D03*
G01X8956Y35137D03*
G54D83*
G01X7893Y40255D02*
G01X5905Y40255D01*
G01X5905Y40255D02*
G01X2854Y43307D01*
G01X2854Y43307D02*
G01X2854Y44488D01*
G01X11614Y44685D02*
G01X13188Y44685D01*
G54D82*
G01X16988Y23759D03*
G01X17657Y23759D03*
G54D87*
G01X40996Y9153D02*
G01X41003Y10098D01*
G54D83*
G01X2460Y29232D02*
G01X2460Y27814D01*
G54D82*
G01X2460Y27814D03*
G01X4527Y36122D03*
G01X4527Y34547D03*
G54D80*
G01X38334Y37598D02*
G01X38346Y36751D01*
G54D83*
G01X2854Y45760D02*
G01X2834Y44881D01*
G54D81*
G01X12204Y20062D02*
G01X13287Y20059D01*
G54D82*
G01X33228Y23877D03*
G01X34488Y23877D03*
G01X34173Y30039D03*
G01X33444Y30708D03*
G01X4763Y11200D03*
G01X669Y16338D03*
G01X669Y25629D03*
G54D83*
G01X5787Y22362D02*
G01X6909Y22362D01*
G54D82*
G01X6043Y19921D03*
G01X5964Y23031D03*
G54D87*
G01X3031Y3976D02*
G01X1496Y3976D01*
G01X3031Y3976D02*
G01X3031Y5885D01*
G01X3031Y3976D02*
G01X3031Y1397D01*
G01X43996Y9153D02*
G01X43996Y7992D01*
G01X43996Y9153D02*
G01X43996Y10157D01*
G54D83*
G01X11062Y12086D02*
G01X11062Y13188D01*
G54D86*
G01X11102Y8818D02*
G01X11102Y9527D01*
G01X11102Y9527D02*
G01X6948Y9527D01*
G54D80*
G01X13149Y11137D02*
G01X13149Y11318D01*
G54D83*
G01X13149Y11318D02*
G01X13149Y13287D01*
G01X15236Y1771D02*
G01X15236Y511D01*
G01X39960Y32826D02*
G01X39960Y31830D01*
G54D82*
G01X35905Y23661D03*
G01X31062Y11200D03*
G54D80*
G01X31062Y11200D02*
G01X30531Y11200D01*
G54D82*
G01X30531Y11200D03*
G01X30019Y11200D03*
G54D86*
G01X17244Y14212D02*
G01X18248Y14212D01*
G01X14960Y12952D02*
G01X14232Y12952D01*
G54D83*
G01X3641Y37500D02*
G01X4448Y36692D01*
G54D82*
G01X6692Y12893D03*
G54D80*
G01X39055Y27716D02*
G01X39055Y26496D01*
G54D84*
G01X4803Y23070D02*
G01X5688Y23070D01*
G54D80*
G01X5000Y24212D02*
G01X5787Y24212D01*
G54D82*
G01X18740Y12342D03*
G01X39448Y9763D03*
G01X43503Y26870D03*
G54D80*
G01X43503Y26870D02*
G01X43503Y25787D01*
G54D82*
G01X43503Y25787D03*
G01X22381Y10098D03*
G54D80*
G01X22381Y10098D02*
G01X22381Y5826D01*
G01X22381Y5826D02*
G01X23562Y4645D01*
G01X23562Y4645D02*
G01X33543Y4645D01*
G01X33543Y4645D02*
G01X33681Y4507D01*
G54D82*
G01X33681Y4507D03*
G54D80*
G01X5000Y24881D02*
G01X5137Y25019D01*
G01X5137Y25019D02*
G01X5748Y25019D01*
G54D82*
G01X5748Y25019D03*
G01X25807Y33188D03*
G54D80*
G01X25807Y33188D02*
G01X32283Y33188D01*
G54D82*
G01X32283Y33188D03*
G01X41338Y20866D03*
G54D80*
G01X41338Y20866D02*
G01X41338Y23425D01*
G01X41338Y23425D02*
G01X40059Y23425D01*
G01X40059Y23425D02*
G01X39960Y23413D01*
G54D82*
G01X22874Y10078D03*
G54D80*
G01X22874Y10078D02*
G01X22874Y5905D01*
G01X22874Y5905D02*
G01X23917Y4862D01*
G01X23917Y4862D02*
G01X34251Y4862D01*
G01X34251Y4862D02*
G01X34566Y4547D01*
G01X34566Y4547D02*
G01X34744Y4547D01*
G54D82*
G01X34744Y4547D03*
G01X24389Y10295D03*
G54D80*
G01X24389Y10295D02*
G01X24389Y5629D01*
G01X24389Y5629D02*
G01X24744Y5275D01*
G01X24744Y5275D02*
G01X34744Y5275D01*
G54D82*
G01X34744Y5275D03*
G54D80*
G01X8562Y40255D02*
G01X9468Y40255D01*
G01X9468Y40255D02*
G01X9468Y41141D01*
G01X4625Y37500D02*
G01X5728Y37500D01*
G01X35629Y11909D02*
G01X34350Y11909D01*
G54D82*
G01X34350Y11909D03*
G01X21141Y10118D03*
G54D80*
G01X21141Y10118D02*
G01X21141Y10413D01*
G01X21141Y10413D02*
G01X21476Y10748D01*
G01X21476Y10748D02*
G01X27263Y10748D01*
G01X27263Y10748D02*
G01X27814Y11299D01*
G01X27814Y11299D02*
G01X28484Y11299D01*
G01X28484Y11299D02*
G01X29330Y10452D01*
G01X29330Y10452D02*
G01X31496Y10452D01*
G01X31496Y10452D02*
G01X31909Y10866D01*
G01X31909Y10866D02*
G01X31909Y11653D01*
G01X31909Y11653D02*
G01X32165Y11909D01*
G01X32165Y11909D02*
G01X34350Y11909D01*
G54D82*
G01X23385Y10059D03*
G54D80*
G01X23385Y10059D02*
G01X23385Y5944D01*
G01X23385Y5944D02*
G01X24271Y5059D01*
G01X24271Y5059D02*
G01X34429Y5059D01*
G01X34429Y5059D02*
G01X34606Y4881D01*
G01X34606Y4881D02*
G01X35118Y4881D01*
G01X35118Y4881D02*
G01X35275Y5039D01*
G01X35275Y5039D02*
G01X35275Y5275D01*
G54D82*
G01X35275Y5275D03*
G54D81*
G01X4488Y15944D02*
G01X4803Y15629D01*
G01X4803Y15629D02*
G01X4803Y14685D01*
G54D82*
G01X7657Y26692D03*
G54D80*
G01X7657Y26692D02*
G01X5492Y26692D01*
G01X5492Y26692D02*
G01X4173Y25374D01*
G01X4173Y25374D02*
G01X4173Y24881D01*
G54D82*
G01X10826Y38208D03*
G54D80*
G01X10826Y38208D02*
G01X10826Y38523D01*
G01X10826Y38523D02*
G01X10393Y38956D01*
G01X10393Y38956D02*
G01X10196Y38956D01*
G01X10196Y38956D02*
G01X10118Y39035D01*
G01X10118Y39035D02*
G01X10118Y39271D01*
G01X10118Y39271D02*
G01X10137Y39370D01*
G01X3641Y38228D02*
G01X3740Y38287D01*
G01X3740Y38287D02*
G01X5728Y38287D01*
G54D85*
G01X36299Y11909D02*
G01X37637Y11909D01*
G01X37637Y11909D02*
G01X37637Y10826D01*
G01X37637Y10826D02*
G01X37263Y10452D01*
G01X37263Y10452D02*
G01X36200Y10452D01*
G01X36200Y10452D02*
G01X35944Y10196D01*
G01X35944Y10196D02*
G01X35944Y9803D01*
G01X35944Y9803D02*
G01X35433Y9291D01*
G01X35433Y9291D02*
G01X35433Y8543D01*
G54D82*
G01X35433Y8543D03*
G54D83*
G01X11102Y7913D02*
G01X12066Y7913D01*
G01X12066Y7913D02*
G01X12066Y10275D01*
G01X12066Y10275D02*
G01X11062Y10275D01*
G01X11102Y7913D02*
G01X11220Y7933D01*
G01X11220Y7933D02*
G01X13385Y7933D01*
G01X13385Y7933D02*
G01X13464Y7952D01*
G54D82*
G01X19389Y10866D03*
G01X19389Y10866D02*
G01X19389Y6653D01*
G01X19389Y6653D02*
G01X18956Y6220D01*
G01X18956Y6220D03*
G54D83*
G01X8622Y11181D02*
G01X9744Y11181D01*
G01X8622Y11181D02*
G01X7795Y11181D01*
G54D82*
G01X21870Y10118D03*
G54D80*
G01X21870Y10118D02*
G01X21870Y5807D01*
G01X21870Y5807D02*
G01X23267Y4429D01*
G01X23267Y4429D02*
G01X33188Y4429D01*
G01X33188Y4429D02*
G01X33523Y4094D01*
G01X33523Y4094D02*
G01X35669Y4094D01*
G01X35669Y4094D02*
G01X36062Y4488D01*
G01X36062Y4488D02*
G01X36062Y4901D01*
G54D82*
G01X36062Y4901D03*
G54D86*
G01X10881Y1771D02*
G01X10885Y4271D01*
G01X10885Y4271D02*
G01X10866Y4409D01*
G01X11102Y7007D02*
G01X11948Y7007D01*
G01X11948Y7007D02*
G01X11948Y4409D01*
G01X11948Y4409D02*
G01X10866Y4409D01*
G01X10866Y4409D02*
G01X11948Y4409D01*
G01X11948Y4409D02*
G01X11948Y2047D01*
G01X11948Y2047D02*
G01X12224Y1771D01*
G01X12224Y1771D02*
G01X13425Y1771D01*
G54D83*
G01X8661Y7913D02*
G01X9763Y7913D01*
G01X8661Y7913D02*
G01X7814Y7913D01*
G54D84*
G01X4842Y17952D02*
G01X5688Y17952D01*
G54D82*
G01X5688Y17952D03*
G54D80*
G01X26920Y43442D02*
G01X27165Y43503D01*
G01X27165Y43503D02*
G01X28740Y43503D01*
G01X28740Y43503D02*
G01X28937Y43307D01*
G01X28937Y43307D02*
G01X28937Y42224D01*
G01X28937Y42224D02*
G01X29724Y41437D01*
G01X29724Y41437D02*
G01X37500Y41437D01*
G01X37500Y41437D02*
G01X38287Y40649D01*
G01X38287Y40649D02*
G01X38334Y40598D01*
G01X26870Y44389D02*
G01X26870Y43562D01*
G01X26870Y43562D02*
G01X26920Y43442D01*
G54D83*
G01X14330Y4212D02*
G01X14330Y5413D01*
G54D82*
G01X5314Y13740D03*
G54D81*
G01X5314Y13740D02*
G01X5314Y14665D01*
G54D80*
G01X5314Y14665D02*
G01X5472Y14685D01*
G01X4625Y30610D02*
G01X5629Y30610D01*
G54D82*
G01X25866Y7460D03*
G54D80*
G01X25866Y7460D02*
G01X26751Y7460D01*
G01X26751Y7460D02*
G01X27342Y8051D01*
G01X27342Y8051D02*
G01X32381Y8051D01*
G01X32381Y8051D02*
G01X33267Y7165D01*
G01X33267Y7165D02*
G01X35354Y7165D01*
G01X35354Y7165D02*
G01X36200Y8011D01*
G01X36200Y8011D02*
G01X36200Y9311D01*
G01X36200Y9311D02*
G01X36397Y9507D01*
G01X36397Y9507D02*
G01X36535Y9507D01*
G54D82*
G01X36535Y9507D03*
G54D80*
G01X39665Y44389D02*
G01X39665Y43700D01*
G01X39665Y43700D02*
G01X39715Y43442D01*
G01X23650Y43442D02*
G01X24212Y42913D01*
G01X24212Y42913D02*
G01X28641Y42913D01*
G01X28641Y42913D02*
G01X28740Y42814D01*
G01X28740Y42814D02*
G01X28740Y42125D01*
G01X28740Y42125D02*
G01X29625Y41240D01*
G01X29625Y41240D02*
G01X36712Y41240D01*
G01X36712Y41240D02*
G01X37303Y40649D01*
G01X37303Y40649D02*
G01X37334Y40598D01*
G01X23622Y44389D02*
G01X23622Y43641D01*
G01X23622Y43641D02*
G01X23650Y43442D01*
G54D87*
G01X7700Y5472D02*
G01X7700Y4212D01*
G01X8700Y5472D02*
G01X8700Y4212D01*
G54D82*
G01X29488Y36141D03*
G54D80*
G01X29488Y36141D02*
G01X29330Y35984D01*
G01X29330Y35984D02*
G01X12814Y35984D01*
G54D82*
G01X12814Y35984D03*
G54D80*
G01X3641Y31338D02*
G01X3838Y31299D01*
G01X3838Y31299D02*
G01X5511Y31299D01*
G01X5511Y31299D02*
G01X5610Y31397D01*
G54D82*
G01X26377Y7834D03*
G54D80*
G01X26377Y7834D02*
G01X26850Y8307D01*
G01X26850Y8307D02*
G01X32519Y8307D01*
G01X32519Y8307D02*
G01X33405Y7401D01*
G01X33405Y7401D02*
G01X35137Y7401D01*
G01X35137Y7401D02*
G01X35826Y8090D01*
G01X35826Y8090D02*
G01X35826Y9389D01*
G01X35826Y9389D02*
G01X36515Y10078D01*
G54D82*
G01X36515Y10078D03*
G54D80*
G01X36417Y44389D02*
G01X36417Y43700D01*
G01X36417Y43700D02*
G01X36445Y43442D01*
G01X4803Y19842D02*
G01X4783Y19803D01*
G01X4783Y19803D02*
G01X4888Y19907D01*
G01X4888Y19907D02*
G01X4888Y21068D01*
G01X4888Y21068D02*
G01X4881Y21062D01*
G01X4881Y21062D02*
G01X4389Y21555D01*
G01X4389Y21555D02*
G01X3799Y21555D01*
G01X3799Y21555D02*
G01X3582Y21771D01*
G01X3582Y21771D02*
G01X3582Y23897D01*
G01X3582Y23897D02*
G01X3897Y24212D01*
G01X3897Y24212D02*
G01X4173Y24212D01*
G01X6692Y41141D02*
G01X6692Y41594D01*
G01X6692Y41594D02*
G01X6929Y41830D01*
G01X6929Y41830D02*
G01X8562Y41830D01*
G01X8562Y41830D02*
G01X8562Y41141D01*
G01X8562Y41141D02*
G01X8562Y41830D01*
G01X8562Y41830D02*
G01X10137Y41830D01*
G01X10137Y41830D02*
G01X10137Y41141D01*
G01X24015Y18700D02*
G01X24901Y18700D01*
G54D83*
G01X42929Y19503D02*
G01X42913Y19488D01*
G01X42913Y19488D02*
G01X43897Y19488D01*
G54D82*
G01X43897Y19488D03*
G54D80*
G01X39334Y40598D02*
G01X39960Y41240D01*
G01X39960Y41240D02*
G01X40748Y41240D01*
G01X40748Y41240D02*
G01X41240Y41732D01*
G01X41240Y41732D02*
G01X41240Y44862D01*
G01X41240Y44862D02*
G01X41161Y44940D01*
G01X41161Y44940D02*
G01X38996Y44940D01*
G01X38996Y44940D02*
G01X38996Y44389D01*
G01X24291Y44389D02*
G01X24291Y44862D01*
G01X24291Y44862D02*
G01X27578Y44862D01*
G01X27578Y44862D02*
G01X27578Y44429D01*
G01X27578Y44429D02*
G01X27539Y44389D01*
G01X39271Y39448D02*
G01X39271Y39566D01*
G54D83*
G01X39271Y39566D02*
G01X39271Y40452D01*
G54D80*
G01X39271Y40452D02*
G01X39334Y40598D01*
G54D83*
G01X41437Y34527D02*
G01X41437Y35039D01*
G01X41437Y35039D02*
G01X42224Y35826D01*
G01X42224Y35826D02*
G01X42960Y35826D01*
G01X41830Y26377D02*
G01X42913Y26377D01*
G54D80*
G01X42913Y26377D02*
G01X42960Y26413D01*
G54D83*
G01X42913Y18385D02*
G01X42913Y19291D01*
G01X42913Y19291D02*
G01X42929Y19503D01*
G54D80*
G01X27539Y44389D02*
G01X35748Y44389D01*
G01X38996Y44389D02*
G01X38996Y44940D01*
G01X38996Y44940D02*
G01X35885Y44940D01*
G01X35885Y44940D02*
G01X35748Y44803D01*
G01X35748Y44803D02*
G01X35748Y44350D01*
G01X35748Y44350D02*
G01X35748Y44389D01*
G54D82*
G01X34350Y21062D03*
G54D84*
G01X34350Y21062D02*
G01X35236Y20177D01*
G01X35236Y20177D02*
G01X43897Y20177D01*
G54D82*
G01X43897Y20177D03*
G01X33464Y15059D03*
G54D84*
G01X33464Y15059D02*
G01X33464Y15511D01*
G01X33464Y15511D02*
G01X33661Y15708D01*
G01X33661Y15708D02*
G01X34094Y15708D01*
G01X34094Y15708D02*
G01X34291Y15905D01*
G01X34291Y15905D02*
G01X34291Y19212D01*
G54D82*
G01X34291Y19212D03*
G01X15708Y33031D03*
G54D80*
G01X15708Y33031D02*
G01X15708Y32637D01*
G01X15708Y32637D02*
G01X15748Y32460D01*
G54D82*
G01X18503Y32992D03*
G54D80*
G01X18503Y32992D02*
G01X18503Y32460D01*
G54D82*
G01X20669Y32992D03*
G54D80*
G01X20669Y32992D02*
G01X20669Y32460D01*
G54D81*
G01X15748Y32460D02*
G01X15748Y33720D01*
G54D80*
G01X15748Y33720D02*
G01X15748Y33818D01*
G54D81*
G01X18503Y32460D02*
G01X18503Y33661D01*
G54D80*
G01X18503Y33661D02*
G01X18503Y33818D01*
G54D81*
G01X20669Y32460D02*
G01X20669Y33740D01*
G54D80*
G01X20669Y33740D02*
G01X20669Y33838D01*
G01X13976Y32460D02*
G01X13976Y33110D01*
G54D82*
G01X13976Y33110D03*
G54D81*
G01X13976Y32460D02*
G01X13976Y33681D01*
G54D82*
G01X22165Y33011D03*
G54D80*
G01X22165Y33011D02*
G01X22165Y32519D01*
G01X22165Y32519D02*
G01X22145Y32460D01*
G54D81*
G01X22145Y32460D02*
G01X22145Y33622D01*
G54D82*
G01X13267Y30216D03*
G54D80*
G01X13267Y30216D02*
G01X13956Y30216D01*
G01X13956Y30216D02*
G01X13897Y30216D01*
G54D81*
G01X13897Y30216D02*
G01X12657Y30216D01*
G54D80*
G01X13897Y27460D02*
G01X13818Y27440D01*
G01X13818Y27440D02*
G01X13208Y27440D01*
G54D82*
G01X13208Y27440D03*
G54D81*
G01X13897Y27460D02*
G01X12677Y27460D01*
G01X13897Y25000D02*
G01X12677Y25000D01*
G54D82*
G01X13208Y25059D03*
G54D80*
G01X13208Y25059D02*
G01X13779Y25059D01*
G01X13779Y25059D02*
G01X13897Y25000D01*
G54D82*
G01X13208Y23326D03*
G54D80*
G01X13208Y23326D02*
G01X13877Y23326D01*
G54D81*
G01X13877Y23326D02*
G01X12696Y23326D01*
G54D80*
G01X15649Y23425D02*
G01X15649Y22913D01*
G54D82*
G01X15649Y22913D03*
G54D80*
G01X18307Y23425D02*
G01X18307Y22933D01*
G54D82*
G01X18307Y22933D03*
G54D81*
G01X18307Y23425D02*
G01X18307Y22421D01*
G54D80*
G01X20570Y23425D02*
G01X20570Y22933D01*
G54D82*
G01X20570Y22933D03*
G54D81*
G01X20570Y23425D02*
G01X20570Y22401D01*
G01X22637Y23425D02*
G01X22637Y22893D01*
G01X22637Y22893D02*
G01X23326Y22893D01*
G54D82*
G01X23326Y22893D03*
G01X23169Y25393D03*
G54D80*
G01X23169Y25393D02*
G01X22440Y25393D01*
G54D81*
G01X22440Y25393D02*
G01X23858Y25393D01*
G54D80*
G01X22440Y28149D02*
G01X22480Y28129D01*
G01X22480Y28129D02*
G01X23208Y28129D01*
G54D82*
G01X23208Y28129D03*
G54D81*
G01X22440Y28149D02*
G01X23858Y28149D01*
G54D82*
G01X23248Y30314D03*
G54D80*
G01X23248Y30314D02*
G01X22440Y30314D01*
G54D81*
G01X22440Y30314D02*
G01X23877Y30314D01*
G01X15649Y23425D02*
G01X15649Y22440D01*
G01X22637Y23425D02*
G01X22637Y22381D01*
G54D82*
G01X34429Y25688D03*
G54D83*
G01X34429Y25688D02*
G01X34429Y28385D01*
G01X34429Y28385D02*
G01X37007Y30964D01*
G01X37007Y30964D02*
G01X44291Y30964D01*
G54D82*
G01X44291Y30964D03*
G01X34488Y28484D03*
G54D81*
G01X34488Y28484D02*
G01X34547Y28484D01*
G01X34547Y28484D02*
G01X37047Y30984D01*
G01X37047Y30984D02*
G01X43818Y30984D01*
G54D82*
G01X43818Y30984D03*
G54D86*
G01X16535Y1811D02*
G01X15452Y2893D01*
G01X15452Y2893D02*
G01X14881Y2893D01*
G01X14881Y2893D02*
G01X14330Y2342D01*
G01X14330Y2342D02*
G01X14330Y1771D01*
G01X16535Y1811D02*
G01X16771Y1732D01*
G01X16771Y1732D02*
G01X26082Y1732D01*
G01X26082Y1732D02*
G01X27992Y3661D01*
G01X27992Y3661D02*
G01X39192Y3661D01*
G01X39192Y3661D02*
G01X42992Y7440D01*
G01X42992Y7440D02*
G01X42992Y9153D01*
G01X42992Y9153D02*
G01X42996Y9153D01*
G01X16496Y14212D02*
G01X16496Y20334D01*
G01X16496Y20334D02*
G01X22618Y20334D01*
G01X22618Y20334D02*
G01X22618Y22125D01*
G54D81*
G01X24015Y18700D02*
G01X23582Y18700D01*
G01X23582Y18700D02*
G01X22618Y19665D01*
G01X22618Y19665D02*
G01X22618Y20354D01*
G54D83*
G01X22618Y20354D02*
G01X22618Y22125D01*
G54D86*
G01X16496Y14212D02*
G01X16496Y11417D01*
G01X16496Y11417D02*
G01X14350Y9271D01*
G01X14350Y9271D02*
G01X14350Y7283D01*
G01X14350Y7283D02*
G01X16496Y5137D01*
G01X16496Y5137D02*
G01X16496Y1889D01*
G01X16496Y1889D02*
G01X16535Y1811D01*
G54D82*
G01X35826Y22933D03*
G54D80*
G01X35826Y22933D02*
G01X35826Y22145D01*
G54D82*
G01X35826Y22145D03*
G01X26889Y7086D03*
G54D80*
G01X26889Y7086D02*
G01X27539Y7716D01*
G01X27539Y7716D02*
G01X27598Y7775D01*
G01X27598Y7775D02*
G01X32224Y7775D01*
G01X32224Y7775D02*
G01X33090Y6909D01*
G01X33090Y6909D02*
G01X35511Y6909D01*
G01X35511Y6909D02*
G01X36594Y7952D01*
G01X36594Y7952D02*
G01X36594Y8779D01*
G54D82*
G01X36594Y8779D03*
G01X37185Y11122D03*
G54D80*
G01X37185Y11122D02*
G01X32480Y11122D01*
G54D82*
G01X32480Y11122D03*

G04 Draw Text*
M00*
M02*
