G04 FreePCB version 1.353*
G04 C:\Program Files\FreePCB\projects\V6Z80P_FIX\CAM\top_solder_mask.grb*
G04 top solder mask layer *
G04 Scale: 100 percent, Rotated: No, Reflected: No *
%FSLAX24Y24*%
%MOIN*%
%LN top solder mask *%
G04 Rounded Rectangle Macro, params: W/2, H/2, R *
%AMRNDREC*
21,1,$1+$1,$2+$2-$3-$3,0,0,0*
21,1,$1+$1-$3-$3,$2+$2,0,0,0*
1,1,$3+$3,$1-$3,$2-$3*
1,1,$3+$3,$3-$1,$2-$3*
1,1,$3+$3,$1-$3,$3-$2*
1,1,$3+$3,$3-$1,$3-$2*%
G04 Rectangular Thermal Macro, params: W/2, H/2, T/2 *
%AMRECTHERM*
$4=$3/2*
21,1,$1-$3,$2-$3,0-$1/2-$4,0-$2/2-$4,0*
21,1,$1-$3,$2-$3,0-$1/2-$4,$2/2+$4,0*
21,1,$1-$3,$2-$3,$1/2+$4,0-$2/2-$4,0*
21,1,$1-$3,$2-$3,$1/2+$4,$2/2+$4,0*%
%ADD10C,0.007874*%
%ADD11R,0.025591X0.086614*%
%ADD12R,0.086614X0.025591*%
%ADD13R,0.086614X0.035433*%
%ADD14R,0.035433X0.086614*%
%ADD15R,0.042126X0.078740*%
%ADD16R,0.074803X0.074803*%
%ADD17C,0.074803*%
%ADD18C,0.075748*%
%ADD19R,0.102362X0.043307*%
%ADD20R,0.062992X0.059055*%
%ADD21R,0.059055X0.062992*%
%ADD22C,0.153543*%
%ADD23C,0.161417*%
%ADD24C,0.094488*%
%ADD25C,0.082677*%
%ADD26R,0.078740X0.078740*%
%ADD27C,0.078740*%
%ADD28C,0.212598*%
%ADD29C,0.093748*%
%ADD30R,0.110236X0.047244*%
%ADD31R,0.070866X0.066929*%
%ADD32R,0.063748X0.055748*%
%ADD33C,0.098425*%
%ADD34C,0.086614*%
%ADD35C,0.141732*%
%ADD36R,0.031496X0.047244*%
%ADD37R,0.047244X0.047244*%
%ADD38R,0.133858X0.055118*%
%ADD39R,0.114173X0.173228*%
%ADD40C,0.102362*%
%ADD41C,0.204724*%
%ADD42C,0.192913*%
%ADD43C,0.080748*%
%ADD44C,0.085748*%
%ADD45C,0.015748*%
G90*
G70D02*

G04 Step and Repeat for panelization *

G04 ----------------------- Draw board outline (positive)*
%LPD*%
G54D10*
G01X-196Y-157D02*
G01X45393Y-157D01*
G04 end of side 1*
G01X45393Y47007D01*
G04 end of side 2*
G01X-196Y47007D01*
G04 end of side 3*
G01X-196Y-157D01*

G04 -------------- Draw Parts, Pads, Traces, Vias and Text (positive)*
%LPD*%
G04 Draw part spartan_ii*
G54D11*
G01X13188Y21850D03*
G01X13385Y21850D03*
G01X13582Y21850D03*
G01X13779Y21850D03*
G01X13976Y21850D03*
G01X14173Y21850D03*
G01X14370Y21850D03*
G01X14566Y21850D03*
G01X14763Y21850D03*
G01X14960Y21850D03*
G01X15157Y21850D03*
G01X15354Y21850D03*
G01X15551Y21850D03*
G01X15748Y21850D03*
G01X15944Y21850D03*
G01X16141Y21850D03*
G01X16338Y21850D03*
G01X16535Y21850D03*
G01X16732Y21850D03*
G01X16929Y21850D03*
G01X17125Y21850D03*
G01X17322Y21850D03*
G01X17519Y21850D03*
G01X17716Y21850D03*
G01X17913Y21850D03*
G01X18110Y21850D03*
G01X18307Y21850D03*
G01X18503Y21850D03*
G01X18700Y21850D03*
G01X18897Y21850D03*
G01X19094Y21850D03*
G01X19291Y21850D03*
G01X19488Y21850D03*
G01X19685Y21850D03*
G01X19881Y21850D03*
G01X20078Y21850D03*
G01X20275Y21850D03*
G01X20472Y21850D03*
G01X20669Y21850D03*
G01X20866Y21850D03*
G01X21062Y21850D03*
G01X21259Y21850D03*
G01X21456Y21850D03*
G01X21653Y21850D03*
G01X21850Y21850D03*
G01X22047Y21850D03*
G01X22244Y21850D03*
G01X22440Y21850D03*
G01X22637Y21850D03*
G01X22834Y21850D03*
G01X23031Y21850D03*
G01X23228Y21850D03*
G54D12*
G01X24271Y22893D03*
G01X24271Y23090D03*
G01X24271Y23287D03*
G01X24271Y23484D03*
G01X24271Y23681D03*
G01X24271Y23877D03*
G01X24271Y24074D03*
G01X24271Y24271D03*
G01X24271Y24468D03*
G01X24271Y24665D03*
G01X24271Y24862D03*
G01X24271Y25059D03*
G01X24271Y25255D03*
G01X24271Y25452D03*
G01X24271Y25649D03*
G01X24271Y25846D03*
G01X24271Y26043D03*
G01X24271Y26240D03*
G01X24271Y26437D03*
G01X24271Y26633D03*
G01X24271Y26830D03*
G01X24271Y27027D03*
G01X24271Y27224D03*
G01X24271Y27421D03*
G01X24271Y27618D03*
G01X24271Y27814D03*
G01X24271Y28011D03*
G01X24271Y28208D03*
G01X24271Y28405D03*
G01X24271Y28602D03*
G01X24271Y28799D03*
G01X24271Y28996D03*
G01X24271Y29192D03*
G01X24271Y29389D03*
G01X24271Y29586D03*
G01X24271Y29783D03*
G01X24271Y29980D03*
G01X24271Y30177D03*
G01X24271Y30374D03*
G01X24271Y30570D03*
G01X24271Y30767D03*
G01X24271Y30964D03*
G01X24271Y31161D03*
G01X24271Y31358D03*
G01X24271Y31555D03*
G01X24271Y31751D03*
G01X24271Y31948D03*
G01X24271Y32145D03*
G01X24271Y32342D03*
G01X24271Y32539D03*
G01X24271Y32736D03*
G01X24271Y32933D03*
G54D11*
G01X23228Y33976D03*
G01X23031Y33976D03*
G01X22834Y33976D03*
G01X22637Y33976D03*
G01X22440Y33976D03*
G01X22244Y33976D03*
G01X22047Y33976D03*
G01X21850Y33976D03*
G01X21653Y33976D03*
G01X21456Y33976D03*
G01X21259Y33976D03*
G01X21062Y33976D03*
G01X20866Y33976D03*
G01X20669Y33976D03*
G01X20472Y33976D03*
G01X20275Y33976D03*
G01X20078Y33976D03*
G01X19881Y33976D03*
G01X19685Y33976D03*
G01X19488Y33976D03*
G01X19291Y33976D03*
G01X19094Y33976D03*
G01X18897Y33976D03*
G01X18700Y33976D03*
G01X18503Y33976D03*
G01X18307Y33976D03*
G01X18110Y33976D03*
G01X17913Y33976D03*
G01X17716Y33976D03*
G01X17519Y33976D03*
G01X17322Y33976D03*
G01X17125Y33976D03*
G01X16929Y33976D03*
G01X16732Y33976D03*
G01X16535Y33976D03*
G01X16338Y33976D03*
G01X16141Y33976D03*
G01X15944Y33976D03*
G01X15748Y33976D03*
G01X15551Y33976D03*
G01X15354Y33976D03*
G01X15157Y33976D03*
G01X14960Y33976D03*
G01X14763Y33976D03*
G01X14566Y33976D03*
G01X14370Y33976D03*
G01X14173Y33976D03*
G01X13976Y33976D03*
G01X13779Y33976D03*
G01X13582Y33976D03*
G01X13385Y33976D03*
G01X13188Y33976D03*
G54D12*
G01X12145Y32933D03*
G01X12145Y32736D03*
G01X12145Y32539D03*
G01X12145Y32342D03*
G01X12145Y32145D03*
G01X12145Y31948D03*
G01X12145Y31751D03*
G01X12145Y31555D03*
G01X12145Y31358D03*
G01X12145Y31161D03*
G01X12145Y30964D03*
G01X12145Y30767D03*
G01X12145Y30570D03*
G01X12145Y30374D03*
G01X12145Y30177D03*
G01X12145Y29980D03*
G01X12145Y29783D03*
G01X12145Y29586D03*
G01X12145Y29389D03*
G01X12145Y29192D03*
G01X12145Y28996D03*
G01X12145Y28799D03*
G01X12145Y28602D03*
G01X12145Y28405D03*
G01X12145Y28208D03*
G01X12145Y28011D03*
G01X12145Y27814D03*
G01X12145Y27618D03*
G01X12145Y27421D03*
G01X12145Y27224D03*
G01X12145Y27027D03*
G01X12145Y26830D03*
G01X12145Y26633D03*
G01X12145Y26437D03*
G01X12145Y26240D03*
G01X12145Y26043D03*
G01X12145Y25846D03*
G01X12145Y25649D03*
G01X12145Y25452D03*
G01X12145Y25255D03*
G01X12145Y25059D03*
G01X12145Y24862D03*
G01X12145Y24665D03*
G01X12145Y24468D03*
G01X12145Y24271D03*
G01X12145Y24074D03*
G01X12145Y23877D03*
G01X12145Y23681D03*
G01X12145Y23484D03*
G01X12145Y23287D03*
G01X12145Y23090D03*
G01X12145Y22893D03*
G04 Draw part z80*
G54D13*
G01X37500Y6889D03*
G01X37500Y7204D03*
G01X37500Y7519D03*
G01X37500Y7834D03*
G01X37500Y8149D03*
G01X37500Y8464D03*
G01X37500Y8779D03*
G01X37500Y9094D03*
G01X37500Y9409D03*
G01X37500Y9724D03*
G01X37500Y10039D03*
G54D14*
G01X36535Y11003D03*
G01X36220Y11003D03*
G01X35905Y11003D03*
G01X35590Y11003D03*
G01X35275Y11003D03*
G01X34960Y11003D03*
G01X34645Y11003D03*
G01X34330Y11003D03*
G01X34015Y11003D03*
G01X33700Y11003D03*
G01X33385Y11003D03*
G54D13*
G01X32421Y10039D03*
G01X32421Y9724D03*
G01X32421Y9409D03*
G01X32421Y9094D03*
G01X32421Y8779D03*
G01X32421Y8464D03*
G01X32421Y8149D03*
G01X32421Y7834D03*
G01X32421Y7519D03*
G01X32421Y7204D03*
G01X32421Y6889D03*
G54D14*
G01X33385Y5925D03*
G01X33700Y5925D03*
G01X34015Y5925D03*
G01X34330Y5925D03*
G01X34645Y5925D03*
G01X34960Y5925D03*
G01X35275Y5925D03*
G01X35590Y5925D03*
G01X35905Y5925D03*
G01X36220Y5925D03*
G01X36535Y5925D03*
G04 Draw part spr_ram*
G54D15*
G01X30314Y15748D03*
G01X30814Y15748D03*
G01X31314Y15748D03*
G01X31814Y15748D03*
G01X32314Y15748D03*
G01X32814Y15748D03*
G01X33314Y15748D03*
G01X33814Y15748D03*
G01X34314Y15748D03*
G01X34814Y15748D03*
G01X35314Y15748D03*
G01X35814Y15748D03*
G01X36314Y15748D03*
G01X36814Y15748D03*
G01X37314Y15748D03*
G01X37814Y15748D03*
G01X37814Y20248D03*
G01X37314Y20248D03*
G01X36814Y20248D03*
G01X36314Y20248D03*
G01X35814Y20248D03*
G01X35314Y20248D03*
G01X34814Y20248D03*
G01X34314Y20248D03*
G01X33814Y20248D03*
G01X33314Y20248D03*
G01X32814Y20248D03*
G01X32314Y20248D03*
G01X31814Y20248D03*
G01X31314Y20248D03*
G01X30814Y20248D03*
G01X30314Y20248D03*
G04 Draw part cfg_pic*
G54D16*
G01X39960Y30413D03*
G54D17*
G01X39960Y29413D03*
G01X39960Y28413D03*
G01X39960Y27413D03*
G01X39960Y26413D03*
G01X39960Y25413D03*
G01X39960Y24413D03*
G01X39960Y23413D03*
G01X39960Y22413D03*
G01X42960Y22413D03*
G01X42960Y23413D03*
G01X42960Y24413D03*
G01X42960Y25413D03*
G01X42960Y26413D03*
G01X42960Y27413D03*
G01X42960Y28413D03*
G01X42960Y29413D03*
G01X42960Y30413D03*
G04 Draw part spi_eeprom*
G54D16*
G01X39960Y35826D03*
G54D17*
G01X39960Y34826D03*
G01X39960Y33826D03*
G01X39960Y32826D03*
G01X42960Y32826D03*
G01X42960Y33826D03*
G01X42960Y34826D03*
G01X42960Y35826D03*
G04 Draw part osc*
G54D16*
G01X39929Y19503D03*
G54D18*
G01X39929Y16503D03*
G01X42929Y16503D03*
G01X42929Y19503D03*
G04 Draw part hct08*
G54D19*
G01X39074Y14173D03*
G01X39074Y13673D03*
G01X39074Y13173D03*
G01X39074Y12673D03*
G01X39074Y12173D03*
G01X39074Y11673D03*
G01X39074Y11173D03*
G01X41200Y11173D03*
G01X41200Y11673D03*
G01X41200Y12173D03*
G01X41200Y12673D03*
G01X41200Y13173D03*
G01X41200Y13673D03*
G01X41200Y14173D03*
G04 Draw part res1*
G54D20*
G01X42322Y14173D03*
G01X42322Y13503D03*
G04 Draw part res3*
G01X41437Y25787D03*
G01X41437Y25118D03*
G04 Draw part res4*
G01X41437Y24212D03*
G01X41437Y23543D03*
G04 Draw part res5*
G01X41437Y34547D03*
G01X41437Y33877D03*
G04 Draw part res6*
G54D21*
G01X38346Y22362D03*
G01X39015Y22362D03*
G04 Draw part res10*
G54D20*
G01X41437Y27460D03*
G01X41437Y26791D03*
G04 Draw part vidcon*
G54D22*
G01X18503Y44685D03*
G01X13188Y44685D03*
G54D17*
G01X16397Y43503D03*
G01X15295Y43503D03*
G01X14566Y43503D03*
G01X17145Y43503D03*
G54D23*
G01X15846Y44980D03*
G54D17*
G01X17145Y42519D03*
G01X14547Y42519D03*
G01X16122Y42519D03*
G01X15334Y42519D03*
G04 Draw part kbcon*
G54D22*
G01X2460Y34547D03*
G01X2460Y29232D03*
G54D17*
G01X3641Y32440D03*
G01X3641Y31338D03*
G01X3641Y30610D03*
G01X3641Y33169D03*
G54D23*
G01X2165Y31889D03*
G54D24*
G01X4625Y33169D03*
G01X4625Y30610D03*
G04 Draw part mousecon*
G54D22*
G01X2460Y41437D03*
G01X2460Y36122D03*
G54D17*
G01X3641Y39330D03*
G01X3641Y38228D03*
G01X3641Y37500D03*
G01X3641Y40059D03*
G54D23*
G01X2165Y38779D03*
G54D24*
G01X4625Y40059D03*
G01X4625Y37500D03*
G04 Draw part rs232con*
G54D22*
G01X11614Y44685D03*
G01X6299Y44685D03*
G54D25*
G01X7677Y43503D03*
G01X10236Y43503D03*
G54D23*
G01X8956Y44980D03*
G54D24*
G01X10236Y42519D03*
G01X7677Y42519D03*
G04 Draw part joy1con*
G54D26*
G01X40255Y42322D03*
G54D27*
G01X39165Y42322D03*
G01X38075Y42322D03*
G01X36985Y42322D03*
G01X35895Y42322D03*
G01X39715Y43442D03*
G01X38625Y43442D03*
G01X37535Y43442D03*
G01X36445Y43442D03*
G54D28*
G01X33169Y42834D03*
G01X43011Y42834D03*
G04 Draw part joy2con*
G54D26*
G01X27460Y42322D03*
G54D27*
G01X26370Y42322D03*
G01X25280Y42322D03*
G01X24190Y42322D03*
G01X23100Y42322D03*
G01X26920Y43442D03*
G01X25830Y43442D03*
G01X24740Y43442D03*
G01X23650Y43442D03*
G54D28*
G01X20374Y42834D03*
G01X30216Y42834D03*
G04 Draw part audiocon*
G54D24*
G01X4814Y43790D03*
G54D29*
G01X894Y43790D03*
G01X3834Y43790D03*
G01X1874Y43790D03*
G54D24*
G01X4814Y45760D03*
G01X894Y45760D03*
G01X2854Y45760D03*
G04 Draw part joypic*
G54D16*
G01X35334Y37598D03*
G54D17*
G01X36334Y37598D03*
G01X37334Y37598D03*
G01X38334Y37598D03*
G01X39334Y37598D03*
G01X40334Y37598D03*
G01X41334Y37598D03*
G01X42334Y37598D03*
G01X43334Y37598D03*
G01X43334Y40598D03*
G01X42334Y40598D03*
G01X41334Y40598D03*
G01X40334Y40598D03*
G01X39334Y40598D03*
G01X38334Y40598D03*
G01X37334Y40598D03*
G01X36334Y40598D03*
G01X35334Y40598D03*
G04 Draw part st232*
G54D30*
G01X7677Y40157D03*
G01X7677Y39657D03*
G01X7677Y39157D03*
G01X7677Y38657D03*
G01X7677Y38157D03*
G01X7677Y37657D03*
G01X7677Y37157D03*
G01X7677Y36657D03*
G01X9645Y36657D03*
G01X9645Y37157D03*
G01X9645Y37657D03*
G01X9645Y38157D03*
G01X9645Y38657D03*
G01X9645Y39157D03*
G01X9645Y39657D03*
G01X9645Y40157D03*
G04 Draw part jrespu1*
G04 Draw part jrespu2*
G04 Draw part jrespu3*
G04 Draw part jrespu4*
G04 Draw part coldac1*
G54D31*
G01X21811Y40748D03*
G01X21811Y40000D03*
G04 Draw part coldac2*
G01X22598Y40748D03*
G01X22598Y40000D03*
G04 Draw part coldac3*
G01X21023Y40748D03*
G01X21023Y40000D03*
G04 Draw part coldac4*
G01X20236Y40748D03*
G01X20236Y40000D03*
G04 Draw part coldac5*
G01X26181Y40748D03*
G01X26181Y40000D03*
G04 Draw part coldac6*
G01X25393Y40748D03*
G01X25393Y40000D03*
G04 Draw part coldac7*
G01X24606Y40748D03*
G01X24606Y40000D03*
G04 Draw part coldac8*
G01X23818Y40748D03*
G01X23818Y40000D03*
G04 Draw part coldac9*
G01X16811Y40748D03*
G01X16811Y40000D03*
G04 Draw part coldac10*
G01X16062Y40748D03*
G01X16062Y40000D03*
G04 Draw part coldac11*
G01X15275Y40748D03*
G01X15275Y40000D03*
G04 Draw part coldac12*
G01X17598Y40748D03*
G01X17598Y40000D03*
G04 Draw part coldac13*
G01X19094Y40452D03*
G01X19094Y39704D03*
G04 Draw part audfilter1*
G04 Draw part audfilter2*
G04 Draw part audfilter3*
G04 Draw part audfilter4*
G04 Draw part audfilter5*
G04 Draw part audfilter6*
G04 Draw part audfilter7*
G04 Draw part audfilter8*
G04 Draw part audfilter9*
G04 Draw part audfilter10*
G04 Draw part rs232dec1*
G54D20*
G01X11023Y40354D03*
G01X11023Y39685D03*
G04 Draw part rs232dec2*
G54D21*
G01X8956Y35728D03*
G01X8287Y35728D03*
G04 Draw part rs232dec3*
G54D20*
G01X6299Y38779D03*
G01X6299Y38110D03*
G04 Draw part rs232dec4*
G54D21*
G01X8956Y41043D03*
G01X8287Y41043D03*
G04 Draw part rs232dec5*
G54D20*
G01X6299Y40354D03*
G01X6299Y39685D03*
G04 Draw part kbpu1*
G04 Draw part kbpu2*
G04 Draw part kbpu3*
G54D32*
G01X6102Y29330D03*
G01X7002Y28930D03*
G01X7002Y29730D03*
G04 Draw part kbpu4*
G01X6102Y30905D03*
G01X7002Y30505D03*
G01X7002Y31305D03*
G04 Draw part kbpu5*
G54D21*
G01X7972Y28937D03*
G01X8641Y28937D03*
G04 Draw part kbpu6*
G01X7972Y30511D03*
G01X8641Y30511D03*
G04 Draw part kbpu7*
G04 Draw part kbpu8*
G04 Draw part kbpu9*
G54D32*
G01X6102Y34350D03*
G01X7002Y33950D03*
G01X7002Y34750D03*
G04 Draw part kbpu10*
G01X6102Y32677D03*
G01X7002Y32277D03*
G01X7002Y33077D03*
G04 Draw part kbpu11*
G54D21*
G01X7755Y32283D03*
G01X8425Y32283D03*
G04 Draw part kbpu12*
G01X7716Y33937D03*
G01X8385Y33937D03*
G04 Draw part power*
G54D33*
G01X43996Y9153D03*
G01X42996Y9153D03*
G01X41996Y9153D03*
G01X40996Y9153D03*
G04 Draw part confsel*
G54D34*
G01X24901Y20275D03*
G01X24901Y21275D03*
G04 Draw part cfgres1*
G04 Draw part cfgres2*
G04 Draw part jp5*
G01X38385Y34566D03*
G01X38385Y35566D03*
G04 Draw part cfgres*
G54D20*
G01X41437Y29035D03*
G01X41437Y28366D03*
G04 Draw part picdec*
G04 Draw part serdec*
G04 Draw part picdec2*
G04 Draw part oscdec3*
G04 Draw part icdec1*
G54D21*
G01X42322Y14960D03*
G01X42992Y14960D03*
G04 Draw part memdec*
G01X34055Y30708D03*
G01X34724Y30708D03*
G04 Draw part memdec2*
G01X33759Y22047D03*
G01X34429Y22047D03*
G04 Draw part fpgacap1*
G04 Draw part fpgacap2*
G04 Draw part fpgacap3*
G04 Draw part fpgacap4*
G04 Draw part fpgacap5*
G04 Draw part fpgacap6*
G04 Draw part fpgacap7*
G04 Draw part fpgacap8*
G04 Draw part fpgacap9*
G04 Draw part fpgacap10*
G04 Draw part fpgacap11*
G04 Draw part fpgacap12*
G04 Draw part fpgacap13*
G04 Draw part fpgacap14*
G04 Draw part fpgacap15*
G04 Draw part fpgacap16*
G04 Draw part fpgacap17*
G04 Draw part fpgacap18*
G04 Draw part fpgacap19*
G04 Draw part fpgacap20*
G04 Draw part fpgacap21*
G04 Draw part fpgacap22*
G04 Draw part fpgacap23*
G04 Draw part fpgacap24*
G04 Draw part fpgacap25*
G04 Draw part fpgacap26*
G04 Draw part fpgacap27*
G04 Draw part fpgacap28*
G04 Draw part jtagcon*
G54D27*
G01X12204Y21062D03*
G01X12204Y20062D03*
G01X12204Y19062D03*
G01X12204Y18062D03*
G01X12204Y17062D03*
G01X12204Y16062D03*
G04 Draw part hole1*
G54D35*
G01X31496Y39763D03*
G04 Draw part ps2dec1*
G04 Draw part ps2dec2*
G04 Draw part ps2dec4*
G04 Draw part ps2dec5*
G04 Draw part wr_pullup*
G04 Draw part selres*
G54D31*
G01X12401Y42913D03*
G01X12401Y42165D03*
G04 Draw part vidram*
G54D36*
G01X37637Y29094D03*
G54D37*
G01X37322Y29094D03*
G01X37007Y29094D03*
G01X36692Y29094D03*
G01X36377Y29094D03*
G01X36062Y29094D03*
G01X35748Y29094D03*
G01X35433Y29094D03*
G01X35118Y29094D03*
G01X34803Y29094D03*
G01X34488Y29094D03*
G01X34173Y29094D03*
G01X33858Y29094D03*
G01X33543Y29094D03*
G01X33228Y29094D03*
G01X32913Y29094D03*
G01X32598Y29094D03*
G01X32283Y29094D03*
G01X31968Y29094D03*
G01X31653Y29094D03*
G01X31338Y29094D03*
G01X31023Y29094D03*
G01X31023Y24448D03*
G01X31338Y24448D03*
G01X31653Y24448D03*
G01X31968Y24448D03*
G01X32283Y24448D03*
G01X32598Y24448D03*
G01X32913Y24448D03*
G01X33228Y24448D03*
G01X33543Y24448D03*
G01X33858Y24448D03*
G01X34173Y24448D03*
G01X34488Y24448D03*
G01X34803Y24448D03*
G01X35118Y24448D03*
G01X35433Y24448D03*
G01X35748Y24448D03*
G01X36062Y24448D03*
G01X36377Y24448D03*
G01X36692Y24448D03*
G01X37007Y24448D03*
G01X37322Y24448D03*
G01X37637Y24448D03*
G04 Draw part SDCMMC*
G54D38*
G01X7007Y20905D03*
G01X7007Y21889D03*
G01X7007Y22913D03*
G01X7007Y23897D03*
G01X7007Y19921D03*
G01X7007Y18897D03*
G01X7007Y17952D03*
G01X7007Y24527D03*
G01X7007Y25236D03*
G01X7007Y25905D03*
G01X7007Y17007D03*
G01X7007Y16299D03*
G01X7007Y15748D03*
G54D39*
G01X669Y27165D03*
G01X669Y14724D03*
G54D40*
G01X5826Y25905D03*
G01X5826Y15984D03*
G04 Draw part scpowres*
G04 Draw part sdpowtr*
G04 Draw part sdpowres2*
G04 Draw part sdcdin_pd*
G04 Draw part sdcdinres*
G54D21*
G01X8267Y26023D03*
G01X8937Y26023D03*
G04 Draw part sdc_led_trres*
G04 Draw part dscledres2*
G04 Draw part dscledtr*
G04 Draw part scddecoup*
G04 Draw part jack*
G54D41*
G01X5590Y3976D03*
G54D42*
G01X3031Y3976D03*
G54D22*
G01X4606Y2007D03*
G04 Draw part powerswitch*
G54D24*
G01X8881Y1771D03*
G01X9881Y1771D03*
G01X10881Y1771D03*
G04 Draw part diode1*
G54D34*
G01X8700Y4212D03*
G01X7700Y4212D03*
G04 Draw part diode2*
G01X8700Y5472D03*
G01X7700Y5472D03*
G04 Draw part powcap*
G54D43*
G01X10866Y5389D03*
G01X10866Y4409D03*
G04 Draw part vregukm*
G54D30*
G01X4763Y10511D03*
G01X4763Y10011D03*
G01X4763Y9511D03*
G01X4763Y9011D03*
G01X6732Y9011D03*
G01X6732Y9511D03*
G01X6732Y10011D03*
G01X6732Y10511D03*
G04 Draw part regcap1*
G54D43*
G01X1815Y10748D03*
G01X2795Y10748D03*
G04 Draw part regcap2*
G01X4020Y12519D03*
G01X5000Y12519D03*
G04 Draw part regcap4*
G01X6373Y7362D03*
G01X5393Y7362D03*
G04 Draw part vreg3*
G04 Draw part vreg4*
G04 Draw part vreg5*
G04 Draw part vreg6*
G01X13149Y11137D03*
G01X13149Y10157D03*
G04 Draw part srdecoup20*
G01X16535Y831D03*
G01X16535Y1811D03*
G04 Draw part srdecoup21*
G01X13464Y6972D03*
G01X13464Y7952D03*
G04 Draw part cpudec*
G54D20*
G01X38740Y9094D03*
G01X38740Y9763D03*
G04 Draw part jumperblock*
G54D34*
G01X13307Y40551D03*
G01X13307Y39551D03*
G01X13307Y38551D03*
G01X13307Y37551D03*
G01X13307Y36551D03*
G54D44*
G01X12307Y40551D03*
G01X12307Y39551D03*
G01X12307Y38551D03*
G01X12307Y37551D03*
G01X12307Y36551D03*
G04 Draw part mounthole3*
G54D35*
G01X43307Y984D03*
G04 Draw part mounthole5*
G01X1574Y984D03*
G04 Draw part mounthole6*
G01X17322Y37401D03*
G04 Draw part ledres34*
G54D21*
G01X38346Y21535D03*
G01X39015Y21535D03*
G04 Draw part led100*
G01X36692Y23661D03*
G01X37362Y23661D03*
G04 Draw part led101*
G01X36692Y22834D03*
G01X37362Y22834D03*
G04 Draw part 5vreg*
G54D30*
G01X1377Y9015D03*
G01X1377Y8515D03*
G01X1377Y8015D03*
G01X1377Y7515D03*
G01X3346Y7515D03*
G01X3346Y8015D03*
G01X3346Y8515D03*
G01X3346Y9015D03*
G04 Draw part led400*
G54D21*
G01X6023Y13740D03*
G01X6692Y13740D03*
G04 Draw part dinpd*
G04 Draw part cpowpd*
G04 Draw part sysram*
G54D15*
G01X19881Y6377D03*
G01X20381Y6377D03*
G01X20881Y6377D03*
G01X21381Y6377D03*
G01X21881Y6377D03*
G01X22381Y6377D03*
G01X22881Y6377D03*
G01X23381Y6377D03*
G01X23881Y6377D03*
G01X24381Y6377D03*
G01X24881Y6377D03*
G01X25381Y6377D03*
G01X25881Y6377D03*
G01X26381Y6377D03*
G01X26881Y6377D03*
G01X27381Y6377D03*
G01X27381Y10877D03*
G01X26881Y10877D03*
G01X26381Y10877D03*
G01X25881Y10877D03*
G01X25381Y10877D03*
G01X24881Y10877D03*
G01X24381Y10877D03*
G01X23881Y10877D03*
G01X23381Y10877D03*
G01X22881Y10877D03*
G01X22381Y10877D03*
G01X21881Y10877D03*
G01X21381Y10877D03*
G01X20881Y10877D03*
G01X20381Y10877D03*
G01X19881Y10877D03*
G04 Draw part smdcap*
G54D21*
G01X18740Y11811D03*
G01X19409Y11811D03*
G04 Draw part spare_pin*
G54D17*
G01X13464Y18779D03*

G04 Draw traces*

G04 Draw Text*
G54D45*

G04 Draw solder mask cutouts*
M00*
M02*
