G04 FreePCB version 1.359*
G04 D:\My_Own_Files\Coding\Z80_Project\V6Z80P Other Files\Daughterboard\FreePCB Project\single_layer\for_rev1.1\CAM\top_silk.grb*
G04 top silk layer *
G04 Scale: 100 percent, Rotated: No, Reflected: No *
%FSLAX24Y24*%
%MOIN*%
%LN top silk *%
G04 Rounded Rectangle Macro, params: W/2, H/2, R *
%AMRNDREC*
21,1,$1+$1,$2+$2-$3-$3,0,0,0*
21,1,$1+$1-$3-$3,$2+$2,0,0,0*
1,1,$3+$3,$1-$3,$2-$3*
1,1,$3+$3,$3-$1,$2-$3*
1,1,$3+$3,$1-$3,$3-$2*
1,1,$3+$3,$3-$1,$3-$2*%
G04 Rectangular Thermal Macro, params: W/2, H/2, T/2 *
%AMRECTHERM*
$4=$3/2*
21,1,$1-$3,$2-$3,0-$1/2-$4,0-$2/2-$4,0*
21,1,$1-$3,$2-$3,0-$1/2-$4,$2/2+$4,0*
21,1,$1-$3,$2-$3,$1/2+$4,0-$2/2-$4,0*
21,1,$1-$3,$2-$3,$1/2+$4,$2/2+$4,0*%
%ADD10C,0.007874*%
%ADD11C,0.010000*%
G90*
G70D02*

G04 Step and Repeat for panelization *

G04 ----------------------- Draw board outline (positive)*
%LPD*%
G54D10*
G01X9448Y13976D02*
G01X9448Y0D01*
G04 end of side 1*
G01X0Y0D01*
G04 end of side 2*
G01X0Y13976D01*
G04 end of side 3*
G01X9448Y13976D01*

G04 -------------- Draw Parts, Pads, Traces, Vias and Text (positive)*
%LPD*%
G04 Draw part dbc1*
G04 draw part outline for part dbc1*
G54D11*
G01X6681Y7525D02*
G01X6681Y1625D01*
G01X6681Y1625D02*
G01X5681Y1625D01*
G01X5681Y1625D02*
G01X5681Y7525D01*
G01X5681Y7525D02*
G01X6681Y7525D01*
G04 Draw part dbc2*
G04 draw part outline for part dbc2*
G01X3799Y13374D02*
G01X799Y13374D01*
G01X799Y13374D02*
G01X799Y12374D01*
G01X799Y12374D02*
G01X3799Y12374D01*
G01X3799Y12374D02*
G01X3799Y13374D01*
G04 Draw part dbc3*
G04 draw part outline for part dbc3*
G54D10*
G01X6456Y12401D02*
G01X6456Y8889D01*
G01X6456Y8889D02*
G01X7362Y8889D01*
G01X7362Y8889D02*
G01X7362Y12401D01*
G01X7362Y12401D02*
G01X6456Y12401D01*
G01X6653Y12401D02*
G01X6653Y12204D01*
G01X6653Y12204D02*
G01X7165Y12204D01*
G01X7165Y12204D02*
G01X7165Y12401D01*
G01X7165Y12401D02*
G01X6653Y12401D01*
G04 Draw part dbc4*
G04 draw part outline for part dbc4*
G01X4724Y6417D02*
G01X1212Y6417D01*
G01X1212Y6417D02*
G01X1212Y5511D01*
G01X1212Y5511D02*
G01X4724Y5511D01*
G01X4724Y5511D02*
G01X4724Y6417D01*
G01X4724Y6220D02*
G01X4527Y6220D01*
G01X4527Y6220D02*
G01X4527Y5708D01*
G01X4527Y5708D02*
G01X4724Y5708D01*
G01X4724Y5708D02*
G01X4724Y6220D01*
G04 Draw part dbc5*
G04 draw part outline for part dbc5*
G54D11*
G01X8492Y6699D02*
G01X8492Y799D01*
G01X8492Y799D02*
G01X7492Y799D01*
G01X7492Y799D02*
G01X7492Y6699D01*
G01X7492Y6699D02*
G01X8492Y6699D01*
G04 Draw part dbc6*
G04 draw part outline for part dbc6*
G01X3807Y1972D02*
G01X807Y1972D01*
G01X807Y1972D02*
G01X807Y2972D01*
G01X807Y2972D02*
G01X3807Y2972D01*
G01X3807Y2972D02*
G01X3807Y1972D01*
G04 Draw part dbc7*
G04 draw part outline for part dbc7*
G01X3893Y11248D02*
G01X3893Y8248D01*
G01X3893Y8248D02*
G01X2893Y8248D01*
G01X2893Y8248D02*
G01X2893Y11248D01*
G01X2893Y11248D02*
G01X3893Y11248D01*
G04 Draw part dbc8*
G04 draw part outline for part dbc8*
G54D10*
G01X4921Y9665D02*
G01X4921Y8326D01*
G01X4921Y8326D02*
G01X4212Y8326D01*
G01X4212Y8326D02*
G01X4212Y9665D01*
G01X4212Y9665D02*
G01X4921Y9665D01*
G04 Draw part dbc9*
G04 draw part outline for part dbc9*
G01X7657Y13188D02*
G01X8996Y13188D01*
G01X8996Y13188D02*
G01X8996Y12480D01*
G01X8996Y12480D02*
G01X7657Y12480D01*
G01X7657Y12480D02*
G01X7657Y13188D01*
G04 Draw part dbc10*
G04 draw part outline for part dbc10*
G01X2598Y11240D02*
G01X2598Y9901D01*
G01X2598Y9901D02*
G01X1889Y9901D01*
G01X1889Y9901D02*
G01X1889Y11240D01*
G01X1889Y11240D02*
G01X2598Y11240D01*
G04 Draw part dbc11*
G04 draw part outline for part dbc11*
G01X3759Y3267D02*
G01X2421Y3267D01*
G01X2421Y3267D02*
G01X2421Y3976D01*
G01X2421Y3976D02*
G01X3759Y3976D01*
G01X3759Y3976D02*
G01X3759Y3267D01*
G04 Draw part dbc12*
G04 draw part outline for part dbc12*
G01X4921Y11240D02*
G01X4921Y9901D01*
G01X4921Y9901D02*
G01X4212Y9901D01*
G01X4212Y9901D02*
G01X4212Y11240D01*
G01X4212Y11240D02*
G01X4921Y11240D01*
G04 Draw part dbc13*
G04 draw part outline for part dbc13*
G01X2598Y9665D02*
G01X2598Y8326D01*
G01X2598Y8326D02*
G01X1889Y8326D01*
G01X1889Y8326D02*
G01X1889Y9665D01*
G01X1889Y9665D02*
G01X2598Y9665D01*
G04 Draw part dbc14*
G04 draw part outline for part dbc14*
G01X4035Y11417D02*
G01X2696Y11417D01*
G01X2696Y11417D02*
G01X2696Y12125D01*
G01X2696Y12125D02*
G01X4035Y12125D01*
G01X4035Y12125D02*
G01X4035Y11417D01*
G04 Draw part dbc15*
G04 draw part outline for part dbc15*
G01X4055Y1043D02*
G01X4055Y2381D01*
G01X4055Y2381D02*
G01X4763Y2381D01*
G01X4763Y2381D02*
G01X4763Y1043D01*
G01X4763Y1043D02*
G01X4055Y1043D01*
G04 Draw part dbc16*
G04 draw part outline for part dbc16*
G01X846Y3976D02*
G01X2185Y3976D01*
G01X2185Y3976D02*
G01X2185Y3267D01*
G01X2185Y3267D02*
G01X846Y3267D01*
G01X846Y3267D02*
G01X846Y3976D01*
G04 Draw part dbc17*
G04 draw part outline for part dbc17*
G01X4055Y2657D02*
G01X4055Y3996D01*
G01X4055Y3996D02*
G01X4763Y3996D01*
G01X4763Y3996D02*
G01X4763Y2657D01*
G01X4763Y2657D02*
G01X4055Y2657D01*
G04 Draw part powled44*
G04 draw part outline for part powled44*
G01X8523Y6968D02*
G01X7185Y6968D01*
G01X7185Y6968D02*
G01X7185Y7677D01*
G01X7185Y7677D02*
G01X8523Y7677D01*
G01X8523Y7677D02*
G01X8523Y6968D01*
G04 Draw part powled45*
G04 draw part outline for part powled45*
G01X7185Y8622D02*
G01X8523Y8622D01*
G01X8523Y8622D02*
G01X8523Y7913D01*
G01X8523Y7913D02*
G01X7185Y7913D01*
G01X7185Y7913D02*
G01X7185Y8622D01*
G04 Draw part cap77*
G04 draw part outline for part cap77*
G01X2145Y1023D02*
G01X807Y1023D01*
G01X807Y1023D02*
G01X807Y1732D01*
G01X807Y1732D02*
G01X2145Y1732D01*
G01X2145Y1732D02*
G01X2145Y1023D01*
G04 Draw part cap78*
G04 draw part outline for part cap78*
G01X2381Y1732D02*
G01X3720Y1732D01*
G01X3720Y1732D02*
G01X3720Y1023D01*
G01X3720Y1023D02*
G01X2381Y1023D01*
G01X2381Y1023D02*
G01X2381Y1732D01*

G04 Draw traces*

G04 Draw Text*
G01X608Y8228D02*
G01X984Y8228D01*
G01X608Y8228D02*
G01X608Y8389D01*
G01X608Y8389D02*
G01X626Y8443D01*
G01X626Y8443D02*
G01X644Y8460D01*
G01X644Y8460D02*
G01X680Y8478D01*
G01X680Y8478D02*
G01X733Y8478D01*
G01X733Y8478D02*
G01X769Y8460D01*
G01X769Y8460D02*
G01X787Y8443D01*
G01X787Y8443D02*
G01X805Y8389D01*
G01X805Y8389D02*
G01X805Y8228D01*
G01X841Y8622D02*
G01X841Y8836D01*
G01X841Y8836D02*
G01X805Y8836D01*
G01X805Y8836D02*
G01X769Y8818D01*
G01X769Y8818D02*
G01X751Y8801D01*
G01X751Y8801D02*
G01X733Y8765D01*
G01X733Y8765D02*
G01X733Y8711D01*
G01X733Y8711D02*
G01X751Y8675D01*
G01X751Y8675D02*
G01X787Y8639D01*
G01X787Y8639D02*
G01X841Y8622D01*
G01X841Y8622D02*
G01X876Y8622D01*
G01X876Y8622D02*
G01X930Y8639D01*
G01X930Y8639D02*
G01X966Y8675D01*
G01X966Y8675D02*
G01X984Y8711D01*
G01X984Y8711D02*
G01X984Y8765D01*
G01X984Y8765D02*
G01X966Y8801D01*
G01X966Y8801D02*
G01X930Y8836D01*
G01X733Y8979D02*
G01X984Y8979D01*
G01X805Y8979D02*
G01X751Y9033D01*
G01X751Y9033D02*
G01X733Y9069D01*
G01X733Y9069D02*
G01X733Y9123D01*
G01X733Y9123D02*
G01X751Y9158D01*
G01X751Y9158D02*
G01X805Y9176D01*
G01X805Y9176D02*
G01X984Y9176D01*
G01X608Y9534D02*
G01X984Y9534D01*
G01X787Y9534D02*
G01X751Y9498D01*
G01X751Y9498D02*
G01X733Y9463D01*
G01X733Y9463D02*
G01X733Y9409D01*
G01X733Y9409D02*
G01X751Y9373D01*
G01X751Y9373D02*
G01X787Y9337D01*
G01X787Y9337D02*
G01X841Y9319D01*
G01X841Y9319D02*
G01X876Y9319D01*
G01X876Y9319D02*
G01X930Y9337D01*
G01X930Y9337D02*
G01X966Y9373D01*
G01X966Y9373D02*
G01X984Y9409D01*
G01X984Y9409D02*
G01X984Y9463D01*
G01X984Y9463D02*
G01X966Y9498D01*
G01X966Y9498D02*
G01X930Y9534D01*
G01X733Y9677D02*
G01X912Y9677D01*
G01X912Y9677D02*
G01X966Y9695D01*
G01X966Y9695D02*
G01X984Y9731D01*
G01X984Y9731D02*
G01X984Y9785D01*
G01X984Y9785D02*
G01X966Y9821D01*
G01X966Y9821D02*
G01X912Y9874D01*
G01X733Y9874D02*
G01X984Y9874D01*
G01X608Y10017D02*
G01X984Y10017D01*
G01X733Y10161D02*
G01X912Y10161D01*
G01X912Y10161D02*
G01X966Y10178D01*
G01X966Y10178D02*
G01X984Y10214D01*
G01X984Y10214D02*
G01X984Y10268D01*
G01X984Y10268D02*
G01X966Y10304D01*
G01X966Y10304D02*
G01X912Y10357D01*
G01X733Y10357D02*
G01X984Y10357D01*
G01X733Y10501D02*
G01X984Y10501D01*
G01X805Y10501D02*
G01X751Y10554D01*
G01X751Y10554D02*
G01X733Y10590D01*
G01X733Y10590D02*
G01X733Y10644D01*
G01X733Y10644D02*
G01X751Y10680D01*
G01X751Y10680D02*
G01X805Y10697D01*
G01X805Y10697D02*
G01X984Y10697D01*
G01X805Y10697D02*
G01X751Y10751D01*
G01X751Y10751D02*
G01X733Y10787D01*
G01X733Y10787D02*
G01X733Y10841D01*
G01X733Y10841D02*
G01X751Y10876D01*
G01X751Y10876D02*
G01X805Y10894D01*
G01X805Y10894D02*
G01X984Y10894D01*
G01X680Y11324D02*
G01X662Y11360D01*
G01X662Y11360D02*
G01X608Y11413D01*
G01X608Y11413D02*
G01X984Y11413D01*
G01X948Y11574D02*
G01X966Y11556D01*
G01X966Y11556D02*
G01X984Y11574D01*
G01X984Y11574D02*
G01X966Y11592D01*
G01X966Y11592D02*
G01X948Y11574D01*
G01X680Y11735D02*
G01X662Y11771D01*
G01X662Y11771D02*
G01X608Y11825D01*
G01X608Y11825D02*
G01X984Y11825D01*
M00*
M02*
